<?xml version="1.0" encoding="utf-8"?>
<!-- Generator: Adobe Illustrator 22.1.0, SVG Export Plug-In . SVG Version: 6.00 Build 0)  -->
<svg version="1.1" xmlns="http://www.w3.org/2000/svg" xmlns:xlink="http://www.w3.org/1999/xlink" x="0px" y="0px"
	 viewBox="0 0 1001.7 996.6" style="enable-background:new 0 0 1001.7 996.6;" xml:space="preserve">
<style type="text/css">
	.st0{fill:#EEEDEE;}
	.st1{opacity:0.42;fill:#BDD3DE;}
	.st2{fill:url(#SVGID_1_);}
	.st3{opacity:0.32;fill:#0B224C;}
	.st4{fill:#87AEB4;}
	.st5{fill:#C5545A;}
	.st6{opacity:0.4;fill:#336859;}
	.st7{opacity:0.31;fill:url(#SVGID_2_);}
	.st8{opacity:0.17;fill:url(#SVGID_3_);}
	.st9{opacity:0.11;fill:url(#SVGID_4_);}
	.st10{fill:#0D2A28;}
	.st11{fill:#E6E3F4;}
	.st12{opacity:0.31;fill:url(#SVGID_5_);}
	.st13{opacity:0.31;fill:url(#SVGID_6_);}
	.st14{opacity:0.14;fill:url(#SVGID_7_);}
	.st15{opacity:0.14;fill:url(#SVGID_8_);}
	.st16{opacity:0.22;fill:#0B224C;}
	.st17{opacity:0.17;fill:url(#SVGID_9_);}
	.st18{fill:#191535;}
	.st19{fill:#271C41;}
	.st20{opacity:0.87;fill:url(#SVGID_10_);}
	.st21{opacity:0.14;fill:#0B224C;}
	.st22{opacity:0.11;fill:url(#SVGID_11_);}
	.st23{opacity:0.19;fill:url(#SVGID_12_);}
	.st24{opacity:0.11;fill:url(#SVGID_13_);}
	.st25{opacity:0.11;fill:url(#SVGID_14_);}
	.st26{opacity:0.5;fill:#FC860A;}
	.st27{opacity:0.1;fill:url(#SVGID_15_);}
	.st28{opacity:0.11;fill:url(#SVGID_16_);}
	.st29{fill:#FFFFFF;}
	.st30{opacity:0.17;fill:url(#SVGID_17_);}
	.st31{fill:#DF7D56;}
	.st32{opacity:0.11;fill:#0B224C;}
	.st33{fill:url(#SVGID_18_);}
	.st34{opacity:0.35;fill:#0B224C;}
	.st35{fill:url(#SVGID_19_);}
	.st36{fill:url(#SVGID_20_);}
	.st37{fill:url(#SVGID_21_);}
	.st38{fill:#AF4544;}
	.st39{fill:url(#SVGID_22_);}
	.st40{fill:url(#SVGID_23_);}
	.st41{fill:url(#hair_3_);}
	.st42{fill:url(#SVGID_24_);}
	.st43{fill:#336859;}
	.st44{fill:none;}
	.st45{opacity:0.31;fill:url(#SVGID_25_);}
	.st46{opacity:0.31;fill:url(#SVGID_26_);}
	.st47{opacity:0.16;fill:url(#SVGID_27_);}
	.st48{opacity:0.16;fill:url(#SVGID_28_);}
	.st49{fill:#19233D;}
	.st50{opacity:0.3;fill:url(#SVGID_29_);}
	.st51{opacity:0.13;fill:url(#SVGID_30_);}
	.st52{opacity:0.17;fill:url(#SVGID_31_);}
	.st53{fill:url(#SVGID_32_);}
	.st54{fill:url(#SVGID_33_);}
	.st55{opacity:0.17;fill:url(#SVGID_34_);}
	.st56{opacity:0.17;fill:url(#SVGID_35_);}
	.st57{opacity:0.13;fill:url(#SVGID_36_);}
	.st58{opacity:0.28;fill:url(#SVGID_37_);}
	.st59{opacity:0.5;fill:#153E5C;}
	.st60{fill:url(#window_1_);}
	.st61{opacity:0.62;fill:#19233D;}
	.st62{opacity:0.22;fill:#FFFFFF;}
</style>
<g id="background">
	<g id="general">
		<path id="figure1" class="st0" d="M982.4,462.1c-0.8,6.6-1.6,13.1-2.6,19.5c-0.1,1-0.3,1.9-0.4,2.8c-0.2,1.6-0.5,3.1-0.7,4.7
			c-2.2,14.3-4.8,28.1-7.6,41.3c-0.2,1.2-0.5,2.3-0.7,3.5c-11.3,51.8-26.7,94.5-41.7,122.1c-0.6,1.1-1.2,2.1-1.8,3.2
			c-11.8,20.9-23.1,32.3-31.8,31.4c-16.5-1.7-12.1-46.5-28.3-104.4c-0.3-1-0.5-1.9-0.8-2.9c-8.5-29.5-22.5-62.2-47.2-94.2
			c0,0,0,0,0-0.1c-0.1-0.1-0.2-0.3-0.3-0.4c-0.1-0.1-0.2-0.3-0.4-0.5s-0.3-0.3-0.4-0.5c-0.3-0.4-0.6-0.7-0.9-1.2
			c-0.9-1.1-2-2.5-3.4-4.1c-0.4-0.4-0.7-0.9-1.1-1.4c-0.5-0.5-0.9-1.1-1.4-1.7c-0.5-0.6-1-1.2-1.6-1.8c-0.4-0.5-0.9-1-1.4-1.6
			c-3.5-4-7.8-8.7-12.9-13.8c-16.7-16.9-41.3-38.6-72.4-56.4c-9.1-5.2-18.7-10.1-28.8-14.4c-18.5-7.9-38.7-14-60.4-17
			c-6.2-0.9-12.2-1.4-18.1-1.7c-4.4-0.2-8.7-0.3-12.9-0.3c-1.6,0-3.2,0-4.8,0.1c-0.8,0-1.6,0.1-2.4,0.1c-0.8,0-1.6,0.1-2.4,0.1
			c-1.3,0.1-2.6,0.2-3.9,0.3c-0.2,0-0.5,0-0.7,0.1c-0.9,0.1-1.7,0.1-2.5,0.2c-0.1,0-0.1,0-0.2,0c-8.1,0.8-16,2.1-23.7,3.8
			c-5.2,1.2-10.4,2.5-15.4,4.1c-51.2,15.7-93.7,49.7-136.7,81c-0.3,0.2-0.6,0.5-0.9,0.7c-9.9,7.2-19.8,14.2-29.9,20.8
			c-1.2,0.8-2.4,1.6-3.7,2.4c-1.6,1.1-3.2,2.1-4.9,3.1c-19.6,12.3-39.9,22.8-61.6,29.5c-0.9,0.3-1.8,0.6-2.8,0.9
			c-23.2,6.9-48.1,9.4-75.6,5.5c-21.1-3-41.2-9.6-59.9-18.7c-0.9-0.4-1.7-0.8-2.6-1.3c-0.9-0.5-1.8-0.9-2.7-1.4
			c-3.2-1.7-6.1-3.3-8.7-4.8c-1.3-0.7-2.5-1.5-3.8-2.2c-3.7-2.2-7.2-4.5-10.8-6.9c-0.1-0.1-0.3-0.2-0.4-0.2
			c-0.2-0.1-0.3-0.2-0.4-0.3c-11.9-8.1-23-17.2-33.5-27c-34.5-32.4-60.9-72.8-76.8-111.4c-10-24.1-17.7-51.9-21.8-81
			c0-0.2,0-0.3-0.1-0.5c0,0,0-0.1,0-0.3c0-0.1,0-0.2,0-0.3c-0.1-0.4-0.1-1.1-0.2-1.9c-0.1-0.5-0.1-1.1-0.2-1.8
			c-0.1-0.6-0.1-1.3-0.2-2C7,254.4,6.3,245.8,6,237c-0.1-1.1-0.1-2.2-0.1-3.3c0-0.5,0-1-0.1-1.6c0-0.6,0-1.3,0-1.9
			c0-0.9,0-1.8,0-2.7c0-1.5,0-3,0-4.5c0-0.8,0-1.7,0-2.5c0.2-12.5,1.1-25,3-37.4c0-0.3,0.1-0.6,0.2-1c0,0,0,0,0-0.1
			c5.4-34.5,17.8-67.5,39.8-95c1.2-1.5,3.9-4.7,7.9-8.7c3.8-3.8,8.7-8.5,14.5-13.1C147.3,4,258,35.6,401.5,58.2
			c42.1,6.6,87.1,12.5,134.8,15c1.3,0.1,2.6,0.1,3.9,0.2c167.6,8.1,255.4-30.9,319.2-18.7c9,1.7,17.4,4.4,25.6,8.5
			c9.7,4.8,19,11.4,28.1,20.2c41.8,40.8,55.3,105.5,65.3,172.1c0,0.3,0.1,0.6,0.1,1c0.1,0.4,0.3,2.1,0.7,4.6
			c0.1,0.5,0.2,1.1,0.2,1.6c0.1,0.6,0.2,1.2,0.3,1.8c0.1,0.8,0.2,1.8,0.4,2.7c0.1,0.5,0.1,1,0.2,1.5c0.2,1.2,0.4,2.6,0.6,4
			c1.5,10.4,2.7,20.8,3.7,31.2C989.9,359.1,988.3,413,982.4,462.1z"/>
		<path id="bushes_back" class="st1" d="M70.8,481.1c-5.4-6.5-10.2-12.9-14.5-19c-21.1-29.9-30.8-52.8-42-50c-3.9,1-11.7,6-13.8,50
			C0.2,468.2,0,475,0,482.6c0,2.1,0,4.2,0,6.5c0.4,0,0.9,0.1,1.3,0.1c7.9,0.6,12.6,0.4,27.8,0.1c1,0,2.1,0,3.3,0
			c2.7,0,5.6-0.1,8.9-0.1c15.4-0.1,27.9-0.1,36,0c0.1,0,0.2,0,0.3-0.1C75.2,486.4,73,483.8,70.8,481.1z M984.6,303.8
			c-1-10.3-2.2-20.8-3.7-31.2c-0.2-1.4-0.4-2.7-0.6-4c-0.1-0.5-0.1-1-0.2-1.5c-0.1-1-0.3-1.9-0.4-2.7c-0.1-0.6-0.2-1.2-0.3-1.8
			c-0.1-0.6-0.2-1.1-0.2-1.6c-0.4-2.5-0.6-4.2-0.7-4.6c0-0.3-0.1-0.6-0.1-1c-10-66.7-23.6-131.3-65.3-172.1
			c-9.1-8.9-18.4-15.5-28.1-20.2c-8.2-4-16.6-6.7-25.6-8.5c-5.2,5.1-9.8,11.2-13.1,18.5c-11.6,26.1,5,42.7-3,73
			c-11.7,44.2-64.2,73-77,64c-9.3-6.5,5.5-30.3-8-45c-9.4-10.3-29.8-13-44-6c-36.8,18.1-25.9,97.7-42,99c-6.3,0.5-14.2-11.1-16-21
			c-2.7-14.3,7.8-22.1,4-33c-1.6-4.7-6.3-11.1-21.2-15.8c-0.2,0-0.5-0.1-0.8-0.2c-27-6.9-45.9,13.2-53,8c-10-7.4,22.7-51.1,7-83
			c-1.8-3.7-5.8-11.7-14-15c-11.7-4.7-20.4,4.8-29,1c-7.9-3.5-7.5-14.7-9.1-25.8c-1.3-0.1-2.6-0.1-3.9-0.2
			c-47.8-2.5-92.7-8.4-134.8-15c-32.7,39.9,3.9,108.7-41.2,148c-28,24.4-73.5,25.4-82,12c-10.7-17,39.9-51,28-77
			c-9.3-20.4-51.9-29.4-80-16c-22.5,10.7-22.7,29.4-41,32c-22.9,3.2-31.3-24.8-58-26c-30.7-1.4-44.8,34.3-60,29
			c-16-5.6-7.8-48.2-10.8-81.7c-4,4-6.7,7.2-7.9,8.7c-21.9,27.5-34.4,60.5-39.8,95c0,0,0,0,0,0.1c0,0.3-0.1,0.6-0.2,1
			c0.1,0,0.2,0,0.2,0c0,0,0,0,0,0C7,195.5,6,208,5.7,220.6c0,0.8,0,1.7,0,2.5c0,1.5,0,3,0,4.5c0,0.9,0,1.8,0,2.7c0,0.6,0,1.3,0,1.9
			c0,0.5,0,1,0.1,1.6c0.4,13,1.7,25.1,2.5,31.3c0.1,0.7,0.2,1.3,0.2,1.8c0.1,0.8,0.2,1.5,0.2,1.9c0,0.1,0,0.2,0,0.3
			c0,0.2,0,0.3,0,0.3c0.1,0.5,0.1,0.9,0.2,1.4c0.1,0.6,0.2,1.2,0.3,1.9c0.1,0.8,0.2,1.5,0.3,2.2c0.1,0.6,0.2,1.2,0.3,1.9
			c0.5,3,1,6,1.6,9c0.2,0.9,0.3,1.8,0.5,2.7c0.1,0.6,0.2,1.2,0.4,1.8c0.3,1.3,0.5,2.6,0.8,4c0.4,1.8,0.8,3.5,1.2,5.3
			c0.3,1.1,0.5,2.3,0.8,3.4c0.5,2.2,1.1,4.5,1.7,6.7c2.3,8.6,4.8,17,7.7,25.1c0.5,1.6,1.1,3.1,1.7,4.7c1.5,4,3,7.8,4.5,11.6
			c16,38.5,42.4,79,76.8,111.4c10.5,9.8,21.7,18.9,33.5,27h32.1c-2.3,5.1-4.1,10.4-5.3,15.8c0.9,0.4,1.7,0.9,2.6,1.3
			c1.3-5.8,3.2-11.5,6-17.1h136.7c-4.4,9.6-6.7,19.9-7.2,30.4c0.9-0.3,1.9-0.6,2.8-0.9c0.7-10.1,3-20,7.7-29.5h53.9
			c1.6-1,3.2-2,4.9-3.1c1.2-0.8,2.5-1.6,3.7-2.4c10.1-6.6,20-13.6,29.9-20.8c0.2-0.2,0.5-0.7,0.9-0.7c42.9-31.2,85.5-65.2,136.7-81
			c5-1.5,10.2-2.9,15.4-4.1c0.2-2,8.1-2.3,23.7-3.8c0.1,0,0.1,0,0.2,0c0.8-0.1,1.7-0.2,2.5-0.2c1.5-0.1,3-0.2,4.6-0.3
			c0.8,0,1.6-0.1,2.4-0.1c0.8,0,1.6-0.1,2.4-0.1c1.1,0,2.1-0.1,3.2-0.1c0.5,0,1.1,0,1.6,0c2.4,0,4.8,0,7.2,0c0.3,0,0.7,0,1,0
			c0.7,0,1.4,0,2.1,0.1c0.9,0,1.8,0.1,2.7,0.1c1.2,0.1,2.4,0.1,3.6,0.2c1.1,0.1,2.1,0.2,3.1,0.2c0.2,0,0.3,0,0.5,0
			c2.3,0.2,4.7,0.4,7.1,0.7c0.1,0,0.3,0,0.4,0c1.1,0.1,2.3,0.3,3.5,0.5c21.7,3,41.9,9.1,60.4,17c10.1,4.3,19.8,9.2,28.8,14.4
			c31.1,17.8,55.7,39.5,72.4,56.4c5,5.1,9.3,9.8,12.9,13.8c0.5,0.5,1,1.1,1.4,1.6c0.5,0.6,1.1,1.2,1.6,1.8c0.5,0.6,1,1.2,1.4,1.7
			c0.4,0.5,0.8,0.9,1.1,1.4c1.3,1.6,2.5,3,3.4,4.1c0.3,0.4,0.6,0.8,0.9,1.2c0.2,0.2,0.3,0.4,0.4,0.5s0.3,0.3,0.4,0.5
			c0.1,0.2,0.2,0.3,0.3,0.4c0,0,0,0,0,0.1c21.4,0,42.8,0,64.3,0h3.3c30.6,0,61.3,0,91.9,0c0.4-1.8,1-4.3,1.5-7.3c0-0.1,0-0.1,0-0.2
			c1.4-7.5,1.9-14,2.6-19.5C988.3,413,989.9,359.1,984.6,303.8z M771,488.7c-1.1-1-2.3-1.9-3.4-2.8c-1.2-0.9-2.3-1.8-3.5-2.7
			c-0.8-0.6-1.7-1.3-2.5-1.9c-3.3-2.5-6.6-4.9-10-7.2c-6.4-4.4-12.7-8.4-19-12c-35.1-20.3-65.5-28.1-70.3-29.2
			c-6.6-1.6-13-2.8-19.3-3.7c-8.1-1.2-16-2-23.5-2.4c-6.2-0.3-12.1-0.4-17.9-0.3c-20.8,0.4-38.9,3.4-53.7,6.4c-4.8,1-9.2,2-13.3,2.9
			c-28.8,6.5-53.1,15.7-74.3,26.3c-2.2,1.1-4.4,2.2-6.6,3.4c-0.7,0.4-1.4,0.8-2.1,1.2c-1.4,0.8-2.8,1.5-4.2,2.3
			c-0.9,0.5-1.7,1-2.6,1.5c-1.4,0.8-2.8,1.6-4.2,2.4c-1,0.6-2,1.2-2.9,1.8c-2.3,1.4-4.6,2.8-6.9,4.3c-1.1,0.7-2.2,1.4-3.4,2.2
			c-4,2.6-8,5.3-11.8,8h355.8C771.2,489,771.1,488.9,771,488.7z"/>
		<path id="figure2" class="st0" d="M1001.5,823.7c0,1.1-0.1,2.2-0.1,3.3c-0.6,10.6-1.8,21.4-3.7,32.1c-3.1,17.1-7.9,34.1-14.9,50
			c-6.1,14-13.9,27.3-23.5,39c-11.3,13.8-23.7,23.9-38.8,31.2c-1.1,0.5-2.2,1-3.3,1.5c-28,12.4-65.3,15.9-120.9,15.8
			c-6,0-12.2-0.1-18.7-0.2c-1,0-2,0-3-0.1c-38.2-0.6-84.1-2.5-140.3-4.2c-1,0-2-0.1-3-0.1c-2.8-0.1-5.6-0.2-8.4-0.2h0
			c-24.6-0.7-51.1-1.4-79.7-2c0,0,0,0,0,0c-16.1-0.3-32.9-0.6-50.3-0.8c-1,0-2,0-3,0c-3.1,0-6.3-0.1-9.4-0.1
			c-50.1-0.5-93.6-0.3-131.5,0c-1,0-2,0-3,0c-57.1,0.5-101.5,1.2-137,0.2c-1,0-2-0.1-3-0.1c-42.7-1.3-72.3-5.1-95.7-14.8
			c-14.5-6.1-26.5-14.4-37.8-25.9c-0.8-0.9-1.7-1.8-2.5-2.6c-0.7-0.8-1.4-1.5-2.1-2.3c-10.7-12-18.8-30.3-25.5-56.4
			c-0.3-1-0.5-2-0.8-3.1c-4.4-17.9-8.2-39.4-11.9-64.8c-2.2-15.2-4.3-31.9-6.4-50c-0.2-1.3-0.3-2.5-0.5-3.8c-1.3-11.4-2.6-23.4-4-36
			c-0.3-3.2-0.7-6.4-1-9.6c-0.9-8.8-1.9-17.8-2.8-27.2c0-0.5-0.1-0.9-0.1-1.4c-0.1-0.6-0.1-1.1-0.2-1.7c-0.3-2.6-0.5-5.3-0.8-7.9
			c-1.1-10.5-2.2-21.4-3.3-32.6c-0.3-2.6-0.5-5.2-0.8-7.8c-2.3-23.3-4.1-44.2-5.6-62.9c-0.1-1.1-0.2-2.2-0.2-3.3
			c-1.2-16.6-2.1-31.5-2.8-44.8c-0.7-15.6-1.1-29.2-1.1-40.9V489c0-2.2,0-4.4,0-6.5c0-7.6,0.2-14.4,0.5-20.4c2.1-44,9.9-49,13.8-50
			c11.2-2.8,20.9,20.1,42,50c4.3,6.1,9.1,12.5,14.5,19c2.2,2.6,4.4,5.3,6.8,7.9c0,0,0,0,0,0.1c11.7,13.2,26,26.6,43.7,39
			c1.2,0.9,2.7,1.9,4.3,3c3.9,2.7,8.9,6,14.9,9.7c1.4,0.8,2.8,1.7,4.2,2.5c7.2,4.3,15.7,8.8,25.2,13.1c1.2,0.5,2.4,1.1,3.6,1.6
			c19.2,8.3,42.1,15.3,67.2,16.9c2.6,0.2,5.3,0.3,8,0.3c24.2,0.4,44.4-4.6,62.7-13c1-0.4,1.9-0.9,2.9-1.4c4.2-2,8.4-4.2,12.5-6.6
			c1.3-0.8,2.6-1.5,3.9-2.3c10.1-6.2,20-13.3,29.9-20.8c11.9-9.1,23.9-18.9,36.9-28.8c5.8-4.4,11.8-8.8,18-13.2
			c3.8-2.7,7.8-5.4,11.8-8c1.1-0.7,2.2-1.5,3.4-2.2c2.3-1.4,4.6-2.9,6.9-4.3c1-0.6,1.9-1.2,2.9-1.8c1.4-0.8,2.8-1.6,4.2-2.4
			c0.9-0.5,1.7-1,2.6-1.5c1.4-0.8,2.8-1.6,4.2-2.3c0.7-0.4,1.4-0.8,2.1-1.2c2.2-1.1,4.3-2.3,6.6-3.4c21.2-10.7,45.5-19.9,74.3-26.3
			c4.1-0.9,8.5-1.9,13.3-2.9c14.9-3,33-6,53.7-6.4c5.8-0.1,11.8-0.1,17.9,0.3c7.6,0.4,15.4,1.1,23.5,2.4c6.3,0.9,12.8,2.2,19.3,3.7
			c4.8,1.1,35.2,9,70.3,29.2c6.2,3.6,12.6,7.5,19,12c3.3,2.3,6.6,4.7,10,7.2c0.8,0.6,1.7,1.3,2.5,1.9c2.3,1.8,4.6,3.6,6.9,5.5
			c0.2,0.1,0.3,0.3,0.5,0.4c21.2,17.8,41.5,40.6,56.6,69.7c5.9,11.4,10.5,22.7,14,33.8c0.3,1,0.6,1.9,0.9,2.9
			c1.2,3.9,2.3,7.8,3.3,11.7c4.5,17.9,6.8,34.8,8.5,50c2.1,18.5,3.5,34.6,7.3,47c3.5,11.5,9.1,19.8,19.2,24c5.7,2.4,11.3,2.8,16.8,2
			c2.7-0.4,5.3-1,7.9-1.9c12.6-4.1,24.8-12.9,36.6-17.4c1-0.4,1.9-0.7,2.9-1c6.7-2.1,13.3-2.6,19.8,0.2c0.3,0.1,0.7,0.3,1,0.5
			c1.2,0.6,2.3,1.2,3.4,2c2.8,1.9,5.4,4.3,7.9,7.3c6.3,7.6,11.7,18.5,15.7,31.6c0.3,0.9,0.5,1.8,0.8,2.7
			C999.7,773.8,1002.5,798.1,1001.5,823.7z"/>
		<path id="grid_and_bushes" class="st1" d="M519.3,370.1c-36.9-3.9-57.8,36.6-88,29c-17.1-4.3-22.2-20.2-31-17
			c-14.2,5.2-5.7,48.7-18.1,52.2c-7.4,2.1-10.3-23.4-33.9-22.2c-39,2-48-28-39-77s-43-11-78-14s20-62-8-90c-2.2-2.2-4.5-3.5-6.9-4.1
			c-31.2-8-63.3,65-95.4,58.3c-19.7-4.1-17.2-34.8-43.8-43.2c-21.8-6.8-43.8,7.3-51,12c-6.9,4.4-12.6,9.6-17.5,15.1
			c0.1,0.5,0.1,0.9,0.2,1.4c0.1,0.6,0.2,1.2,0.3,1.9c0.1,0.8,0.2,1.5,0.3,2.2c0.1,0.6,0.2,1.2,0.3,1.9c0.5,3,1,6,1.6,9
			c0.2,0.9,0.3,1.8,0.5,2.7c0.1,0.6,0.2,1.2,0.4,1.8c0.3,1.3,0.5,2.6,0.8,4c0.4,1.8,0.8,3.5,1.2,5.3c0.3,1.1,0.5,2.3,0.8,3.4
			c0.5,2.2,1.1,4.5,1.7,6.7c2.3,8.6,4.8,17,7.7,25.1c0.5,1.6,1.1,3.1,1.7,4.7c1.5,4,3,7.8,4.5,11.6c16,38.5,42.4,79,76.8,111.4
			c10.5,9.8,21.7,18.9,33.5,27h32.1c-2.3,5.1-4.1,10.4-5.3,15.8c0.9,0.4,1.7,0.9,2.6,1.3c1.3-5.8,3.2-11.5,6-17.1h136.7
			c-4.4,9.6-6.7,19.9-7.2,30.4c0.9-0.3,1.9-0.6,2.8-0.9c0.7-10.1,3-20,7.7-29.5h53.9c1.6-1,3.2-2,4.9-3.1c1.2-0.8,2.5-1.6,3.7-2.4
			c10.1-6.6,20-13.6,29.9-20.8c0.3-0.2,0.6-0.4,0.9-0.7c42.9-31.2,85.5-65.2,136.7-81C540.5,376.9,531.3,371.4,519.3,370.1z
			 M699.3,335.1c-13.5-12.2-50.3,16.6-61,5c-10.6-11.5,21.9-43.2,10-77c-5.2-14.7-18.5-28.8-28-27c-16.1,3.1-13.6,50-33,54
			c-9.7,2-15.3-8.6-28-6c-9.6,2-17.6,10.3-21,18c-11.8,26.7,24.7,61.9,23.5,75c7.7-1.7,15.6-3,23.7-3.8c0.1,0,0.1,0,0.2,0
			c0.8-0.1,1.7-0.2,2.5-0.2c1.5-0.1,3-0.2,4.6-0.3c0.8-0.1,1.6-0.1,2.4-0.1c0.8,0,1.6-0.1,2.4-0.1c1.1,0,2.1-0.1,3.2-0.1
			c0.5,0,1.1,0,1.6,0c2.4,0,4.8,0,7.2,0c0.3,0,0.7,0,1,0c0.7,0,1.4,0,2.1,0.1c0.9,0,1.8,0.1,2.7,0.1c1.2,0.1,2.4,0.1,3.6,0.2
			c1.1,0.1,2.1,0.2,3.1,0.2c0.2,0,0.3,0,0.5,0c2.3,0.2,4.7,0.4,7.1,0.7c0.1,0,0.3,0,0.4,0c1.1,0.1,2.3,0.3,3.5,0.5
			c21.7,3,41.9,9.1,60.4,17C700.3,369.6,709.3,344.1,699.3,335.1z M984.6,303.8c-10.6-6.3-25.1-7.4-31.3-1.7c-10,9.3,7.3,31.7-3,44
			c-12,14.4-44.5-5.8-56,7c-15.6,17.4,27.7,72.7,13,86c-4.2,3.8-11.5,2.8-15.6,1.2c-21.8-8.5-23.2-60.1-18.4-94.2
			c5.7-40,18.1-42.5,25-83c0.9-5.2,13.5-79.8-10-90c-11.1-4.8-27.8,5.9-36,14c-11.5,11.4-8.3,19.4-18,33c-16.3,22.7-35.9,14.8-47,32
			c-16.5,25.6,11.8,66,1,73c-7,4.5-18.2-13.9-31-11c-21,4.8-17.9,60.3-34.7,91.6c31.1,17.8,55.7,39.5,72.4,56.4
			c5,5.1,9.3,9.8,12.9,13.8c0.5,0.5,1,1.1,1.4,1.6c0.5,0.6,1.1,1.2,1.6,1.8c0.5,0.6,1,1.2,1.4,1.7c0.4,0.5,0.8,0.9,1.1,1.4
			c1.3,1.6,2.5,3,3.4,4.1c0.3,0.4,0.7,0.8,0.9,1.2c0.2,0.2,0.3,0.4,0.4,0.5s0.3,0.3,0.4,0.5c0.1,0.2,0.2,0.3,0.3,0.4h64.3
			c0,0,0,0,0,0c-12.2,26.7-7.7,58.1,2.5,85.8c-6.5,3-13,5.8-19.6,8.5c0.3,1,0.6,1.9,0.8,2.9c0.1,0,0.2-0.1,0.4-0.1
			c6.5-2.7,13-5.5,19.5-8.4c1.8,4.8,3.9,9.5,6,14c10.1,21.6,22.7,41.9,32.5,63.6c0.6,1.3,1.2,2.6,1.7,3.9c0.6-1,1.2-2.1,1.8-3.2
			c-6-13.5-13-26.5-20-39.6c-6.6-12.3-13.5-25.9-19-40.1c7.3-3.4,14.5-6.9,21.7-10.6c15.4-8,29.9-17.3,45.2-25.5
			c4.5-2.4,9.1-4.6,13.8-6.4c0.2-1.2,0.5-2.3,0.7-3.5c-12.9,4.8-24.8,12.2-36.7,19.2c-14.4,8.4-29.1,16.2-44.2,23.2
			c-0.5,0.2-1,0.5-1.5,0.7c-10.5-28-15.3-57.9-2.2-84.4c0,0,0,0,0,0h92.3c0.2-1.6,0.5-3.1,0.7-4.7c0.1-0.9,0.2-1.8,0.4-2.6l0-0.2h0
			c0.9-6.4,1.8-12.9,2.6-19.5C988.3,413,989.9,359.1,984.6,303.8z M988.3,829.2c-14.1,5.6-28.4,10.5-42.8,14.7
			c4.6-32.5,7-65.3,4.7-98.1c-0.6-8.6-1.5-17.2-2.9-25.8c7.5-2.3,15-4.8,22.4-7.4c-1.1-0.8-2.3-1.4-3.4-2
			c-6.2,2.2-12.5,4.2-18.7,6.2c-0.3,0.1-0.5,0.1-0.8,0.2c-0.4-2.4-0.8-4.7-1.3-7.1c-1,0.3-1.9,0.6-2.9,1c0.4,2.3,0.9,4.7,1.2,7
			c-12.5,3.8-25.2,7.3-37.9,10.4c-2.6,0.6-5.3,1.3-7.9,1.9c-29,6.7-58.4,11.5-88.1,14.5c-1.6-22.5-5.6-45-12.7-66.5
			c-7.1-21.7-17.9-41.7-28.6-61.7c-0.1-0.1-0.1-0.2-0.2-0.4c1.1-0.2,2.2-0.4,3.3-0.7c24.1-5.1,47.9-11.8,71.1-20
			c-0.3-1-0.6-1.9-0.9-2.9c-15.8,5.6-31.8,10.5-48,14.6c-9,2.3-18,4.4-27,6.2c-19.6-36.9-40.2-84.4-20.6-124.3h25.1
			c-0.2-0.2-0.3-0.3-0.5-0.4c-1.1-1-2.3-1.9-3.4-2.8c-1.2-0.9-2.3-1.8-3.5-2.7c-0.8-0.6-1.7-1.3-2.5-1.9c-3.3-2.5-6.6-4.9-10-7.2
			c-6.4-4.4-12.7-8.4-19-12c-35.1-20.3-65.5-28.1-70.3-29.2c-6.6-1.6-13-2.8-19.3-3.7c-8.1-1.2-16-2-23.5-2.4
			c-6.2-0.3-12.1-0.4-17.9-0.3c-20.8,0.4-38.9,3.4-53.7,6.4c-4.8,1-9.2,2-13.3,2.9c-28.8,6.5-53.1,15.7-74.3,26.3
			c-2.2,1.1-4.4,2.2-6.6,3.4c-0.7,0.4-1.4,0.8-2.1,1.2c-1.4,0.8-2.8,1.5-4.2,2.3c-0.9,0.5-1.7,1-2.6,1.5c-1.4,0.8-2.8,1.6-4.2,2.4
			c-1,0.6-2,1.2-2.9,1.8c-2.3,1.4-4.6,2.9-6.9,4.3c-1.1,0.7-2.2,1.4-3.4,2.2c-4,2.6-8,5.3-11.8,8h41.7
			c-14.8,32.3-5.1,71.5,9.5,102.7c0,0,0,0.1,0.1,0.2c-28.4-8.7-56.7-18.1-85.2-26.5c-16.8-5-33.7-9.5-50.8-13.5
			c-1.3,0.8-2.6,1.6-3.9,2.3c13.4,2.9,26.8,6.3,40.1,10c34.1,9.6,67.7,21,101.6,31.4c9.8,20.1,21.4,39.3,30.7,59.7
			c9.9,21.9,16.3,45.2,19.6,68.9c0,0.4,0.1,0.7,0.1,1.1c-24.9-5.2-49.6-11-74.4-17.1c-24.5-6.1-49.1-12.4-73.8-18.4
			c-1.1-3.9-2.2-7.8-3.5-11.7c-7.1-21.7-17.9-41.7-28.6-61.7c-9-16.8-18.5-35.9-24.3-55.6c-1,0.5-1.9,0.9-2.9,1.4
			c3,10.3,6.9,20.2,11.2,29.5c10.1,21.6,22.7,41.9,32.5,63.6c4.9,10.9,9,22.2,12.2,33.7c-48.1-11.5-96.5-21.5-145.7-25.8
			c-6.6-16.1-14.8-31.4-23.1-46.8c-9.4-17.6-19.4-37.7-25.2-58.4c-1.2-0.5-2.4-1.1-3.6-1.6c3.1,12.3,7.6,24.3,12.8,35.3
			c10.1,21.6,22.7,41.9,32.5,63.6c1.1,2.5,2.2,5,3.3,7.6c-7.6-0.6-15.1-1.2-22.7-1.5c-37.9-1.8-77.5,0.1-115.6,7.8
			C73.2,651,64,633.8,54.7,616.5c-8.1-15-16.5-31.9-22.4-49.5c2.9-1,5.7-1.9,8.6-2.7c33.8-10.3,68.7-17.2,103.8-20.9
			c-1.5-0.9-2.9-1.7-4.2-2.5c-27.2,3-54.2,8-80.7,15c-9.5,2.5-19,5.2-28.4,8.2c-8-25.1-10.5-51.3,1-74.9c0,0,0-0.1,0-0.1h45.2
			c0,0,0,0,0-0.1c-2.4-2.7-4.6-5.3-6.8-7.9c-5.4-6.5-10.2-12.9-14.5-19c-21.1-29.9-30.8-52.8-42-50c-3.9,1-11.7,6-13.8,50
			C0.2,468.2,0,475,0,482.6c0,2.1,0,4.2,0,6.5v0.1h29.2c0,0,0,0.1-0.1,0.1c-10.8,23.6-8.5,50.8-0.8,75.9c-8.3,2.8-16.5,6-24.5,9.8
			c0.1,1.1,0.2,2.2,0.2,3.3c8.1-3.9,16.6-7.2,25.1-10.1c2.7,8.2,5.9,16.2,9.5,23.7c10.1,21.6,22.7,41.9,32.5,63.6
			c2.2,4.8,4.1,9.6,5.9,14.5c-21.5,4.5-42.6,10.9-62.6,19.6c0.1,0.6,0.1,1.1,0.2,1.7c0.1,0.5,0.1,0.9,0.1,1.4
			c20.2-8.8,41.5-15.3,63.4-19.8c6,16.7,10.1,34,12.6,51.6c6.6,46.8,2.3,93.2-5.4,139.3c-15.1,5.8-29.9,12.5-44.1,20.3
			c0.2,1,0.5,2.1,0.8,3.1c13.7-7.6,28.1-14.2,42.8-19.9c-4.5,26.3-10,52.4-15.2,78.6c0.8,0.9,1.7,1.8,2.5,2.6
			c4.2-21.2,8.5-42.3,12.4-63.1c1.2-6.4,2.3-12.9,3.4-19.3c0.4-0.1,0.7-0.3,1-0.4c39.7-15,81.3-24.4,123.4-29.6
			c7.2-0.9,14.3-1.6,21.5-2.3c-6.6,52.1-19.6,103.8-28.2,155.5c1,0,2,0.1,3,0.1c5.9-35,13.6-69.8,19.9-104c3.2-17.2,6-34.5,8.2-51.9
			c45.6-3.9,91.5-3.4,137.2-0.4c-6.6,52.2-19.6,104.1-28.3,156c1,0,2,0,3,0c5.9-34.9,13.6-69.6,19.8-103.7c3.2-17.2,6-34.6,8.2-52.1
			c30.6,2.1,61.2,5.2,91.6,8.8c15.9,1.9,31.7,3.9,47.6,6c-7,47.2-18.4,94.2-26.2,141.1c1,0,2,0,3,0c5.9-34.9,13.6-69.7,19.9-103.8
			c2.2-12.2,4.3-24.6,6.2-36.9c45.5,5.9,90.9,12,136.5,16.3c-7.1,42.6-17.1,85-24.1,127.4c1,0,2,0.1,3,0.1
			c5.9-36,13.9-71.8,20.4-106.9c1.2-6.8,2.4-13.5,3.6-20.4c26.1,2.4,52.2,4.2,78.4,5c20.6,0.6,41.3,0.6,61.9-0.3
			c-7.3,42.4-17.2,84.6-24,126.8c1,0,2,0,3,0.1c6-37.4,14.4-74.7,21.1-111.2c1-5.2,1.9-10.5,2.8-15.8c47.5-2.1,94.9-8.6,140.5-21.5
			c-6.6,44.5-17.1,88.7-24.8,132.9c1.1-0.5,2.2-1,3.3-1.5c5.6-31.7,12.5-63.1,18.2-94.1c2.3-12.6,4.5-25.4,6.3-38.1
			c8.4-2.4,16.6-5,24.9-7.9c10.7-3.7,21.2-7.8,31.5-12.3c0.1-1.1,0.1-2.2,0.1-3.3C997.1,825.6,992.7,827.5,988.3,829.2z
			 M785.3,655.4c9.9,21.9,16.3,45.2,19.6,68.9c1,6.9,1.7,13.8,2.2,20.7c-35,3.5-70.2,4.6-105.4,3.6c-11.9-0.4-23.7-1-35.6-1.8
			c0-0.3,0-0.7-0.1-1c-1.6-22.9-5.6-45.7-12.8-67.5c-5.9-17.9-14.3-34.7-23-51.3c45.2,2.1,90.7-1.3,135.2-10.2
			C772.3,629.5,779.3,642.2,785.3,655.4z M743.2,489.1c-14.8,32.3-5.1,71.5,9.5,102.7c3.5,7.5,7.4,14.9,11.3,22.2
			c-44.5,8.8-90,12.1-135.3,9.9c-1.3-2.5-2.6-4.9-4-7.4c-20-37.4-42.4-86.4-22.3-127.4H743.2z M460.4,489.1h138.7
			c-14.8,32.3-5.1,71.5,9.5,102.7c5.1,10.8,10.8,21.3,16.5,31.9c-11.1-0.6-22.2-1.6-33.3-2.9c-41.4-4.9-81.3-15.5-120.9-27.6
			C455.5,560.2,444.3,522.1,460.4,489.1z M511.4,678.3c-7.1-21.7-17.9-41.7-28.6-61.7c-3.3-6.2-6.7-12.8-10-19.5
			c33.6,10.2,67.4,19.3,102.2,24.5c17.2,2.6,34.5,4.3,51.9,5.3c5,9.4,10,18.9,14.4,28.6c9.9,21.9,16.3,45.2,19.6,68.9
			c1,7.4,1.8,14.8,2.3,22.2c-47.5-3.5-94.5-10.9-141.1-20.5C520,709.9,516.5,693.8,511.4,678.3z M234.3,830.6
			c-1.5,0.1-3,0.3-4.5,0.4c-40.7,3.9-81,11.5-120,24c-7.1,2.3-14.2,4.8-21.3,7.4c6.3-38.6,10.2-77.7,7.5-116.7
			c-1.6-22.9-5.6-45.7-12.8-67.5c-0.7-2.1-1.4-4.1-2.1-6.1c32.2-6.4,65.3-8.7,97-8.2c13.9,0.2,27.8,1,41.6,2.2
			c7.4,18.7,12.3,38.3,15.1,58.2C239.9,760,238.6,795.4,234.3,830.6z M374.4,830.1c-45.7-3-91.5-3.6-137.2,0.3
			c3.4-28.1,4.9-56.4,2.9-84.6c-1.6-22.9-5.6-45.7-12.8-67.5c-1.3-4-2.8-7.9-4.3-11.8c49,4.5,97.4,14.5,145.3,26
			c2.8,10.5,5,21.2,6.5,31.9C379.9,759.8,378.6,795,374.4,830.1z M516.4,845.1c-9.8-1.3-19.6-2.5-29.3-3.7
			c-36.5-4.5-73.1-8.6-109.9-11.1c3.4-28,4.9-56.3,2.9-84.5c-1.2-17.7-3.9-35.4-8.4-52.6c19.6,4.7,39.1,9.7,58.6,14.6
			c29.6,7.5,59.3,14.5,89,20.7C524.4,767.6,522,806.4,516.4,845.1z M655.8,861.7c-45.6-4.3-91.1-10.4-136.6-16.3
			c4.7-33,7.2-66.3,4.9-99.6c-0.4-5.6-0.9-11.1-1.6-16.6c46.5,9.6,93.4,17,140.9,20.5C665.8,787.2,662,824.6,655.8,861.7z
			 M799,866.6c-15.3,0.7-30.6,0.9-45.9,0.7c-31.6-0.4-63.1-2.4-94.5-5.3c6-37.1,9.8-74.6,7.7-112.2c5.6,0.4,11.3,0.7,16.9,1
			c41.3,2,82.9,1.3,124.1-2.8C810,787.8,805.7,827.3,799,866.6z M942.5,844.8c-45.6,13-93,19.5-140.5,21.7
			c6.6-39.2,10.8-79,8.3-118.7c40-4.1,79.7-11.4,118.5-22.3c5.2-1.5,10.4-3,15.6-4.6c0.2,1.1,0.3,2.3,0.5,3.5
			C950.6,764.8,948.2,804.9,942.5,844.8z"/>
	</g>
</g>
<g id="main">
	<g id="general_1_">
		<g id="women">
			<g id="legs_and_shoes">
				<g id="leg_back">
					<linearGradient id="SVGID_1_" gradientUnits="userSpaceOnUse" x1="514.8562" y1="378.2716" x2="710.6801" y2="378.2716">
						<stop  offset="0" style="stop-color:#153E5C"/>
						<stop  offset="1" style="stop-color:#271C41"/>
					</linearGradient>
					<path class="st2" d="M710.7,295.1c0,7.6-3.6,14.9-3.6,14.9c-1.2,2.4-2.5,4.5-3.8,6.2c-1,1.3-1.9,2.4-2.7,3.3
						c-0.3,0.3-0.6,0.6-0.8,0.9c-0.6,0.6-1,1-1.1,1.1c-0.1,0.1-0.2,0.2-0.3,0.3c-0.1,0.1-0.1,0.1-0.2,0.2c-0.1,0.1-0.1,0.2-0.2,0.3
						c-0.1,0.2-0.2,0.4-0.3,0.6c-0.1,0.1-0.2,0.3-0.2,0.4s-0.1,0.3-0.2,0.4c-0.1,0.2-0.1,0.3-0.2,0.5c-0.1,0.1-0.1,0.3-0.2,0.4
						c-0.1,0.2-0.2,0.5-0.3,0.7c0,0.1-0.1,0.3-0.1,0.4c-0.1,0.4-0.2,0.8-0.3,1.2c-0.1,0.4-0.2,0.7-0.3,1.1c-0.1,0.4-0.2,0.9-0.3,1.4
						c-0.2,1.2-0.5,2.4-0.7,3.8c-0.1,0.7-0.2,1.4-0.3,2.1c-0.1,0.4-0.1,0.9-0.2,1.4c-0.1,0.6-0.2,1.3-0.3,2c-0.3,2.6-0.7,5.5-1,8.4
						c-0.1,0.5-0.1,1-0.2,1.5c-0.1,0.9-0.2,1.9-0.3,2.9c-0.4,3.1-0.7,6.2-1.2,9.5c-0.1,0.5-0.1,1.1-0.2,1.6
						c-0.3,2.3-0.7,4.7-1.1,7.1c-0.2,1.2-0.4,2.5-0.6,3.7c-0.1,0.3-0.1,0.6-0.2,0.9c-0.1,0.6-0.2,1.2-0.3,1.8
						c-0.1,0.6-0.2,1.2-0.4,1.8c-0.3,1.2-0.5,2.5-0.8,3.7c-0.1,0.4-0.2,0.9-0.3,1.3c-0.6,2.4-1.2,4.8-1.9,7.1
						c-0.4,1.4-0.9,2.8-1.4,4.1c-0.5,1.4-1,2.7-1.6,4.1c-0.2,0.4-0.4,0.8-0.6,1.3c-0.4,0.8-0.7,1.7-1.1,2.5c-0.2,0.3-0.3,0.7-0.5,1
						c-0.4,0.9-0.9,1.7-1.4,2.6c-0.9,1.5-3.7,6.2-14.3,16.1c-5.7,5.3-12.2,10.7-19.2,16.1c-34.4,26.7-81.1,53.6-109.2,69
						c-0.1,0.1-0.3,0.2-0.4,0.2c-3.4,1.8-6.5,3.5-9.2,5c-0.5,0.2-0.9,0.5-1.4,0.7l-9.3-14l-1.4-2.1c2.2-1.9,4.3-3.8,6.4-5.7
						c0.8-0.7,1.5-1.3,2.3-2c0.2-0.2,0.4-0.4,0.6-0.5c37.9-33.5,57.2-52.6,65.7-63.2c2.8-3.5,10.7-14,25-21.4
						c8.1-4.2,8.7-2.5,12.4-5.2c2.9-2.1,5-5,6.4-8.5c6.1-14.6,1.5-40.5,1.7-72c0-2.6,0.1-5.5,0.2-8.5c0.1-1.6,0.1-3.3,0.2-5
						c0-0.7,0.1-1.3,0.1-2c0.1-1.9,0.2-3.9,0.4-6c0.1-0.7,0.1-1.4,0.2-2.1c0.1-1.2,0.2-2.4,0.3-3.6c0.1-0.9,0.2-1.8,0.3-2.7
						c0-0.1,0-0.2,0-0.2c0.1-0.9,0.2-1.8,0.3-2.7c0,0,0.1-0.2,0.2-0.5c0,0,0-0.1,0-0.1c0,0,0-0.1,0-0.1c0-0.1,0.1-0.1,0.1-0.2
						c0.1-0.3,0.3-0.7,0.4-1c0.6-1.5,1.3-3.2,2-5c0.3-0.7,0.6-1.5,0.9-2.3c0.1-0.3,0.2-0.6,0.3-0.9c0.3-0.8,0.6-1.5,0.9-2.3
						c1.7-4.5,3.5-9.5,5.3-15c0.3-1,0.7-1.9,1-2.9c0.1-0.4,0.3-0.8,0.4-1.2c1.1-3.2,2-6.4,3-9.5c5,3.3,9.6,6.3,13.8,9
						c6.7,4.4,12.3,8.1,17,11.3c18.5,12.5,23.1,16.7,25.2,19.9c0.6,0.9,0.9,1.6,1.1,2.1c1,2.1,1.5,4.2,1.7,6.4
						C710.6,293.5,710.7,294.3,710.7,295.1z"/>
					<path class="st3" d="M633.7,389.9l12,47.7c7-5.4,13.4-10.8,19.2-16.1c10.6-9.8,13.4-14.5,14.3-16.1
						c15.6-26.9,12.3-76.7,19.6-83.9c0.1-0.1,0.5-0.5,1.1-1.1c0.2-0.2,0.5-0.5,0.8-0.9l-53.2-61.8c-3.9,11.6-7.6,21.1-10.1,27.4
						c-0.1,0.9-0.2,1.8-0.3,2.7c-1.2,11.9-1.6,22.1-1.6,30.1C635.1,349.4,639.7,375.3,633.7,389.9z"/>
				</g>
				<g id="leg_front">
					<path class="st4" d="M808.6,467.4c-5.4,16.9-12.5,38.6-20.5,68.3c-0.1,0.2-0.1,0.6-0.3,1c-4.1,15.4-7.5,29-10,40.2
						c0,0.1-0.1,0.2-0.1,0.3c-0.3,1.3-0.6,2.5-0.9,3.7c0,0,0,0.1,0,0.1c-1.1,4.7-2,8.9-2.8,12.6c-0.1,0.3-0.1,0.6-0.2,1
						c-5.9-0.6-11.9-1.2-17.9-1.8c0.3-4.9,0.5-9.9,0.8-14.8c0.1-1.2,0.1-2.3,0.2-3.5c0.9-16.7,1.8-33.4,2.7-50.1
						c0.9-16,1.7-32,2.6-47.9c0,0-1.3-20.1,3.9-37.1c3.1-10.2,5.6-12.1,6.5-15.4c0.1-0.6,0.3-1.6,0.4-3c0-0.6,0-1.3,0-1.9
						c-1-24.6-46.7-36-92-78c-24.9-23.1-39.5-46-44.1-53.4c-0.1-0.2-0.3-0.4-0.3-0.5c0.2-0.6,0.5-1.3,0.8-2
						c0.1-0.1,7.6-19.5,11.5-31.5c1.1-3.2,2-6.4,3-9.5c2.2-7.3,4.2-14.4,5.9-21.3c11.1,5.6,22.1,11.2,33.2,16.7
						c3.7,1.9,7.5,3.7,11.2,5.6c3.3,1.7,6.7,3.3,10,5c1.8,6.1,8.8,24.6,9.2,26.2c0.1,0.4,0.2,0.8,0.3,1.2c0.3,1,0.7,1.9,1.1,2.9
						c2.3,4.9,5,8.1,5.9,9.1c14.9,16.8,27.6,35.5,43.3,51.6c14.5,14.9,26.5,27.3,34.9,40.6c2.1,3.4,4,6.8,5.7,10.3
						c0.8,1.6,1.5,3.3,2.1,4.9c0.5,1.3,1,2.6,1.4,4c0.1,0.2,0.1,0.3,0.2,0.5C822.6,421.2,818.5,436.2,808.6,467.4z"/>
					<path class="st5" d="M776.8,581.1c-0.2,0.8-0.4,1.6-0.5,2.4c-0.9,4.2-1.8,7.9-2.5,11.1c-5.9-0.6-11.9-1.2-17.9-1.8
						c0.2-4.6,0.5-9.2,0.7-13.8c0-0.4,0-0.7,0.1-1.1C762.7,578.9,770.8,580.2,776.8,581.1z"/>
					<path class="st6" d="M766.7,564.3c-0.1,0-0.1,0-0.2,0c-0.5-0.1-0.7-0.6-0.6-1c8.8-35.3,16.1-70.9,21.6-105.8
						c6-38.1,5.2-45.1,3.1-52.2c-6.3-21.4-21.5-31.5-39.1-43.2c-12.8-8.5-27.4-18.2-40.4-33.8c-19.5-23.4-30.8-54.7-33.5-93.1
						c0-0.5,0.3-0.9,0.8-0.9c0.5,0,0.9,0.3,0.9,0.8c2.7,38,13.9,69,33.1,92.2c12.9,15.4,27.3,25,40,33.5
						c17.9,11.9,33.3,22.1,39.8,44.1c2.1,7.3,3,14.5-3.1,52.9c-5.5,35-12.8,70.6-21.7,106C767.5,564,767.1,564.3,766.7,564.3z"/>
					<linearGradient id="SVGID_2_" gradientUnits="userSpaceOnUse" x1="721.7081" y1="339.1064" x2="816.1151" y2="339.1064">
						<stop  offset="0" style="stop-color:#153E5C"/>
						<stop  offset="1" style="stop-color:#271C41"/>
					</linearGradient>
					<path class="st7" d="M816.1,400.8c-0.5-0.4-1-0.8-1.4-1.3c-74-64.7-91.5-102.1-93-122.1c0.3,1,0.7,1.9,1.1,2.9
						c2.3,4.9,5,8.1,5.9,9.1c14.9,16.8,27.6,35.5,43.3,51.6c14.5,14.9,26.5,27.3,34.9,40.6c2.1,3.4,4,6.8,5.7,10.3
						c0.8,1.6,1.5,3.3,2.1,4.9C815.2,398.1,815.7,399.5,816.1,400.8z"/>
					<linearGradient id="SVGID_3_" gradientUnits="userSpaceOnUse" x1="756.7386" y1="524.2286" x2="808.5539" y2="524.2286">
						<stop  offset="0" style="stop-color:#153E5C"/>
						<stop  offset="0.8052" style="stop-color:#87AEB4"/>
					</linearGradient>
					<path class="st8" d="M808.6,467.4c-5.4,16.9-12.5,38.6-20.5,68.3c-0.1,0.2-0.1,0.6-0.3,1c-4.1,15.4-7.5,29-10,40.2
						c0,0.1-0.1,0.2-0.1,0.3c-0.3,1.1-0.9,3.7-0.9,3.7c0,0,0,0.1,0,0.1c-6.7-1-13.4-2-20-3.1c0,0,0.2-3.4,0.2-3.5
						c1.3-25,2.6-48.6,2.7-50.1L808.6,467.4z"/>
					<linearGradient id="SVGID_4_" gradientUnits="userSpaceOnUse" x1="756.669" y1="580.7599" x2="776.7859" y2="580.7599">
						<stop  offset="0" style="stop-color:#153E5C"/>
						<stop  offset="1" style="stop-color:#271C41"/>
					</linearGradient>
					<path class="st9" d="M776.8,581.1c-0.2,0.8-0.4,1.6-0.5,2.4l-19.6-4.4c0-0.4,0-0.7,0.1-1.1
						C762.7,578.9,770.8,580.2,776.8,581.1z"/>
				</g>
				<path class="st5" d="M514.9,496.4l10.7,16.1c3.1-1.7,6.6-3.6,10.6-5.8l-12-18.5C521.2,490.9,518.1,493.6,514.9,496.4z"/>
				<path class="st5" d="M536.1,506.7c-3.4,1.8-6.5,3.5-9.2,5c0,0,0,0,0.1,0c0,0.1-0.3,1.4-0.5,3.1l-15-17.5l-0.6-0.7
					c3.8-2,7.3-4,10.4-6c0,0,0,0.1,0,0.1c0.8-0.7,1.5-1.3,2.3-2l13,17.8C536.4,506.6,536.3,506.7,536.1,506.7z"/>
				<g id="shoes">
					<path class="st10" d="M809.1,627.6c-7.3-0.8-15.7-2.2-24.8-4.5c-2.7-0.7-5.4-1.4-8.2-2.2c-5.9-1.7-11.3-3.6-16.4-5.6
						c-5.4-2.1-10.2-4.3-14.6-6.5c1.8-3.2,3.6-6.8,5.3-10.7c0.7-1.5,1.3-3.1,1.9-4.6c1.8-4.6,3.2-9,4.3-13.1
						c0.6,0.4,1.9,1.3,2.8,3.1c0.5,1,0.7,1.9,0.7,2.8c0,0.5,0,0.9,0,1.2c0,0.4-0.1,0.8-0.1,1c0,0,0,0,0.1,0c0,0,0,0,0.1,0
						c1.1,0.9,2.9,1.9,5.3,2.6c4.1,1.2,7.6,0.3,9.2-0.2c1.1,2.1,2.6,4.7,4.8,7.5c0.5,0.7,1.1,1.4,1.7,2c0.3,0.4,0.7,0.8,1.2,1.4
						c0.5,0.6,1.2,1.3,1.9,2c1,1,2.1,2,3.4,3.1c1,0.8,2.2,1.7,3.5,2.5c0.4,0.3,0.9,0.5,1.3,0.8c0.8,0.5,1.6,0.9,2.3,1.2
						c5.7,2.7,9.1,2.4,11.9,6.1c0.1,0.2,0.3,0.4,0.4,0.5c1,1.4,1.6,3,1.9,4.5C809.2,624.3,809.2,626.1,809.1,627.6z"/>
					<path class="st11" d="M745.2,608.8c4.4,2.2,9.2,4.4,14.6,6.5c5,2,10.5,3.9,16.4,5.6c12.3,3.6,23.5,5.6,33,6.7
						c0.1-1.5,0-3.3-0.4-5.1c-13.9-1.4-35.1-4.4-40-9.7c-2.3-2.5-5.5-5.3-8.8-7.9c-3.3-2.6-6.8-5-9.5-6.8
						C748.7,601.7,746.9,605.2,745.2,608.8z"/>
					<path class="st11" d="M780.9,608.8c0.4,1.6,3.9-0.1,6.6-1.8c-1.3-1.1-2.5-2.1-3.5-3.1C782.2,605.6,780.6,607.5,780.9,608.8z"/>
					<path class="st11" d="M776.2,603.4c0.4,1.5,3.4,0.1,6-1.4c-0.5-0.5-0.9-1-1.2-1.3c-0.6-0.7-1.2-1.4-1.7-2.1
						C777.5,600.3,775.8,602.2,776.2,603.4z"/>
					<linearGradient id="SVGID_5_" gradientUnits="userSpaceOnUse" x1="784.3084" y1="619.5247" x2="809.1757" y2="619.5247">
						<stop  offset="0.4713" style="stop-color:#19233D"/>
						<stop  offset="1" style="stop-color:#271C41"/>
					</linearGradient>
					<path class="st12" d="M809.1,627.6c-7.3-0.8-15.7-2.2-24.8-4.5c2.1-2.2,4.2-4.6,6.4-7.1c1.3-1.5,2.6-3.1,3.8-4.6
						c5.7,2.7,9.1,2.4,11.9,6.1c0.1,0.2,0.3,0.4,0.4,0.5c1,1.4,1.6,3,1.9,4.5C809.2,624.3,809.2,626.1,809.1,627.6z"/>
					<path class="st10" d="M533.2,550.5c0,0.3,0,0.7,0,1c0,0.2,0,0.4-0.1,0.6c-0.2,1.7-0.8,3.2-1.6,4.6v0c-0.1,0.2-0.2,0.4-0.3,0.6
						s-0.2,0.4-0.4,0.6c-0.3,0.4-0.5,0.7-0.8,1.1c-0.5,0.7-1.1,1.3-1.6,1.8c-0.7-0.8-1.4-1.6-2-2.4c-0.1-0.1-0.2-0.2-0.3-0.4
						c-0.9-1.1-1.8-2.2-2.7-3.3c-0.1-0.1-0.2-0.2-0.3-0.3c-0.2-0.2-0.3-0.4-0.5-0.6c0-0.1-0.1-0.1-0.1-0.2c-0.8-1-1.6-2.1-2.5-3.2
						c-0.4-0.5-0.8-1.1-1.2-1.7c-0.5-0.6-0.9-1.2-1.4-1.8c-0.8-1.1-1.6-2.2-2.4-3.4c-0.1-0.1-0.2-0.2-0.2-0.3
						c-0.1-0.2-0.3-0.4-0.4-0.6c-1.2-1.7-2.3-3.4-3.5-5.3c-0.3-0.4-0.6-0.9-0.9-1.4c-0.4-0.7-0.8-1.3-1.2-2
						c-0.1-0.2-0.2-0.3-0.3-0.4c-1.2-2-2.3-3.9-3.4-5.8c-0.7-1.3-1.4-2.6-2.1-3.8c-1-1.9-1.9-3.7-2.8-5.6c-0.6-1.3-1.2-2.6-1.8-3.8
						c-0.9-1.9-1.7-3.7-2.5-5.5c-0.3-0.6-0.5-1.2-0.8-1.8c-0.2-0.6-0.5-1.2-0.7-1.8c-0.2-0.6-0.5-1.1-0.7-1.7v0c0.1,0,0.1,0,0.2-0.1
						c0,0,0,0,0,0c3.4-1.1,7.1-2.6,10.9-4.3c1.8-0.8,3.6-1.7,5.2-2.5c0.3-0.1,0.5-0.3,0.8-0.4c3.8-2,7.3-4,10.4-6c0,0,0,0.1,0,0.1
						c0.2,0.7,0.5,2.3-0.1,4.1c-0.3,1.1-0.8,1.9-1.3,2.5c-0.3,0.4-0.6,0.7-0.8,0.9c-0.3,0.3-0.6,0.5-0.7,0.6c0,0.1,0,0.1,0,0.2
						c0,0,0,0,0,0c0.1,0.2,0.6,2.8,2.1,5.5c2.1,3.6,5.9,6.8,6.4,7.3c0,0,0,0,0.1,0c0,0.1-0.3,1.4-0.5,3.1c-0.2,1.4-0.4,3-0.6,4.4
						c-0.1,0.6-0.1,1.3-0.1,2c0,0.1,0,0.3,0,0.4c0,0.1,0,0.2,0,0.3c0,0.5,0,1.1,0,1.8c0,0.8,0,1.7,0.1,2.7c0,0.3,0,0.7,0.1,1.1
						c0,0.4,0.1,0.7,0.1,1.1c0.1,0.6,0.1,1.2,0.2,1.8c0,0.2,0.1,0.4,0.1,0.6c0.2,1.3,0.5,2.7,0.9,4.2c0.1,0.5,0.3,1,0.4,1.5
						c0.2,0.7,0.5,1.4,0.7,2.1c0.7,1.9,1.6,3.5,2.3,4.8C532,546,533.2,547.9,533.2,550.5z"/>
					<path class="st11" d="M493.8,503.8c1.8,4.5,3.9,9.4,6.5,14.6c2.4,4.9,5.1,10,8.3,15.2c0.1,0.1,0.2,0.3,0.3,0.4
						c6.6,10.8,13.4,19.7,19.6,26.7c1.1-1.1,2.2-2.4,3.1-4c-7.3-8.1-17.2-20-21.2-28.2c-1.1-2.3-1.8-4.3-1.8-5.9
						c0-3.5-0.5-7.6-1.2-11.8c-0.7-4.2-1.6-8.2-2.4-11.4C501.1,500.9,497.5,502.4,493.8,503.8z"/>
					<path class="st11" d="M520.2,527.9c-0.8,1.4,3,2.5,6.1,3.1c-0.3-1.7-0.4-3.2-0.5-4.6C523.2,526.4,520.8,526.8,520.2,527.9z"/>
					<path class="st11" d="M520.3,520.7c-0.7,1.3,2.4,2.4,5.4,3c0-0.7,0-1.3,0-1.8c0-0.9,0.1-1.8,0.1-2.6
						C523.4,519.3,520.9,519.6,520.3,520.7z"/>
					<linearGradient id="SVGID_6_" gradientUnits="userSpaceOnUse" x1="514.7487" y1="551.9626" x2="533.2139" y2="551.9626">
						<stop  offset="0.4713" style="stop-color:#19233D"/>
						<stop  offset="1" style="stop-color:#271C41"/>
					</linearGradient>
					<path class="st13" d="M533.2,550.5c0,0.3,0,0.7,0,1c0,0.2,0,0.4-0.1,0.6c-0.2,1.7-0.8,3.3-1.6,4.6c-0.9,1.6-2.1,3-3.1,4
						c-4.3-4.9-9-10.8-13.6-17.5c4.9-0.4,8.7-0.2,11.5,0c0.9,0.1,2.4,0.3,4.3,0.1C532,546,533.1,547.9,533.2,550.5z"/>
					<linearGradient id="SVGID_7_" gradientUnits="userSpaceOnUse" x1="752.3395" y1="587.0107" x2="760.1633" y2="587.0107">
						<stop  offset="0" style="stop-color:#FFFFFF;stop-opacity:0.5"/>
						<stop  offset="0.8362" style="stop-color:#F07125"/>
					</linearGradient>
					<path class="st14" d="M760.1,587.6c0,0.4-0.1,0.8-0.1,1c0,0,0,0,0.1,0l-7.7,4.9c1.8-4.6,3.2-9,4.3-13.1
						c0.6,0.4,1.9,1.3,2.8,3.1c0.5,1,0.7,1.9,0.7,2.8C760.2,586.8,760.2,587.3,760.1,587.6z"/>
					<linearGradient id="SVGID_8_" gradientUnits="userSpaceOnUse" x1="510.0831" y1="494.8308" x2="521.5413" y2="494.8308">
						<stop  offset="0" style="stop-color:#FFFFFF;stop-opacity:0.5"/>
						<stop  offset="0.8362" style="stop-color:#F07125"/>
					</linearGradient>
					<path class="st15" d="M521.2,494.8c-0.3,1.1-0.8,1.9-1.3,2.5c-0.3,0.4-0.6,0.7-0.8,0.9c-0.3,0.3-0.6,0.5-0.7,0.6
						c0,0.1,0,0.1,0,0.2c0,0,0,0,0,0c-0.7-0.2-1.4-0.3-2.1-0.5c-1.6-0.4-3.2-0.8-4.8-1.2c-0.5-0.1-0.9-0.2-1.4-0.3
						c0.3-0.1,0.5-0.3,0.8-0.4c3.8-2,7.3-4,10.4-6c0,0,0,0.1,0,0.1C521.5,491.5,521.8,493,521.2,494.8z"/>
				</g>
			</g>
			<g id="neck">
				<path class="st5" d="M741,79.3c-0.5,4.3-1.1,8.7-1.5,13.2c-0.6,5.9-1.2,11.9-1.8,18c-1,10.8-1.7,21.2-2.2,31.3
					c-10.7-6.4-21.4-12.8-32.1-19.2L714,66c3.4,1.7,6.9,3.4,10.3,5.1C729.8,73.8,735.4,76.6,741,79.3z"/>
				<path class="st16" d="M741,79.3c-0.5,4.3-1.1,8.7-1.5,13.2l-16-21.5l0.8,0.1C729.8,73.8,735.4,76.6,741,79.3z"/>
			</g>
			<path class="st5" d="M620.2,164.4c-0.1,6.5,10.1,16.3,30.5,35.6c5.8,5.5,20.2,18.7,25.1,23.1l5.3-21.4
				c-4.8-4.2-11.7-10.2-19.7-17.8c-13.1-12.3-14.8-15-14.3-17.8c0.6-3.7,4.4-5.1,10.9-8.2c4.2-2.1,9.6-4.9,15.8-9.7
				c5.8-4.4,9.7-7.4,12.5-12.5c6.2-11.5,2-24.8-0.1-30.4c-10.5,7.1-24.5,17-40.2,29.9c-0.2,0.2-0.5,0.4-0.7,0.6
				C623.3,153.6,620.3,158.9,620.2,164.4z"/>
			<g>
				<linearGradient id="SVGID_9_" gradientUnits="userSpaceOnUse" x1="620.2164" y1="164.1747" x2="689.4669" y2="164.1747">
					<stop  offset="0" style="stop-color:#153E5C"/>
					<stop  offset="0.8052" style="stop-color:#87AEB4"/>
				</linearGradient>
				<path class="st17" d="M620.2,164.4c-0.1,6.5,10.1,16.3,30.5,35.6c5.8,5.5,20.2,18.7,25.1,23.1l5.3-21.4
					c-4.8-4.2-11.7-10.2-19.7-17.8c-13.1-12.3-14.8-15-14.3-17.8c0.6-3.7,4.4-5.1,10.9-8.2c4.2-2.1,9.6-4.9,15.8-9.7
					c5.8-4.4,9.7-7.4,12.5-12.5c6.2-11.5,2-24.8-0.1-30.4c-10.5,7.1-24.5,17-40.2,29.9c-0.2,0.2-0.5,0.4-0.7,0.6
					C623.3,153.6,620.3,158.9,620.2,164.4z"/>
				<path class="st18" d="M645.8,135.1l12,22.7c4.2-2.1,9.6-4.9,15.8-9.7c5.8-4.4,9.7-7.4,12.5-12.5c6.2-11.5,2-24.8-0.1-30.4
					C675.6,112.3,661.6,122.3,645.8,135.1z"/>
			</g>
			<g id="tshirt">
				<path class="st19" d="M748.8,175c-1.6,11.8-5.2,23.9-9.1,34.7c-4,11-8.2,20.5-11,26.8c-2.5,5.6-6.6,14.3-6.9,25.3
					c-0.1,1.9,0,4,0.2,6c0.9,9.3,4.4,16.7,7.1,21.4c-0.1,0-0.2,0.1-0.4,0.1c0,0-0.1,0-0.1,0c-4.4,1.7-10.5,3.8-18,5.7
					c0,0-0.1,0-0.1,0c0,0-7,1.7-13.5,2.6c-11.4,1.6-31.8-1-56.4-8.9c-1.2-0.4-2.4-0.8-3.6-1.2c-0.1,0-0.1,0-0.2-0.1
					c-0.2,0-0.3-0.1-0.5-0.2c0.1-0.1,0.1-0.2,0.2-0.4c0.3-0.6,0.5-1.3,0.8-2c0.1-0.1,0.1-0.3,0.2-0.4c0.2-0.6,0.5-1.3,0.8-1.9
					c2.8-7.1,6.6-17.1,10.6-29.1c1.1-3.2,2-6.4,3-9.5c2.2-7.3,4.2-14.4,5.9-21.3c2.7-10.5,4.8-20.4,6.6-29.6
					c2.8-14.3,4.7-27.3,6.5-38.8c3.8-24.3,6.8-42.1,15.3-53.1l1.5-1.9c2.6-3,5.7-5.4,9.4-7.2c0.7-0.3,1.4-0.7,2.2-1
					c9-3.7,23-5.7,31.7,1c6,4.6,7.6,11.6,8.9,17.9C747.1,144.1,750.7,161.2,748.8,175z"/>
				<linearGradient id="SVGID_10_" gradientUnits="userSpaceOnUse" x1="684.0102" y1="171.1047" x2="732.7722" y2="171.1047">
					<stop  offset="0" style="stop-color:#191535"/>
					<stop  offset="1" style="stop-color:#271C41;stop-opacity:0.3"/>
				</linearGradient>
				<path class="st20" d="M729.6,216.3c-2.9,6.7-9.4,16.2-15.5,15.5c-6.5-0.8-10.7-12.7-19.3-55.5c-5-25-8.5-45.8-10.9-60.4
					c2.6-1.8,5.2-3.6,7.7-5.4c4.8,6.8,11.6,17.1,18.6,30.2C725.4,168.8,739.1,194.4,729.6,216.3z"/>
				<path class="st21" d="M728.8,289.4C728.8,289.4,728.7,289.4,728.8,289.4c-4.4,1.7-10.6,3.9-18.1,5.7c0,0-0.1,0-0.1,0
					c0,0-7,1.7-13.5,2.6c-11.4,1.6-31.8-1-56.4-8.9c-1.2-0.4-2.4-0.8-3.6-1.2c-0.1,0-0.1,0-0.2-0.1c-0.2,0-0.3-0.1-0.5-0.2
					c0.1-0.1,0.1-0.2,0.2-0.4c0.3-0.6,0.5-1.3,0.8-2c0.1-0.1,0.1-0.3,0.2-0.4c0.2-0.6,0.5-1.3,0.8-1.9c2.8-7.1,6.6-17.1,10.6-29.1
					c1.1-3.2,2-6.4,3-9.5c2.2-7.3,4.2-14.4,5.9-21.3c2.7-10.5,4.8-20.4,6.6-29.6L728.8,289.4z"/>
			</g>
			<g id="hand_front">
				<path class="st5" d="M785.5,159.8c-5.7,12.4-10.9,23-15.2,31.4c-3.3,6.5-6.1,11.9-8.7,16.5c-8.1,14.4-13.8,20.4-22.1,23.2
					c-2.8,1-8,2.7-13,0.7c-8.8-3.5-10.9-15.9-12.2-25.7c-1.5-10.8-3-25.3-3.6-43.4c-0.2-5.5-0.3-11.4-0.3-17.6c0-1.3,0-2.7,0-4
					c9.4,2.5,18.8,5,28.2,7.5c0,1.7,0,3.3,0,4.9c0,8.9-0.2,16.9-0.6,23.7c-0.2,4.6-0.5,8.6-0.8,12.1c-0.7,8.3-1.4,14.8,0.7,15.4
					c2.4,0.8,6.9-6.6,14.8-19.3c1.2-2,2.6-4.2,4.1-6.6c4.5-7.1,10.2-16.2,16.9-26.8C777.7,154.4,781.6,157.1,785.5,159.8z"/>
				<path class="st5" d="M793,153.2c-1.7,2.2-4.3,5-8.4,8.6l-10.8-10c0.6-2.9,4-18.6,7.1-19.6c0,0,0,0,0.1,0c0.5-0.1,1.2-0.3,1.7,0
					c0.8,0.6,0.4,2.2,1.7,3.5c0,0,0,0,0,0c0.7,0.3,1-0.1,1.8,0c1.7,0.3,2.2,3,3.6,5.4c2.1,3.6,4.5,3.4,5.4,5.4
					C795.8,147.7,795.5,149.8,793,153.2z"/>
				<path class="st5" d="M772.6,153.6c1.3-7.7,2.1-13.8,2.5-18.1c0.3-3,0.7-7.1,1.7-7.2c0.6-0.1,1.3,1.2,1.6,2.3
					c0.4,1.6-0.1,3-0.3,3.5c-0.5,1.7-1,4.5-0.6,8.9c0.1,5.5-1.3,9.8-3.7,10.6C773.4,153.7,773.1,153.7,772.6,153.6z"/>
				<linearGradient id="SVGID_11_" gradientUnits="userSpaceOnUse" x1="710.3663" y1="147.0839" x2="738.5932" y2="147.0839">
					<stop  offset="0" style="stop-color:#153E5C"/>
					<stop  offset="1" style="stop-color:#271C41"/>
				</linearGradient>
				<path class="st22" d="M738.6,153.3l-28.2-8.4c0-1.3,0-2.7,0-4c9.4,2.5,18.8,5,28.2,7.5C738.6,150.1,738.6,151.7,738.6,153.3z"/>
				<linearGradient id="SVGID_12_" gradientUnits="userSpaceOnUse" x1="710.6445" y1="197.543" x2="761.5784" y2="197.543">
					<stop  offset="0" style="stop-color:#FFFFFF"/>
					<stop  offset="0.7781" style="stop-color:#87AEB4"/>
				</linearGradient>
				<path class="st23" d="M761.6,207.7c-8.1,14.4-13.8,20.4-22.1,23.2c-2.8,1-8,2.7-13,0.7c-8.8-3.5-10.9-15.9-12.2-25.7
					c-1.5-10.8-3-25.3-3.6-43.4c3.2,1.1,6.9,3.2,8.2,7.4c7,23.4,2.1,51.5,12.4,56.4c2.6,1.2,5.6-0.2,11.6-3.1
					C748,220.8,754.9,214.6,761.6,207.7z"/>
				<linearGradient id="SVGID_13_" gradientUnits="userSpaceOnUse" x1="780.9294" y1="142.5417" x2="795.476" y2="142.5417">
					<stop  offset="0" style="stop-color:#153E5C"/>
					<stop  offset="1" style="stop-color:#271C41"/>
				</linearGradient>
				<path class="st24" d="M793,153.2c-1.7-0.5-3.6-1.4-5.4-2.6c-6.4-4.3-6.9-13.3-6.6-18.5c0.5-0.1,1.2-0.3,1.7,0
					c0.8,0.6,0.4,2.2,1.7,3.5c0,0,0,0,0,0c0.7,0.3,1-0.1,1.8,0c1.7,0.3,2.2,3,3.6,5.4c2.1,3.6,4.5,3.4,5.4,5.4
					C795.8,147.7,795.5,149.8,793,153.2z"/>
				<linearGradient id="SVGID_14_" gradientUnits="userSpaceOnUse" x1="731.495" y1="194.0097" x2="756.8932" y2="194.0097">
					<stop  offset="0" style="stop-color:#153E5C"/>
					<stop  offset="1" style="stop-color:#271C41"/>
				</linearGradient>
				<path class="st25" d="M756.9,178.5c-5,12.4-13.6,30.4-21.1,32.4c-9.2,2.4-1.4-23.1,2.2-33.9c-0.2,4.6-0.5,8.6-0.8,12.1
					c-0.7,8.3-1.4,14.8,0.7,15.4c2.4,0.8,6.9-6.6,14.8-19.3C754,183.2,755.4,181,756.9,178.5z"/>
			</g>
			<g id="hair_2_">
				<g id="head_1_">
					<path id="face_1_" class="st5" d="M764,54.3c-0.4,5.7-0.8,10.7-1.4,14.9c0,0.2-0.1,0.4-0.1,0.6c-1.1,6.7-2.9,11.2-6.8,13
						c-3.8,1.8-8,0.1-16.5-3.2c-1.4-0.6-14.3-5.8-22.6-16.6c-2.4-3.2-3.7-5.8-4.1-6.6c-1.4-2.9-2.4-6.1-3-9.8
						c-2.5-16.2,5.1-37.5,19.9-41c4.9-1.2,9.4,0.3,13,1.4c0.5,0.2,1.2,0.4,2,0.7c6.2,2.4,12.1,7.8,15,11.6
						C765.8,27.7,765.1,38.2,764,54.3z"/>
					<circle id="eye" cx="760.4" cy="44" r="2.1"/>
					<path id="brow" d="M763.1,34.6c0.2-0.4-2-2.3-4.8-2.9c-2.8-0.6-5.6,0.1-5.6,0.6c0,0.3,1,0.4,5.7,1.4
						C762.2,34.6,763,34.8,763.1,34.6z"/>
					<path id="nose_1_" class="st5" d="M764.6,43.8c-0.2,2.2,0,5.1,1.7,7.5c1.6,2.2,3.5,2.5,3.7,3.9c0.2,1.3-1.2,3.4-8.5,6.8
						C762.6,55.9,763.6,49.9,764.6,43.8z"/>
					<path d="M758.3,72.1C758.3,72.1,758.3,72.1,758.3,72.1c-1.3-0.2-3.8-0.9-5.9-3.1c-1.7-1.7-2.5-3.6-2.9-4.9
						c-0.1-0.2,0.1-0.5,0.3-0.5c0.2-0.1,0.5,0.1,0.5,0.3c0.4,1.2,1.1,3,2.7,4.6c2,2,4.2,2.6,5.4,2.9c0.2,0,0.4,0.3,0.3,0.5
						C758.7,72,758.5,72.1,758.3,72.1z"/>
				</g>
				<g id="hair_1_">
					<path d="M756.8,16.3c-0.6,0.9-1.1,1.7-1.7,2.5c-0.1,0.2-0.3,0.4-0.4,0.5c-0.9,1.2-1.8,2.3-2.7,3.3c-0.2,0.2-0.4,0.4-0.5,0.6
						c-2.6,2.8-5,4.7-7.1,6.1c-3.4,2.3-7.2,4.2-10.7,8.9c0,0-2.1,2.9-3.6,6.5c-2.7,6.8-1,17.2,0.5,27.8v0c0.1,0.5,0.2,1,0.2,1.5v0
						c1.3,8.7,2.3,17.4,0.8,24.1c-2,8.4-9.3,19-33,28.3c-0.6-0.2-1.1-0.4-1.7-0.5h0c-0.2-0.1-0.5-0.1-0.7-0.2c-3.3-1-6.6-2.1-10-3.1
						c-0.2-0.1-0.5-0.2-0.8-0.2c-4.1-1.3-8.2-2.6-12.4-3.8c-0.3-0.1-0.5-0.2-0.8-0.2h0c-0.9-0.3-1.8-0.6-2.7-0.8
						c-1.8-0.6-3.6-1.1-5.4-1.7c-4.4-1.3-8.7-2.7-13-4.1c-0.2-0.1-0.5-0.1-0.7-0.2c-1.6-0.5-3.2-1-4.8-1.5c-0.2-0.1-0.4-0.1-0.7-0.2
						c-2.3-0.7-4.7-1.5-7.1-2.2c7.9-7.3,18.2-18.2,27.6-33c0.4-0.6,0.8-1.2,1.1-1.8c0.2-0.3,0.4-0.7,0.6-1v0
						c2.9-4.8,5.3-9.3,7.4-13.5c0.1-0.3,0.3-0.5,0.4-0.8v0c7-14.5,10-25.7,17.7-35.4v0l0,0c0.4-0.5,0.7-0.9,1.1-1.4c0,0,0,0,0,0
						c2.4-2.8,5.2-5.5,8.7-8c5.2-3.9,16.1-11.8,29.7-10.5h0c0.5,0,0.9,0.1,1.4,0.1h0c0.4,0.1,0.8,0.1,1.2,0.2
						c1.7,0.3,3.3,0.7,4.8,1.3c4,1.4,7.4,3.5,10.1,5.6c0.3,0.3,0.7,0.5,1,0.8C753.6,12.6,755.6,14.8,756.8,16.3z"/>
					<path class="st26" d="M718.4,81.6c-6.4,20-22.8,34.3-32.1,41.1c-0.2-0.1-0.5-0.2-0.8-0.2c9.1-6.6,25.8-20.9,32.2-41.1
						c0-0.2,0.2-0.3,0.4-0.2C718.4,81.3,718.5,81.5,718.4,81.6z"/>
					<path class="st26" d="M752,22.6c-0.2,0.2-0.4,0.4-0.5,0.6c-4.9-0.3-12.4,0.2-18.7,4c-9.3,5.6-13.3,16.2-11.8,31.7
						c0.3,3.5,0.3,7,0,10.4c0,0.2-0.2,0.3-0.3,0.3c0,0,0,0,0,0c-0.2,0-0.3-0.2-0.3-0.3c0.3-3.4,0.3-6.9,0-10.3
						c-1.5-15.7,2.6-26.6,12.1-32.3C739.1,22.6,747,22.2,752,22.6z"/>
					<path class="st26" d="M694.6,96.8c-3,5-6.7,9.5-10.8,13.5c-3.2,3.1-6.8,5.9-10.6,8.3c-0.3-0.1-0.5-0.2-0.8-0.2
						c3.9-2.5,7.6-5.3,10.9-8.5c4.1-4,7.7-8.5,10.7-13.4c0.1-0.2,0.3-0.2,0.4-0.1C694.6,96.4,694.7,96.6,694.6,96.8z"/>
					<path class="st26" d="M678.8,98.3c-0.1,0-0.2-0.1-0.3-0.1c-0.1-0.1-0.1-0.3,0.1-0.4c9.1-5.8,17-12.6,23.5-20.1
						c0.1-0.1,9.8-11.6,11.4-21.4c0.3-1.6,0.3-2.4,0.3-3.6c0-1.2,0.1-2.8,0.4-5.8c1.1-11.3,1.7-17.5,5.5-22.4
						c2.3-3.1,7.1-7.1,16.2-8.4c0.2,0,0.3,0.1,0.4,0.3c0,0.2-0.1,0.3-0.3,0.4c-9,1.3-13.6,5.2-15.8,8.2c-3.6,4.7-4.2,10.5-5.3,22.1
						c-0.3,3.1-0.3,4.6-0.4,5.8c0,1.2,0,2-0.3,3.7c-1.6,10-11.4,21.6-11.5,21.7c-6.5,7.6-14.5,14.4-23.6,20.3
						C679,98.3,678.9,98.3,678.8,98.3z"/>
					<path class="st26" d="M755.1,18.8c-0.1,0.2-0.3,0.4-0.4,0.5c-2.4-0.7-6.8-1.8-11.7-2.3c-0.2,0-0.3-0.2-0.3-0.3
						c0-0.2,0.2-0.3,0.4-0.3C748,16.9,752.6,18,755.1,18.8z"/>
					<path class="st26" d="M704.4,51c-12.6,22.7-40.9,49.7-53.1,60.9c-0.2-0.1-0.5-0.1-0.7-0.2c12.1-11,40.6-38.1,53.3-60.9
						c0.1-0.2,0.3-0.2,0.4-0.1C704.4,50.6,704.5,50.8,704.4,51z"/>
					<path class="st26" d="M750.9,10.3c-7.8-0.9-21.8-1.4-31,4c-6.1,3.6-9.2,9.3-9.2,16.9c0,3.5-0.9,7.6-2.7,12.1
						c-0.1,0.1-0.2,0.2-0.3,0.2c0,0-0.1,0-0.1,0c-0.2-0.1-0.2-0.2-0.2-0.4c1.8-4.4,2.7-8.4,2.7-11.8c0-9.2,4.3-15.6,12.9-19.2
						c8.6-3.6,19.7-3.4,26.9-2.6C750.3,9.8,750.6,10,750.9,10.3z"/>
					<path class="st26" d="M660.2,92.3c-6.1,7.8-11.5,14.3-14.4,17.8c-0.2-0.1-0.4-0.1-0.7-0.2c2.9-3.5,8.4-10.1,14.6-18
						c0.1-0.1,0.3-0.2,0.4-0.1C660.3,92,660.3,92.2,660.2,92.3z"/>
					<path class="st26" d="M709.3,15c-5,3.5-8.5,7.6-10.7,12.4c-2.4,5.5-2.2,10.3-2,14.1c0,1.2,0.1,2.3,0,3.3
						c-0.5,9.5-10.5,18.9-29.8,28.2c0.2-0.3,0.4-0.7,0.6-1v0c18.5-9,28.2-18.1,28.6-27.2c0.1-1,0-2.1,0-3.3
						c-0.2-3.9-0.4-8.7,2.1-14.3c2.1-4.9,5.8-9.2,10.9-12.7c0.1-0.1,0.3-0.1,0.4,0.1C709.5,14.7,709.4,14.9,709.3,15z"/>
					<path class="st26" d="M694,20.8c-1.3,3.7-2.2,7.4-2.8,11.2c-0.4,2.9-0.5,5.1-0.6,7c-0.1,3-0.2,5.2-1.4,7.9
						c-2.2,4.9-7,8.8-14.4,11.5c0.1-0.3,0.3-0.5,0.4-0.8v0c6.9-2.7,11.4-6.3,13.5-10.9c1.1-2.6,1.2-4.7,1.4-7.7
						c0.1-2,0.2-4.2,0.6-7.1c0.5-3.3,1.2-6.5,2.3-9.7v0l0,0C693.3,21.7,693.7,21.3,694,20.8z"/>
					<path class="st26" d="M733.9,2.5c-5,1.9-12.6,5.1-19.8,9.4c0,0-0.1,0.1-0.2,0.1c-0.1,0-0.2-0.1-0.3-0.2c-0.1-0.1,0-0.3,0.1-0.4
						c6.6-4,13.7-7.1,18.7-9h0C732.9,2.4,733.4,2.4,733.9,2.5z"/>
					<path class="st26" d="M730.9,74.2L730.9,74.2c-3.8,13-12.8,32.3-33.9,51.9h0c-0.2-0.1-0.5-0.1-0.7-0.2
						c22-20.3,30.8-40.3,34.4-53.2C730.8,73.2,730.8,73.7,730.9,74.2z"/>
					
						<linearGradient id="SVGID_15_" gradientUnits="userSpaceOnUse" x1="-309.963" y1="59.0272" x2="-208.2276" y2="59.0272" gradientTransform="matrix(-1 0 0 1 429.8703 0)">
						<stop  offset="0" style="stop-color:#FFFFFF;stop-opacity:0.5"/>
						<stop  offset="0.8376" style="stop-color:#F07125;stop-opacity:0.8"/>
					</linearGradient>
					<path class="st27" d="M638.1,107.7c8.7,2.7,17.5,5.4,26.2,8.2c19.2-12.8,26.9-26,30.2-36.6c5.8-18.6,1.7-29.7,6.2-47
						c4.4-16.5,26.8-24.9,39.1-28.4c-1.5-0.5-3.1-1-4.8-1.3c-14.8-2.7-26.8,6-32.3,10.1c-20.2,15-18.5,32.8-37,62
						C656.3,89.6,646,100.4,638.1,107.7z"/>
					<g id="ear_1_">
						<path class="st5" d="M738.4,47.5c0,1.9-0.7,3.6-1.8,5c-1.5,1.8-3.7,3-6.3,3c-4.4,0-8-3.6-8-8c0-2.6,1.3-5,3.2-6.4
							c1.3-1,3-1.6,4.8-1.6C734.9,39.5,738.4,43,738.4,47.5z"/>
						<linearGradient id="SVGID_16_" gradientUnits="userSpaceOnUse" x1="725.6665" y1="45.9546" x2="738.4386" y2="45.9546">
							<stop  offset="0" style="stop-color:#153E5C"/>
							<stop  offset="1" style="stop-color:#271C41"/>
						</linearGradient>
						<path class="st28" d="M738.4,47.5c0,1.9-0.7,3.6-1.8,5l-11-11.4c1.3-1,3-1.6,4.8-1.6C734.9,39.5,738.4,43,738.4,47.5z"/>
					</g>
					<path id="headphone" class="st29" d="M729.6,45.4c-0.6-0.1-1.3,0.1-1.8,0.6c-1,0.9-0.8,2.4-0.6,4.7c0.1,1.3,0.3,3.4,0.6,6.5
						c0.4,0,0.8,0,1.2,0c0-2.2,0-4.4,0-6.6c0.2,0.1,0.4,0.1,0.6,0.1c1.3,0,2.4-1.2,2.4-2.7C732,46.7,730.8,45.5,729.6,45.4z"/>
				</g>
			</g>
			<linearGradient id="SVGID_17_" gradientUnits="userSpaceOnUse" x1="514.857" y1="500.3543" x2="536.149" y2="500.3543">
				<stop  offset="0" style="stop-color:#153E5C"/>
				<stop  offset="0.8052" style="stop-color:#87AEB4"/>
			</linearGradient>
			<path class="st30" d="M536.1,506.7c-0.6,0.3-1.1,0.6-1.7,0.9c-3.3,1.8-6.2,3.4-8.9,4.8l-10.7-16.1c2.6-2.3,5.2-4.5,7.6-6.7
				c0.6-0.5,1.1-1,1.7-1.5L536.1,506.7z"/>
		</g>
		<g id="man">
			<g id="hand_1_">
				<path class="st31" d="M277.8,628.4c-0.4,1.4-3.3,0.7-6-0.2c1.9,1.7,5.2,4.3,4.3,6.2c0,0.1-0.3,0.8-0.9,1
					c-3.1,1.2-15.3-12-19.4-27.8c-2.2-8.5-1.4-15.4-0.7-21.2c0.3-2.8,0.8-5.6,1.4-8.1c0.3-1.2,0.6-2.4,0.9-3.5
					c1.7-6.2,4-11.2,5.9-14.9c5,3.3,7.6,6.7,9.1,9.2c0.2,0.4,0.4,0.7,0.6,1.1c6.4,12.3,0.2,26.2,2.8,35.2c0.2,0.7,1.2,2.9,0.1,4.3
					c-0.8,1-2.5,1.6-3.7,1.1c-1.7-0.6-1.6-3.1-2.3-6.9c-0.4-2.2-1.2-5.3-2.6-8.9c-0.1,0.1-0.1,0.3-0.2,0.4c-0.6,1.4-1.2,2.9-1.8,4.4
					c-1,2.7-1.6,4.9-1.8,5.5c-0.4,1.5-0.5,3.3-0.3,5.4c2.7,2,14.9,11,13.3,12.6c-0.5,0.5-1.8,0.4-3.4-0.1
					C276,625.4,278.1,627.4,277.8,628.4z"/>
				<path class="st32" d="M275.9,605.4c0.2,0.7,1.2,2.9,0.1,4.3c-0.8,1-2.5,1.6-3.7,1.1c-1.7-0.6-1.6-3.1-2.3-6.9
					c-0.4-2.2-1.2-5.3-2.6-8.9c-0.1,0.1-0.1,0.3-0.2,0.4c-1-7.9-6.9-14-10.6-17.2c0.3-1.2,0.6-2.4,0.9-3.5l15.6-4.6
					C279.5,582.5,273.3,596.4,275.9,605.4z"/>
			</g>
			<g id="hand_2_">
				
					<linearGradient id="SVGID_18_" gradientUnits="userSpaceOnUse" x1="257.3342" y1="421.3999" x2="354.5679" y2="421.3999" gradientTransform="matrix(0.9991 -4.280309e-02 4.280309e-02 0.9991 -24.4685 20.6584)">
					<stop  offset="0" style="stop-color:#153E5C"/>
					<stop  offset="1" style="stop-color:#271C41"/>
				</linearGradient>
				<path class="st33" d="M344.3,344.8L327,402.7l-8.8,29.6L289.9,527l-14.5,48.5c-6.2,0.1-12.4,0.3-18.5,0.4
					c4-38.2,9.4-84.6,16.9-138.5c5.6-40.1,11.5-76.3,26.2-117.2c2.6-7.3,5.5-14.7,8.7-22.3c0.2-0.4,0.3-0.8,0.5-1.2c0,0,0-0.1,0-0.1
					c2.5-1.8,5.1-3.7,7.6-5.5c4.5-3.2,9-6.5,13.5-9.7l11,49.9L344.3,344.8z"/>
				<path class="st34" d="M344.3,344.8L327,402.7l-8.8,29.6L289.9,527L300,320.2c2.6-7.3,5.5-14.7,8.7-22.3c0.2-0.4,0.3-0.8,0.5-1.2
					c0,0,0-0.1,0-0.1c2.5-1.8,5.1-3.7,7.6-5.5l24.5,40.2L344.3,344.8z"/>
			</g>
			<g id="head">
				
					<linearGradient id="SVGID_19_" gradientUnits="userSpaceOnUse" x1="401.8638" y1="226.9567" x2="418.9846" y2="226.9567" gradientTransform="matrix(0.9991 -4.280309e-02 4.280309e-02 0.9991 -24.4685 20.6584)">
					<stop  offset="5.557009e-04" style="stop-color:#000000"/>
					<stop  offset="0.8106" style="stop-color:#000000"/>
				</linearGradient>
				<polygon class="st35" points="403.4,218.2 402.5,240.8 387.3,244.2 395.1,215.9 				"/>
				<g id="face">
					<path class="st31" d="M401.8,212.9c-1.2,9-3.8,17.7-6.2,24c-1.5,4.1-2.9,7.1-3.7,8.4c-3.9,6-13,14.2-22.8,17.3
						c-4.9,1.6-10.1,1.9-14.7-0.1c-7.1-3-10.6-10.3-12.2-14.5c-5-28-7.2-48.8-7.1-54.4c0-0.7,0.1-1.4,0.2-2.1c0.1-0.7,0.2-1.3,0.3-2
						c0.4-2.3,1.1-4.5,1.8-6.2c0.5-1.2,1-2.2,1.4-2.8c0,0,0.4-0.7,1.1-1.6c0.6-0.9,1.5-2.1,2.6-3.2c5.8-6.3,22.8-15.4,38.8-8.6
						c9.7,4.1,14.7,12.2,17.3,17.6c0.6,1.3,1.1,2.4,1.5,3.3c0.7,1.5,1.2,3.2,1.6,4.9C402.9,199,402.8,206,401.8,212.9z"/>
					<path class="st32" d="M395.6,236.9c-1.5,4.1-2.9,7.1-3.7,8.4c-3.9,6-13,14.2-22.8,17.3l-4.4-3.7l15.4-17.6L395.6,236.9z"/>
				</g>
				<g id="eyes">
					
						<linearGradient id="SVGID_20_" gradientUnits="userSpaceOnUse" x1="426.2906" y1="297.659" x2="430.5608" y2="297.659" gradientTransform="matrix(0.9844 0.1761 -0.1761 0.9844 2.1849 -155.1085)">
						<stop  offset="5.557009e-04" style="stop-color:#000000"/>
						<stop  offset="0.8106" style="stop-color:#000000"/>
					</linearGradient>
					<circle class="st36" cx="371.5" cy="213.4" r="2.1"/>
					
						<linearGradient id="SVGID_21_" gradientUnits="userSpaceOnUse" x1="405.5255" y1="302.8512" x2="409.7957" y2="302.8512" gradientTransform="matrix(0.9844 0.1761 -0.1761 0.9844 2.1849 -155.1085)">
						<stop  offset="5.557009e-04" style="stop-color:#000000"/>
						<stop  offset="0.8106" style="stop-color:#000000"/>
					</linearGradient>
					<circle class="st37" cx="350.1" cy="214.8" r="2.1"/>
				</g>
				<path id="nose" class="st38" d="M358,210.2c-1.7,4.5-3.1,8.1-3.9,10.3c-3.2,8.7-4,10.8-2.9,12.1c2,2.6,8.9,0.3,11-0.5
					C360.8,224.9,359.4,217.5,358,210.2z"/>
				<g id="brows">
					
						<linearGradient id="SVGID_22_" gradientUnits="userSpaceOnUse" x1="418.7691" y1="287.2297" x2="434.0705" y2="287.2297" gradientTransform="matrix(0.9844 0.1761 -0.1761 0.9844 2.1849 -155.1085)">
						<stop  offset="5.557009e-04" style="stop-color:#000000"/>
						<stop  offset="0.8106" style="stop-color:#000000"/>
					</linearGradient>
					<polygon class="st39" points="379,202.4 364,200.5 363.7,203.1 378.7,204.9 					"/>
					
						<linearGradient id="SVGID_23_" gradientUnits="userSpaceOnUse" x1="339.2041" y1="124.4494" x2="354.5055" y2="124.4494" gradientTransform="matrix(0.9752 -0.2215 0.2215 0.9752 -17.9641 160.1449)">
						<stop  offset="5.557009e-04" style="stop-color:#000000"/>
						<stop  offset="0.8106" style="stop-color:#000000"/>
					</linearGradient>
					<polygon class="st40" points="354.8,201.4 340.2,205.5 340.9,208 355.5,203.8 					"/>
				</g>
				
					<linearGradient id="hair_3_" gradientUnits="userSpaceOnUse" x1="340.4168" y1="184.8031" x2="422.6217" y2="184.8031" gradientTransform="matrix(0.9991 -4.280309e-02 4.280309e-02 0.9991 -24.4685 20.6584)">
					<stop  offset="5.557009e-04" style="stop-color:#000000"/>
					<stop  offset="0.8106" style="stop-color:#000000"/>
				</linearGradient>
				<path id="hair" class="st41" d="M402.2,212.9c-0.2,0-0.3,0.1-0.4,0.1c-1.8,0.1-3.2-2.2-5.9-1.6c-4.4,0.9-5.2,7.7-7.8,7.6
					c-2.4-0.1-3.8-5.9-3.9-6.1c-1.4-6,1.6-8.5,1.2-14.5c0-0.5-0.5-6.2-3.3-9.5c-0.6-0.7-1.3-1.3-2.1-1.8c-2.1-1.1-4.1-0.4-6.4,0.9
					c-3.9,2.2-8.6,6.2-16.3,7.1c-7.6,0.9-14.2-1.3-19.3-4c-0.9-0.5-1.7-0.9-2.5-1.4c-1.6-1-3-2-4.2-2.9c-1.9-1.5-3.1-2.7-3.4-3
					c-2.4-2.5-5.8-6.8-4.9-7.9c1-1.2,6.7,1.8,9.2,3.2c-4-8-7.2-16.4-4.4-18.8c1.4-1.3,3.9-0.2,8.1,0.6c6.7,1.2,9.9,0.4,19,0.1
					c25.6-0.9,38.4-1.4,44.4,4.4c4.7,4.6,5.4,11.3,6.4,24.4c0.1,0.8,0.1,1.6,0.2,2.4c0,0.3,0.1,1,0.1,1.9
					C406.2,199,406.4,211.6,402.2,212.9z"/>
				
					<linearGradient id="SVGID_24_" gradientUnits="userSpaceOnUse" x1="381.0273" y1="233.5498" x2="390.5229" y2="233.5498" gradientTransform="matrix(0.9991 -4.280309e-02 4.280309e-02 0.9991 -24.4685 20.6584)">
					<stop  offset="5.557009e-04" style="stop-color:#000000"/>
					<stop  offset="0.8106" style="stop-color:#000000"/>
				</linearGradient>
				<path class="st42" d="M366.9,242.8c-0.3,0-0.5-0.2-0.5-0.5c0-0.3,0.2-0.5,0.5-0.5c0.2,0,5.6-0.4,7.6-9.3
					c0.1-0.3,0.3-0.4,0.6-0.4c0.3,0.1,0.4,0.3,0.4,0.6C373.3,242.4,367.2,242.8,366.9,242.8C366.9,242.8,366.9,242.8,366.9,242.8z"
					/>
				<g id="ear">
					<path class="st31" d="M407.6,212.7c-0.9,5.2-5.9,8.6-11,7.7c-2.5-0.4-4.6-1.8-6-3.7c-0.8-1.1-1.4-2.4-1.7-3.8
						c-0.2-1.1-0.3-2.3,0-3.5c0.9-5.2,5.9-8.6,11-7.7c0.9,0.2,1.7,0.4,2.5,0.8c0.1,0.1,0.3,0.1,0.4,0.2
						C406.3,204.6,408.3,208.6,407.6,212.7z"/>
					<path class="st32" d="M402.4,202.5l-11.8,14.2c-0.8-1.1-1.4-2.4-1.7-3.8c-0.2-1.1-0.3-2.3,0-3.5c0.9-5.2,5.9-8.6,11-7.7
						C400.8,201.9,401.7,202.2,402.4,202.5z"/>
				</g>
				<g id="headband">
					<path class="st43" d="M406.8,191.8c0,1.1-0.6,1.9-0.8,2.1c-1.1-0.2-2.6-0.5-4.5-1c-3.9-1-9.4-2.5-15.9-3.6
						c-1.1-0.2-2.3-0.4-3.5-0.6c-2.7-0.4-5.6-0.7-8.5-0.9c-4.1-0.3-8.3-0.3-12.8,0c-9.9,0.7-18.7,2.3-22.8,3.1
						c-1.6,0.3-2.5,0.5-2.5,0.5c-0.1,0-0.2,0-0.3,0.1c-0.5-0.2-1.5-0.7-2.4-1.6c-1.1-1.3-1.4-2.7-1.5-3.3c1.8-1.1,3.8-2.2,6-3.3
						c5.7-2.8,12.7-5.3,20.4-6.4c3.9-0.6,13.4-1.6,24.6,1.1c4.2,1,8.6,2.6,13,4.9c1,0.5,2,1.1,3.1,1.7c2.6,1.5,5.3,3.3,7.2,4.9
						C405.8,189.7,406.7,190.5,406.8,191.8z"/>
					<path class="st29" d="M406.8,191.8c0,0.2,0,0.5-0.1,0.7c-37.4-18-65.7-6.8-73.9-2.7c-0.4-0.5-0.7-1-0.9-1.4
						c8.3-4.2,36.8-15.6,74.5,2.1C406.6,190.8,406.7,191.3,406.8,191.8z"/>
					<path class="st44" d="M406.8,191.8c0,0.2,0,0.5-0.1,0.7c-0.2,0.8-0.6,1.3-0.7,1.4c-1.1-0.2-2.6-0.5-4.5-1
						c-4.6-1.2-11.3-3-19.4-4.2c-2.7-0.4-5.6-0.7-8.5-0.9c-4.1-0.3-8.3-0.3-12.8,0c-9.9,0.7-18.7,2.3-22.8,3.1
						c-1.6,0.3-2.5,0.5-2.5,0.5c-0.1,0-0.2,0-0.3,0.1c-0.5-0.2-1.5-0.7-2.4-1.6c0,0,0,0-0.1-0.1c-0.4-0.5-0.7-1-0.9-1.4
						c-0.4-0.8-0.5-1.4-0.5-1.8c1.8-1.1,3.8-2.2,6-3.3c5.7-2.8,12.7-5.2,20.5-6.4c5.4-0.8,21.3-2.4,37.6,6c1,0.5,2,1.1,3.1,1.7
						c2.6,1.5,5.3,3.3,7.2,4.9c0.1,0.1,0.4,0.4,0.7,0.9C406.6,190.8,406.7,191.3,406.8,191.8z"/>
					
						<linearGradient id="SVGID_25_" gradientUnits="userSpaceOnUse" x1="399.6707" y1="183.093" x2="423.5036" y2="183.093" gradientTransform="matrix(0.9991 -4.280309e-02 4.280309e-02 0.9991 -24.4685 20.6584)">
						<stop  offset="0" style="stop-color:#153E5C"/>
						<stop  offset="1" style="stop-color:#271C41"/>
					</linearGradient>
					<path class="st45" d="M406.8,191.8c0,1.1-0.6,1.9-0.8,2.1c-1.1-0.2-2.6-0.5-4.5-1c-3.9-1-9.4-2.5-15.9-3.6l-3.3-11.2
						c4.2,1,8.6,2.6,13,4.9c1,0.5,2,1.1,3.1,1.7c2.6,1.5,5.3,3.3,7.2,4.9C405.8,189.7,406.7,190.5,406.8,191.8z"/>
				</g>
				<path d="M354.5,255.6c-0.4,0-0.8,0-1.1-0.1c-0.3,0-0.5-0.3-0.4-0.6c0-0.3,0.3-0.5,0.6-0.4c1.2,0.1,2.9,0.1,4.7-0.8
					c2.6-1.3,3.7-3.7,4.1-4.6c0.1-0.3,0.4-0.4,0.7-0.3c0.3,0.1,0.4,0.4,0.3,0.7c-0.4,1.1-1.7,3.7-4.6,5.1
					C357.2,255.4,355.7,255.6,354.5,255.6z"/>
			</g>
			<path class="st31" d="M490.4,916.9c-2.9,0.3-5.8,0.6-8.7,0.9c-2,0.2-4,0.5-6,0.7c-2.4,0.3-4.8,0.6-7.2,0.9
				c-1.8-5-3.5-9.9-5.1-14.6c-0.8-2.4-1.7-4.8-2.5-7.1c-0.2-0.5-0.3-1-0.5-1.5l27.6-8.9c0.1,1,0.2,2,0.2,3.1c0.3,3.8,0.6,7.6,1,11.5
				c0.4,4.4,0.7,8.9,1.1,13.4C490.3,915.7,490.4,916.3,490.4,916.9z"/>
			<g id="legs_and_shoes_1_">
				<g id="legs">
					<path class="st10" d="M385.2,579.7c-0.1,0-0.2,0-0.3,0c0,0-0.1,0-0.1,0c0,0-0.1,0-0.1,0.1c0,0-0.1,0-0.1,0.1
						c-0.1,0-0.1,0.1-0.2,0.1c0,0-0.1,0.1-0.1,0.1c0,0-0.1,0.1-0.1,0.1c-0.9,0.9-2.1,3.1-3.4,6.4c-0.2,0.6-0.5,1.3-0.8,2
						c-0.2,0.6-0.4,1.2-0.7,1.8c-0.3,0.9-0.7,1.8-1,2.8c-0.1,0.4-0.3,0.8-0.4,1.2c-0.3,0.9-0.6,1.8-0.9,2.7
						c-0.2,0.5-0.3,0.9-0.5,1.4c-0.6,1.9-1.3,4-1.9,6.2c-0.2,0.7-0.4,1.5-0.7,2.2c-1.4,4.8-2.9,10-4.5,15.8
						c-0.3,0.9-0.5,1.9-0.8,2.8c-1.4,4.9-2.8,10.2-4.2,15.7c-6.1,23.3-13,51.3-19.9,80.4c-1.6,16.3-3.8,29.1-5.2,36.9
						c-6.5,34.8-14.6,55-39.5,130.8c-0.1,0.3-0.2,0.5-0.3,0.8c-0.4,1.4-0.9,2.7-1.4,4.1c-1.1,3.3-2,6.2-2.9,8.9
						c-0.1,0.2-0.1,0.4-0.2,0.6c-0.2,0.7-0.5,1.5-0.7,2.1c0,0.1-0.1,0.2-0.1,0.3l0,0c-0.1,0.2-0.2,0.5-0.2,0.7
						c0,0.1-0.1,0.2-0.1,0.4c-0.1,0.3-0.2,0.6-0.3,0.9c0,0.1,0,0.1-0.1,0.2c-0.1,0.3-0.2,0.6-0.3,0.9c-0.2,0.7-0.4,1.3-0.6,1.8
						c-0.1,0.2-0.1,0.3-0.2,0.5c0,0.1-0.1,0.2-0.1,0.3c-1,0.1-2.4,0.2-4.1,0.2c-7.2,0.2-18.9-0.1-21.4-0.7c0.3-2.4,0.6-5.2,0.9-8.2
						c0-0.3,0.1-0.7,0.1-1.1c0-0.4,0.1-0.8,0.1-1.2c0.1-0.5,0.1-1,0.2-1.5c0,0,0,0,0-0.1c0.1-1,0.2-2,0.3-3c0.2-2.1,0.5-4.4,0.7-6.8
						c0.3-2.4,0.5-4.9,0.8-7.5c0.5-4.8,1.1-9.9,1.6-15.3c13.2-124.8,14.3-172.7,24.8-262.5c0.6-4.7,1.2-9.8,1.9-15.4
						c0.1-0.9,0.2-1.8,0.4-2.8c1.3-9.4,4.2-26.8,7.5-45.8c0-0.2,0.1-0.4,0.1-0.6c0,0,0,0,0,0c4.4-17.3,7-33.1,8.5-47.4l-0.1,0
						c0.1-0.4,0.1-0.8,0.2-1.1v0c2-10.9,3.6-20,4.6-25.3c0.3-1.6,0.5-2.8,0.7-3.7c0-0.1,0-0.2,0.1-0.3c0-0.1,0-0.2,0.1-0.2
						c0.1-0.6,0.2-1.1,0.3-1.7c0-0.1,0-0.2,0-0.2c5.3,3.5,13.9,17.2,23.1,34.1c2.5,4.6,5.1,9.5,7.7,14.5c4.5,8.7,8.9,17.6,13,26.2
						C376.4,559,385.5,579.8,385.2,579.7z"/>
					<path class="st34" d="M385.2,579.7c-0.1,0-0.2,0-0.3,0c0,0-0.1,0-0.1,0c0,0-0.1,0-0.1,0.1c0,0-0.1,0-0.1,0.1
						c-0.1,0-0.1,0.1-0.2,0.1c0,0-0.1,0.1-0.1,0.1c0,0-0.1,0.1-0.1,0.1c-0.9,0.9-2.1,3.1-3.4,6.4c-0.2,0.6-0.5,1.3-0.8,2
						c-0.2,0.6-0.4,1.2-0.7,1.8c-0.3,0.9-0.7,1.8-1,2.8c-0.1,0.4-0.3,0.8-0.4,1.2c-0.3,0.9-0.6,1.8-0.9,2.7
						c-0.2,0.5-0.3,0.9-0.5,1.4c-0.6,1.9-1.3,4-1.9,6.2c-0.2,0.7-0.4,1.5-0.7,2.2c-1.4,4.8-2.9,10-4.5,15.8
						c-0.3,0.9-0.5,1.9-0.8,2.8c-1.4,4.9-2.8,10.2-4.2,15.7l-66-52.4c0.1-0.9,0.2-1.8,0.4-2.8c1.3-9.4,4.2-26.8,7.5-45.8
						c0-0.2,0.1-0.4,0.1-0.6c0,0,0,0,0,0c4.4-17.3,7-33.1,8.5-47.4l26.3,1.3l2.6,0.1c2.5,4.6,5.1,9.5,7.7,14.5
						c4.5,8.7,8.9,17.6,13,26.2C376.4,559,385.5,579.8,385.2,579.7z"/>
					<path class="st43" d="M490.4,916.9c-1.8,0.2-3.6,0.4-5.4,0.6c-1.1,0.1-2.2,0.2-3.3,0.4l0,0c-2,0.2-4,0.4-6,0.7
						c-2.4,0.3-4.8,0.6-7.2,0.9c-0.5-1.5-1.1-3-1.6-4.5c-0.5-1.5-1.1-3-1.6-4.4c0,0,0-0.1,0-0.1c0,0,0-0.1,0-0.1h0
						c-0.6-1.8-1.3-3.6-1.9-5.5c-0.1-0.2-0.2-0.5-0.3-0.8c-0.9-2.7-1.8-5.3-2.7-7.9c-0.6-1.7-1.2-3.4-1.7-5.1
						c-8.1-23.6-14.8-44.3-20.3-61.6c-16.2-51.4-24.3-77.1-28-99.4c-0.9-5.3-20.1-102.7-27.1-133.7c-0.7-3.1-1.5-6.3-2.4-9.7
						c-0.4-1.3-0.7-2.7-1.1-4.2c-3.1-11.2-7.3-24.2-13.2-38.5c-1.2-3-2.5-6.1-3.9-9.2c-4.3-9.7-9.3-20-15.3-30.7
						c-1.9-3.4-3.9-6.9-6-10.4c-0.2-0.3-0.3-0.6-0.5-0.9c-6-10-12.7-20.3-20.4-30.9c0,0-0.1-0.1-0.1-0.1c0.1-0.7,0.3-1.4,0.4-2.1
						c0.2-0.9,0.4-1.8,0.5-2.8l96.9-4.2l37.8-1.6c1,19.1,4.1,191.8,11.3,231.8c0.3,1.6,1.7,7.4,3.1,15.4c3.1,17.1,4.1,30,4.5,35.1
						c0.2,2.5,0.5,5.9,0.8,10c0.1,0.5,0.1,1.1,0.1,1.7c0.1,1.3,0.2,2.7,0.3,4.1c0.1,0.7,0.1,1.3,0.2,2c0.1,0.8,0.1,1.6,0.2,2.4
						c0.1,1,0.2,2.1,0.3,3.1c0.3,3.5,0.6,7.4,1,11.5c0.1,1.2,0.2,2.4,0.3,3.7c0.2,1.7,0.3,3.5,0.5,5.4c0.1,1.4,0.2,2.8,0.4,4.2
						c0.2,2.3,0.4,4.8,0.6,7.3c0.1,1.5,0.3,3,0.4,4.6c0.4,4.7,0.8,9.6,1.2,14.6c0.1,1.6,0.3,3.1,0.4,4.7c0,0.4,0.1,0.9,0.1,1.3
						c0.1,1.6,0.3,3.2,0.4,4.8c0.5,5.4,0.9,10.9,1.4,16.7c0.2,2.7,0.5,5.5,0.7,8.3c0.3,3.3,0.6,6.6,0.8,10c0.1,1.5,0.3,3,0.4,4.6
						c0.4,4.2,0.7,8.4,1.1,12.8c0.1,1.6,0.3,3.3,0.4,4.9c0.3,3.1,0.5,6.3,0.8,9.6c0,0.5,0.1,1,0.1,1.5v0.1c0.1,1.5,0.3,3.1,0.4,4.6
						c0.3,3.2,0.6,6.5,0.8,9.8c0,0.4,0.1,0.8,0.1,1.3c0,0.4,0.1,0.8,0.1,1.3c0,0.1,0,0.2,0,0.3c0,0.1,0,0.2,0,0.3
						c0.2,2.1,0.3,4.2,0.5,6.3c0.1,0.9,0.1,1.8,0.2,2.7c0,0.5,0.1,0.9,0.1,1.4C490.3,915.7,490.4,916.3,490.4,916.9z"/>
					<linearGradient id="SVGID_26_" gradientUnits="userSpaceOnUse" x1="418.2159" y1="670.8671" x2="487.9302" y2="670.8671">
						<stop  offset="0" style="stop-color:#153E5C"/>
						<stop  offset="1" style="stop-color:#271C41"/>
					</linearGradient>
					<path class="st46" d="M487.9,887.2L487.9,887.2c-2.7,0.9-6.3,2-10.5,3.3c-0.2-0.9-0.3-1.9-0.5-2.8
						c-13.6-81.2-26.2-165.2-37.5-251.8c-4.4-33.7-8.4-67-12.2-99.9c-0.3-2.6-0.6-5.1-0.9-7.6c-2.9-25.4-5.6-50.6-8.2-75.6l37.8-1.6
						c1,19.1,4.1,191.8,11.3,231.8c0.3,1.6,1.7,7.4,3.1,15.4c3.1,17.1,4.1,30,4.5,35.1c0.2,2.5,0.5,5.9,0.8,10
						c0.1,0.5,0.1,1.1,0.1,1.7c0.1,1.3,0.2,2.7,0.3,4.1c0.1,0.7,0.1,1.3,0.2,2c0.1,0.8,0.1,1.6,0.2,2.4c0.1,1,0.2,2.1,0.3,3.1
						c0.3,3.5,0.6,7.4,1,11.5c0.1,1.2,0.2,2.4,0.3,3.7c0.2,1.7,0.3,3.5,0.5,5.4c0.1,1.4,0.2,2.8,0.4,4.2c0.2,2.3,0.4,4.8,0.6,7.3
						c0.1,1.5,0.3,3,0.4,4.6c0.4,4.7,0.8,9.6,1.2,14.6c0.1,1.6,0.3,3.1,0.4,4.7c0,0.4,0.1,0.9,0.1,1.3c0.1,1.6,0.3,3.2,0.4,4.8
						c0.5,5.4,0.9,10.9,1.4,16.7c0.2,2.7,0.5,5.5,0.7,8.3c0.3,3.3,0.6,6.6,0.8,10c0.1,1.5,0.3,3,0.4,4.6c0.4,4.2,0.7,8.4,1.1,12.8
						c0.1,1.6,0.3,3.3,0.4,4.9c0.3,3.1,0.5,6.3,0.8,9.6C487.8,886.2,487.9,886.7,487.9,887.2z"/>
				</g>
				<path class="st31" d="M299.9,889.6c-0.1,0.3-0.2,0.5-0.3,0.8c-0.4,1.4-0.9,2.7-1.4,4.1c-1.1,3.3-2,6.2-2.9,8.9
					c-0.1,0.2-0.1,0.4-0.2,0.6c0.1,0.1,0.3,0.1,0.4,0.3c0.2,0.2,0.4,0.3,0.5,0.6c0.4,0.6,0.5,1.3,0.5,1.9c-0.1,0.4-0.2,0.8-0.2,1.2
					l-2.3-0.5l-0.6-0.1l-5.6-1.1l-11.5-2.3l-8.2-1.7l0,0l-1.6-0.3c0.8-1.6,1.5-3.4,2.2-5.4c0.2-2.1,0.5-4.4,0.7-6.8
					c0.3-2.4,0.5-4.9,0.8-7.5L299.9,889.6z"/>
				<path class="st31" d="M490.3,904.6l-0.9,0.2l-0.2,0.1l-0.6,0.1l-17.1,3.9l-6.3,1.4l0,0l-3.4,0.8c0.4-2.1,0.6-4.5,0.7-7.1
					c0.2,0,0.3,0.1,0.5,0.1c-0.9-2.7-1.8-5.3-2.7-7.9c-0.6-1.7-1.2-3.4-1.7-5.1l18.4-3.3l10.9-2c0,0.5,0.1,1,0.1,1.5l0,0.1
					c0.1,1.5,0.3,3.1,0.4,4.6c0.3,3.2,0.6,6.5,0.8,9.9l0,0c0.1,0.8,0.1,1.7,0.2,2.5c0,0.1,0,0.2,0,0.3c0.1,0,0.1,0,0.1,0
					c0.1,0,0.1,0,0.2,0s0.1,0,0.2,0C490,904.5,490.2,904.5,490.3,904.6z"/>
				<g id="shoes_1_">
					<path class="st4" d="M295.4,903.4c-0.1,0.2-0.1,0.4-0.2,0.6c-0.2,0.7-0.5,1.5-0.7,2.1c0,0.1-0.1,0.2-0.1,0.4
						c-0.1,0.2-0.2,0.5-0.2,0.7c0,0.1-0.1,0.2-0.1,0.4c-0.1,0.3-0.2,0.6-0.3,0.9c0,0.1,0,0.1-0.1,0.2c-0.1,0.3-0.2,0.6-0.3,0.9
						c-0.2,0.7-0.4,1.3-0.6,1.9c-0.1,0.2-0.1,0.3-0.1,0.5c0,0.1-0.1,0.2-0.1,0.3c-1,0.1-2.4,0.2-4.1,0.2c-7.2,0.2-18.9-0.1-21.4-0.7
						c0.3-2.4,0.6-5.2,0.9-8.2c0-0.3,0.1-0.7,0.1-1c0.1-0.9,0.2-1.8,0.3-2.7c0,0,0,0,0-0.1c1.8,0.2,3.8,0.5,5.9,0.8
						C280.9,901.4,288.8,902.5,295.4,903.4z"/>
					<path class="st19" d="M296.5,906.8c-0.1,0.4-0.2,0.8-0.2,1.2c-1.2,6.6-2.5,13.3-3.7,19.9l-1,9.9l-0.4,4
						c-1.9,0.3-3.8,0.6-5.6,0.9c-0.1,0-0.2,0-0.3,0c-1.7,0.3-3.4,0.5-5.1,0.8c-1.7,0.3-3.4,0.5-5.1,0.8c-1.4,0.2-2.8,0.4-4.2,0.6
						c-0.6,0.1-1.1,0.2-1.7,0.2c-1.3,0.2-2.5,0.4-3.7,0.6c-0.8,0.1-1.5,0.2-2.3,0.3c-0.3,0-0.7,0.1-1,0.1c-0.3,0-0.7,0.1-1,0.1
						c-0.1,0-0.1,0-0.2,0c-0.7,0.1-1.4,0.2-2.1,0.3c-0.7,0.1-1.3,0.2-2,0.3c-1.5,0.2-2.9,0.4-4.3,0.6c-1.2,0.2-2.4,0.3-3.5,0.5
						c-0.6,0.1-1.1,0.1-1.7,0.2c-0.8,0.1-1.5,0.2-2.3,0.3c-0.6,0.1-1.2,0.1-1.7,0.2c-0.1,0-0.1,0-0.2,0c-1.2,0.2-2.4,0.3-3.6,0.4
						c-0.6,0.1-1.1,0.1-1.6,0.2c-0.5,0.1-1,0.1-1.4,0.2c-0.5,0.1-0.9,0.1-1.4,0.2c-0.9,0.1-1.8,0.2-2.7,0.3
						c-1.6,0.2-3.1,0.3-4.5,0.4c-0.6,0.1-1.1,0.1-1.6,0.2c-0.6,0.1-1.2,0.1-1.8,0.2c-0.9,0.1-1.7,0.1-2.5,0.2
						c-0.4,0-0.8,0.1-1.1,0.1c-0.3,0-0.5,0-0.8,0.1c-0.4,0-0.8,0.1-1.2,0.1c-0.5,0-1,0.1-1.4,0.1c-0.2,0-0.3,0-0.5,0
						c-0.3,0-0.6,0-0.9,0.1c-0.2,0-0.4,0-0.7,0c-11.6,0.6-15.5-0.1-16.8-0.6c0,0,0,0,0,0c-0.4-0.2-0.6-0.3-0.6-0.4c0,0,0,0,0,0
						c-0.9-2.1,0.6-5.1,3.5-8.3c4.1-4.6,10.8-9.7,16.8-12.9c21.7-11.5,29-7.2,38-14.5c2.9-2.4,6.7-6.2,9.9-12.8
						c0.8-1.6,1.5-3.4,2.2-5.4c0.1-0.2,0.1-0.4,0.2-0.6c1.2,0.6,2.8,1.6,4.4,3.2c0.4,0.4,0.7,0.8,1,1.1c1,1.3,1.6,2.5,2,3.6
						c0.8,2,1,3.5,2.5,4.4c2.4,1.4,5.8-0.4,9.1-2.1c2.9-1.6,5.7-3.1,7.3-2.3c0.1,0.1,0.3,0.1,0.4,0.3c0.2,0.2,0.4,0.3,0.5,0.6
						C296.4,905.4,296.5,906.2,296.5,906.8z"/>
					<path class="st29" d="M238,937.3c-0.1,0-0.2-0.1-0.3-0.2c-3.2-4.1-11.8-14.9-12.5-15.5c-0.2-0.2-0.2-0.4,0-0.6
						c0.2-0.2,0.4-0.2,0.6,0c0.9,0.8,12.1,15,12.6,15.6c0.1,0.2,0.1,0.5-0.1,0.6C238.2,937.3,238.1,937.3,238,937.3z"/>
					<path class="st29" d="M246.3,934.4c-0.1,0-0.2-0.1-0.3-0.2c-3.2-4.1-11.8-14.9-12.5-15.5c-0.2-0.2-0.2-0.4,0-0.6
						c0.2-0.2,0.4-0.2,0.6,0c0.9,0.8,12.1,15,12.6,15.6c0.1,0.2,0.1,0.5-0.1,0.6C246.5,934.4,246.4,934.4,246.3,934.4z"/>
					<path class="st29" d="M254.7,931.5c-0.1,0-0.2-0.1-0.3-0.2c-3.2-4.1-11.8-14.9-12.5-15.5c-0.2-0.2-0.2-0.4,0-0.6
						c0.2-0.2,0.4-0.2,0.6,0c0.9,0.8,12.1,15,12.6,15.6c0.1,0.2,0.1,0.5-0.1,0.6C254.9,931.5,254.8,931.5,254.7,931.5z"/>
					<circle class="st11" cx="280.2" cy="921.9" r="4.2"/>
					<path class="st44" d="M294.8,905.2l-2.2,22.8l-1,9.9l-0.4,4c-75.4,12.2-89.7,10.1-92.4,9c0,0,0,0,0,0c-0.5-0.2-0.6-0.4-0.6-0.4
						c-0.9-2.1,0.6-5.1,3.5-8.3c4.1-4.6,10.8-9.7,16.8-12.9c21.7-11.5,29-7.2,38-14.5c3.7-3,8.8-8.5,12.3-18.8
						c1.2,0.6,2.8,1.6,4.4,3.2c3.7,3.8,3.3,7.3,5.5,9.1C280.7,910,284.9,910.4,294.8,905.2z"/>
					<path class="st11" d="M292.6,928l-1,9.9l-0.4,4c-75.4,12.2-89.7,10.1-92.4,9c0,0,0,0,0,0c-0.2-0.1-0.4-0.2-0.6-0.4
						c-0.9-2.1,0.6-5.1,3.5-8.3c6.8,1.4,18.3,3.2,32.1,1.8C261.9,941.3,282.8,927.5,292.6,928z"/>
					<path class="st4" d="M490.3,915.1l-5,1.6l-3.5,1.1l0,0c-2,0.2-4,0.5-6,0.7c-2.4,0.3-4.8,0.6-7.2,0.9c-0.5-1.5-1.1-3-1.6-4.5
						c-0.5-1.5-1-3-1.6-4.4c0-0.1-0.1-0.2-0.1-0.3c-0.6-1.8-1.3-3.6-1.9-5.5c0.6,0,1.3-0.1,2-0.1l0,0c6.4-0.4,17.4-1.3,23.8-2.9l0,0
						c0.1,0.8,0.1,1.7,0.2,2.5c0,0.1,0,0.2,0,0.3c0,0.1,0,0.2,0,0.3c0.2,2.1,0.3,4.2,0.5,6.3c0.1,0.9,0.1,1.8,0.2,2.7
						C490.2,914.2,490.3,914.7,490.3,915.1z"/>
					
						<linearGradient id="SVGID_27_" gradientUnits="userSpaceOnUse" x1="237.3008" y1="917.5342" x2="282.7688" y2="917.5342" gradientTransform="matrix(0.9991 -4.280309e-02 4.280309e-02 0.9991 -24.4685 20.6584)">
						<stop  offset="0.4713" style="stop-color:#19233D"/>
						<stop  offset="1" style="stop-color:#271C41"/>
					</linearGradient>
					<path class="st47" d="M296.5,906.8c-0.1,0.4-0.2,0.8-0.2,1.2c-1.2,6.6-2.5,13.3-3.7,19.9l-1,9.9l-0.4,4
						c-1.9,0.3-3.8,0.6-5.6,0.9c-0.1,0-0.2,0-0.3,0c-1.7,0.3-3.4,0.5-5.1,0.8c-1.7,0.3-3.4,0.5-5.1,0.8c-1.4,0.2-2.8,0.4-4.2,0.6
						c-0.6,0.1-1.1,0.2-1.7,0.2c-1.3,0.2-2.5,0.4-3.7,0.6c-0.8,0.1-1.5,0.2-2.3,0.3c-0.7,0.1-1.3,0.2-2,0.3c-0.1,0-0.1,0-0.2,0
						c-1.4,0.2-2.7,0.4-4.1,0.6c-1.5,0.2-2.9,0.4-4.3,0.6l10.5-10.4l25.2-24.9l4.9-4.9l0.9-0.9l0,0l1.7-1.7
						C296.4,905.4,296.5,906.2,296.5,906.8z"/>
					<path class="st19" d="M497.2,941.3c-2,1-4,1.9-5.9,2.8c-0.5,0.2-1,0.5-1.4,0.7c-0.5,0.2-0.9,0.5-1.4,0.7l-1.4,0.7
						c-0.2,0.1-0.4,0.2-0.6,0.3c-0.5,0.2-0.9,0.5-1.4,0.7c-0.2,0.1-0.3,0.2-0.5,0.2c-0.5,0.2-1,0.5-1.5,0.7c-0.7,0.3-1.3,0.6-2,1
						c-0.3,0.1-0.6,0.3-0.9,0.4c-0.3,0.2-0.7,0.3-1,0.5c-0.4,0.2-0.9,0.4-1.3,0.6c-1.1,0.5-2.2,1-3.3,1.6c-0.1,0.1-0.3,0.1-0.4,0.2
						c-0.3,0.1-0.6,0.3-0.9,0.4c-1.3,0.6-2.6,1.2-3.9,1.8c-0.8,0.4-1.5,0.7-2.3,1c-3.9,1.8-7.5,3.4-10.8,4.9
						c-0.6,0.2-1.1,0.5-1.7,0.7c-7.7,3.4-14,6-19.2,8.1c-0.7,0.3-1.3,0.5-1.9,0.8c-10.7,4.2-16.4,5.7-19.4,6.2c-0.1,0-0.2,0-0.3,0.1
						c-0.9,0.1-1.5,0.2-1.9,0.2c-0.1,0-0.2,0-0.3,0c0,0,0,0,0,0c-0.5-0.1-0.7-0.2-0.7-0.2c-1.5-1.7-0.9-5,0.9-8.9
						c2.6-5.6,7.6-12.4,12.4-17.2c17.4-17.3,25.7-15.2,32.2-24.8c2.1-3,4.5-7.6,5.7-14.5c0.4-2.1,0.6-4.5,0.7-7.1
						c0.2,0,0.3,0.1,0.5,0.1c0.7,0.1,1.4,0.3,2.2,0.6l0,0c0.7,0.3,1.6,0.6,2.4,1.1c1.7,1,2.9,2,3.8,3.1c1.6,1.8,2.4,3.4,4.1,4.1
						c2,0.7,5.7,0.1,12.7-7.5c0.1-0.2,0.3-0.3,0.4-0.4c0.2-0.2,0.5-0.3,0.7-0.4c0,0,0.1,0,0.1,0c0.1,0,0.1,0,0.1,0
						c0.1,0,0.1,0,0.2,0s0.1,0,0.2,0c0.1,0,0.3,0.1,0.4,0.1c0.2,0.1,0.4,0.3,0.6,0.5c0,0,0.1,0.1,0.1,0.2c0.1,0.2,0.3,0.4,0.4,0.7
						c0,0.1,0.1,0.2,0.2,0.3c0.1,0.1,0.1,0.3,0.2,0.4c0,0.1,0.1,0.2,0.1,0.4c0.1,0.2,0.1,0.4,0.2,0.6c0,0.1,0.1,0.3,0.1,0.4
						c0,0.2,0.1,0.4,0.2,0.5c0.1,0.4,0.2,0.8,0.3,1.2c0.1,0.6,0.3,1.3,0.4,2.1c0.3,1.6,0.5,3.5,0.7,5.7c0,0.5,0.1,1.1,0.1,1.6
						c0.2,2.5,0.4,5.3,0.5,8.4c0.6,3.2,1.3,6.5,1.9,9.7L497.2,941.3z"/>
					<path class="st11" d="M445.1,952.2c-0.1,0.1-0.2,0.2-0.4,0.2c-0.1,0-0.2,0-0.2-0.1c-2.9-2-8.9-6.2-12.8-8.9
						c0.2-0.2,0.5-0.4,0.7-0.5c4.8,3.3,12.2,8.4,12.6,8.7C445.2,951.7,445.2,952,445.1,952.2z"/>
					<path class="st11" d="M452.2,947c-0.1,0.1-0.2,0.2-0.3,0.2c-0.1,0-0.2,0-0.2-0.1c-2.9-2-8.9-6.2-12.8-8.9
						c0.3-0.2,0.5-0.3,0.8-0.5c4.8,3.2,12.1,8.4,12.6,8.7C452.3,946.5,452.4,946.8,452.2,947z"/>
					<path class="st11" d="M459.4,941.8c-0.1,0.1-0.2,0.2-0.3,0.2c-0.1,0-0.2,0-0.2-0.1c-2.7-1.9-8.1-5.7-12.1-8.3
						c0.3-0.2,0.6-0.3,0.8-0.5c4.8,3.3,11.3,7.8,11.7,8.1C459.5,941.3,459.6,941.6,459.4,941.8z"/>
					<circle class="st11" cx="480.8" cy="925.4" r="4.2"/>
					<path class="st44" d="M497.2,941.3c-68.7,33.4-83,35.5-85.8,35.3c0,0,0,0,0,0c-0.5,0-0.7-0.2-0.7-0.2c-1.5-1.7-0.9-5,0.9-9
						c2.6-5.6,7.6-12.4,12.4-17.2c2.8-2.8,5.3-5,7.7-6.9c0.2-0.2,0.5-0.4,0.7-0.5c2.4-1.9,4.5-3.4,6.5-4.6c0.3-0.2,0.5-0.3,0.8-0.5
						c2.7-1.7,5.1-3,7.2-4.2c0.3-0.2,0.6-0.3,0.8-0.5c3.4-2,6.1-3.9,8.6-7.6c2.7-4,6-10.7,6.4-21.5c1.3,0.2,3.1,0.7,5.1,1.8
						c4.7,2.6,5.3,6,7.9,7.1c2.3,1,6.5,0.1,14.4-7.7l4.5,22.5l1.9,9.7L497.2,941.3z"/>
					<path class="st11" d="M494.4,927.7l1.9,9.7l0.8,3.9c-68.7,33.4-83,35.5-85.8,35.3c0,0,0,0,0,0c-0.2-0.1-0.4-0.1-0.7-0.2
						c-1.5-1.7-0.9-5.1,0.9-9c7-0.6,18.4-2.2,31.3-7.5C468.9,949.2,484.9,930,494.4,927.7z"/>
					
						<linearGradient id="SVGID_28_" gradientUnits="userSpaceOnUse" x1="457.1682" y1="928.8057" x2="481.7373" y2="928.8057" gradientTransform="matrix(0.9991 -4.280309e-02 4.280309e-02 0.9991 -24.4685 20.6584)">
						<stop  offset="0.4713" style="stop-color:#19233D"/>
						<stop  offset="1" style="stop-color:#271C41"/>
					</linearGradient>
					<path class="st48" d="M497.2,941.3c-2,1-4,1.9-5.9,2.8c-0.5,0.2-1,0.5-1.4,0.7c-0.5,0.2-0.9,0.5-1.4,0.7l-1.4,0.7
						c-0.2,0.1-0.4,0.2-0.6,0.3c-0.5,0.2-0.9,0.5-1.4,0.7c-0.2,0.1-0.3,0.2-0.5,0.2c-0.5,0.2-1,0.5-1.5,0.7c-0.7,0.3-1.3,0.6-2,1
						c-0.3,0.1-0.6,0.3-0.9,0.4c-0.3,0.2-0.7,0.3-1,0.5c-0.4,0.2-0.9,0.4-1.3,0.6c-1.1,0.5-2.2,1-3.3,1.6c-0.1,0.1-0.3,0.1-0.4,0.2
						c-0.3,0.1-0.6,0.3-0.9,0.4c1.6-4.8,3.3-9.7,5-14.6c2.4-7.2,4.8-14.3,7-20.7c0.1-0.3,0.2-0.5,0.3-0.8c1.5-4.3,2.8-8.4,3.9-11.9
						c0-0.1,0.1-0.2,0.1-0.3c0,0,0.1,0,0.1,0c0.1,0,0.1,0,0.1,0c0.1,0,0.1,0,0.2,0s0.1,0,0.2,0c0.1,0,0.3,0.1,0.4,0.1
						c0.2,0.1,0.4,0.3,0.6,0.5c0,0,0.1,0.1,0.1,0.2c0.1,0.2,0.3,0.4,0.4,0.7c0,0.1,0.1,0.2,0.2,0.3c0.1,0.1,0.1,0.3,0.2,0.4
						c0,0.1,0.1,0.2,0.1,0.4c0.1,0.2,0.1,0.4,0.2,0.6c0,0.1,0.1,0.3,0.1,0.4c0,0.2,0.1,0.4,0.2,0.5c0.1,0.4,0.2,0.8,0.3,1.2
						c0.1,0.6,0.3,1.3,0.4,2.1c0.3,1.6,0.5,3.5,0.7,5.7c0,0.5,0.1,1.1,0.1,1.6c0.2,2.5,0.4,5.3,0.5,8.4c0.6,3.2,1.3,6.5,1.9,9.7
						L497.2,941.3z"/>
				</g>
			</g>
			<g id="body">
				<path class="st4" d="M458.4,530.7c-10.2,1.8-20.6,3.6-31.1,5.3c-19.9,3.1-39.3,5.7-58.1,7.9h-0.1c-0.8,0-1.7,0.1-2.5,0.1
					c-17.8,0.6-35-0.5-51.8-3c-2.7-0.4-5.5-0.8-8.2-1.3c-0.1,0-0.1,0-0.2,0c8-38.8,9.4-70.5,8.2-95.3v0c-0.4-8.6-1.1-16.3-2-23.2
					c-2.2-17.4-7.7-50-5.9-93.7c0.4-9.4,1.1-19.2,2.3-29.6c0.1-0.5,0.1-0.9,0.1-1.2c0,0,0-0.1,0-0.1c0,0,0,0,0,0
					c7-5.1,14.1-10.1,21.1-15.2c4.3-3.1,8.5-6.2,12.8-9.2c0,0,0,0,0,0l-8.8-32.7l6.4,1.4l0.8,0.2l21,4.7l4.4,10.3l1.6,3.8
					c4.8-5.7,9.6-11.4,14.3-17.1l5.1-1.6l6.6-2.1l7.9-2.5l8.1-2.6l-4.1,22.6c0.1,0,0.1,0.1,0.2,0.1c4.4,2.4,8.8,4.8,13.2,7.1
					c7,3.8,14.1,7.6,21.2,11.4c0.7,0.4,1.3,0.7,2,1.1c2,1.1,4,2.2,6,3.2c0.1,0,0.1,0.1,0.2,0.1c2.5,1.4,5.1,2.9,7.7,4.5
					c-0.8,8.8-1.6,20.1-2.1,33.4c-0.1,2.2-0.2,4.4-0.2,6.7c0,0.6,0,1.1,0,1.7c0,2.3,0,4.8,0,7.7c0,2.9,0,6.1,0,9.5v0.3
					c0,3.8,0,7.8,0,12.2c0,18.1,0.1,32.7,0.1,44.7c0,0.3,0,0.7,0,1c0,1.4,0,2.8,0,4.1c0,0.4,0,0.9,0,1.3c0,0.4,0,0.9,0,1.3
					c0,0.9,0,1.7,0,2.6c0,1.3,0,2.5,0,3.7v0c0,0.5,0,1,0,1.4c0,0.8,0,1.6,0,2.4c0,0.7,0,1.3,0,2c0,1.7,0,3.3,0.1,4.9
					c0,2.7,0.1,5.2,0.2,7.6v0c0,1.5,0.1,2.9,0.1,4.3c0,0.5,0,1.1,0.1,1.6c0,0.4,0,0.8,0,1.2c0,0.4,0,0.8,0,1.1c0,0.4,0,0.7,0,1.1
					c0.1,1.4,0.1,2.7,0.2,4c0.1,2.8,0.2,4.8,0.2,5c0,0.1,0,0.3,0,0.5c0,0,0,0.1,0,0.1c0,0.1,0,0.2,0,0.3c0,0.4,0,1,0.1,1.7
					c0,0.2,0,0.4,0,0.6c0,0.2,0,0.4,0,0.7c0,0.2,0,0.3,0,0.5c0,1.2,0.1,2.7,0.1,4.4c0,0.2,0,0.5,0,0.8c0,0.7,0,1.3,0.1,2.1
					c0,0.4,0,0.9,0.1,1.4c0.1,1.9,0.1,4,0.2,6.4c0,0.6,0,1.2,0.1,1.9c0,0.2,0,0.5,0,0.7c0,0.3,0,0.6,0,1c0,0.4,0,0.8,0,1.3
					c0,0.3,0,0.6,0,0.9c0,0.2,0,0.3,0,0.5c0,0.4,0,0.7,0,1.1c0,0.1,0,0.2,0,0.3c0,0.5,0,0.9,0,1.4c0,0.5,0,1,0,1.5
					c0,0.6,0,1.1,0.1,1.7c0,0.2,0,0.3,0,0.5c0.1,1.9,0.1,3.8,0.2,5.9c0,0.5,0,1.1,0.1,1.6c0,0.7,0,1.4,0.1,2.2
					c0.1,2.1,0.1,4.3,0.2,6.5c0,1.6,0.1,3.2,0.1,4.9c0,0.7,0,1.4,0.1,2.1c0.1,1.8,0.1,3.7,0.2,5.7c0,1.1,0.1,2.2,0.1,3.3
					c0,0.8,0,1.6,0.1,2.4c0.1,1.5,0.1,3,0.1,4.6c0,0.6,0,1.2,0.1,1.8c0,0.6,0,1.2,0.1,1.9c0,0.6,0,1.2,0.1,1.9c0,0.4,0,0.8,0,1.2
					C458.4,529.8,458.4,530.3,458.4,530.7z"/>
				<circle class="st49" cx="385.9" cy="250" r="2.1"/>
				<circle class="st49" cx="378.7" cy="258.8" r="2.1"/>
				<linearGradient id="SVGID_29_" gradientUnits="userSpaceOnUse" x1="306.7562" y1="283.4721" x2="358.5735" y2="283.4721">
					<stop  offset="0" style="stop-color:#FFFFFF"/>
					<stop  offset="0.7781" style="stop-color:#87AEB4"/>
				</linearGradient>
				<path class="st50" d="M358.6,275.3c0,13.8-7.8,27.8-21.2,38.1c-1.5,1.2-3.2,2.3-4.9,3.4c-7.4,4.7-16.1,8.4-25.8,10.6
					c0.4-9.4,1.1-19.2,2.3-29.6c0.1-0.5,0.1-0.9,0.1-1.2c0,0,0-0.1,0-0.1c0,0,0,0,0,0c7-5.1,14.1-10.1,21.1-15.2
					c4.3-3.1,8.5-6.2,12.8-9.2c0,0,0,0,0,0v0l-8.8-32.7l6.4,1.4v0l0.8,0.2c3.5,3.3,11.2,11.2,14.9,22.2
					C357.8,267,358.6,271,358.6,275.3z"/>
				
					<linearGradient id="SVGID_30_" gradientUnits="userSpaceOnUse" x1="394.6771" y1="260.4883" x2="433.7605" y2="260.4883" gradientTransform="matrix(0.9991 -4.280309e-02 4.280309e-02 0.9991 -24.4685 20.6584)">
					<stop  offset="0" style="stop-color:#153E5C"/>
					<stop  offset="1" style="stop-color:#271C41"/>
				</linearGradient>
				<path class="st51" d="M420.1,263.9l-38.9,6.2l25.6-13.4C411.3,259.2,415.7,261.5,420.1,263.9z"/>
				<linearGradient id="SVGID_31_" gradientUnits="userSpaceOnUse" x1="314.7594" y1="434.2343" x2="458.4014" y2="434.2343">
					<stop  offset="0" style="stop-color:#153E5C"/>
					<stop  offset="0.8052" style="stop-color:#87AEB4"/>
				</linearGradient>
				<path class="st52" d="M458.4,530.7c-10.2,1.8-20.6,3.6-31.1,5.3c-19.9,3.1-39.3,5.7-58.1,7.9h-0.1c-0.8,0-1.7,0.1-2.5,0.1
					c-17.8,0.6-35-0.5-51.8-3c5.9-73.3,30.6-108.8,53.8-127.7c14.8-12.1,24.8-13.9,41-26.7c21.7-17.2,35.9-39.4,45.3-62.4
					c0,0.6,0,1.1,0,1.7c0,7,0,17.3,0,29.7c0.1,45.9,0.1,68.8,0.8,86.5c0.1,1.4,0.1,2.7,0.2,4c0.1,2.8,0.2,4.8,0.2,5
					C456.2,453.7,456.8,473.3,458.4,530.7z"/>
			</g>
			<g id="hand">
				<path class="st31" d="M412.3,429c-0.3,3.7-1.9,7.8-2.6,9.4c-0.8,0.2-1.6,0.3-2.3,0.5c-1.7,0.3-3.2,0.6-4.4,0.9
					c-0.1,0-0.2,0-0.3,0.1c-13.6,2.8-20.4,4.2-22.1,5.1c-1.9,1.1-4.6,3-5.9,2.1c-0.8-0.6-0.6-1.9-0.6-2.3c0.4-4.3,8.5-7.3,11.4-8.3
					c-16-2.4-30,16.3-31.8,14.9c-1-0.8-1-1.7-0.9-2.3c0.1-0.3,0.2-0.5,0.3-0.7c-0.5,0.7-1.9,2.5-3.5,2.2c-2-0.4,0.6-4.5,0.6-4.5
					c-1.4,1.4-2.1,2.2-2.6,2c-0.7-0.2-0.8-1.7-0.8-2c-0.2-5.8,11.6-14.3,25-18.3c0.5-0.1,0.9-0.3,1.3-0.4c0,0,1.2-0.3,2.5-0.6
					c7.3-1.7,12-2.1,20-2.9c0.7-0.1,1.4-0.1,2-0.2c1.8-0.2,3.4-0.4,4.7-0.5c6.5-0.7,7.5-0.8,8.5,0.2
					C412.1,424.6,412.4,426.7,412.3,429z"/>
				<path class="st32" d="M412.3,429c-0.3,3.7-1.9,7.8-2.6,9.4c-0.8,0.2-1.6,0.3-2.3,0.5c-1.7,0.3-3.2,0.6-4.4,0.9
					c-0.1,0-0.2,0-0.3,0.1c-13.6,2.8-20.4,4.2-22.1,5.1c-1.9,1.1-4.6,3-5.9,2.1c-0.8-0.6-0.6-1.9-0.6-2.3c0.4-4.3,8.5-7.3,11.4-8.3
					c-16-2.4-30,16.3-31.8,14.9c-1-0.8-1-1.7-0.9-2.3c4-5.6,12-13.1,26.9-16.8C403.6,426.4,398.9,433.1,412.3,429z"/>
			</g>
			<g id="watch">
				
					<linearGradient id="SVGID_32_" gradientUnits="userSpaceOnUse" x1="404.3674" y1="428.7122" x2="413.5067" y2="428.7122" gradientTransform="matrix(0.9991 -4.280309e-02 4.280309e-02 0.9991 -24.4685 20.6584)">
					<stop  offset="5.557009e-04" style="stop-color:#000000"/>
					<stop  offset="0.8106" style="stop-color:#000000"/>
				</linearGradient>
				<path class="st53" d="M407.3,438.9c-1.7,0.3-3.2,0.6-4.4,0.9c-0.1,0-0.2,0-0.3,0.1c-0.7-3-1.6-6-2.7-9.3
					c-0.8-2.4-1.6-4.7-2.5-6.9c1.8-0.2,3.4-0.4,4.7-0.5c1,2.2,2,4.6,2.9,7.2C406.1,433.4,406.8,436.2,407.3,438.9z"/>
				<path d="M406,427.4l0.3-1.6l-2.2-0.4l0,0.1l-1.2-1c-0.7-0.6-2.1-1.1-3.2-1.2l-3.8-0.3l0.1-0.6l-2-0.8l-0.3,1.6
					c-0.1,0.2,0,0.4,0.3,0.6l2.7,2.4c0.7,0.6,2.3,1.2,3.5,1.3l4.8,0.3C405.5,427.8,405.9,427.7,406,427.4z"/>
				
					<linearGradient id="SVGID_33_" gradientUnits="userSpaceOnUse" x1="475.5803" y1="578.9875" x2="488.6997" y2="578.9875" gradientTransform="matrix(0.9365 0.3508 -0.3508 0.9365 151.5811 -287.6419)">
					<stop  offset="0" style="stop-color:#153E5C"/>
					<stop  offset="1" style="stop-color:#271C41"/>
				</linearGradient>
				<path class="st54" d="M405.2,426.1l-4.8-0.3l0,0c-0.3,0-0.7-0.1-1.1-0.2c-0.4-0.1-0.7-0.2-1-0.3c-0.6-0.2-1-0.5-1.4-0.8
					l-0.4-0.4l-2.3-2c-0.7-0.6-0.3-1,0.9-0.9l3.4,0.3l1.3,0.1c0.4,0,0.8,0.1,1.2,0.2c0.3,0.1,0.7,0.2,1,0.4c0.3,0.1,0.6,0.3,0.8,0.4
					l0,0c0.1,0.1,0.2,0.1,0.3,0.2l2.8,2.3C406.6,425.7,406.3,426.2,405.2,426.1z"/>
				
					<linearGradient id="SVGID_34_" gradientUnits="userSpaceOnUse" x1="478.9083" y1="578.9957" x2="482.4404" y2="578.9957" gradientTransform="matrix(0.9365 0.3508 -0.3508 0.9365 151.5811 -287.6419)">
					<stop  offset="0" style="stop-color:#FFFFFF"/>
					<stop  offset="1" style="stop-color:#0A3557"/>
				</linearGradient>
				<path class="st55" d="M401,421.8l-2.8,3.5c-0.6-0.2-1-0.5-1.4-0.8l-0.4-0.4l2.1-2.7l1.3,0.1C400.2,421.6,400.6,421.7,401,421.8z
					"/>
				
					<linearGradient id="SVGID_35_" gradientUnits="userSpaceOnUse" x1="482.1102" y1="578.9691" x2="484.3516" y2="578.9691" gradientTransform="matrix(0.9365 0.3508 -0.3508 0.9365 151.5811 -287.6419)">
					<stop  offset="0" style="stop-color:#FFFFFF"/>
					<stop  offset="1" style="stop-color:#0A3557"/>
				</linearGradient>
				<path class="st56" d="M402.8,422.6c-0.8,1.1-1.6,2.2-2.4,3.2l0,0c-0.3,0-0.7-0.1-1.1-0.2c0.9-1.2,1.8-2.3,2.8-3.5
					C402.3,422.3,402.6,422.4,402.8,422.6z"/>
			</g>
			<g id="hand_3_">
				<path class="st4" d="M524.3,390c-6.8,23.5-37.5,33.2-60.6,40.4c-2.8,0.9-5.6,1.7-8.4,2.4c-17.4,4.5-33,5.8-45.6,5.9
					c0-0.1,0-0.1,0-0.2c-0.3-2.7-0.6-5.4-0.9-8.2c0-0.1,0-0.2,0-0.3v0c-0.2-2.5-0.4-4.9-0.6-7.3h0c0.4-0.2,0.8-0.4,1.1-0.6
					c2.1-1,4-2,6-2.9c9.6-4.6,17.7-8.5,24.6-11.7c4.3-2,8.1-3.8,11.5-5.3c0.1-0.1,0.3-0.1,0.5-0.2c0.8-0.4,1.8-0.8,3-1.4
					c5-2.3,12.7-6.2,18.1-10.3c5.2-4,9.5-7.2,11.4-11.6c0.3-0.8,0.6-1.6,0.8-2.5c2.3-11.5-11.1-26.4-25.1-31.2c-1.9-0.6-3.5-1-5-1.3
					c-0.1,0-0.2,0-0.2,0c-1.8-0.3-3.5-0.4-5-0.6c-2.8-0.3-5.2-0.9-7.9-3.3c-3.7-3.3-6.8-25.7-6.6-44.2c0.1-8.9,1-17,2.9-21.6
					c1,0.5,2,1,3,1.5c0.7,0.3,1.3,0.7,2,1c2,1,4,2.1,6,3.2c0.1,0,0.1,0.1,0.2,0.1c2.5,1.4,5.1,2.9,7.7,4.5
					c11.5,7.1,23.5,16.2,34.7,27.7c2.7,2.8,5.3,5.7,7.9,8.7c13.2,15.7,17.9,27.2,19.8,32.9C523.4,364.9,527.9,377.4,524.3,390z"/>
				
					<linearGradient id="SVGID_36_" gradientUnits="userSpaceOnUse" x1="415.3209" y1="374.7223" x2="534.2339" y2="374.7223" gradientTransform="matrix(0.9991 -4.280309e-02 4.280309e-02 0.9991 -24.4685 20.6584)">
					<stop  offset="0" style="stop-color:#153E5C"/>
					<stop  offset="1" style="stop-color:#271C41"/>
				</linearGradient>
				<path class="st57" d="M524.3,390c-6.8,23.5-37.5,33.2-60.6,40.4c-20.7,6.5-39.4,8.2-54,8.3c0-0.1,0-0.1,0-0.2
					c-0.3-2.7-0.6-5.4-0.9-8.2c0-0.1,0-0.2,0-0.3c17.1-5,78.7-24,99.7-43.1c15.1-13.7-1.6-49.4-16.7-74.9c2.7,2.8,5.3,5.7,7.9,8.7
					c13.2,15.7,17.9,27.2,19.8,32.9C523.4,364.9,527.9,377.4,524.3,390z"/>
				<linearGradient id="SVGID_37_" gradientUnits="userSpaceOnUse" x1="446.8878" y1="347.9774" x2="495.0097" y2="347.9774">
					<stop  offset="0" style="stop-color:#87AEB4"/>
					<stop  offset="1" style="stop-color:#271C41"/>
				</linearGradient>
				<path class="st58" d="M491,373.4c-2.2,2.7-4.8,4.2-6.7,5.1c0.2-0.4,0.6-1.3,0.8-2.5c2.3-11.5-11.1-26.4-25.1-31.2
					c-1.9-0.6-3.5-1-5-1.3c-0.1-0.1-0.1-0.2-0.2-0.3c-1.8-2.6-3.5-5.5-4.8-8.6c-1.3-3.3-5.1-12.4-1.6-15.7c1.3-1.3,3.7-1.7,6.7-1.4
					c11.6,1.2,32.7,13.5,38.1,31.8C494.1,352.6,497.8,365,491,373.4z"/>
			</g>
		</g>
		<g id="window_with_information">
			<path class="st59" d="M400.2,416.1c-0.1,0-0.2,0-0.2,0c-0.4-0.1-0.7-0.6-0.6-1.1l74.7-254.8c0.1-0.4,0.6-0.7,1.1-0.6
				c0.4,0.1,0.7,0.6,0.6,1.1L401,415.5C400.9,415.9,400.6,416.1,400.2,416.1z"/>
			
				<linearGradient id="window_1_" gradientUnits="userSpaceOnUse" x1="501.6862" y1="223.6563" x2="495.7305" y2="-11.5938" gradientTransform="matrix(0.9991 -4.280309e-02 4.280309e-02 0.9991 -24.4685 20.6584)">
				<stop  offset="0" style="stop-color:#D3E0DF"/>
				<stop  offset="0.6644" style="stop-color:#F1F0E2"/>
			</linearGradient>
			<polygon id="window" class="st60" points="543.4,173 418.9,178.3 412.3,23.6 536.8,18.3 			"/>
			<g id="icon_time">
				<path class="st61" d="M460.6,61.4c-6.6,0-12.1-5.2-12.4-11.9c-0.3-6.8,5-12.6,11.9-12.9c6.8-0.3,12.6,5,12.9,11.9
					c0.3,6.8-5,12.6-11.9,12.9C460.9,61.4,460.7,61.4,460.6,61.4z M460.6,37.4c-0.2,0-0.3,0-0.5,0c-6.4,0.3-11.3,5.7-11.1,12
					c0.3,6.4,5.7,11.3,12,11.1c6.4-0.3,11.3-5.7,11.1-12C471.9,42.3,466.7,37.4,460.6,37.4z"/>
				<path class="st61" d="M460.9,49.4c-0.2,0-0.4-0.2-0.4-0.4l-0.4-9.9c0-0.2,0.2-0.4,0.4-0.4c0.3,0,0.4,0.2,0.4,0.4l0.4,9.9
					C461.3,49.2,461.2,49.4,460.9,49.4C460.9,49.4,460.9,49.4,460.9,49.4z"/>
			</g>
			<g id="run">
				<path class="st61" d="M464.8,108.7c-2.3,0-17.8-10.4-19.5-11.6c-0.2-0.1-0.2-0.3-0.1-0.5l5.9-12.1c0.1-0.2,0.3-0.3,0.5-0.2
					c2.5,0.6,4.5,1,6.1,1.3l0.1,0c0.1,0,0.2,0,0.3,0c0.9,0.1,1.7-0.2,2.4-0.4c0.7-0.3,1.5-0.5,2.1,0c0.7,0.6,0.6,1.8,0.3,2.9
					c-1.2,5.9,7.2,11.2,7.8,11.5c9,2.9,7.6,8,7.5,8.3c0,0.2-0.2,0.3-0.4,0.3L464.8,108.7C464.8,108.7,464.8,108.7,464.8,108.7z
					 M446.1,96.6c6.6,4.5,17.2,11.3,18.7,11.3c0,0,0,0,0,0l12.5-0.5c0.1-1,0-4.6-7.1-6.9c0,0-0.1,0-0.1,0c-0.4-0.2-9.6-5.7-8.2-12.5
					c0.2-1.1,0.3-1.8-0.1-2.1c-0.2-0.2-0.5-0.1-1.2,0.2c-0.7,0.3-1.6,0.6-2.7,0.5c-0.1,0-0.2,0-0.4-0.1l-0.1,0
					c-1.5-0.3-3.4-0.7-5.8-1.2L446.1,96.6z"/>
				<path class="st61" d="M469.4,105.8c-2.9,0-4.5-0.3-5.9-0.8c-1.9-0.7-2.5-1.4-3.5-2.6c-0.4-0.4-0.8-0.9-1.3-1.4
					c-0.6-0.6-0.9-0.8-1.4-1.2c-0.2-0.1-0.4-0.3-0.6-0.5l-0.1-0.1c-0.2-0.2-0.5-0.4-1.7-1.4l-0.8-0.7c-3.2-2.8-4.1-3.6-5.6-3.7
					c-0.3,0-0.7,0-1,0c-0.2,0-0.4-0.1-0.5-0.4c0-0.2,0.1-0.4,0.4-0.5c0.4-0.1,0.8-0.1,1.2-0.1c1.7,0.1,2.8,1.1,6.1,3.9l0.8,0.7
					c1.2,1,1.5,1.3,1.7,1.4l0.1,0.1c0.2,0.2,0.4,0.3,0.6,0.5c0.5,0.4,0.8,0.7,1.4,1.3c0.5,0.6,1,1.1,1.3,1.5c1,1.1,1.5,1.8,3.1,2.3
					c1.4,0.5,3.4,1,9,0.7c1.5-0.1,3-0.2,4.5-0.4c0.2,0,0.4,0.1,0.5,0.4c0,0.2-0.1,0.4-0.4,0.5c-1.5,0.2-3,0.3-4.5,0.4
					C471.5,105.8,470.4,105.8,469.4,105.8z"/>
				<path class="st61" d="M459.5,95c-0.4,0-0.7-0.1-0.9-0.2c-0.1-0.1-0.2-0.3-0.1-0.4c0.1-0.5,1.7-1.1,4.6-1.8c0.1,0,0.3,0,0.3,0.1
					l0.6,1c0.1,0.1,0.1,0.2,0,0.3s-0.1,0.2-0.2,0.2C462.6,94.5,460.7,95,459.5,95z M459.4,94.4C459.4,94.4,459.4,94.4,459.4,94.4
					c0.8,0,2.4-0.3,3.9-0.7l-0.3-0.4C461.6,93.6,460.1,94.1,459.4,94.4z"/>
				<path class="st61" d="M461.1,97.8c-0.2,0-0.4,0-0.5-0.1c-0.1-0.1-0.2-0.3-0.2-0.4c0.1-0.5,1.5-1.3,4.3-2.3c0.1,0,0.3,0,0.4,0.1
					l0.7,0.9c0.1,0.1,0.1,0.2,0.1,0.3c0,0.1-0.1,0.2-0.2,0.2C464.3,97.1,462.1,97.8,461.1,97.8z M464.7,95.7
					c-1.4,0.5-2.9,1.2-3.5,1.6c0.7-0.1,2.3-0.6,3.8-1.1L464.7,95.7z"/>
				<path class="st61" d="M462.8,100.3c-0.1,0-0.2,0-0.3,0c-0.2-0.1-0.2-0.2-0.3-0.4c0-0.5,1.3-1.6,3.8-3.1c0.1-0.1,0.3-0.1,0.4,0
					l0.9,0.8c0.1,0.1,0.1,0.2,0.1,0.3c0,0.1-0.1,0.2-0.1,0.2C466,99,463.7,100.3,462.8,100.3z M466.2,97.4c-1.3,0.8-2.6,1.7-3.1,2.2
					c0.7-0.2,2.2-1,3.5-1.8L466.2,97.4z"/>
				<path class="st61" d="M463.5,102.3c-0.1,0-0.1,0-0.2,0c-7.3-3.5-7.3-13.1-7.2-13.5c0-0.2,0.2-0.4,0.4-0.4c0,0,0,0,0,0
					c0.2,0,0.4,0.2,0.4,0.4c0,0.1,0,9.4,6.8,12.7c0.2,0.1,0.3,0.4,0.2,0.6C463.8,102.2,463.6,102.3,463.5,102.3z"/>
			</g>
			<g id="calories">
				<path class="st61" d="M463.8,161.7c-0.5,0-1,0-1.5-0.1c-4.6-0.8-7.8-4.7-9-8.3c-1-2.9-0.5-5.2,0-7.9c0.5-2.7,1.1-5.7,0.4-10
					c-0.3-1.7-0.7-3.3-1.3-4.9c-0.1-0.2,0-0.4,0.1-0.5c0.1-0.1,0.4-0.1,0.5,0c1.5,1.1,2.7,2.4,3.6,3.9c0.9,1.5,1.6,3.2,1.8,4.9
					c0.8-1.6,1.4-3.3,1.8-5c0.6-2.7,0.7-5.5,0.2-8.2c0-0.2,0.1-0.4,0.2-0.5c0.2-0.1,0.4,0,0.5,0.1c1.9,2.1,3.3,4.6,4.3,7.2
					c0.8,2.1,1.2,4.3,1.4,6.5c0.5-1,1-2.1,1.3-3.2c0.5-2,0.6-4,0.3-6c0-0.2,0.1-0.3,0.2-0.4s0.3-0.1,0.5,0c0.4,0.3,0.8,0.7,1.2,1.1
					c3.2,3.3,5.5,8.3,6.1,13.5c0.6,5.6-0.8,10.6-3.8,13.7C472.1,158.1,468.6,161.7,463.8,161.7z M453.6,131.6
					c0.4,1.2,0.7,2.4,0.9,3.6c0.8,4.5,0.2,7.6-0.4,10.3c-0.5,2.6-0.9,4.8,0,7.5c1.1,3.2,4.2,7,8.4,7.7c5,0.8,9.1-3.2,9.5-3.6
					c6.2-6.5,4-19.8-2.3-26.1c-0.1-0.1-0.2-0.2-0.3-0.3c0.1,1.7,0,3.5-0.4,5.2c-0.4,1.7-1.1,3.2-2.1,4.7c-0.1,0.2-0.3,0.2-0.5,0.2
					c-0.2-0.1-0.3-0.2-0.3-0.4c0-2.6-0.5-5.2-1.4-7.6c-0.8-2.1-1.8-4-3.2-5.8c0.2,2.4,0.1,4.7-0.4,7c-0.5,2.2-1.4,4.4-2.6,6.4
					c-0.1,0.2-0.3,0.2-0.5,0.2c-0.2,0-0.3-0.2-0.3-0.4c-0.1-2.1-0.8-4.1-1.9-5.9C455.2,133.3,454.4,132.4,453.6,131.6z"/>
				<path class="st61" d="M460,158c-0.1,0-0.2,0-0.2-0.1c-0.2-0.2-6-3.9-4.1-13.6c0-0.2,0.3-0.4,0.5-0.3c0.2,0,0.4,0.3,0.3,0.5
					c-1.7,9.2,3.7,12.7,3.7,12.8c0.2,0.1,0.3,0.4,0.1,0.6C460.3,158,460.1,158,460,158z"/>
			</g>
			<g id="lines_information">
				<path class="st61" d="M492.1,54.9c-0.2,0-0.4-0.2-0.4-0.4L491.1,41c0-0.2,0.2-0.4,0.4-0.4c0.3,0,0.4,0.2,0.4,0.4l0.6,13.6
					C492.5,54.7,492.3,54.9,492.1,54.9C492.1,54.9,492.1,54.9,492.1,54.9z"/>
				<path class="st61" d="M500.6,54.6c-0.2,0-0.4-0.2-0.4-0.4l-0.6-13.6c0-0.2,0.2-0.4,0.4-0.4c0.3,0,0.4,0.2,0.4,0.4l0.6,13.6
					C501,54.4,500.8,54.6,500.6,54.6C500.6,54.6,500.6,54.6,500.6,54.6z"/>
				<path class="st61" d="M496.3,54.8c-0.2,0-0.4-0.2-0.4-0.4l-0.6-13.6c0-0.2,0.2-0.4,0.4-0.4c0.3,0,0.4,0.2,0.4,0.4l0.6,13.6
					C496.8,54.5,496.6,54.7,496.3,54.8C496.3,54.8,496.3,54.8,496.3,54.8z"/>
				<path class="st61" d="M496.1,149c-0.2,0-0.4-0.2-0.4-0.4l-0.6-13.6c0-0.2,0.2-0.4,0.4-0.4c0.3,0,0.4,0.2,0.4,0.4l0.6,13.6
					C496.6,148.8,496.4,148.9,496.1,149C496.1,149,496.1,149,496.1,149z"/>
				<path class="st61" d="M504.6,148.6c-0.2,0-0.4-0.2-0.4-0.4l-0.6-13.6c0-0.2,0.2-0.4,0.4-0.4c0.3,0,0.4,0.2,0.4,0.4l0.6,13.6
					C505,148.4,504.8,148.6,504.6,148.6C504.6,148.6,504.6,148.6,504.6,148.6z"/>
				<path class="st61" d="M508.8,148.4c-0.2,0-0.4-0.2-0.4-0.4l-0.6-13.6c0-0.2,0.2-0.4,0.4-0.4c0.3,0,0.4,0.2,0.4,0.4l0.6,13.6
					C509.3,148.2,509.1,148.4,508.8,148.4C508.8,148.4,508.8,148.4,508.8,148.4z"/>
				<path class="st61" d="M500.4,148.8c-0.2,0-0.4-0.2-0.4-0.4l-0.6-13.6c0-0.2,0.2-0.4,0.4-0.4c0.3,0,0.4,0.2,0.4,0.4l0.6,13.6
					C500.8,148.6,500.6,148.8,500.4,148.8C500.4,148.8,500.4,148.8,500.4,148.8z"/>
				<path class="st61" d="M506,101.9c-0.2,0-0.4-0.2-0.4-0.4L505,87.9c0-0.2,0.2-0.4,0.4-0.4c0.3,0,0.4,0.2,0.4,0.4l0.6,13.6
					C506.4,101.7,506.2,101.9,506,101.9C506,101.9,506,101.9,506,101.9z"/>
				<path class="st61" d="M514.5,101.5c-0.2,0-0.4-0.2-0.4-0.4l-0.6-13.6c0-0.2,0.2-0.4,0.4-0.4c0.3,0,0.4,0.2,0.4,0.4l0.6,13.6
					C514.9,101.3,514.7,101.5,514.5,101.5C514.5,101.5,514.5,101.5,514.5,101.5z"/>
				<path class="st61" d="M510.2,101.7c-0.2,0-0.4-0.2-0.4-0.4l-0.6-13.6c0-0.2,0.2-0.4,0.4-0.4c0.3,0,0.4,0.2,0.4,0.4l0.6,13.6
					C510.7,101.5,510.5,101.7,510.2,101.7C510.2,101.7,510.2,101.7,510.2,101.7z"/>
				<path class="st61" d="M494.1,102.4c-0.2,0-0.4-0.2-0.4-0.4l-0.6-13.6c0-0.2,0.2-0.4,0.4-0.4c0.3,0,0.4,0.2,0.4,0.4l0.6,13.6
					C494.6,102.2,494.4,102.4,494.1,102.4C494.1,102.4,494.1,102.4,494.1,102.4z"/>
				<path class="st61" d="M498.4,102.2c-0.2,0-0.4-0.2-0.4-0.4l-0.6-13.6c0-0.2,0.2-0.4,0.4-0.4c0.3,0,0.4,0.2,0.4,0.4l0.6,13.6
					C498.8,102,498.6,102.2,498.4,102.2C498.4,102.2,498.4,102.2,498.4,102.2z"/>
			</g>
			
				<rect x="415.5" y="20.9" transform="matrix(0.9991 -4.280309e-02 4.280309e-02 0.9991 -3.7696 20.5434)" class="st62" width="124.6" height="154.9"/>
		</g>
	</g>
</g>
</svg>
