<?xml version="1.0" encoding="utf-8"?>
<!-- Generator: Adobe Illustrator 22.1.0, SVG Export Plug-In . SVG Version: 6.00 Build 0)  -->
<svg version="1.1" xmlns="http://www.w3.org/2000/svg" xmlns:xlink="http://www.w3.org/1999/xlink" x="0px" y="0px"
	 viewBox="0 0 1286 1203.2" style="enable-background:new 0 0 1286 1203.2;" xml:space="preserve">
<style type="text/css">
	.st0{fill:#EEEDEE;}
	.st1{fill:#FFFFFF;}
	.st2{opacity:0.42;fill:#BDD3DE;}
	.st3{fill:none;}
	.st4{fill:#EBDEDE;}
	.st5{opacity:0.7;fill:#EBDEDE;}
	.st6{opacity:0.5;}
	.st7{opacity:0.54;fill:#FFFFFF;}
	.st8{opacity:0.42;}
	.st9{opacity:0.54;fill:#BDD3DE;}
	.st10{opacity:0.5;fill:#FFFFFF;}
	.st11{fill:#002544;}
	.st12{fill:#E6E3F4;}
	.st13{opacity:0.71;fill:#002544;}
	.st14{fill:url(#SVGID_1_);}
	.st15{fill:url(#SVGID_2_);}
	.st16{fill:#F58CBA;}
	.st17{fill:#640042;}
	.st18{fill:#271C41;}
	.st19{fill:#FF667D;}
	.st20{fill:#39215A;}
	.st21{opacity:0.12;fill:url(#SVGID_3_);}
	.st22{fill:#F07125;}
	.st23{opacity:0.42;fill:#271C41;}
	.st24{fill:url(#SVGID_4_);}
	.st25{fill:url(#SVGID_5_);}
	.st26{opacity:0.12;fill:url(#SVGID_6_);}
	.st27{opacity:0.23;fill:url(#SVGID_7_);}
	.st28{fill:url(#hand_front_3_);}
	.st29{fill:url(#hair_back_1_);}
	.st30{fill:url(#head_4_);}
	.st31{fill:url(#hair_front_1_);}
	.st32{fill:none;stroke:#000000;stroke-width:1.2;stroke-linecap:round;stroke-miterlimit:10;}
	.st33{opacity:0.39;fill:#FFFFFF;}
	.st34{fill:url(#SVGID_8_);}
	.st35{fill:url(#SVGID_9_);}
	.st36{opacity:0.29;fill:#365588;}
	.st37{opacity:0.42;fill:url(#SVGID_10_);}
	.st38{fill:#FF7D93;}
	.st39{opacity:0.17;fill:url(#SVGID_11_);}
	.st40{opacity:0.17;fill:url(#SVGID_12_);}
	.st41{opacity:0.38;fill:#365588;}
	.st42{fill:#365588;}
	.st43{opacity:0.12;fill:url(#SVGID_13_);}
	.st44{opacity:0.2;fill:#002544;}
	.st45{opacity:0.32;fill:url(#SVGID_14_);}
	.st46{opacity:0.32;fill:url(#SVGID_15_);}
	.st47{opacity:0.32;fill:url(#shadow_2_);}
	.st48{opacity:0.17;fill:url(#SVGID_16_);}
	.st49{opacity:0.17;fill:url(#SVGID_17_);}
	.st50{opacity:0.36;fill:url(#SVGID_18_);}
	.st51{opacity:0.49;fill:url(#SVGID_19_);}
	.st52{opacity:0.17;fill:url(#SVGID_20_);}
	.st53{fill:url(#SVGID_21_);}
	.st54{fill:url(#SVGID_22_);}
	.st55{fill:url(#SVGID_23_);}
</style>
<g id="background">
	<g id="general_1_">
		<path class="st0" d="M1286,539.9c0,1.4,0,2.7-0.1,4.1c-0.5,19.1-2.2,37.9-5.2,56.4c-0.2,1.3-0.4,2.6-0.6,4c-0.3,1.9-0.7,3.8-1,5.8
			c-0.4,1.9-0.7,3.8-1.1,5.7l-0.6,2.9c-0.2,1-0.4,1.9-0.6,2.9c-0.6,2.9-1.2,5.7-1.9,8.5c-0.7,3.1-1.4,6.1-2.2,9.2
			c-1.2,4.6-2.4,9.1-3.7,13.7c-1.3,4.5-2.7,9.1-4.1,13.6c-0.6,1.8-1.2,3.7-1.8,5.5c-1.2,3.7-2.5,7.3-3.8,11
			c-1.3,3.7-2.7,7.3-4.1,10.9c-1,2.7-2.1,5.4-3.2,8.1c0,0,0,0,0,0c-0.7,1.8-1.5,3.6-2.2,5.4c0,0.1-0.1,0.2-0.1,0.3
			c-1.1,2.6-2.2,5.2-3.3,7.7c-0.8,1.8-1.6,3.6-2.4,5.3c-0.6,1.3-1.2,2.7-1.8,4c-1.2,2.6-2.5,5.3-3.7,7.9c-0.6,1.3-1.3,2.6-1.9,3.9
			c-0.9,1.8-1.8,3.6-2.7,5.5c-0.8,1.7-1.7,3.3-2.6,5c-1.8,3.5-3.6,6.9-5.5,10.3c-0.9,1.7-1.9,3.4-2.8,5.2c-0.8,1.3-1.5,2.7-2.3,4.1
			c-1.2,2.1-2.3,4.1-3.5,6.1c-0.9,1.5-1.7,3-2.6,4.4c-0.2,0.3-0.4,0.6-0.6,1c-0.8,1.4-1.6,2.8-2.5,4.1c-0.2,0.3-0.3,0.5-0.5,0.8
			c-0.8,1.3-1.6,2.6-2.4,3.9c-0.3,0.5-0.6,1-0.9,1.4c-0.8,1.2-1.5,2.4-2.3,3.6c-0.8,1.3-1.7,2.6-2.5,3.9c-0.8,1.2-1.6,2.5-2.4,3.7
			c-0.9,1.5-1.9,2.9-2.9,4.3c-0.6,1-1.3,1.9-1.9,2.9c-0.4,0.6-0.8,1.1-1.1,1.7c-0.9,1.3-1.8,2.6-2.7,3.9c-0.1,0.1-0.2,0.2-0.2,0.4
			c-0.9,1.3-1.8,2.7-2.8,4c-0.4,0.6-0.8,1.2-1.3,1.8c-0.7,1-1.4,2-2.2,3.1c-1.6,2.2-3.1,4.4-4.7,6.5c-0.9,1.2-1.8,2.4-2.7,3.7
			c-1.2,1.6-2.4,3.2-3.6,4.8c-7.1,9.5-14.5,18.8-22.1,27.9c-1.1,1.3-2.1,2.5-3.2,3.8c-1.5,1.8-3,3.5-4.5,5.3
			c-0.1,0.1-0.2,0.2-0.3,0.3l-3.5,4.1c-3.2,3.7-6.5,7.3-9.7,11c-1.9,2.2-3.9,4.3-5.9,6.4c-1.4,1.5-2.7,3-4.1,4.4
			c0,0.1-0.1,0.1-0.1,0.1c-1.6,1.7-3.2,3.4-4.9,5.2c-0.1,0.1-0.1,0.1-0.2,0.2c-1.7,1.7-3.3,3.5-5,5.2c-1.7,1.8-3.4,3.5-5.2,5.3
			s-3.5,3.5-5.2,5.2c-0.2,0.2-0.4,0.4-0.7,0.7c-1.5,1.5-3.1,3-4.6,4.5c-1.8,1.7-3.5,3.4-5.3,5.1c-1.8,1.7-3.6,3.4-5.4,5.1
			c-1.8,1.7-3.6,3.4-5.4,5c-0.5,0.5-1.1,1-1.6,1.5c-1.5,1.4-3,2.8-4.6,4.2c-1.5,1.4-3.1,2.8-4.6,4.1c-0.6,0.5-1.1,1-1.7,1.5
			c-1.1,1-2.3,2-3.4,3c-2.7,2.4-5.5,4.8-8.2,7.2c-1.5,1.3-3.1,2.7-4.6,4c-1.4,1.2-2.9,2.5-4.3,3.7c-0.2,0.2-0.5,0.4-0.8,0.6
			c-1.5,1.2-2.9,2.4-4.3,3.6c-1.6,1.3-3.2,2.6-4.8,3.9c0,0,0,0,0,0c-1.4,1.1-2.7,2.2-4.1,3.3c-0.2,0.2-0.5,0.4-0.7,0.6
			c-1.3,1.1-2.6,2.1-3.9,3.2c-0.1,0.1-0.2,0.1-0.3,0.2c-2.4,1.9-4.8,3.8-7.2,5.7c-1.8,1.4-3.7,2.9-5.5,4.3c-0.2,0.1-0.3,0.3-0.5,0.4
			c-1,0.8-2,1.6-3,2.3c-0.1,0.1-0.3,0.2-0.4,0.3c-0.5,0.4-0.9,0.7-1.4,1.1c-0.3,0.2-0.6,0.5-0.9,0.7c-0.3,0.2-0.6,0.5-0.9,0.7
			c-1.6,1.2-3.2,2.4-4.9,3.6c-1.2,0.9-2.3,1.7-3.5,2.6c-0.4,0.3-0.7,0.5-1.1,0.8c-0.1,0-0.1,0.1-0.2,0.2c-0.2,0.1-0.3,0.2-0.5,0.3
			c-1.5,1.1-3,2.2-4.5,3.3c-1,0.7-1.9,1.4-2.9,2.1c-0.2,0.1-0.4,0.3-0.6,0.4c-0.4,0.3-0.8,0.6-1.2,0.8c-0.1,0.1-0.2,0.1-0.3,0.2
			c-0.1,0-0.2,0.1-0.2,0.2s-0.2,0.1-0.2,0.2c-0.3,0.2-0.6,0.4-0.9,0.6c-0.4,0.3-0.8,0.5-1.1,0.8c-1.3,1-2.7,1.9-4,2.9
			c-0.1,0-0.1,0.1-0.2,0.1c-1.4,1-2.7,1.9-4.1,2.9c-0.6,0.4-1.1,0.8-1.7,1.2c-1.1,0.8-2.2,1.6-3.4,2.3c-0.6,0.4-1.2,0.9-1.9,1.3
			c-0.4,0.3-0.8,0.5-1.2,0.8c-0.7,0.5-1.3,0.9-2,1.4c-0.6,0.4-1.2,0.8-1.9,1.3s-1.2,0.8-1.9,1.3c-1.2,0.8-2.3,1.6-3.5,2.4
			c-0.4,0.3-0.8,0.6-1.3,0.8c-1,0.7-2.1,1.3-3.1,2c-1.7,1.1-3.4,2.2-5.1,3.3c-2.2,1.5-4.5,2.9-6.7,4.3c-0.7,0.5-1.5,0.9-2.2,1.4
			c-0.4,0.2-0.7,0.5-1.1,0.7c-0.2,0.2-0.5,0.3-0.7,0.4c-0.3,0.2-0.5,0.3-0.8,0.5c-3.1,1.9-6.2,3.9-9.3,5.8c-0.6,0.4-1.2,0.8-1.8,1.1
			c-0.7,0.4-1.4,0.9-2.1,1.3c-0.5,0.3-1,0.6-1.5,0.9c-0.9,0.5-1.8,1.1-2.7,1.6c-1.1,0.6-2.2,1.3-3.3,1.9c-0.2,0.1-0.4,0.2-0.5,0.3
			c-1.1,0.6-2.2,1.3-3.3,1.9c-0.4,0.2-0.7,0.4-1.1,0.7c-0.6,0.3-1.1,0.7-1.7,1c-0.7,0.4-1.4,0.8-2.1,1.2c-1.9,1.1-3.8,2.2-5.7,3.3
			c-0.6,0.4-1.3,0.7-1.9,1.1c-0.9,0.5-1.9,1.1-2.8,1.6c-0.1,0.1-0.2,0.1-0.4,0.2c-0.6,0.3-1.1,0.6-1.7,0.9c-0.4,0.2-0.8,0.4-1.1,0.6
			c-0.5,0.3-1.1,0.6-1.6,0.9c-0.2,0.1-0.4,0.2-0.6,0.3c-1.1,0.6-2.2,1.2-3.3,1.8c-0.1,0.1-0.2,0.1-0.3,0.2c-0.5,0.2-0.9,0.5-1.4,0.8
			c-0.6,0.3-1.1,0.6-1.7,0.9c-0.6,0.3-1.2,0.7-1.8,1c-0.2,0.1-0.3,0.2-0.5,0.3c-0.1,0-0.1,0.1-0.2,0.1c-0.2,0.1-0.3,0.2-0.5,0.2
			c-0.1,0-0.1,0.1-0.2,0.1c-0.1,0-0.1,0.1-0.2,0.1c-0.5,0.3-1,0.5-1.5,0.8c-0.6,0.3-1.2,0.6-1.8,1c-1.4,0.8-2.8,1.5-4.2,2.2
			c-0.8,0.4-1.6,0.8-2.4,1.2c-1.1,0.6-2.2,1.1-3.3,1.7c-1.9,1-3.7,1.9-5.6,2.8c-1.6,0.8-3.1,1.6-4.7,2.4l-3.8,1.9
			c-1.6,0.8-3.2,1.5-4.7,2.3c-1.9,0.9-3.8,1.8-5.7,2.7c-1.2,0.6-2.5,1.2-3.7,1.8c-1.6,0.7-3.1,1.5-4.7,2.2c-3.1,1.4-6.2,2.8-9.3,4.2
			c-70.6,31.3-319.3,141.4-548.5,15.4c-1.5-0.8-2.9-1.6-4.3-2.4c-0.7-0.4-1.4-0.8-2.1-1.2c-1.2-0.7-2.5-1.4-3.7-2.1
			c-1.3-0.8-2.6-1.5-3.9-2.3c-0.6-0.4-1.2-0.7-1.8-1.1c0,0,0,0-0.1-0.1c-1.4-0.8-2.7-1.6-4.1-2.5c-1.6-1-3.2-2-4.8-3
			c-0.1-0.1-0.2-0.1-0.4-0.2c-1.3-0.8-2.6-1.7-3.9-2.5c-1.8-1.2-3.6-2.3-5.4-3.5c-1.5-1-2.9-1.9-4.3-2.9c-0.4-0.3-0.9-0.6-1.3-0.9
			c-1.2-0.8-2.3-1.6-3.5-2.4c-2.8-2-5.6-4-8.4-6c-0.8-0.6-1.6-1.2-2.4-1.8c-1-0.7-1.9-1.4-2.9-2.2c-1.2-1-2.5-1.9-3.8-2.9
			c-0.3-0.2-0.5-0.4-0.8-0.6c-1.2-1-2.5-1.9-3.7-2.9c-0.1-0.1-0.1-0.1-0.2-0.2c-1.4-1.1-2.8-2.3-4.2-3.4c-1.4-1.1-2.8-2.3-4.2-3.5
			c-1.4-1.2-2.8-2.3-4.1-3.5c-2.7-2.3-5.4-4.7-8.1-7.1c-1.3-1.2-2.7-2.4-4-3.6c-2.6-2.4-5.2-4.9-7.8-7.3c-2.2-2.2-4.4-4.3-6.6-6.5
			c-5.4-5.4-10.7-11-15.8-16.6c-1-1.1-2-2.3-3-3.4c-1.2-1.3-2.3-2.6-3.4-3.9c-1.4-1.6-2.8-3.3-4.2-4.9c-2.1-2.5-4.2-5-6.2-7.4
			c-2-2.5-4-5-6-7.5c-2.1-2.7-4.2-5.4-6.2-8.1c-1-1.3-2-2.7-3-4c-3-4.1-5.9-8.2-8.8-12.3c-0.1-0.2-0.2-0.3-0.4-0.5
			c-0.9-1.2-1.7-2.5-2.6-3.8c-0.7-1-1.4-2.1-2.1-3.1c-1.4-2.1-2.8-4.2-4.1-6.3c-0.7-1-1.4-2.1-2-3.2c-0.9-1.4-1.8-2.8-2.7-4.2
			c-1.5-2.3-2.9-4.6-4.3-7c-0.6-1-1.2-2-1.8-3c-0.8-1.2-1.5-2.5-2.2-3.8c-0.5-0.8-1-1.7-1.5-2.5c-0.4-0.7-0.8-1.3-1.2-2
			c-0.5-0.9-1-1.8-1.6-2.8c-0.2-0.4-0.5-0.8-0.7-1.2c-1.4-2.6-2.9-5.1-4.2-7.7c-0.6-1.1-1.1-2.1-1.7-3.2c-0.4-0.8-0.8-1.5-1.2-2.3
			c-0.5-0.9-0.9-1.8-1.4-2.7c-2.5-4.7-4.9-9.5-7.2-14.2c-0.6-1.2-1.2-2.5-1.8-3.7c-0.6-1.3-1.2-2.6-1.8-3.8
			c-1.5-3.1-2.9-6.2-4.3-9.2c-0.7-1.5-1.3-2.9-2-4.4c-0.6-1.5-1.3-2.9-1.9-4.4c-0.6-1.5-1.3-2.9-1.9-4.4c-0.5-1.1-0.9-2.1-1.3-3.2
			c-0.3-0.8-0.7-1.6-1-2.4c-0.5-1.2-1-2.5-1.6-3.8c-0.8-2-1.6-4-2.4-5.9c-0.6-1.4-1.1-2.9-1.7-4.3c-0.7-1.8-1.4-3.5-2-5.3
			c-0.4-1-0.7-1.9-1.1-2.9c-1-2.7-2-5.4-3-8.1c-0.4-1.1-0.8-2.1-1.1-3.2c-0.6-1.6-1.2-3.3-1.7-4.9c-0.5-1.5-1-3-1.5-4.5
			c-0.5-1.6-1.1-3.2-1.6-4.8c-0.4-1.2-0.8-2.4-1.2-3.6c-0.4-1.1-0.7-2.2-1.1-3.3c-0.9-2.7-1.7-5.4-2.5-8c-0.6-1.8-1.1-3.7-1.7-5.5
			c-0.5-1.8-1.1-3.6-1.6-5.5c-0.5-1.8-1.1-3.6-1.6-5.4c-0.5-1.8-1-3.6-1.5-5.4c-0.4-1.5-0.8-2.9-1.2-4.4c-0.6-2.2-1.2-4.4-1.7-6.5
			c-0.3-1.3-0.7-2.7-1-4c-0.6-2.3-1.1-4.5-1.7-6.8c-0.4-1.6-0.8-3.2-1.1-4.7c0-0.1-0.1-0.2-0.1-0.3c-0.4-1.7-0.8-3.5-1.2-5.2
			c-0.4-1.7-0.8-3.4-1.2-5.1c-2-8.7-3.8-17.3-5.4-25.7c-0.2-1.1-0.4-2.2-0.6-3.3c-0.2-1-0.4-2.1-0.6-3.1c-0.5-2.8-1-5.6-1.5-8.4
			c-0.3-1.6-0.6-3.2-0.8-4.8c-0.3-1.7-0.5-3.3-0.8-4.9c-0.2-1.3-0.4-2.6-0.6-3.9c-0.8-5-1.5-10-2.2-14.8c-0.2-1.5-0.4-3-0.6-4.6
			c-0.2-1.5-0.4-3-0.6-4.5c-0.2-1.5-0.4-3-0.6-4.4c-0.2-1.5-0.4-2.9-0.5-4.4c-0.2-1.5-0.3-2.9-0.5-4.3c-0.2-1.4-0.3-2.9-0.5-4.3
			c-0.2-1.4-0.3-2.8-0.5-4.2c-0.5-4.4-0.9-8.7-1.3-12.9c-0.1-1.1-0.2-2.1-0.3-3.2c-0.1-0.9-0.1-1.7-0.2-2.6
			c-0.1-1.1-0.2-2.1-0.3-3.1c-0.1-1.3-0.2-2.5-0.3-3.8c-0.1-1.2-0.2-2.4-0.3-3.6c-0.1-1.4-0.2-2.8-0.3-4.2c-0.1-1.6-0.2-3.1-0.3-4.7
			c0-0.2,0-0.3,0-0.5c-0.1-1-0.1-2-0.2-2.9c-0.1-1.1-0.1-2.2-0.2-3.3c-0.1-1.1-0.1-2.2-0.2-3.2c-0.1-2.2-0.2-4.4-0.3-6.5
			c0-0.8-0.1-1.6-0.1-2.4c0-0.7,0-1.4-0.1-2c0-0.9-0.1-1.7-0.1-2.5c-0.2-4.4-0.3-8.4-0.4-12c0-0.5,0-1.1,0-1.6c0-0.2,0-0.4,0-0.7
			c0-0.5,0-1.1,0-1.6c0-0.1,0-0.3,0-0.4c0-0.6,0-1.2,0-1.8c0-0.4,0-0.9,0-1.3c0-0.6,0-1.2,0-1.7c0-3.5-0.1-6.5-0.1-8.9
			C-1.3,338.6,98.5,97.1,242.4,29c47.1-22.2,94.3-27.4,94.3-27.4c10-1.1,19.7-1.6,29-1.6c1.3,0,2.7,0,4,0c1,0,2.1,0,3.1,0.1
			c0.7,0,1.5,0,2.2,0.1c0.7,0,1.4,0,2.1,0.1c0.6,0,1.2,0,1.8,0.1c1,0,2,0.1,3,0.2c0.9,0,1.7,0.1,2.5,0.2c0.7,0,1.4,0.1,2.1,0.1
			c0.1,0,0.2,0,0.3,0c1,0.1,1.9,0.2,2.9,0.3c0.4,0,0.7,0.1,1.1,0.1c0.8,0.1,1.7,0.2,2.5,0.3c0.5,0,0.9,0.1,1.4,0.2
			c0.7,0.1,1.4,0.2,2.1,0.2c1.1,0.1,2.2,0.3,3.3,0.4c0.8,0.1,1.6,0.2,2.4,0.3c1.5,0.2,3,0.4,4.6,0.7c0.6,0.1,1.3,0.2,1.9,0.3
			c0.4,0.1,0.9,0.1,1.3,0.2c0.7,0.1,1.4,0.2,2.1,0.4c0.9,0.2,1.9,0.3,2.8,0.5c1.1,0.2,2.2,0.4,3.3,0.6c1.5,0.3,2.9,0.6,4.3,0.9
			c1,0.2,1.9,0.4,2.9,0.7c2.6,0.6,5.2,1.2,7.7,1.9c0.7,0.2,1.4,0.4,2,0.5c0.8,0.2,1.5,0.4,2.3,0.6c0.9,0.2,1.7,0.5,2.6,0.7
			c2,0.6,4,1.2,6,1.8c0.8,0.2,1.5,0.5,2.2,0.7c2.8,0.9,5.5,1.8,8.3,2.7c0.8,0.3,1.6,0.5,2.4,0.8c2.6,0.9,5.2,1.9,7.8,2.8
			c0.2,0.1,0.4,0.1,0.6,0.2c1.2,0.5,2.5,1,3.7,1.4c1.1,0.4,2.1,0.8,3.2,1.2c1.7,0.7,3.5,1.4,5.2,2.1c0.7,0.3,1.4,0.6,2.1,0.9
			c5.5,2.3,10.8,4.6,16.1,7c1.8,0.8,3.5,1.6,5.2,2.4c1,0.5,2,0.9,3,1.4c7.9,3.7,15.7,7.5,23.4,11.3c1.6,0.8,3.3,1.6,4.9,2.4
			c8.8,4.3,17.5,8.5,26.1,12.5c0.7,0.3,1.3,0.6,2,0.9c0.3,0.1,0.5,0.2,0.8,0.4c2.8,1.3,5.5,2.5,8.3,3.7c6.8,2.9,13.5,5.6,20,8
			c0.7,0.3,1.4,0.5,2.1,0.8c0.1,0,0.3,0.1,0.4,0.1c0.7,0.3,1.5,0.5,2.2,0.8c2.5,0.9,5.1,1.8,7.6,2.6c0.9,0.3,1.8,0.6,2.8,0.9
			c4.4,1.4,8.8,2.7,13.1,3.9c1.4,0.4,2.8,0.8,4.1,1.1c0.7,0.2,1.4,0.4,2.1,0.5c0.9,0.2,1.8,0.5,2.7,0.7c0.4,0.1,0.9,0.2,1.3,0.3
			c1.9,0.5,3.8,0.9,5.7,1.3c0.2,0.1,0.4,0.1,0.6,0.1c0.6,0.1,1.2,0.3,1.9,0.4c0.6,0.1,1.2,0.3,1.9,0.4c0.7,0.1,1.3,0.3,2,0.4
			c0.7,0.1,1.3,0.3,2,0.4c0.5,0.1,1.1,0.2,1.6,0.3c0.8,0.1,1.5,0.3,2.3,0.4c1.3,0.2,2.6,0.5,3.9,0.7c0.7,0.1,1.3,0.2,1.9,0.3
			c2,0.3,4,0.6,6,0.9c1.5,0.2,2.9,0.4,4.4,0.6c1,0.1,1.9,0.2,2.9,0.3c0.2,0,0.5,0.1,0.7,0.1c0.4,0,0.8,0.1,1.1,0.1
			c0.2,0,0.4,0,0.6,0.1c1,0.1,2.1,0.2,3.1,0.3c0.2,0,0.4,0,0.7,0.1c1.3,0.1,2.6,0.2,3.9,0.3c0.3,0,0.6,0,0.9,0.1
			c0.2,0,0.5,0,0.7,0.1c0.8,0.1,1.7,0.1,2.5,0.2c0.4,0,0.8,0.1,1.2,0.1c1.4,0.1,2.7,0.1,4,0.2c0.8,0,1.6,0.1,2.4,0.1
			c0.8,0,1.7,0.1,2.5,0.1c0.4,0,0.9,0,1.3,0c0.2,0,0.4,0,0.6,0c0.3,0,0.6,0,0.9,0c10.1,0.2,20-0.2,29.6-0.9
			c57.7-4.2,107.9-21.5,167.9-20.6c0.8,0,1.5,0,2.2,0c1.2,0,2.4,0.1,3.6,0.1c0.7,0,1.4,0,2.1,0.1c0.9,0,1.8,0.1,2.7,0.1
			c0.7,0,1.4,0.1,2,0.1c1,0,2,0.1,3,0.2c0.9,0.1,1.7,0.1,2.6,0.2c0.7,0.1,1.3,0.1,2,0.2c1.1,0.1,2.2,0.2,3.2,0.3
			c0.9,0.1,1.8,0.2,2.6,0.3c1.1,0.1,2.2,0.2,3.3,0.4c1.5,0.2,3,0.4,4.6,0.6c1.5,0.2,2.9,0.4,4.4,0.6c0.8,0.1,1.6,0.2,2.4,0.4
			c0.1,0,0.2,0,0.3,0c0.8,0.1,1.7,0.3,2.5,0.4c0.9,0.2,1.8,0.3,2.7,0.5c1.8,0.3,3.6,0.6,5.4,1c0.9,0.2,1.8,0.4,2.7,0.5
			c3.4,0.7,6.9,1.5,10.4,2.3c1,0.2,1.9,0.5,2.9,0.7c0.5,0.1,1,0.2,1.5,0.4c0.6,0.2,1.2,0.3,1.9,0.5c3.8,1,7.6,2.1,11.4,3.3
			c155.7,47.8,278.9,216.3,306.1,377.3c1.2,7.3,2.3,14.6,3.1,21.9c0.3,2.8,0.6,5.5,0.9,8.3c0.3,3.1,0.6,6.2,0.8,9.4
			c0.2,2.7,0.4,5.4,0.5,8.1c0.1,1.6,0.2,3.1,0.2,4.7C1286,524.6,1286.1,532.3,1286,539.9z"/>
		<g id="lines_1_">
			<path class="st1" d="M934.7,873.7c0-0.3-0.1-0.6-0.2-0.9c-4-9-7.9-18.1-11.6-27c-8.8-20.9-16.7-41-24-60.8
				c-5.3-14.3-10.2-28.4-14.8-42.4c-10.4-31.7-18.7-61.4-25.4-90.8c-6.2-27.3-10.8-53.9-13.8-79.2c-2.7-23.6-4-46.5-3.9-68.3
				c0.1-20.2,1.5-39.9,4.1-58.5c2.4-17.2,5.9-33.9,10.3-49.8c4.1-14.4,9.1-28.6,15-42.1c2.4-5.5,4.9-11.1,7.3-16.6c2-4.5,4-9,6-13.6
				c2.2-5.1,4.4-10.2,6.6-15.4c3.4-8.2,6.7-16.5,9.7-24.9c1.9-5.4,3.7-10.8,5.4-16.2c1-3.1,1.9-6.2,2.8-9.3c0.9-2.9,1.7-5.9,2.5-8.8
				c2.2-8.1,4.3-16.3,6.1-24.5c0.4-1.6,0.7-3.3,1.1-4.9c3.1-14.3,5.6-28.8,7.6-43.5c0.2-1.7,0.5-3.4,0.7-5.1
				c3.8-30.7,5.1-62.4,3.8-94.3c-1.5-0.2-3-0.4-4.4-0.6c1.3,31.9,0,63.6-3.8,94.4c-0.2,2-0.5,3.9-0.8,5.9
				c-1.5,11.2-3.4,22.4-5.6,33.4c-0.7,3.6-1.5,7.1-2.2,10.7c-1.5,7-3.2,14-5,20.9c-3.6,13.8-7.8,27.4-12.4,40.7
				c-3.1,8.9-6.6,17.7-10.3,26.4c-2.2,5.2-4.4,10.3-6.6,15.4c-1.7,3.9-3.5,7.9-5.2,11.8c-2.5,5.5-4.9,11-7.3,16.6
				c-6,13.7-11.1,28-15.2,42.6c-4.5,16-8.1,33-10.5,50.3c-2.6,18.8-4,38.7-4.1,59.1c-0.1,21.9,1.2,45.1,4,68.8
				c3,25.4,7.6,52.2,13.8,79.6c6.7,29.5,15,59.3,25.5,91.1c5.1,15.5,10.5,31,16.4,46.9c6.9,18.4,14.3,37.2,22.5,56.7
				c3.6,8.6,7.4,17.4,11.3,26.2H721.5c-1.2,0-2.2,1-2.2,2.2c0,1.2,1,2.2,2.2,2.2h419.4l3.8-4.4H934.7z"/>
			<path class="st1" d="M701.5,875.9c0,1.2-1,2.2-2.2,2.2h-390c-1.2,0-2.2-1-2.2-2.2c0-1.2,1-2.2,2.2-2.2h59.9
				c-35.2-87-56.3-177.5-62.9-269c-6.8-94.8,2-190,26.2-284c8.1-31.5,18-62.9,29.5-94.1c10.7-28.9,22.8-57.3,36.2-85.2v0
				c3.8-7.9,7.6-15.7,11.6-23.4c2.8-5.5,5.7-11,8.6-16.5c14.9-27.9,31.1-55.2,48.6-81.7c0.2,0.1,0.4,0.1,0.6,0.2
				c1.2,0.5,2.5,1,3.7,1.4c-17.2,26.1-33.2,52.8-47.8,80.1c-2.9,5.5-5.8,11-8.7,16.5c-5.2,10-10.1,20.1-14.9,30.3
				c-12.4,26.2-23.6,52.9-33.7,79.9c-11.4,30.7-21.1,61.6-29.1,92.6c-24.3,93.9-33.2,189-26.4,283.7c6.6,91.3,27.7,181.6,62.9,268.3
				c0.1,0.3,0.2,0.5,0.2,0.8c0,0.1,0,0.1,0,0.2h289.8c-3.9-8.8-7.6-17.5-11.2-26.2c-15.2-36.1-27.9-70-38.9-103.5
				c-10.5-31.8-18.8-61.6-25.5-91.1c-6.2-27.5-10.9-54.3-13.8-79.6c-2.8-23.7-4.1-46.9-4-68.8c0.1-20.4,1.5-40.3,4.1-59.1
				c2.4-17.4,5.9-34.3,10.5-50.3c4.1-14.6,9.2-28.9,15.2-42.6c2.4-5.6,4.9-11.1,7.3-16.6c7.7-17.3,15.7-35.3,22.1-53.5
				c1.4-3.9,2.7-7.8,4-11.8c4.1-12.8,7.8-25.8,11-39.1c0.7-2.8,1.4-5.7,2-8.5c3.8-17.1,6.8-34.5,9-52.2c0.1-0.7,0.2-1.5,0.3-2.2
				c0.2-1.8,0.4-3.6,0.6-5.4c0.5-4.8,1-9.5,1.4-14.3c0.2-1.8,0.3-3.6,0.4-5.4c0.8-10.6,1.3-21.4,1.5-32.2c0.1-6.2,0.1-12.4,0-18.6
				c1.5,0.2,2.9,0.4,4.4,0.6c0.1,6.6,0.1,13.3-0.1,19.9c-0.3,14.6-1.2,29-2.5,43.3c-0.1,1.3-0.2,2.6-0.4,3.9
				c-0.4,3.7-0.8,7.3-1.2,11c-4.2,34.1-11.5,67.4-21.8,99.2c-1.4,4.4-2.9,8.8-4.5,13.2c-6.5,18.4-14.5,36.4-22.2,53.8
				c-2.5,5.5-4.9,11-7.3,16.6c-5.9,13.5-10.9,27.7-15,42.1c-4.5,15.9-8,32.6-10.3,49.8c-2.6,18.6-4,38.3-4.1,58.5
				c-0.1,21.7,1.2,44.7,3.9,68.3c2.9,25.2,7.6,51.9,13.8,79.2c6.7,29.4,15,59.1,25.4,90.8c11,33.4,23.7,67.2,38.8,103.2
				c3.7,8.9,7.6,18,11.6,27c0.1,0.3,0.2,0.6,0.2,0.9h31.1C700.5,873.7,701.5,874.7,701.5,875.9z"/>
			<path class="st1" d="M292.8,873.7H130.9c-1.2,0-2.2,1-2.2,2.2s1,2.2,2.2,2.2h161.9c1.2,0,2.2-1,2.2-2.2S294,873.7,292.8,873.7z"
				/>
			<path class="st1" d="M114.1,873.7H61.8c0.6,1.5,1.2,2.9,1.9,4.4h50.4c1.2,0,2.2-1,2.2-2.2C116.3,874.7,115.3,873.7,114.1,873.7z"
				/>
		</g>
		<path class="st2" d="M1100.5,921.1c-7,7-14.1,13.8-21.3,20.5c-0.5,0.5-1.1,1-1.6,1.5c-3,2.8-6.1,5.6-9.2,8.3
			c-0.6,0.5-1.1,1-1.7,1.5c-18.1,16.2-36.8,31.6-55.7,46c-0.6,0.5-1.2,0.9-1.8,1.4c-3.4,2.6-6.8,5.1-10.1,7.6
			c-0.6,0.4-1.2,0.9-1.8,1.3c-28.4,20.9-57.3,39.8-85.8,56.4c-0.7,0.4-1.4,0.8-2.1,1.2c-3.5,2-6.9,4-10.4,5.9
			c-0.7,0.4-1.4,0.8-2.1,1.2c-8.9,5-17.8,9.7-26.5,14.2c-8.2,0-16.4,0-24.6,0c-0.7,0-1.5,0-2.2,0c-3,0-6.1,0-9.1,0
			c-0.7,0-1.5,0-2.2,0c-62.2,0.1-124.3,0.2-186.5,0.3h-2.2c-2.4,0-4.9,0-7.3,0h-2.2c-52.3,0.1-104.5,0.2-156.8,0.3
			c0.6-2.5,1.2-4.9,1.8-7.4c0.2-1.1,0.5-2.1,0.8-3.2c1-4.2,2-8.4,3-12.6c0.2-1,0.5-2,0.7-3c6.3-25.9,12.5-51.8,18.8-77.7
			c0.2-0.7,0.4-1.4,0.5-2.1c0.8-3.2,1.6-6.5,2.3-9.8c0.2-0.7,0.3-1.4,0.5-2.1c4-16.7,8.1-33.4,12.1-50.1H1100.5z"/>
		<path class="st1" d="M638.4,1048.7c-7.2-14.6-18.1-25.1-30.6-29.4c-8.3-2.9-18.9-4.1-56.7,12.1c-29.6,12.7-52,22.3-67.3,31.4
			c-0.2,1-0.5,2-0.7,3c15.1-9.3,38.1-19.1,68.9-32.4c24.8-10.7,37.8-13.6,45.8-13.6c4,0,6.8,0.7,9.3,1.6
			c23.2,8.1,39.9,39.3,36.6,67.2h2.2C647.4,1075.7,644.7,1061.4,638.4,1048.7z"/>
		<path class="st1" d="M602,1040.8c-7.4-2.1-16.9-3-50.7,8.7c-34.8,12.1-58.5,20.3-71.3,28.9c-0.2,1-0.5,2.1-0.8,3.2
			c11.8-8.8,36-17.2,72.8-29.9c22.2-7.7,33.8-9.8,41-9.8c3.6,0,6.1,0.5,8.3,1.1c19.8,5.6,34.3,26.4,32.8,45.7h2.2
			C637.8,1068.4,622.7,1046.6,602,1040.8z"/>
		<path class="st1" d="M769.3,966.8c-4.8-5.8-12-11.5-46.9-16.4c-56-7.9-84-11.8-94.7,3.9c-4.3,6.4-5.4,15.5-3,26.3
			c4.9,22.3,23,46.9,44.2,59.8c13.3,8.1,32.6,14.4,51.5,14.4c16.4,0,32.4-4.8,43.8-17.4c8.2-9.1,13.5-22,14.7-35.5
			C779.8,988.1,776.5,975.6,769.3,966.8z M762.3,1036c-23.5,26.2-68.2,17.3-92.5,2.6c-20.7-12.6-38.4-36.6-43.2-58.4
			c-2.2-10.2-1.3-18.8,2.7-24.7c4.9-7.2,14-9.9,28.5-9.9c15.1,0,36,3,64.1,6.9c34.1,4.8,41.2,10.3,45.5,15.6
			C781.5,985.1,779,1017.4,762.3,1036z"/>
		<path class="st1" d="M755.5,979.9c-4.5-4.8-11-9.7-41-16.1c-48.1-10.4-72.3-15.6-80.3-4.1c-2.6,3.8-3.3,9.1-1.9,15.6
			c3.8,18.1,22.5,41.4,43.3,54c13.5,8.2,33.5,15.3,51.3,15.3c11.5,0,22.1-3,29.4-10.5C769.6,1020.5,769.2,994.7,755.5,979.9z
			 M754.7,1032.6c-9.9,10.1-25.4,10.6-36.7,9.3c-13.6-1.6-29.1-7-41.3-14.5c-20.4-12.4-38.6-35-42.3-52.6
			c-1.2-5.8-0.7-10.6,1.6-13.9c2.8-4,7.9-5.6,15.9-5.6c12.9,0,33,4.3,62.1,10.6c29.3,6.3,35.7,11.1,39.8,15.5
			C766.9,995.3,767.3,1019.8,754.7,1032.6z"/>
		<path class="st1" d="M947.9,921.1h-2.5c11.2,20,7.3,51.8-9.8,70.9c-26.6,29.7-77.1,19.6-104.5,3c-23.4-14.2-43.4-41.3-48.8-65.9
			c-0.6-2.8-1-5.4-1.2-7.9h-2.2c0.2,2.7,0.6,5.5,1.2,8.4c5.5,25.2,26,52.9,49.8,67.3c15,9.1,36.8,16.2,58,16.2
			c9.2,0,18.4-1.3,26.8-4.5s16.1-8,22.5-15.2c9.2-10.3,15.2-24.8,16.5-39.9C954.7,941.3,952.7,930.1,947.9,921.1z"/>
		<path class="st1" d="M927.6,928.7c-2.3-2.5-5.1-5-10.7-7.6h-5.6c8.6,3.3,12,6.3,14.7,9.1c14.7,15.8,15.2,43.4,1,58
			c-20.2,20.6-63.7,9-88.1-5.8c-23-14-43.6-39.5-47.8-59.4c-0.1-0.6-0.2-1.2-0.3-1.8h-2.2c0.1,0.7,0.2,1.5,0.4,2.3
			c4.3,20.4,25.3,46.6,48.8,60.9c15.2,9.3,37.8,17.2,57.8,17.2c6.5,0,12.7-0.8,18.3-2.7c5.6-1.9,10.6-4.8,14.8-9
			C943.5,974.4,943.1,945.3,927.6,928.7z"/>
		<path class="st1" d="M851.1,1046.8c-7.6,4.2-13.2,12.9-16.3,25c-1.3,5.2-2.1,10.7-2.4,16.5c0.7,0,1.5,0,2.2,0
			c0.3-5.6,1.1-11,2.3-16c2.9-11.5,8.2-19.6,15.2-23.6c3.2-1.8,6.7-2.7,10.5-2.7c11.3,0,26,7.4,46.7,20.8c0.7-0.4,1.4-0.8,2.1-1.2
			C882.5,1046.8,864.8,1039.2,851.1,1046.8z"/>
		<path class="st1" d="M855.1,1055.6c-4.5,2.4-7.9,7.5-9.7,14.7c-1.4,5.3-1.9,11.4-1.7,18.1c0.7,0,1.4,0,2.2,0
			c-0.2-6.4,0.3-12.4,1.6-17.5c1.7-6.5,4.7-11.1,8.7-13.3c1.8-1,3.8-1.5,6-1.5c8,0,19,6.3,34.7,18c0.6-0.3,1.1-0.6,1.7-0.9
			c0.1-0.1,0.2-0.1,0.4-0.2C877.7,1057,864.5,1050.4,855.1,1055.6z"/>
		<path class="st1" d="M1046.6,921.1c-18-9.8-30.6-12.8-40.9-7c-3,1.7-5.7,4-8,7c-3.6,4.6-6.4,10.6-8.3,18
			c-5.3,20.9-2.1,48,7.8,70.2c0.2-0.1,0.3-0.2,0.5-0.3c0.1-0.1,0.1-0.1,0.2-0.2c0.1-0.1,0.2-0.1,0.3-0.2c0.3-0.2,0.5-0.4,0.8-0.6v0
			c-9.5-21.6-12.7-48-7.5-68.3c2-7.8,5.1-14.1,9-18.5c1.9-2.1,4-3.8,6.2-5.1c3.2-1.8,6.7-2.7,10.6-2.7c6.8,0,14.8,2.7,24.6,7.7
			c9.8,5.1,21.5,12.5,35.5,22c0.5-0.5,1.1-1,1.6-1.5C1066.6,933.1,1055.9,926.2,1046.6,921.1z"/>
		<path class="st1" d="M1009.8,922.8c-4.5,2.5-7.9,7.5-9.7,14.7c-4.3,16.5-0.4,41.5,9.2,62.8v0c0.5-0.3,0.9-0.7,1.4-1.1
			c0.1-0.1,0.3-0.2,0.4-0.3c-9.3-20.7-13-44.9-8.9-60.9c1.7-6.5,4.7-11.1,8.7-13.3c1.8-1,3.8-1.5,6-1.5c10.4,0,25.8,10.6,49.9,29.6
			c0.6-0.5,1.1-1,1.7-1.5C1038.2,927.6,1021.2,916.6,1009.8,922.8z"/>
		<path class="st1" d="M590.7,921.1h-2.3c2.2,5.4,3.3,11.5,3.3,17.9c0,12.9-4.5,26.6-13.2,36.3c-18.8,21-52.1,17.7-75.3,7.7
			c-0.2,0.7-0.4,1.4-0.5,2.1c10.9,4.7,24,7.8,36.9,7.8c7.6,0,15.1-1.1,22.1-3.7c6.9-2.6,13.3-6.6,18.6-12.5
			C593.3,962,597.3,938.2,590.7,921.1z"/>
		<path class="st1" d="M572.2,923.3c-0.7-0.7-1.4-1.4-2.2-2.2h-3.7c1.9,1.3,3.2,2.5,4.3,3.7c6.2,6.6,9.3,15.8,9.3,24.7
			c0,8.5-2.8,16.9-8.5,22.7c-9.3,9.5-35,14.7-65.4-1c-0.2,0.7-0.3,1.4-0.5,2.1c11.8,5.8,26.7,10.1,40.2,10.1
			c5.3,0,10.5-0.7,15.1-2.2c4.6-1.6,8.8-4,12.2-7.5C585.3,961,585,937,572.2,923.3z"/>
		<path class="st3" d="M1286,539.9c0,1.4,0,2.7-0.1,4.1c-0.5,19.1-2.2,37.9-5.2,56.4c-0.2,1.3-0.4,2.6-0.6,4c-0.3,1.9-0.7,3.8-1,5.8
			c-0.4,1.9-0.7,3.8-1.1,5.7l-0.6,2.9c-0.2,1-0.4,1.9-0.6,2.9c-0.6,2.9-1.2,5.7-1.9,8.5c-0.7,3.1-1.4,6.1-2.2,9.2
			c-1.2,4.6-2.4,9.1-3.7,13.7c-1.3,4.5-2.7,9.1-4.1,13.6c-0.6,1.8-1.2,3.7-1.8,5.5c-1.2,3.7-2.5,7.3-3.8,11
			c-1.3,3.7-2.7,7.3-4.1,10.9c-1,2.7-2.1,5.4-3.2,8.1c0,0,0,0,0,0c-0.7,1.8-1.5,3.6-2.2,5.4c0,0.1-0.1,0.2-0.1,0.3
			c-1.1,2.6-2.2,5.2-3.3,7.7c-0.8,1.8-1.6,3.6-2.4,5.3c-0.6,1.3-1.2,2.7-1.8,4c-1.2,2.6-2.5,5.3-3.7,7.9c-0.6,1.3-1.3,2.6-1.9,3.9
			c-0.9,1.8-1.8,3.6-2.7,5.5c-0.8,1.7-1.7,3.3-2.6,5c-1.8,3.5-3.6,6.9-5.5,10.3c-0.9,1.7-1.9,3.4-2.8,5.2c-0.8,1.3-1.5,2.7-2.3,4.1
			c-1.2,2.1-2.3,4.1-3.5,6.1c-0.9,1.5-1.7,3-2.6,4.4c-0.2,0.3-0.4,0.6-0.6,1c-0.8,1.4-1.6,2.8-2.5,4.1c-0.2,0.3-0.3,0.5-0.5,0.8
			c-0.8,1.3-1.6,2.6-2.4,3.9c-0.3,0.5-0.6,1-0.9,1.4c-0.8,1.2-1.5,2.4-2.3,3.6c-0.8,1.3-1.7,2.6-2.5,3.9c-0.8,1.2-1.6,2.5-2.4,3.7
			c-0.9,1.5-1.9,2.9-2.9,4.3c-0.6,1-1.3,1.9-1.9,2.9c-0.4,0.6-0.8,1.1-1.1,1.7c-0.9,1.3-1.8,2.6-2.7,3.9c-0.1,0.1-0.2,0.2-0.2,0.4
			c-0.9,1.3-1.8,2.7-2.8,4c-0.4,0.6-0.8,1.2-1.3,1.8c-0.7,1-1.4,2-2.2,3.1c-1.6,2.2-3.1,4.4-4.7,6.5c-0.9,1.2-1.8,2.4-2.7,3.7
			c-1.2,1.6-2.4,3.2-3.6,4.8c-7.1,9.5-14.5,18.8-22.1,27.9c-1.1,1.3-2.1,2.5-3.2,3.8c-1.5,1.8-3,3.5-4.5,5.3
			c-0.1,0.1-0.2,0.2-0.3,0.3l-3.5,4.1c-3.2,3.7-6.5,7.3-9.7,11c-1.9,2.2-3.9,4.3-5.9,6.4c-1.4,1.5-2.7,3-4.1,4.4
			c0,0.1-0.1,0.1-0.1,0.1c-1.6,1.7-3.2,3.4-4.9,5.2c-0.1,0.1-0.1,0.1-0.2,0.2c-1.7,1.7-3.3,3.5-5,5.2c-1.7,1.8-3.4,3.5-5.2,5.3
			s-3.5,3.5-5.2,5.2c-0.2,0.2-0.4,0.4-0.7,0.7c-1.5,1.5-3.1,3-4.6,4.5c-1.8,1.7-3.5,3.4-5.3,5.1c-1.8,1.7-3.6,3.4-5.4,5.1
			c-1.8,1.7-3.6,3.4-5.4,5c-0.5,0.5-1.1,1-1.6,1.5c-1.5,1.4-3,2.8-4.6,4.2c-1.5,1.4-3.1,2.8-4.6,4.1c-0.6,0.5-1.1,1-1.7,1.5
			c-1.1,1-2.3,2-3.4,3c-2.7,2.4-5.5,4.8-8.2,7.2c-1.5,1.3-3.1,2.7-4.6,4c-1.4,1.2-2.9,2.5-4.3,3.7c-0.2,0.2-0.5,0.4-0.8,0.6
			c-1.5,1.2-2.9,2.4-4.3,3.6c-1.6,1.3-3.2,2.6-4.8,3.9c0,0,0,0,0,0c-1.6,1.3-3.2,2.6-4.8,3.9c-1.3,1.1-2.6,2.1-3.9,3.2
			c-0.1,0.1-0.2,0.1-0.3,0.2c-2.4,1.9-4.8,3.8-7.2,5.7c-1.8,1.4-3.7,2.9-5.5,4.3c-0.2,0.1-0.3,0.3-0.5,0.4c-1,0.8-2,1.6-3,2.3
			c-0.1,0.1-0.3,0.2-0.4,0.3c-0.5,0.4-0.9,0.7-1.4,1.1c-0.3,0.2-0.6,0.5-0.9,0.7c-0.3,0.2-0.6,0.5-0.9,0.7c-1.6,1.2-3.2,2.4-4.9,3.6
			c-1.1,0.9-2.3,1.7-3.5,2.6c-0.4,0.3-0.7,0.5-1.1,0.8c-0.1,0-0.1,0.1-0.2,0.2c-0.2,0.1-0.3,0.2-0.5,0.3c-1.5,1.1-3,2.2-4.5,3.3
			c-1,0.7-1.9,1.4-2.9,2.1c-0.2,0.1-0.4,0.3-0.6,0.4c-0.4,0.3-0.8,0.6-1.2,0.8c-0.1,0.1-0.2,0.1-0.3,0.2c-0.1,0-0.2,0.1-0.2,0.2
			s-0.2,0.1-0.2,0.2c-0.7,0.5-1.3,1-2,1.4c-1.3,1-2.7,1.9-4,2.9c-0.1,0-0.1,0.1-0.2,0.1c-1.4,1-2.7,1.9-4.1,2.9
			c-0.6,0.4-1.1,0.8-1.7,1.2c-1.1,0.8-2.2,1.6-3.4,2.3c-0.6,0.4-1.2,0.9-1.9,1.3c-0.4,0.3-0.8,0.5-1.2,0.8c-0.7,0.5-1.3,0.9-2,1.4
			c-0.6,0.4-1.2,0.8-1.9,1.3s-1.2,0.8-1.9,1.3c-1.2,0.8-2.3,1.6-3.5,2.4c-0.4,0.3-0.8,0.6-1.3,0.8c-1,0.7-2.1,1.3-3.1,2
			c-1.7,1.1-3.4,2.2-5.1,3.3c-2.2,1.5-4.5,2.9-6.7,4.3c-0.7,0.5-1.5,0.9-2.2,1.4c-0.2,0.1-0.4,0.2-0.6,0.4c-0.2,0.1-0.3,0.2-0.5,0.3
			c-0.2,0.2-0.5,0.3-0.7,0.4c-0.3,0.2-0.5,0.3-0.8,0.5c-3.1,1.9-6.2,3.9-9.3,5.8c-0.6,0.4-1.2,0.8-1.8,1.1c-0.7,0.4-1.4,0.9-2.1,1.3
			c-0.5,0.3-1,0.6-1.5,0.9c-0.9,0.5-1.8,1.1-2.7,1.6c-1.1,0.6-2.2,1.3-3.3,1.9c-0.2,0.1-0.4,0.2-0.5,0.3c-1.1,0.6-2.2,1.3-3.3,1.9
			c-0.4,0.2-0.7,0.4-1.1,0.7c-0.6,0.3-1.1,0.7-1.7,1c-0.7,0.4-1.4,0.8-2.1,1.2c-1.9,1.1-3.8,2.2-5.7,3.3c-0.6,0.4-1.3,0.7-1.9,1.1
			c-0.9,0.5-1.9,1.1-2.8,1.6c-0.1,0.1-0.2,0.1-0.4,0.2c-0.6,0.3-1.1,0.6-1.7,0.9c-0.4,0.2-0.8,0.4-1.1,0.6c-0.5,0.3-1.1,0.6-1.6,0.9
			c-0.2,0.1-0.4,0.2-0.6,0.3c-1.1,0.6-2.2,1.2-3.3,1.8c-0.1,0.1-0.2,0.1-0.3,0.2c-0.5,0.2-0.9,0.5-1.4,0.8c-0.6,0.3-1.1,0.6-1.7,0.9
			c-0.6,0.3-1.2,0.7-1.8,1c-0.2,0.1-0.3,0.2-0.5,0.3c-0.2,0.1-0.3,0.2-0.5,0.3c0,0-0.1,0.1-0.2,0.1c-0.1,0-0.1,0.1-0.2,0.1
			c-0.1,0-0.1,0.1-0.2,0.1c-0.5,0.3-1,0.5-1.5,0.8c-0.6,0.3-1.2,0.6-1.8,1c-1.4,0.8-2.8,1.5-4.2,2.2c-0.8,0.4-1.6,0.8-2.4,1.2
			c-1.1,0.6-2.2,1.1-3.3,1.7c-1.9,1-3.7,1.9-5.6,2.8c-1.6,0.8-3.1,1.6-4.7,2.4l-3.8,1.9c-1.6,0.8-3.2,1.5-4.7,2.3
			c-1.9,0.9-3.8,1.8-5.7,2.7c-1.2,0.6-2.5,1.2-3.7,1.8c-1.6,0.7-3.1,1.5-4.7,2.2c-3.1,1.4-6.2,2.8-9.3,4.2
			c-70.6,31.3-319.3,141.4-548.5,15.4c-1.5-0.8-2.9-1.6-4.3-2.4c-0.7-0.4-1.4-0.8-2.1-1.2c-1.2-0.7-2.5-1.4-3.7-2.1
			c-1.3-0.8-2.6-1.5-3.9-2.3c-0.6-0.4-1.2-0.7-1.8-1.1c0,0,0,0-0.1-0.1c-1.4-0.8-2.7-1.6-4.1-2.5c-1.6-1-3.2-2-4.8-3
			c-0.1-0.1-0.2-0.1-0.4-0.2c-1.3-0.8-2.6-1.7-3.9-2.5c-1.8-1.2-3.6-2.3-5.4-3.5c-1.5-1-2.9-1.9-4.3-2.9c-0.4-0.3-0.9-0.6-1.3-0.9
			c-1.2-0.8-2.3-1.6-3.5-2.4c-2.8-2-5.6-4-8.4-6c-0.8-0.6-1.6-1.2-2.4-1.8c-1-0.7-1.9-1.4-2.9-2.2c-1.2-1-2.5-1.9-3.8-2.9
			c-0.3-0.2-0.5-0.4-0.8-0.6c-1.2-1-2.5-1.9-3.7-2.9c-0.1-0.1-0.1-0.1-0.2-0.2c-1.4-1.1-2.8-2.3-4.2-3.4c-1.4-1.1-2.8-2.3-4.2-3.5
			c-1.4-1.2-2.8-2.3-4.1-3.5c-2.7-2.3-5.4-4.7-8.1-7.1c-1.3-1.2-2.7-2.4-4-3.6c-2.6-2.4-5.2-4.8-7.8-7.3c-2.2-2.2-4.4-4.3-6.6-6.5
			c-5.5-5.4-10.7-11-15.8-16.6c-1-1.1-2-2.3-3-3.4c-1.2-1.3-2.3-2.6-3.4-3.9c-1.4-1.6-2.8-3.3-4.2-4.9c-2.1-2.5-4.2-5-6.2-7.4
			c-2-2.5-4-5-6-7.5c-2.1-2.7-4.2-5.4-6.2-8.1c-1-1.3-2-2.7-3-4c-3-4.1-5.9-8.2-8.8-12.3c-0.1-0.2-0.2-0.3-0.4-0.5
			c-0.9-1.2-1.7-2.5-2.6-3.8c-0.7-1-1.4-2.1-2.1-3.1c-1.4-2.1-2.8-4.2-4.1-6.3c-0.7-1-1.4-2.1-2-3.2c-0.9-1.4-1.8-2.8-2.7-4.2
			c-1.5-2.3-2.9-4.6-4.3-7c-0.6-1-1.2-2-1.8-3c-0.8-1.2-1.5-2.5-2.2-3.8c-0.5-0.8-1-1.7-1.5-2.5c-0.4-0.7-0.8-1.3-1.2-2
			c-0.5-0.9-1-1.8-1.6-2.8c-0.2-0.4-0.5-0.8-0.7-1.2c-1.4-2.6-2.9-5.1-4.2-7.7c-0.6-1.1-1.1-2.1-1.7-3.2c-0.4-0.8-0.8-1.5-1.2-2.3
			c-0.5-0.9-0.9-1.8-1.4-2.7c-2.5-4.7-4.9-9.5-7.2-14.2c-0.6-1.2-1.2-2.5-1.8-3.7c-0.6-1.3-1.2-2.6-1.8-3.8
			c-1.5-3.1-2.9-6.2-4.3-9.2c-0.7-1.5-1.3-2.9-2-4.4c-0.6-1.5-1.3-2.9-1.9-4.4c-0.6-1.5-1.3-2.9-1.9-4.4c-0.5-1.1-0.9-2.1-1.3-3.2
			c-0.3-0.8-0.7-1.6-1-2.4c-0.5-1.2-1-2.5-1.6-3.8c-0.8-2-1.6-4-2.4-5.9c-0.6-1.4-1.1-2.9-1.7-4.3c-0.7-1.8-1.4-3.5-2-5.3
			c-0.4-1-0.7-1.9-1.1-2.9c-1-2.7-2-5.4-3-8.1c-0.4-1.1-0.8-2.1-1.1-3.2c-0.6-1.6-1.2-3.3-1.7-4.9c-0.5-1.5-1-3-1.5-4.5
			c-0.5-1.6-1.1-3.2-1.6-4.8c-0.4-1.2-0.8-2.4-1.2-3.6c-0.4-1.1-0.7-2.2-1.1-3.3c-0.9-2.7-1.7-5.4-2.5-8c-0.6-1.8-1.1-3.7-1.7-5.5
			c-0.5-1.8-1.1-3.6-1.6-5.5c-0.5-1.8-1.1-3.6-1.6-5.4c-0.5-1.8-1-3.6-1.5-5.4c-0.4-1.5-0.8-2.9-1.2-4.4c-0.6-2.2-1.2-4.4-1.7-6.5
			c-0.3-1.3-0.7-2.7-1-4c-0.6-2.3-1.1-4.5-1.7-6.8c-0.4-1.6-0.8-3.2-1.1-4.7c0-0.1-0.1-0.2-0.1-0.3c-0.4-1.7-0.8-3.5-1.2-5.2
			c-0.4-1.7-0.8-3.4-1.2-5.1c-2-8.7-3.8-17.3-5.4-25.7c-0.2-1.1-0.4-2.2-0.6-3.3c-0.2-1-0.4-2.1-0.6-3.1c-0.5-2.8-1-5.6-1.5-8.4
			c-0.3-1.6-0.6-3.2-0.8-4.8c-0.3-1.7-0.5-3.3-0.8-4.9c-0.2-1.3-0.4-2.6-0.6-3.9c-0.8-5-1.5-10-2.2-14.8c-0.2-1.5-0.4-3-0.6-4.6
			c-0.2-1.5-0.4-3-0.6-4.5c-0.2-1.5-0.4-3-0.6-4.4c-0.2-1.5-0.4-2.9-0.5-4.4c-0.2-1.5-0.3-2.9-0.5-4.3c-0.2-1.4-0.3-2.9-0.5-4.3
			c-0.2-1.4-0.3-2.8-0.5-4.2c-0.5-4.4-0.9-8.7-1.3-12.9c-0.1-1.1-0.2-2.1-0.3-3.2c-0.1-0.9-0.1-1.7-0.2-2.6
			c-0.1-1.1-0.2-2.1-0.3-3.1c-0.1-1.3-0.2-2.5-0.3-3.8c-0.1-1.2-0.2-2.4-0.3-3.6c-0.1-1.4-0.2-2.8-0.3-4.2c-0.1-1.6-0.2-3.1-0.3-4.7
			c0-0.2,0-0.3,0-0.5c-0.1-1-0.1-2-0.2-2.9c-0.1-1.1-0.1-2.2-0.2-3.3c-0.1-1.1-0.1-2.2-0.2-3.2c-0.1-2.2-0.2-4.4-0.3-6.5
			c0-0.8-0.1-1.6-0.1-2.4c0-0.7,0-1.4-0.1-2c0-0.9-0.1-1.7-0.1-2.5c-0.2-4.4-0.3-8.4-0.4-12c0-0.5,0-1.1,0-1.6c0-0.2,0-0.4,0-0.7
			c0-0.5,0-1.1,0-1.6c0-0.1,0-0.3,0-0.4c0-0.6,0-1.2,0-1.8c0-0.4,0-0.9,0-1.3c0-0.6,0-1.2,0-1.7c0-3.5-0.1-6.5-0.1-8.9
			C-1.3,338.6,98.5,97.1,242.4,29c47.1-22.2,94.3-27.4,94.3-27.4c10-1.1,19.7-1.6,29-1.6c1.3,0,2.7,0,4,0c1,0,2.1,0,3.1,0.1
			c0.7,0,1.5,0,2.2,0.1c0.7,0,1.4,0,2.1,0.1c0.6,0,1.2,0,1.8,0.1c1,0,2,0.1,3,0.2c0.9,0,1.7,0.1,2.5,0.2c0.7,0,1.4,0.1,2.1,0.1
			c0.1,0,0.2,0,0.3,0c1,0.1,1.9,0.2,2.9,0.3c0.4,0,0.7,0.1,1.1,0.1c0.8,0.1,1.7,0.2,2.5,0.3c0.5,0,0.9,0.1,1.4,0.2
			c0.7,0.1,1.4,0.2,2.1,0.2c1.1,0.1,2.2,0.3,3.3,0.4c0.8,0.1,1.6,0.2,2.4,0.3c1.5,0.2,3,0.4,4.6,0.7c0.6,0.1,1.3,0.2,1.9,0.3
			c0.4,0.1,0.9,0.1,1.3,0.2c0.7,0.1,1.4,0.2,2.1,0.4c0.9,0.2,1.9,0.3,2.8,0.5c1.1,0.2,2.2,0.4,3.3,0.6c1.5,0.3,2.9,0.6,4.3,0.9
			c1,0.2,1.9,0.4,2.9,0.7c2.6,0.6,5.2,1.2,7.7,1.9c0.7,0.2,1.4,0.4,2,0.5c0.8,0.2,1.5,0.4,2.3,0.6c0.9,0.2,1.7,0.5,2.6,0.7
			c2,0.6,4,1.2,6,1.8c0.8,0.2,1.5,0.5,2.2,0.7c2.8,0.9,5.5,1.8,8.3,2.7c0.8,0.3,1.6,0.5,2.4,0.8c2.6,0.9,5.2,1.9,7.8,2.8
			c0.2,0.1,0.4,0.1,0.6,0.2c1.2,0.5,2.5,1,3.7,1.4c1.1,0.4,2.1,0.8,3.2,1.2c1.7,0.7,3.5,1.4,5.2,2.1c0.7,0.3,1.4,0.6,2.1,0.9
			c5.5,2.3,10.8,4.6,16.1,7c1.8,0.8,3.5,1.6,5.2,2.4c1,0.5,2,0.9,3,1.4c7.9,3.7,15.7,7.5,23.4,11.3c1.6,0.8,3.3,1.6,4.9,2.4
			c8.8,4.3,17.5,8.5,26.1,12.5c0.7,0.3,1.3,0.6,2,0.9v0c0.3,0.1,0.5,0.2,0.8,0.4c2.8,1.3,5.5,2.5,8.3,3.7c6.8,2.9,13.5,5.6,20,8
			c0.7,0.3,1.4,0.5,2.1,0.8c0.1,0,0.3,0.1,0.4,0.1c0.7,0.3,1.5,0.5,2.2,0.8c2.5,0.9,5.1,1.8,7.6,2.6c0.9,0.3,1.8,0.6,2.8,0.9
			c4.4,1.4,8.8,2.7,13.1,3.9c1.4,0.4,2.8,0.8,4.1,1.1c0.7,0.2,1.4,0.4,2.1,0.5c0.9,0.2,1.8,0.5,2.7,0.7c0.4,0.1,0.9,0.2,1.3,0.3
			c1.9,0.5,3.8,0.9,5.7,1.3c0.2,0.1,0.4,0.1,0.6,0.1c0.6,0.1,1.2,0.3,1.9,0.4c0.6,0.1,1.2,0.3,1.9,0.4c0.7,0.1,1.3,0.3,2,0.4
			c0.7,0.1,1.3,0.3,2,0.4c0.5,0.1,1.1,0.2,1.6,0.3c0.8,0.1,1.5,0.3,2.3,0.4c1.3,0.2,2.6,0.5,3.9,0.7c0.7,0.1,1.3,0.2,1.9,0.3
			c2,0.3,4,0.6,6,0.9c1.5,0.2,2.9,0.4,4.4,0.6c1,0.1,1.9,0.2,2.9,0.3c0.2,0,0.5,0.1,0.7,0.1c0.4,0,0.8,0.1,1.1,0.1
			c0.2,0,0.4,0,0.6,0.1c1,0.1,2.1,0.2,3.1,0.3c0.2,0,0.4,0,0.7,0.1c1.3,0.1,2.6,0.2,3.9,0.3c0.3,0,0.6,0,0.9,0.1
			c0.2,0,0.5,0,0.7,0.1c0.8,0.1,1.7,0.1,2.5,0.2c0.4,0,0.8,0.1,1.2,0.1c1.4,0.1,2.7,0.1,4,0.2c0.8,0,1.6,0.1,2.4,0.1
			c0.8,0,1.7,0.1,2.5,0.1c0.4,0,0.9,0,1.3,0c0.2,0,0.4,0,0.6,0c0.3,0,0.6,0,0.9,0c10.1,0.2,20-0.2,29.6-0.9
			c57.7-4.2,107.9-21.5,167.9-20.6c0.8,0,1.5,0,2.2,0c1.2,0,2.4,0.1,3.6,0.1c0.7,0,1.4,0,2.1,0.1c0.9,0,1.8,0.1,2.7,0.1
			c0.7,0,1.4,0.1,2,0.1c1,0,2,0.1,3,0.2c0.9,0.1,1.7,0.1,2.6,0.2c0.7,0.1,1.3,0.1,2,0.2c1.1,0.1,2.2,0.2,3.2,0.3
			c0.9,0.1,1.8,0.2,2.6,0.3c1.1,0.1,2.2,0.2,3.3,0.4c1.5,0.2,3,0.4,4.6,0.6c1.5,0.2,2.9,0.4,4.4,0.6c0.8,0.1,1.6,0.2,2.4,0.4
			c0.1,0,0.2,0,0.3,0c0.8,0.1,1.7,0.3,2.5,0.4c0.9,0.2,1.8,0.3,2.7,0.5c1.8,0.3,3.6,0.6,5.4,1c0.9,0.2,1.8,0.4,2.7,0.5
			c3.4,0.7,6.9,1.5,10.4,2.3c1,0.2,1.9,0.5,2.9,0.7c0.5,0.1,1,0.2,1.5,0.4c0.6,0.2,1.2,0.3,1.9,0.5c3.8,1,7.6,2.1,11.4,3.3
			c155.7,47.8,278.9,216.3,306.1,377.3c1.2,7.3,2.3,14.6,3.1,21.9c0.3,2.8,0.6,5.5,0.9,8.3c0.3,3.1,0.6,6.2,0.8,9.4
			c0.2,2.7,0.4,5.4,0.5,8.1c0.1,1.6,0.2,3.1,0.2,4.7C1286,524.6,1286.1,532.3,1286,539.9z"/>
		<g id="poster_1_">
			<g id="poster">
				<path class="st1" d="M723.7,94.5v176.1H562.4V63.4c0.3,0.1,0.5,0.2,0.8,0.4c2.8,1.3,5.5,2.5,8.3,3.7c6.8,2.9,13.5,5.6,20,8
					c0.7,0.3,1.4,0.5,2.1,0.8c0.1,0,0.3,0.1,0.4,0.1c0.7,0.3,1.5,0.5,2.2,0.8c2.5,0.9,5.1,1.8,7.6,2.6c0.9,0.3,1.8,0.6,2.8,0.9
					c4.4,1.4,8.8,2.7,13.1,3.9c1.4,0.4,2.8,0.8,4.1,1.1c0.7,0.2,1.4,0.4,2.1,0.5c0.9,0.2,1.8,0.5,2.7,0.7c0.4,0.1,0.9,0.2,1.3,0.3
					c1.9,0.5,3.8,0.9,5.7,1.3c0.2,0.1,0.4,0.1,0.6,0.1c0.6,0.1,1.2,0.3,1.9,0.4c0.6,0.1,1.2,0.3,1.9,0.4c0.7,0.1,1.3,0.3,2,0.4
					c0.7,0.1,1.3,0.3,2,0.4c0.5,0.1,1.1,0.2,1.6,0.3c0.8,0.1,1.5,0.3,2.3,0.4c1.3,0.2,2.6,0.5,3.9,0.7c0.7,0.1,1.3,0.2,1.9,0.3
					c2,0.3,4,0.6,6,0.9c1.5,0.2,2.9,0.4,4.4,0.6c1,0.1,1.9,0.2,2.9,0.3c0.2,0,0.5,0.1,0.7,0.1c0.4,0,0.8,0.1,1.1,0.1
					c0.2,0,0.4,0,0.6,0.1c1,0.1,2.1,0.2,3.1,0.3c0.2,0,0.4,0,0.7,0.1c1.3,0.1,2.6,0.2,3.9,0.3c0.3,0,0.6,0,0.9,0.1
					c0.2,0,0.5,0,0.7,0.1c0.8,0.1,1.7,0.1,2.5,0.2c0.4,0,0.8,0.1,1.2,0.1c1.4,0.1,2.7,0.1,4,0.2c0.8,0,1.6,0.1,2.4,0.1
					c0.8,0,1.7,0.1,2.5,0.1c0.4,0,0.9,0,1.3,0c0.2,0,0.4,0,0.6,0c0.3,0,0.6,0,0.9,0C704.2,95.5,714.1,95.2,723.7,94.5z"/>
				<g id="flowers_1_">
					<path class="st2" d="M597.5,210.2c-10.8,3.4-25.3,2.5-35.1-5.5v-85.6c2-3.6,4.2-7.3,6.6-10.9c2.9,10.6,5.8,21.2,8.8,31.8
						c8-6.6,16.1-13.2,24.1-19.7c0.7,9.5,1.5,19,2.2,28.5c9.5-7.7,19-15.4,28.5-23C639.8,168,622.4,202.3,597.5,210.2z"/>
					<path class="st4" d="M693.2,95.3C693.2,95.3,693.2,95.3,693.2,95.3c-0.1,0.8-0.3,1.5-0.5,2.3c-1.8,6.7-7.1,13.8-14.5,16.1
						c-4.3,1.4-9.2,1.2-14.3-0.6c-1.4-0.5-2.9-1.1-4.4-1.8c-8.2-4-16.6-11.8-23.4-22.8c0.6,0.1,1.2,0.3,1.9,0.4
						c0.6,0.1,1.2,0.3,1.9,0.4c0.7,0.1,1.3,0.3,2,0.4c0.7,0.1,1.3,0.3,2,0.4c0.5,0.1,1.1,0.2,1.6,0.3c0.8,0.1,1.5,0.3,2.3,0.4
						c1.3,0.2,2.6,0.5,3.9,0.7c0.7,0.1,1.3,0.2,1.9,0.3c2,0.3,4,0.6,6,0.9c1.5,0.2,2.9,0.4,4.4,0.6c1,0.1,1.9,0.2,2.9,0.3
						c0.2,0,0.5,0.1,0.7,0.1c0.4,0,0.8,0.1,1.1,0.1c0.2,0,0.4,0,0.6,0.1c1,0.1,2.1,0.2,3.1,0.3c0.2,0,0.4,0,0.7,0.1
						c1.3,0.1,2.6,0.2,3.9,0.3c0.3,0,0.6,0,0.9,0.1c0.2,0,0.5,0,0.7,0.1c0.8,0.1,1.7,0.1,2.5,0.2c0.4,0,0.8,0.1,1.2,0.1
						c1.4,0.1,2.7,0.1,4,0.2c0.8,0,1.6,0.1,2.4,0.1c0.8,0,1.7,0.1,2.5,0.1C692,95.3,692.6,95.3,693.2,95.3z"/>
					<g>
						<path class="st4" d="M701.8,162.5l-1.2-1.5l-5.9,15.7l-7.5-11.4l-5.1,13.9l-11.4-11.8l-0.1,2.5c-1.3,23.9,9.4,40.4,20.6,42.6
							c1,0.2,1.9,0.3,2.9,0.3c5.6,0,10.5-3.1,13.3-6.1C716.4,196.9,713.9,177.9,701.8,162.5z M705.8,205.2
							c-3.1,3.3-8.6,6.2-14.2,5.2c-9.9-1.9-19.4-16.5-18.9-37.8l10.3,10.7l4.8-13.1l7.5,11.3l6-16
							C713.1,181.5,712.6,197.8,705.8,205.2z"/>
					</g>
				</g>
				<g id="lines">
					<path class="st5" d="M624.4,244.5c-8.8,0-20.2-3.4-33.9-10.3c-0.5-0.3-0.8-0.9-0.5-1.5c0.3-0.5,0.9-0.8,1.5-0.5
						c21.3,10.6,36.5,12.9,44.9,6.7c7.7-5.6,8.2-16.9,8.8-30c0.7-15.1,1.5-33.8,14-49.9c6.2-7.9,14.4-14.3,24.5-19
						c0.6-0.3,1.2,0,1.5,0.5c0.3,0.6,0,1.2-0.5,1.5c-9.8,4.5-17.8,10.7-23.7,18.3c-12.1,15.5-12.9,33.1-13.6,48.6
						c-0.6,13.6-1.1,25.4-9.7,31.7C634.2,243.2,629.8,244.5,624.4,244.5z"/>
					<path class="st5" d="M593.6,76.2c-0.6,3.2-1.1,6.6-1.6,10.2c-0.1,0.5-0.5,1-1.1,1h-0.1c-0.6-0.1-1-0.6-1-1.2
						c0.5-3.8,1-7.4,1.7-10.7C592.2,75.7,592.9,75.9,593.6,76.2z"/>
				</g>
				<g id="dots">
					<circle class="st4" cx="655.1" cy="146" r="3.8"/>
					<circle class="st4" cx="655.1" cy="231.6" r="3.8"/>
				</g>
			</g>
		</g>
		<path id="board" class="st2" d="M499,320.7H200.6c-6.6,0-12-5.4-12-12V113.4c0-6.6,5.4-12,12-12H499c6.6,0,12,5.4,12,12v195.3
			C511,315.3,505.6,320.7,499,320.7z"/>
		<g id="stickers" class="st6">
			<path class="st1" d="M225.5,124.9c11.4-0.3,22.7-0.5,34.1-0.8c-0.9,2.6-2.4,8.4-0.8,15.5c1.9,8.7,7.1,13.9,9.1,15.7
				c-11.7,1-23.3,2.1-35,3.1c-0.8-0.7-13.9-11.9-11.1-25.5C222.2,130.9,223.2,128.1,225.5,124.9z"/>
			<path class="st1" d="M231.4,175.9c10.9,0.9,21.9,1.9,32.8,2.8c-0.8,2.4-2.1,7.8-0.6,14.3c1.8,7.8,6.4,12.5,8.2,14.2
				c-11.2,1.2-22.4,2.5-33.6,3.7c-1.4-1.1-10.6-8.8-10.7-21.2C227.4,183.3,229.9,178.3,231.4,175.9z"/>
			<path class="st1" d="M278.7,124.5c10.6,0,21.2,0,31.8,0c0.1,4,0.5,9.3,2.2,15.4c1.8,6.6,4.4,11.7,6.6,15.4
				c-11.3-0.7-22.7-1.5-34-2.2c-2.3-2.9-7.4-10.1-7.6-20C277.7,129.7,278.1,126.8,278.7,124.5z"/>
		</g>
		<g id="list">
			<path class="st1" d="M466.1,201.3h-66.9c-0.4-8.3,0.3-14.9,1-19.4c1.6-10.5,4-14.9,2.9-23.3c-0.7-5.7-2.3-6.9-3.9-12.6
				c-1.7-6.1-3-15.3,0-28.1c21.7,0,43.3,0,65,0c-1.2,4.3-2.5,10.7-1.9,18.4c0.5,7.4,2.2,9.1,2.9,16.5c1,9.9-1.3,13.3-1.9,23.3
				C462.8,182,463.1,190.6,466.1,201.3z"/>
			<rect x="406.9" y="146.5" class="st4" width="44.6" height="1"/>
			<rect x="406.9" y="153.8" class="st4" width="44.6" height="1"/>
			<rect x="406.9" y="161.5" class="st4" width="44.6" height="1"/>
			<rect x="406.9" y="169.3" class="st4" width="44.6" height="1"/>
			<rect x="406.9" y="177" class="st4" width="44.6" height="1"/>
			<path class="st4" d="M457.3,150l-2.4-4.7c-0.1-0.2,0-0.5,0.2-0.7c0.2-0.1,0.5,0,0.7,0.2l1.5,3l2.5-4.9c0.1-0.2,0.4-0.3,0.7-0.2
				c0.2,0.1,0.3,0.4,0.2,0.7L457.3,150z"/>
			<path class="st4" d="M457.3,157.7L455,153c-0.1-0.2,0-0.5,0.2-0.7c0.2-0.1,0.5,0,0.7,0.2l1.5,3l2.5-4.9c0.1-0.2,0.4-0.3,0.7-0.2
				c0.2,0.1,0.3,0.4,0.2,0.7L457.3,157.7z"/>
			<path class="st4" d="M457.3,164.5l-2.4-4.7c-0.1-0.2,0-0.5,0.2-0.7c0.2-0.1,0.5,0,0.7,0.2l1.5,3l2.5-4.9c0.1-0.2,0.4-0.3,0.7-0.2
				c0.2,0.1,0.3,0.4,0.2,0.7L457.3,164.5z"/>
			<circle class="st4" cx="432.1" cy="125.6" r="2.9"/>
		</g>
		<g id="photo2">
			<path class="st1" d="M344.8,217.7l-6.3-37.4c-0.2-1-1.1-1.6-2-1.5l-22.6,3.8l-3.3,0.6l-26.4,4.5c-1,0.2-1.6,1.1-1.5,2l6.3,37.4
				c0.2,0.9,0.9,1.5,1.8,1.5c0.1,0,0.2,0,0.3,0l52.3-8.8C344.4,219.6,345,218.6,344.8,217.7z M343.2,218.6l-52.3,8.8
				c-0.4,0.1-0.7-0.2-0.8-0.6l-6.3-37.4c-0.1-0.4,0.2-0.7,0.6-0.8l26.2-4.4l3.3-0.6l22.8-3.8c0,0,0.1,0,0.1,0c0.3,0,0.6,0.2,0.7,0.6
				l6.3,37.4C343.8,218.2,343.6,218.6,343.2,218.6z"/>
			
				<rect x="310.6" y="179.3" transform="matrix(0.9981 6.098617e-02 -6.098617e-02 0.9981 11.7846 -18.698)" class="st1" width="3.3" height="8.8"/>
			<path class="st1" d="M332.5,207.2C332.5,207.2,332.5,207.2,332.5,207.2c0-0.3-0.1-0.5-0.1-0.6c-0.2-0.8-0.7-1.7-1.3-2.6
				c-0.1-0.2-0.2-0.3-0.3-0.5c-1.5-2.1-3.6-4.1-4.8-5.2c0-3.4-0.2-10.8-1.9-11.4c-0.2-0.1-0.7-0.2-1.2,0.3c-2.1,2.1-5.2,9-5.6,10
				l-0.9,0.9l-6.1,1c-6.8-7.5-8.9-7.7-9.9-7.1c-0.2,0.1-0.5,0.4-0.7,0.9c-1,3.1,1.5,9.5,2.1,11c-1.8,2.1-2.6,3.9-3,5.3
				c0,0.2-0.1,0.4-0.1,0.5c-0.3,1.5-0.2,2.6,0,3.2c0,0,0,0,0,0c0,0.2,0.1,0.4,0.2,0.5c0.4,1.1,1.2,2.1,2.2,2.9
				c0.2,0.1,0.4,0.3,0.6,0.4c2.8,1.9,7,2.7,11.1,2.7c2.2,0,4.4-0.2,6.2-0.7c5-1.2,10.2-4.4,12.5-7.8c0.1-0.2,0.3-0.4,0.4-0.6
				C332.3,209.4,332.6,208.3,332.5,207.2z M329.8,211.2c-2.4,2.8-7,5.5-11.2,6.5c-5.2,1.3-11.6,0.8-15.6-1.3h0
				c-0.2-0.1-0.5-0.3-0.7-0.4c-1.1-0.7-2-1.5-2.5-2.5c-0.1-0.2-0.2-0.4-0.2-0.5c0-0.1-0.1-0.2-0.1-0.3c-0.1-0.5-0.3-1.4,0-2.6
				c0-0.2,0.1-0.4,0.1-0.5c0.4-1.4,1.3-3.1,3-5.1c0.1-0.2,0.2-0.4,0.1-0.6c-0.9-2.1-3-8-2.2-10.6c0.1-0.2,0.1-0.3,0.2-0.3
				c0,0,0.1-0.1,0.2-0.1c0.7,0,2.7,0.8,8.5,7.1c0.1,0.1,0.3,0.2,0.5,0.2l6.6-1.1c0.1,0,0.2-0.1,0.3-0.2l1.1-1.1c0,0,0.1-0.1,0.1-0.2
				c0-0.1,3.3-7.6,5.4-9.7c0,0,0,0,0.1-0.1c0.7,0.6,1.2,5.4,1.2,10.7c0,0.1,0.1,0.3,0.2,0.4c0,0,0,0,0,0c0.9,0.8,3.3,3,4.8,5.2
				c0.1,0.2,0.2,0.3,0.3,0.5v0c0.6,0.8,1,1.7,1.2,2.4c0,0.1,0,0.3,0.1,0.4c0,0.1,0,0.1,0,0.2c0.1,1-0.3,2-1.1,3.1
				C330.2,210.8,330,211,329.8,211.2z"/>
			
				<ellipse transform="matrix(8.433574e-02 -0.9964 0.9964 8.433574e-02 78.6412 495.9881)" class="st1" cx="309.2" cy="205.2" rx="1.4" ry="1.5"/>
			
				<ellipse transform="matrix(8.433574e-02 -0.9964 0.9964 8.433574e-02 91.8764 506.0029)" class="st1" cx="321.3" cy="203" rx="1.4" ry="1.5"/>
			<path class="st1" d="M322.1,209.8c-0.1,0-0.2,0-0.2-0.1c-0.1-0.1,0-0.3,0.1-0.4l12.6-8.2c0.1-0.1,0.3,0,0.4,0.1
				c0.1,0.1,0,0.3-0.1,0.4l-12.6,8.2C322.2,209.7,322.1,209.8,322.1,209.8z"/>
			<path class="st1" d="M323.5,210.5c-0.1,0-0.2-0.1-0.3-0.2c-0.1-0.1,0-0.3,0.2-0.4l14.1-5.4c0.1-0.1,0.3,0,0.4,0.2
				c0.1,0.1,0,0.3-0.2,0.4L323.5,210.5C323.6,210.5,323.6,210.5,323.5,210.5z"/>
			<path class="st1" d="M323.1,212.1c-0.1,0-0.3-0.1-0.3-0.2c0-0.2,0.1-0.3,0.2-0.3l14.9-1.9c0.1,0,0.3,0.1,0.3,0.2
				c0,0.2-0.1,0.3-0.2,0.3L323.1,212.1C323.1,212.1,323.1,212.1,323.1,212.1z"/>
			<path class="st1" d="M310,212.2C310,212.2,309.9,212.2,310,212.2l-14.8-3.1c-0.1,0-0.2-0.2-0.2-0.3c0-0.1,0.2-0.2,0.3-0.2
				l14.7,3.1c0.1,0,0.2,0.2,0.2,0.3C310.2,212.1,310.1,212.2,310,212.2z"/>
			<path class="st1" d="M293.8,213.5c-0.2,0-0.3-0.1-0.3-0.3c0-0.2,0.1-0.3,0.3-0.3l15.1-0.1c0,0,0,0,0,0c0.2,0,0.3,0.1,0.3,0.3
				c0,0.2-0.1,0.3-0.3,0.3L293.8,213.5C293.8,213.5,293.8,213.5,293.8,213.5z"/>
			<path class="st1" d="M295.2,218.4c-0.1,0-0.2-0.1-0.3-0.2c0-0.1,0.1-0.3,0.2-0.3l14.6-3.6c0.1,0,0.3,0.1,0.3,0.2
				c0,0.1-0.1,0.3-0.2,0.3L295.2,218.4C295.3,218.4,295.3,218.4,295.2,218.4z"/>
		</g>
		<g id="photo1">
			<path class="st1" d="M285.8,253.3c-0.3-0.4-0.7-0.6-1.2-0.6l-23.4-1.6l-3.3-0.2l-26.3-1.8c-0.5,0-0.9,0.1-1.3,0.4
				c-0.4,0.3-0.6,0.7-0.6,1.2l-2.5,37.9c-0.1,1,0.7,1.8,1.7,1.9l53,3.5h0.1c0.4,0,0.8-0.1,1.2-0.4c0.3-0.3,0.6-0.7,0.6-1.2l2.5-37.9
				C286.3,254.2,286.1,253.7,285.8,253.3z M282.6,292.4c0,0.2-0.1,0.3-0.2,0.5c-0.1,0.1-0.3,0.2-0.5,0.2l-53-3.5
				c-0.4,0-0.7-0.3-0.6-0.7l2.5-37.9c0-0.2,0.1-0.4,0.2-0.5s0.3-0.2,0.5-0.2l26.4,1.8l3.3,0.2l23.3,1.5c0.2,0,0.3,0.1,0.5,0.2
				s0.2,0.3,0.2,0.5L282.6,292.4z"/>
			<rect x="257.9" y="246.2" class="st1" width="3.3" height="8.8"/>
			<path class="st1" d="M246.4,256.9c-4.7,0-8.5,5-8.5,11.2s3.8,11.2,8.5,11.2s8.5-5,8.5-11.2S251.1,256.9,246.4,256.9z
				 M246.4,278.9c-4.4,0-8-4.8-8-10.7c0-1.5,0.2-3,0.7-4.3v0c0.1-0.3,0.2-0.6,0.4-1l0,0c1.4-3.2,4-5.4,6.9-5.4c2.4,0,4.6,1.5,6,3.8
				c0.2,0.3,0.4,0.6,0.6,1c0,0,0,0,0,0c0.9,1.7,1.4,3.8,1.4,6C254.3,274.1,250.8,278.9,246.4,278.9z"/>
			<path class="st1" d="M276.6,269.7c-1-2.2-2.7-3.8-4.8-4.3c-2.1-0.5-4.3,0-6.3,1.5c-1.9,1.5-3.4,3.7-4,6.3
				c-0.4,1.6-0.5,3.2-0.3,4.7c0.5,3.5,2.6,6.3,5.6,7.1c0.5,0.1,1.1,0.2,1.6,0.2c1.6,0,3.2-0.6,4.7-1.7c0.7-0.5,1.4-1.2,2-1.9
				c1-1.2,1.7-2.7,2.1-4.4C277.8,274.6,277.6,272,276.6,269.7z M276.6,277.1c-0.4,1.4-1,2.8-1.8,3.9c-0.6,0.8-1.3,1.5-2,2.1
				c-1.8,1.4-3.9,1.9-5.8,1.4c-3-0.8-4.9-3.6-5.2-7.2c-0.1-1.3,0-2.6,0.3-4c0.6-2.5,2-4.6,3.8-6c1.4-1,2.8-1.6,4.3-1.6
				c0.5,0,1,0.1,1.5,0.2c1.9,0.5,3.5,1.9,4.5,4C277.1,272.1,277.2,274.6,276.6,277.1z"/>
			<path class="st1" d="M239.1,263.9l-0.4-0.4c0.2-0.1,3.8-3.3,6.2-2.1c2.1,1,4.2,1.1,5.2,0.1c1.3-1.3,3.3,0.3,3.3,0.4l-0.3,0.4
				c0,0-1.7-1.4-2.6-0.4c-1.2,1.2-3.5,1.2-5.8,0.1C242.6,260.8,239.1,263.9,239.1,263.9z"/>
			<path class="st1" d="M245.4,266.6c0-0.2-0.1-0.4-0.2-0.6c-0.5-1.2-1.5-2-2.7-2c-1.7,0-3,1.6-3,3.6c0,2,1.4,3.6,3,3.6
				c1.7,0,3-1.6,3-3.6C245.6,267.3,245.5,267,245.4,266.6z M242.5,270.6c-1.4,0-2.5-1.4-2.5-3c0-1.7,1.1-3,2.5-3
				c1.4,0,2.5,1.4,2.5,3C245,269.3,243.9,270.6,242.5,270.6z"/>
			<path class="st1" d="M250.2,264.1c-1.2,0-2.2,0.8-2.7,2c-0.1,0.2-0.1,0.4-0.2,0.6c-0.1,0.3-0.1,0.6-0.1,1c0,2,1.4,3.6,3,3.6
				c1.7,0,3-1.6,3-3.6C253.2,265.7,251.9,264.1,250.2,264.1z M250.2,270.6c-1.4,0-2.5-1.4-2.5-3c0-1.7,1.1-3,2.5-3
				c1.4,0,2.5,1.4,2.5,3C252.7,269.3,251.6,270.6,250.2,270.6z"/>
			<rect x="245.1" y="266.1" class="st1" width="2.6" height="0.5"/>
			<path class="st1" d="M246.4,276.7c-1.6,0-2.9-0.9-3.5-2.4c-0.1-0.1,0-0.3,0.1-0.4c0.1-0.1,0.3,0,0.4,0.1c0.5,1.2,1.7,2,3,2
				s2.5-0.8,3-2c0.1-0.1,0.2-0.2,0.4-0.1c0.1,0.1,0.2,0.2,0.1,0.4C249.3,275.7,247.9,276.7,246.4,276.7z"/>
			<path class="st1" d="M268.3,282.2c-1.6,0-2.9-0.9-3.5-2.4c-0.1-0.1,0-0.3,0.1-0.4c0.1-0.1,0.3,0,0.4,0.1c0.5,1.2,1.7,2,3,2
				s2.5-0.8,3-2c0.1-0.1,0.2-0.2,0.4-0.1c0.1,0.1,0.2,0.2,0.1,0.4C271.3,281.2,269.9,282.2,268.3,282.2z"/>
			<circle class="st1" cx="242" cy="267.6" r="0.5"/>
			<circle class="st1" cx="266.1" cy="275.3" r="0.5"/>
			<circle class="st1" cx="249.7" cy="267.6" r="0.5"/>
			<circle class="st1" cx="270.5" cy="275.3" r="0.5"/>
			<path class="st1" d="M280,274.7c-2.1-0.7-0.7-4.9-2.4-6.6c-0.8-0.8-2.8-2-4.9-2.8c-0.7-2.5-8.3-1.5-10.4-0.5
				c-2.2,1.1-2.2,5.5-4.4,5.5c-2.2,0-2.2,4.4,0,8.8c0.1,0.3,0.3,0.5,0.5,0.6c1.4,0.6,3.8-3.4,7.2-7.2c0.9-1.1,2.2-2.4,3.8-3.9
				c1.2,1.9,2.1,3.6,2.7,5c2.1,4.9,2.8,9.8,4.3,9.8c0.2,0,0.4-0.1,0.7-0.4C280.6,279.6,282,275.4,280,274.7z"/>
		</g>
		<g id="grid" class="st6">
			<g>
				<path class="st1" d="M502.8,254.1c0-0.3-0.2-0.5-0.5-0.5H480l-0.1-21.4h22.4c0.3,0,0.5-0.2,0.5-0.5c0-0.3-0.2-0.5-0.5-0.5h-22.4
					l-0.1-9.2c0-0.3-0.2-0.5-0.5-0.5c-0.3,0-0.5,0.2-0.5,0.5l0.1,9.2h-26.3l-0.1-9.2c0-0.3-0.2-0.5-0.5-0.5c-0.3,0-0.6,0.2-0.6,0.5
					l0.1,9.2h-25.2L426,222c0-0.3-0.2-0.5-0.5-0.5c-0.3,0-0.5,0.2-0.5,0.5c0,0,0,0,0,0l0.1,9.2h-25.2l0-9.2c0-0.3-0.2-0.5-0.5-0.5h0
					c-0.3,0-0.5,0.2-0.5,0.5l0.1,9.2h-23.4c-0.3,0-0.5,0.2-0.5,0.5c0,0.3,0.2,0.5,0.5,0.5h23.4l0.1,21.4h-23.5
					c-0.3,0-0.5,0.2-0.5,0.5c0,0.3,0.2,0.5,0.5,0.5h23.5l0.1,21.4h-23.6c-0.3,0-0.5,0.2-0.5,0.5c0,0.3,0.2,0.5,0.5,0.5h23.7
					l0.2,32.4c0,0.3,0.2,0.5,0.5,0.5s0.5-0.2,0.5-0.5L400,277h25.2l0.2,32.4c0,0.3,0.2,0.5,0.5,0.5c0.3,0,0.5-0.2,0.5-0.5
					c0,0,0,0,0,0l-0.2-32.4h25.2l0.2,32.4c0,0.3,0.2,0.5,0.5,0.5h0c0.3,0,0.5-0.2,0.5-0.5l-0.2-32.4H479l0.2,32.4
					c0,0.3,0.2,0.5,0.5,0.5s0.5-0.2,0.5-0.5l-0.2-32.4h22.1c0.3,0,0.5-0.2,0.5-0.5c0-0.3-0.2-0.5-0.5-0.5h-22.1l-0.1-21.4h22.2
					C502.5,254.6,502.8,254.4,502.8,254.1z M425,232.2l0.1,21.4h-25.2l-0.1-21.4H425z M400,276l-0.1-21.4h25.2l0.1,21.4H400z
					 M426.1,232.2h25.2l0.1,21.4h-25.2L426.1,232.2z M426.3,276l-0.1-21.4h25.2l0.1,21.4H426.3z M452.4,232.2h26.3l0.1,21.4h-26.3
					L452.4,232.2z M452.7,276l-0.1-21.4h26.3L479,276H452.7z"/>
				<path class="st1" d="M503.3,254.1c0-0.6-0.5-1-1.1-1h-21.7l-0.1-20.3h21.8c0.6,0,1.1-0.5,1.1-1s-0.5-1-1.1-1h-21.9l-0.1-8.7
					c0-0.3-0.1-0.5-0.3-0.7c-0.2-0.2-0.5-0.3-0.7-0.3c-0.3,0-0.6,0.1-0.8,0.3c-0.2,0.2-0.3,0.4-0.3,0.7l0,8.7h-25.2l0-8.7
					c0-0.6-0.5-1-1.1-1c-0.3,0-0.6,0.1-0.8,0.3c-0.2,0.2-0.3,0.4-0.3,0.7l0.1,8.7h-24.1l-0.1-8.7c0-0.6-0.5-1-1.1-1
					c-0.3,0-0.6,0.1-0.8,0.3c-0.2,0.2-0.3,0.4-0.3,0.7l0,8.7h-24.1l-0.1-8.7c0-0.6-0.5-1-1.1-1c-0.3,0-0.6,0.1-0.8,0.3
					c-0.2,0.2-0.3,0.4-0.3,0.7l0.1,8.7h-22.8c-0.6,0-1.1,0.5-1.1,1s0.5,1,1.1,1h22.8l0.1,20.3h-23c-0.6,0-1.1,0.5-1.1,1s0.5,1,1.1,1
					h23l0.1,20.3h-23.1c-0.6,0-1.1,0.5-1.1,1c0,0.6,0.5,1,1.1,1h23.1l0.2,31.9c0,0.6,0.5,1,1.1,1c0.3,0,0.5-0.1,0.7-0.3
					c0.2-0.2,0.4-0.5,0.4-0.8l-0.2-31.9h24.1l0.2,31.9c0,0.6,0.5,1,1.1,1c0.3,0,0.5-0.1,0.8-0.3c0.2-0.2,0.3-0.5,0.3-0.8l-0.2-31.9
					H451l0.2,31.9c0,0.6,0.5,1,1.1,1c0.3,0,0.5-0.1,0.8-0.3c0.2-0.2,0.3-0.5,0.3-0.8l-0.2-31.9h25.2l0.2,31.9c0,0.6,0.5,1,1.1,1
					c0.3,0,0.5-0.1,0.8-0.3c0.2-0.2,0.3-0.5,0.3-0.8l-0.2-31.9h21.6c0.6,0,1.1-0.5,1.1-1c0-0.6-0.5-1-1.1-1h-21.6l-0.1-20.3h21.7
					C502.8,255.1,503.3,254.7,503.3,254.1z M478.5,275.4h-25.2l-0.1-20.3h25.2L478.5,275.4z M453,232.8h25.2l0.1,20.3h-25.2
					L453,232.8z M426.8,255.1h24.1l0.1,20.3h-24.1L426.8,255.1z M450.9,253.1h-24.1l-0.1-20.3h24.1L450.9,253.1z M424.7,275.4h-24.1
					l-0.1-20.3h24.1L424.7,275.4z M400.4,253.1l-0.1-20.3h24.1l0.1,20.3H400.4z"/>
			</g>
			<g id="circles">
				<circle class="st1" cx="412.6" cy="242.9" r="5.5"/>
				<circle class="st1" cx="465.2" cy="264.9" r="5.5"/>
			</g>
		</g>
		<g id="cup">
			<path class="st1" d="M138,570.7C138,570.7,138,570.7,138,570.7c-0.3,0-0.5-0.2-0.5-0.5l2.1-66.2c0-0.3,0.3-0.5,0.5-0.5
				c0.3,0,0.5,0.2,0.5,0.5l-2.1,66.2C138.5,570.4,138.3,570.7,138,570.7z"/>
			<path class="st1" d="M139.3,571C139.3,571,139.3,571,139.3,571c-0.3,0-0.5-0.3-0.5-0.6l7.6-65.8c0-0.3,0.3-0.5,0.6-0.5
				c0.3,0,0.5,0.3,0.5,0.6l-7.6,65.8C139.8,570.8,139.6,571,139.3,571z"/>
			<path class="st1" d="M133.1,570.5c-0.3,0-0.5-0.2-0.5-0.5l-6.7-65.9c0-0.3,0.2-0.5,0.5-0.6c0.3,0,0.5,0.2,0.6,0.5l6.7,65.9
				C133.6,570.2,133.4,570.5,133.1,570.5C133.1,570.5,133.1,570.5,133.1,570.5z"/>
			<path class="st1" d="M131.9,571.1c-0.3,0-0.5-0.2-0.6-0.4l-12.6-65c-0.1-0.3,0.1-0.6,0.4-0.6c0.3,0,0.6,0.1,0.6,0.4l12.6,65
				C132.4,570.8,132.2,571.1,131.9,571.1C131.9,571.1,131.9,571.1,131.9,571.1z"/>
			<path class="st4" d="M135.7,570.6c-0.3,0-0.5-0.2-0.5-0.5l-3.8-66.1c0-0.3,0.2-0.5,0.5-0.5c0.3,0,0.5,0.2,0.5,0.5l3.8,66.1
				C136.3,570.4,136.1,570.6,135.7,570.6C135.8,570.6,135.7,570.6,135.7,570.6z"/>
			<path class="st4" d="M114.2,516.8c3.8,19.5,7.6,39,11.4,58.5c5.5,0,11,0,16.5,0c2.8-20,5.5-40,8.3-60
				C138.3,515.8,126.3,516.3,114.2,516.8z"/>
		</g>
		<path id="shelves_1_" class="st4" d="M215.8,399.1V459H60.4v-59.9c-7.8-7.8-15.6-15.6-23.5-23.4v429.9c0.8,2.7,1.7,5.3,2.5,8
			c0.3,1.1,0.7,2.2,1.1,3.3c0.4,1.2,0.8,2.4,1.2,3.6c0.5,1.6,1,3.2,1.6,4.8c0.5,1.5,1,3,1.5,4.5c0.6,1.6,1.1,3.3,1.7,4.9
			c0.4,1.1,0.8,2.1,1.1,3.2c1,2.7,2,5.4,3,8.1c0.4,1,0.7,1.9,1.1,2.9c0.7,1.8,1.3,3.5,2,5.3c0.6,1.4,1.1,2.9,1.7,4.3
			c0.8,2,1.6,4,2.4,5.9c0.5,1.2,1,2.5,1.6,3.8c0.3,0.8,0.6,1.6,1,2.4v-46.2h155.3V968h23.5V375.7
			C231.4,383.5,223.6,391.3,215.8,399.1z M60.4,475.5h155.3v99.8H60.4V475.5z M60.4,591.8h155.3v99.8H60.4V591.8z M60.4,807.9v-99.8
			h155.3v99.8H60.4z"/>
		<g id="plant">
			<path class="st4" d="M225.6,347.4c-0.5-0.4-1.2-0.2-1.5,0.2l-43.7,60.5l2.5-30.7l34.3-71.5c0.3-0.5,0-1.2-0.5-1.5
				c-0.5-0.3-1.2,0-1.5,0.5l-31.9,66.3l4.3-53.7c0-0.6-0.4-1.1-1-1.2c-0.6-0.1-1.1,0.4-1.2,1l-4.4,54.8L163.5,327
				c-0.2-0.6-0.9-0.8-1.4-0.6c-0.6,0.2-0.8,0.9-0.6,1.4l19.3,49.5l-2.3,29l-23.7-46.5c-0.3-0.5-0.9-0.8-1.5-0.5
				c-0.5,0.3-0.8,0.9-0.5,1.5l25.3,49.6l-2.4,29.9c0,0.6,0.4,1.1,1,1.2c0,0,0.1,0,0.1,0c0.6,0,1-0.4,1.1-1l2.3-28.1l45.8-63.5
				C226.2,348.4,226.1,347.7,225.6,347.4z"/>
			<path class="st1" d="M187.7,426.1c-3.4,0-6.8,0-10.2,0c-3.9,0-7.8,0-11.8,0c-1.4,3.3-5.4,13.7-1.5,25.1c1.3,3.8,3.1,6.7,4.8,8.9
				c5.3,0,10.7,0,16,0c1.5-2.4,2.9-5.3,4-8.9C192.3,440.1,189.3,430.3,187.7,426.1z"/>
		</g>
		<path id="box" class="st4" d="M149.3,404.7H78.5c-0.3,0-0.5,0.2-0.5,0.5v9.3c0,0.3,0.2,0.5,0.5,0.5h2.8v43.3
			c0,0.3,0.2,0.5,0.5,0.5h64.7c0.3,0,0.5-0.2,0.5-0.5v-43.3h2.2c0.3,0,0.5-0.2,0.5-0.5v-9.3C149.9,405,149.6,404.7,149.3,404.7z
			 M146,457.9H82.4v-42.8H146V457.9z M148.8,414.1H79.1v-8.2h69.7V414.1z"/>
		<g id="book">
			<path class="st1" d="M166.8,573.3l41.7-76.9c0.2-0.1,2.6-1.4,5-0.1c0.2,0.1,2.5,1.4,2.7,4.3c-13.9,25.6-27.8,51.3-41.7,76.9
				c-0.5-0.7-1.5-2.1-3.3-3.1C170.5,574,168.9,573.3,166.8,573.3z"/>
			<path class="st4" d="M174.6,573.2l37.1-68.5c0.1-0.1,0.2-0.2,0.4-0.1s0.2,0.2,0.1,0.4l-37.1,68.5c-0.1,0.1-0.2,0.2-0.4,0.1
				S174.6,573.3,174.6,573.2z"/>
			<path class="st4" d="M172.7,572.1l37.1-68.5c0.1-0.1,0.2-0.2,0.4-0.1c0.1,0.1,0.2,0.2,0.1,0.4l-37.1,68.5
				c-0.1,0.1-0.2,0.2-0.4,0.1C172.7,572.4,172.6,572.3,172.7,572.1z"/>
			<path class="st4" d="M170.8,571.1l37.1-68.5c0.1-0.1,0.2-0.2,0.4-0.1c0.1,0.1,0.2,0.2,0.1,0.4l-37.1,68.5
				c-0.1,0.1-0.2,0.2-0.4,0.1C170.8,571.4,170.7,571.2,170.8,571.1z"/>
		</g>
		<circle id="ball" class="st1" cx="90.6" cy="561.6" r="15.9"/>
		<g id="white_candle">
			<path class="st4" d="M120.8,636.2c-0.1,0-0.1,0-0.2,0c-0.3-0.1-0.4-0.4-0.3-0.7c1.1-2.8,1.4-4.7,0.7-5.4
				c-0.2-0.2-0.5-0.3-0.9-0.4c-0.4-0.1-1-0.2-1.4-0.7c-0.9-1.1-0.6-3.1,1-6.1c0.1-0.3,0.5-0.4,0.7-0.2c0.3,0.1,0.4,0.5,0.2,0.7
				c-1.8,3.3-1.5,4.5-1.2,4.9c0.2,0.2,0.4,0.3,0.8,0.4c0.4,0.1,0.9,0.2,1.4,0.7c1.1,1.1,0.9,3.3-0.4,6.6
				C121.2,636.1,121,636.2,120.8,636.2z"/>
			<path class="st1" d="M109,691.6c0,0-5.7-59.2-0.2-62.5c1.5-0.9,2.3-0.6,2.3-0.6c1.4,0.6,0.7,3.1,2.1,3.9c1.4,0.8,3-1.5,5.5-1.1
				c2.3,0.4,2.5,2.8,4.4,3.3c3.5,0.9,6.7-6.7,8.8-6.6c3,0.2,5.4,15.9,6.1,63.6H109z"/>
		</g>
		<g id="blue_candle">
			<path class="st4" d="M152.1,650.9c-0.2,0-0.4-0.1-0.5-0.3c-0.6-1.1-1-2.2-1.2-3.4c-0.1-0.9-0.1-1.7-0.1-2.1
				c0.1-1.4,0.3-2.8,0.8-4.2c0.1-0.3,0.4-0.4,0.7-0.3c0.3,0.1,0.4,0.4,0.3,0.7c-0.5,1.3-0.7,2.6-0.8,3.9c0,0.5-0.1,1.1,0.1,1.9
				c0.2,1.1,0.5,2.1,1.1,3c0.2,0.3,0.1,0.6-0.2,0.7C152.3,650.9,152.2,650.9,152.1,650.9z"/>
			<path class="st2" d="M143.4,691.6c-0.5-11.4-1.7-41.3-0.6-43.9c0.3-0.7,1.1-2.6,2.2-2.6c0,0,0,0,0,0c1,0.4,0.5,2.3,1.5,2.9
				c1.1,0.6,1.9-0.7,4-0.8c2.3-0.1,3,1.2,4.3,0.6c1.3-0.6,1.1-2,2.2-2.2c1.2-0.2,1.8,1.2,3.3,1.1c1.3-0.1,1.8-1.1,2.2-1.1
				c1.2,0.1,2.2,10,2.2,46.1C157.6,691.6,150.5,691.6,143.4,691.6z"/>
		</g>
		<path id="box_with_lines" class="st4" d="M200,753.6H83.3c-0.5,0-0.9,0.2-0.9,0.5v9.3c0,0.3,0.4,0.5,0.9,0.5h4.5v43.3
			c0,0.3,0.4,0.6,0.9,0.6h106.7c0.5,0,0.9-0.2,0.9-0.6V764h3.6c0.5,0,0.9-0.2,0.9-0.5v-9.3C200.9,753.8,200.5,753.6,200,753.6z
			 M97.6,806.8h-7.9V764h7.9V806.8z M106.5,806.8h-7.9V764h7.9V806.8z M115.3,806.8h-7.7V764h7.7V806.8z M123.9,806.8h-7.5V764h7.5
			V806.8z M132.8,806.8H125V764h7.9V806.8z M141.6,806.8h-7.7V764h7.7V806.8z M150.2,806.8h-7.5V764h7.5V806.8z M159.2,806.8h-7.9
			V764h7.9V806.8z M168,806.8h-7.7V764h7.7V806.8z M176.5,806.8H169V764h7.5V806.8z M185.5,806.8h-7.9V764h7.9V806.8z M194.5,806.8
			h-7.9V764h7.9V806.8z M199.1,762.9H84.2v-8.2h114.9V762.9z"/>
		<g id="pins">
			<path class="st7" d="M54.4,468.8c1.5,0,2.7-1.2,2.7-2.7s-1.2-2.7-2.7-2.7c-1.5,0-2.7,1.2-2.7,2.7S52.9,468.8,54.4,468.8z"/>
			<path class="st7" d="M226.1,466.1c0-1.5-1.2-2.7-2.7-2.7c-1.5,0-2.7,1.2-2.7,2.7s1.2,2.7,2.7,2.7
				C224.9,468.8,226.1,467.6,226.1,466.1z"/>
			<circle class="st7" cx="52.2" cy="584.6" r="2.7"/>
			<circle class="st7" cx="224.5" cy="582.4" r="2.7"/>
			<circle class="st7" cx="54.4" cy="702" r="2.7"/>
			<circle class="st7" cx="226.6" cy="702" r="2.7"/>
			<circle class="st7" cx="54.4" cy="819.4" r="2.7"/>
			<circle class="st7" cx="226.6" cy="819.4" r="2.7"/>
		</g>
		<path id="vase" class="st2" d="M1043.2,788c13.6,37.3,6.5,89.6-21.6,105.4c-9.6,5.4-23.2,6.7-34.4,7.7c-10.7,1-32.6,3-49.5-3.8
			c-36.3-14.8-57.3-74.1-39.1-111.6c12.6-26.1,35.6-24.2,51.1-51.6c15.8-27.9,9.4-60.6,1.6-83.9c10.9-4.9,21.8-9.7,32.8-14.6
			c-0.8,50,12,82.4,25.2,103.7C1024.2,763.1,1034.9,765.1,1043.2,788z"/>
		<g id="flowers" class="st8">
			<path class="st9" d="M941.1,571.1c1.7,1.7,3.2,2.5,4.6,2.8c8.2,1.9,23.1-29,2.5-23.6c-5.6,1.5-9.5,3.5-11.3,6.6
				c-6.6-21.7-14.3-45.6-23.3-71.8c6.8-2.2,10.4-5.5,12.4-8.5c11-16.2-43.9-74.6-49.4-25.2c-1.8,16.2,0.2,27.7,8.4,33.6
				c8.1,5.9,19.7,3.2,25.4,1.3c6.8,19.9,12.9,38.5,18.4,55.7c-1-1.5-2.1-2.4-3.1-3.1c-9-5.8-40.2,25.1-13.1,27.4
				c8.9,0.8,15.1-0.5,18.3-5.1c1.4-2,1.8-4.4,1.8-6.7c41.3,134.7,39.9,185.1,39.9,185.7c-1.5,36.1-8.9,72.1-21.7,107
				c-0.3,0.9,0.1,1.8,1,2.1c0.2,0.1,0.4,0.1,0.6,0.1c0.7,0,1.3-0.4,1.5-1.1c13-35.2,20.4-71.5,21.9-108
				C975.8,739.7,977.2,693.3,941.1,571.1z"/>
			<path class="st9" d="M966.6,517.7c6.2,8.8,46.6-8.2,22.4-20.5c-7.9-4-14.2-5.2-18.8-2.1c-0.7,0.5-1.3,1-1.9,1.6
				c1.1-10.1,2.5-20.3,4.1-30.5c3.1,0.6,5.8,0.7,7.1,0.7c6,0.5,9.9-0.8,12.4-2.5c13.1-8.7-10.1-68.6-29-33.6
				c-6.2,11.5-8.2,20.6-3.9,27.5c2.4,3.8,6.3,5.9,10.2,7.1c-2.6,15.7-4.5,31.3-5.7,46.8c-0.3-1-0.7-1.9-1.2-2.6
				c-5.8-9.1-47,5.9-23.4,19.4c7.7,4.4,14,5.9,18.7,3c2.6-1.5,4.1-4.1,5-6.7c-1.4,26.5-0.9,52.6,1.7,78.1c2,19.8,4.9,37.2,7.8,54.1
				c5.8,34.4,11.3,66.9,6.5,111.2c-3.3,30-10.6,59.7-21.8,88.4c-0.3,0.8,0.1,1.8,0.9,2.1c0.2,0.1,0.4,0.1,0.6,0.1
				c0.7,0,1.3-0.4,1.5-1c11.3-29,18.7-59,22-89.3c4.9-44.8-0.6-77.5-6.5-112.2c-2.8-16.8-5.8-34.1-7.8-53.8
				c-2.8-27.9-3.2-56.5-1.2-85.6C966.5,517.6,966.5,517.7,966.6,517.7z"/>
		</g>
		<g id="plant_1_">
			<path id="plant_2_" class="st4" d="M929.6,267.3c-5.7,0.4-11.8-2.4-15.3-6.9c-3.1-3.9-2.4-6.9-3.9-12.8
				c-4.6-18.1-19.8-23.8-16.6-33.1c0.3-0.8,1-3,3-3.9c7.4-3.3,22.4,16.9,24.7,20c-1.4-3.9-15.4-43.1-2.4-52.8
				c0.7-0.5,2.8-2.1,5.3-1.8c11.1,1.2,14.7,35.5,15.2,40.1c0.8-14.3,5.7-25.2,13.1-27.1c0.7-0.2,3.3-0.9,5.6,0.4
				c5.9,3.2,5.6,16.5,2.3,26.2c-2.5,7.4-6.7,12.4-6.1,13c1.1,0.9,10.9-15.3,19.3-13.6c4.1,0.9,8,6,8.1,11.1
				c0.2,10.3-15.4,10.5-36.9,31.3C940.1,262.2,936.1,266.8,929.6,267.3z"/>
			<path class="st2" d="M953.2,258.2v9.3h-2.6c-0.1,2-0.3,3.9-0.4,5.9c-0.1,1.5-0.2,3.1-0.3,4.7c-0.7,10.6-1.4,21.1-2.2,31.7h-36.2
				c-1-10.5-1.9-21.1-2.9-31.6c-0.1-1.6-0.3-3.1-0.4-4.7c-0.2-2-0.4-4-0.5-5.9h-2.7v-9.3H953.2z"/>
			<g id="line">
				<path class="st2" d="M950.2,273.4c-0.1,1.5-0.2,3.1-0.3,4.7c-5.2,1-11.8,2-19.7,2.1c-8.6,0.1-16-0.9-21.5-2
					c-0.1-1.6-0.3-3.1-0.4-4.7c5.6,1.1,13.1,2.2,22,2.1C938.2,275.4,945,274.5,950.2,273.4z"/>
			</g>
		</g>
		<g id="books">
			<path class="st2" d="M811.1,311.3l9.5,0.9l12.5-134.4c-0.9-2-2.9-3.3-5-3.3c-2.8,0-4.4,2.3-4.5,2.5
				C819.4,221.7,815.2,266.5,811.1,311.3z"/>
			<path class="st10" d="M820.9,310.6l9.5,0.9L843,177c-0.9-2-2.9-3.3-5-3.3c-2.8,0-4.4,2.3-4.5,2.5
				C829.3,220.9,825.1,265.7,820.9,310.6z"/>
			<path class="st4" d="M792.3,310.6l19.7,1.8l10.3-110.3c-0.7-0.8-4.2-4.5-10-4.8c-5.1-0.3-8.7,2.2-9.6,3
				C799.2,237,795.7,273.8,792.3,310.6z"/>
			<path class="st2" d="M852.7,309.2l22.1,2.1l7.5-80.5c-0.8-0.6-4.9-3.4-11.4-3.9c-5.7-0.4-9.7,1.3-10.7,1.8
				C857.7,255.5,855.2,282.3,852.7,309.2z"/>
			<path class="st4" d="M830.6,310.9l25.8,2.4L866.6,203c-0.9-0.8-5.6-4.6-13.2-5.1c-6.7-0.4-11.3,2-12.5,2.7
				C837.4,237.3,834,274.1,830.6,310.9z"/>
		</g>
		<rect id="shelf" x="733.8" y="308.7" class="st10" width="230.4" height="15.4"/>
	</g>
</g>
<g id="main">
	<g id="general_2_">
		<g id="chair">
			<g id="legs_1_">
				<path class="st11" d="M501.1,962.4l-2.7-0.9c26.1-78.4,75.5-228.1,76.1-233.4l2.9,0.2C577.1,733.8,508.9,939.1,501.1,962.4z"/>
				<path class="st11" d="M597.2,985.1l-2.9-0.1c2.1-81.9,5.9-238.3,4.9-243.3l2.8-0.6C603.3,746.1,597.8,960.7,597.2,985.1z"/>
				<path class="st11" d="M702,954.2c-29.6-77.7-86.4-225.8-89.2-230.3l2.3-1.7c3,3.9,80.8,207.8,89.6,231L702,954.2z"/>
			</g>
			<path class="st12" d="M711.8,588.7c-5.5-29.2-18.1-96.5-68.5-120.1c-1.7-0.8-3.5-1.6-5.3-2.3c-10.7-4.2-23.4-6.5-36.4-6.3
				c-1.9,0-3.8,0.1-5.8,0.2c-0.7,0.1-1.4,0.1-2.1,0.2c-2.1,0.2-4.1,0.5-6.2,0.8c-18.3,3-36.4,11.5-50.1,27.7
				c-11.6,13.6-18.7,31.1-21,49.9c-1.1,8.6-1.2,17.6-0.2,26.6c0.7,6.3,1.9,12.7,3.6,19c0,0,0,0,0,0v0c1.7,6.4,4,12.7,6.9,18.9
				c3.2,7,7.1,13.8,11.8,20.3c-4.1,4.3-8,8.8-11.7,13.3v0c-4.2,5.2-8,10.6-11.5,16c-0.8,1.3-1.6,2.6-2.4,3.9
				c-0.3,0.4-0.5,0.9-0.8,1.3v0c-0.2,0.4-0.4,0.7-0.6,1.1c-0.2,0.3-0.3,0.5-0.5,0.8c-0.2,0.3-0.3,0.5-0.5,0.8
				c-0.4,0.7-0.9,1.5-1.3,2.2c-0.4,0.7-0.8,1.4-1.2,2.1c-0.7,1.4-1.4,2.7-2.1,4.1c0,0,0,0,0,0c0,0,0,0,0,0.1c-0.3,0.5-0.5,1-0.8,1.5
				c-0.8,1.6-1.6,3.2-2.3,4.8c-0.3,0.6-0.6,1.3-0.9,1.9c-2.6,5.8-4.7,11.6-6.4,17.3c-0.8,2.6-1.5,5.1-2.1,7.7
				c-1.5,6.2-2.4,12.3-2.8,18.2c-0.9,13.8,1.2,26.4,6.5,36.9c0.3,0.5,0.6,1.1,0.9,1.6c0.5,0.9,1,1.7,1.5,2.6
				c4.8,7.7,11.5,13.9,19.4,18.8c10.1,6.1,22.2,10.1,35.3,12c1,0.1,1.9,0.3,2.9,0.4c13.3,1.6,27.6,1.1,41.7-1.4
				c1-0.2,1.9-0.3,2.9-0.5c6.3-1.2,12.6-2.8,18.7-4.9c1.7-0.6,3.4-1.2,5.1-1.8c3.2-1.2,6.4-2.5,9.6-3.9c0.9-0.4,1.7-0.8,2.6-1.2
				c9.9-4.7,19.1-10.5,27.1-17.4c12-10.4,19-21.1,24-28.8C727.4,672.3,714.2,601.7,711.8,588.7z"/>
			<path id="line_1_" class="st13" d="M657.2,716.8c-0.1,0-0.2,0-0.3,0c-12.2-3.8-36.9-4.7-37.1-4.8c-0.5,0-0.9-0.5-0.9-1
				c0-0.5,0.5-1,1-0.9c1,0,25.2,1,37.6,4.8c0.5,0.2,0.8,0.7,0.6,1.2C657.9,716.5,657.6,716.8,657.2,716.8z"/>
		</g>
		<g id="woman">
			<g id="legs_2_">
				<g id="feets">
					<linearGradient id="SVGID_1_" gradientUnits="userSpaceOnUse" x1="820.0341" y1="992.6313" x2="817.3642" y2="923.0877">
						<stop  offset="0" style="stop-color:#EFDDCB"/>
						<stop  offset="0.528" style="stop-color:#EFD8C7"/>
						<stop  offset="0.6959" style="stop-color:#F0BDAF"/>
						<stop  offset="0.8709" style="stop-color:#F2A89C"/>
						<stop  offset="0.985" style="stop-color:#F2A095"/>
					</linearGradient>
					<path class="st14" d="M856.2,925.8l-3.6,29.8l-3.6,30.4c-0.2,1.4-1.3,2.5-2.7,2.7c-11.9,1.5-63.7,8-65,3.5
						c-1.4-5.1,33.3-12.1,40.1-17.2c3.2-2.4,5.5-14.2,7-26c1.7-13.2,2.5-26.4,2.5-26.4L856.2,925.8z"/>
					
						<linearGradient id="SVGID_2_" gradientUnits="userSpaceOnUse" x1="951.0569" y1="1000.1977" x2="947.5842" y2="909.7443" gradientTransform="matrix(0.9877 -0.1561 0.1561 0.9877 -134.2401 167.8466)">
						<stop  offset="0" style="stop-color:#EFDDCB"/>
						<stop  offset="0.2108" style="stop-color:#EFD8C7"/>
						<stop  offset="0.4952" style="stop-color:#F0BDAF"/>
						<stop  offset="0.7916" style="stop-color:#F2A89C"/>
						<stop  offset="0.985" style="stop-color:#F2A095"/>
					</linearGradient>
					<path class="st15" d="M984,973.9c-9.1,7.9-48.8,42.1-52.4,39c-4-3.5,21.1-28.6,24-36.7c0.9-2.4-0.7-7.9-3.4-14.4
						c-6.1-14.8-17.7-34.6-17.7-34.6l22.8-11.3l20.1,39.9l7.2,14.3C985.4,971.4,985.1,973,984,973.9z"/>
				</g>
				<g id="socks">
					<path class="st16" d="M855.6,970.4l-4.3-3.4l0.2-1.7l1.8-1.5c0.2-0.1,0.2-0.4,0.1-0.5c-0.1-0.2-0.4-0.2-0.5-0.1l-1.2,1l1-8.7
						c-8-2.6-16.7-4.8-24.1-6.6c-0.3,2-0.5,3.9-0.8,5.9l-1.5-2.8c-0.1-0.2-0.3-0.3-0.5-0.2c-0.2,0.1-0.3,0.3-0.2,0.5l2,3.7
						c-0.1,0.9-0.3,1.8-0.5,2.7l-2,0.6c-0.2,0.1-0.3,0.3-0.3,0.5c0,0.2,0.2,0.3,0.4,0.3c0,0,0.1,0,0.1,0l1.7-0.5
						c-1.4,7.5-3.2,13.7-5.4,15.4c-0.3,0.2-0.7,0.5-1.1,0.7l-1-1.6c-0.1-0.2-0.3-0.2-0.5-0.1c-0.2,0.1-0.2,0.3-0.1,0.5l1,1.5
						c-9.6,5-39.7,11.4-38.4,16.2c1,3.7,35.8,0,55-2.3c4.3-0.5,7.8-1,10-1.3c1.4-0.2,2.5-1.3,2.7-2.7l1.8-14.6l0.4-3.3l4,3.1
						c0.1,0.1,0.1,0.1,0.2,0.1c0.1,0,0.2,0,0.3-0.1C855.8,970.8,855.7,970.6,855.6,970.4z"/>
					<path class="st16" d="M984.7,970.1l-4.8-9.4l-1.2-2.3l1-1.3c0.1-0.2,0.1-0.4-0.1-0.5c-0.2-0.1-0.4-0.1-0.5,0.1l-0.8,1l-0.9-1.8
						l-25.3,6c2.7,6.5,4.3,12,3.4,14.4c-0.1,0.4-0.4,0.9-0.6,1.4l-3.5-4.6c-0.1-0.2-0.4-0.2-0.5-0.1c-0.2,0.1-0.2,0.4-0.1,0.5
						l3.7,4.9c-0.2,0.3-0.4,0.6-0.6,1l-2.5,1.1c-0.2,0.1-0.3,0.3-0.2,0.5c0.1,0.2,0.2,0.2,0.4,0.2c0,0,0.1,0,0.1,0l1.4-0.6
						c-6.9,10.4-25.1,29.4-21.7,32.4c2.8,2.5,28.7-18.8,43.6-31.5c3.8-3.2,6.9-5.9,8.7-7.5C985.1,973,985.4,971.4,984.7,970.1z"/>
					<path class="st17" d="M852.4,979.7c-0.1-0.2-0.3-0.2-0.5-0.1l-2.3,1.4l1.2-9.7c-8.2,0.3-14.8,7.1-14.8,15.3
						c0,1.1,0.1,2.2,0.4,3.3c4.3-0.5,7.8-1,10-1.3c1.4-0.2,2.5-1.3,2.7-2.7l0.5-4l2.8-1.7C852.5,980.1,852.5,979.9,852.4,979.7z"/>
					<path class="st17" d="M984,973.9c-1.8,1.6-4.9,4.3-8.7,7.5c-2.3-1.7-4-4.4-4.5-7.5c-1-6.2,3.1-12,9.2-13.2l4.8,9.4
						C985.4,971.4,985.1,973,984,973.9z"/>
				</g>
				<g id="slippers">
					<path class="st11" d="M810.5,992.9v-17.2c-36.6,3.7-32.9,20.2-32.9,20.2h27.7h5.2h47.9v-3H810.5z"/>
					<path class="st11" d="M993.9,984.4l-1.5-2.6l-41.8,23.8l-8.5-15c-30,21.4-18.7,34-18.7,34l24.1-13.7l0,0L993.9,984.4z"/>
				</g>
				<g id="legs">
					<path class="st18" d="M875.7,631.5c0,0-81.5,163.9-78.6,307.6l78.6,13.4c0,0,1-104.5,30.7-181.1S875.7,631.5,875.7,631.5z"/>
					<path class="st19" d="M837.8,930.5c-0.3,0-0.5-0.2-0.5-0.4c-2.5-64.9,6.1-119.3,25.6-161.6c0.4-0.9,0.9-1.8,1.4-2.9
						c6.3-13.5,21.1-45.1,28.7-88.6c2.6-14.8,4.2-30,4.7-45c0-0.3,0.2-0.4,0.5-0.4c0.3,0,0.5,0.2,0.5,0.5
						c-0.5,15.1-2.1,30.2-4.7,45.1c-7.6,43.6-22.4,75.3-28.8,88.8c-0.5,1.1-1,2.1-1.4,2.9c-19.4,42.2-28,96.5-25.6,161.2
						C838.3,930.3,838.1,930.5,837.8,930.5C837.8,930.5,837.8,930.5,837.8,930.5z"/>
					<path class="st20" d="M1006,929.5c-12.7,6.5-25.3,13-38,19.5c-12.2,6.3-24.5,12.6-36.7,18.8c-21.1-43-46.7-108.1-56.5-190.7
						c-5.8-48.9-4.7-92.4-1.1-128.1c0.6-6.1,1.3-12,2-17.6c30.4-10.2,60.7-20.4,91-30.7c4.2,12.7,8.9,31.7,8.6,54.6
						c-0.5,48.3-22.3,54.9-27.8,96.8c-6.7,51.2,18.2,99.8,47.8,157.6C999.6,918.1,1003.4,924.9,1006,929.5z"/>
					<path class="st19" d="M961.4,934.3c-0.2,0-0.3-0.1-0.4-0.2c-42-72.9-57.2-133-45.1-178.6c0.3-1.2,0.7-2.6,1.1-4.2
						c4.2-15.2,13.1-46.7,9.4-87.7c-1.4-15.6-4.5-31.2-9.2-46.3c-0.1-0.3,0.1-0.5,0.3-0.6c0.3-0.1,0.5,0.1,0.6,0.3
						c4.7,15.2,7.9,30.8,9.3,46.5c3.7,41.1-5.2,72.8-9.4,88c-0.4,1.6-0.8,3-1.1,4.2c-12,45.4,3.1,105.2,45,177.9
						c0.1,0.2,0.1,0.5-0.2,0.7C961.6,934.3,961.5,934.3,961.4,934.3z"/>
					<linearGradient id="SVGID_3_" gradientUnits="userSpaceOnUse" x1="870.6381" y1="808.4644" x2="993.5446" y2="808.4644">
						<stop  offset="0" style="stop-color:#FFFFFF;stop-opacity:0.5"/>
						<stop  offset="0.8362" style="stop-color:#F07125"/>
					</linearGradient>
					<path class="st21" d="M993.5,936.2c-14.6,7.3-29.2,14.7-43.9,22.2c-6.1,3.1-12.3,6.3-18.4,9.4c-21.1-43-46.7-108.1-56.5-190.7
						c-5.8-48.9-4.7-92.4-1.1-128.1c0.9,33.9,6.1,82.4,26,136.9C926.3,858.8,967,908.5,993.5,936.2z"/>
				</g>
			</g>
			<g id="cup_1_">
				<path class="st22" d="M867,549.3v6.3c0,0.1-0.1,0.2-0.2,0.2l-1.6,0c-0.9,7.7-1.7,15.6-2.3,23.7c-0.8,9.6-1.3,18.9-1.7,27.9
					h-23.7c-1.6-17.2-3.3-34.4-4.9-51.7h-1.6c-0.1,0-0.2-0.1-0.2-0.2v-6.3c0-0.1,0.1-0.2,0.2-0.2l21.6,0h2.3l12.1,0
					C866.9,549.1,867,549.2,867,549.3z"/>
				<path class="st23" d="M867,549.3v6.3c0,0.1-0.1,0.2-0.2,0.2l-1.6,0c-0.9,7.7-1.7,15.6-2.3,23.7c-0.8,9.6-1.3,18.9-1.7,27.9h-8.4
					c1.4-8.8,2.4-18.7,2.8-29.7c0.3-10.5-0.1-20.2-0.8-28.8C858.8,549.1,862.9,549.2,867,549.3z"/>
			</g>
			<g id="body">
				<g id="hands">
					
						<linearGradient id="SVGID_4_" gradientUnits="userSpaceOnUse" x1="936.2618" y1="476.2745" x2="998.3144" y2="476.2745" gradientTransform="matrix(-0.9697 0.2443 0.2443 0.9697 1652.7944 -208.5361)">
						<stop  offset="0" style="stop-color:#EFDDCB"/>
						<stop  offset="0.2108" style="stop-color:#EFD8C7"/>
						<stop  offset="0.4952" style="stop-color:#F0BDAF"/>
						<stop  offset="0.7916" style="stop-color:#F2A89C"/>
						<stop  offset="0.985" style="stop-color:#F2A095"/>
					</linearGradient>
					<path class="st24" d="M831.1,489.2c12.1-0.4,16.3-1.3,19.2,1.7c3.2,3.4,2.5,9.3,1.6,13.5l13.6-5.9c-2.8-6.9-6.3-11.5-9.5-14.6
						c-3.1-3-5.8-4.5-7.4-5.2c-0.7-0.3-1.3-0.6-2.1-0.9c-5.9-2.3-12.1-3.4-12.8-3.5c-4.8-0.8-15.4-2.6-15.9-1
						c-0.3,1.2,5.2,3.5,5.4,3.6c3.5,1.5,6.8,1.8,8.7,1.7c-1.1,1-2.8,2.4-5.2,3.5c-3.4,1.5-6.4,1.7-9.6,1.7c-1.9,0.1-5.3,0-9.6-0.9
						c-6.3-1.3-10-3.4-10.5-2.6c-0.4,0.6,1.5,2.4,1.7,2.6C805.2,489.2,819.7,489.5,831.1,489.2z"/>
					<linearGradient id="SVGID_5_" gradientUnits="userSpaceOnUse" x1="861.3857" y1="594.8512" x2="860.4051" y2="569.3085">
						<stop  offset="0" style="stop-color:#EFDDCB"/>
						<stop  offset="0.2108" style="stop-color:#EFD8C7"/>
						<stop  offset="0.4952" style="stop-color:#F0BDAF"/>
						<stop  offset="0.7916" style="stop-color:#F2A89C"/>
						<stop  offset="0.985" style="stop-color:#F2A095"/>
					</linearGradient>
					<path class="st25" d="M875.7,569.2h-11.8l-0.4,4.3l0,0c-7.9,2.1-14.1,2.9-18.4,3.1c-3,0.2-8.9,0.3-9.6,2.6
						c-0.1,0.2-0.2,0.5,0,0.9c0.8,1.7,6.4,0.3,15.7-0.9c3.3-0.4,6.1-0.7,7.9-0.9c-3.9,1.4-7.3,2.2-9.6,2.6
						c-6.8,1.3-12.4,1.1-13.1,3.5c-0.1,0.2-0.2,0.5,0,0.9c0.7,1.4,5.3,0.4,12.2-0.9c3.7-0.7,12.1-2.2,12.2-1.7
						c0.1,0.3-4.6,2.5-10.5,3.5c-5.8,1-10.7,0.6-11.4,2.6c0,0.1-0.2,0.5,0,0.9c0.2,0.5,1.2,1.6,10.5,0c7.2-1.3,12.1-2.9,12.2-2.6
						c0.1,0.2-1.6,1-3.5,1.7c-8,3.2-13.2,2.6-14,5.2c-0.1,0.3-0.2,0.6,0,0.9c1.3,2.3,15.5-3.6,17.5-4.4c6.1-2.5,14.7-6.7,24.5-14
						C882.6,574.1,879.1,571.6,875.7,569.2z"/>
				</g>
				<g id="hand_back">
					<path class="st17" d="M907.3,536.6c-2.6,9.3-5.1,18.5-7.7,27.8c-9.5-10.6-19.1-21.5-28.8-32.6c-9.5-10.9-18.8-21.8-27.8-32.6
						c3.3-4.7,6.6-9.4,9.9-14.1c0.5-0.7,1-1.5,1.6-2.2c8.4,6.7,17.5,14.6,26.8,24c2.1,2.1,4.1,4.2,6.1,6.3
						C895.1,521.3,901.7,529.2,907.3,536.6z"/>
					<linearGradient id="SVGID_6_" gradientUnits="userSpaceOnUse" x1="853.0074" y1="501.6617" x2="883.3307" y2="501.6617">
						<stop  offset="0" style="stop-color:#FFFFFF;stop-opacity:0.5"/>
						<stop  offset="0.8362" style="stop-color:#F07125"/>
					</linearGradient>
					<path class="st26" d="M883.3,508.8c-0.7,7-2.3,10.8-4.8,11.5c-5,1.3-13.5-10.4-25.5-35.2c0.5-0.7,1-1.5,1.6-2.2
						c4.2,3.3,8.6,7,13.1,11c6.2,5.5,10.9,10.2,13.7,13C882.2,507.7,882.9,508.3,883.3,508.8z"/>
				</g>
				<path id="general_body" class="st17" d="M966.7,600.8c-20.4,6.9-40.8,13.7-61.2,20.6c-10,3.4-19.9,6.7-29.9,10.1
					c20.5-74,20.8-99.4,15.3-106.4c-0.6-0.7-3.5-4.2-5.8-9.6c-3.3-7.8-3.1-14.9-2.9-22c0.6-18.1,0.9-27.1,1-27.8
					c0.8-9.5,0.5-22.4-4.6-38.9c-0.9-2.9-1.9-5.9-3.1-9.1c1.6,0.6,15.4,5.3,26.8-2.9c4.8-3.4,7.4-7.8,8.6-10.5
					c14.8,31.9,29.9,71.1,41.2,116.9C959.4,549.9,963.9,576.6,966.7,600.8z"/>
				<linearGradient id="SVGID_7_" gradientUnits="userSpaceOnUse" x1="875.6636" y1="529.1392" x2="914.9576" y2="529.1392">
					<stop  offset="0" style="stop-color:#FFFFFF;stop-opacity:0.5"/>
					<stop  offset="0.8362" style="stop-color:#F07125"/>
				</linearGradient>
				<path class="st27" d="M915,509.8c0,18.4-2.4,24-5.3,59.6c-1.7,20.4-3.2,39.5-4.1,52.1c-10,3.4-19.9,6.7-29.9,10.1
					c20.5-74,20.8-99.4,15.3-106.4c-0.6-0.7-3.5-4.2-5.8-9.6c-3.3-7.8-3.1-14.9-2.9-22c0.6-18.1,0.9-27.1,1-27.8
					c0.8-9.5,0.5-22.4-4.6-38.9c5,2.1,12.3,6,18.9,13C914.6,457.5,915,482.3,915,509.8z"/>
				<linearGradient id="hand_front_3_" gradientUnits="userSpaceOnUse" x1="872.7885" y1="515.8659" x2="982.633" y2="515.8659">
					<stop  offset="0" style="stop-color:#002544"/>
					<stop  offset="0.9935" style="stop-color:#640042"/>
				</linearGradient>
				<path id="hand_front" class="st28" d="M979.2,528c-5.5,13.7-16.8,21-39.3,35.5c-22.7,14.6-43.6,22.9-58.5,27.8l-4.5-12l-1.2-3.1
					l-1.3-3.5l-1.7-4.4c9.3-3.6,22-9,36.4-17.3c2.2-1.2,4.2-2.4,6.2-3.5c17.8-10.2,26.8-16.2,28.3-25.2c1.6-9.5-6.3-12.4-20.1-40.3
					c-12.3-24.9-10.2-30.9-8.6-33.5c2.4-4.1,7.4-6.4,12.6-7.4c3.2-0.6,6.5-0.7,9.5-0.3c5.7,0.8,11.4,3.4,16.7,7.5
					C974.5,464.2,989.8,501.5,979.2,528z"/>
			</g>
			<g id="head">
				<linearGradient id="hair_back_1_" gradientUnits="userSpaceOnUse" x1="860.3125" y1="438.0768" x2="856.9816" y2="351.316">
					<stop  offset="0" style="stop-color:#002544"/>
					<stop  offset="1.644115e-02" style="stop-color:#002340"/>
					<stop  offset="0.1897" style="stop-color:#00101D"/>
					<stop  offset="0.3317" style="stop-color:#000408"/>
					<stop  offset="0.4241" style="stop-color:#000000"/>
					<stop  offset="0.8106" style="stop-color:#000000"/>
				</linearGradient>
				<path id="hair_back" class="st29" d="M859.7,351.2c0,0-28.1,26.4-17.9,34.9c3.2,2.6,5.8,4.7,6.4,9.2c0.8,6.6-7.2,8.8-9,17.7
					c-1.4,6.8,1.6,14.4,6.7,19.2c0.8,0.8,7.7,7,17.3,5.8c5.7-0.8,9.4-3.8,10.5-4.8c1.4-1.2,4.4-3.9,5.8-8.6c1.3-4.3,0.5-8,0-9.6
					C872.9,393.7,866.3,372.4,859.7,351.2z"/>
				<linearGradient id="head_4_" gradientUnits="userSpaceOnUse" x1="882.6343" y1="428.1223" x2="879.9019" y2="356.9507">
					<stop  offset="0" style="stop-color:#EFDDCB"/>
					<stop  offset="0.331" style="stop-color:#F1BDAF"/>
					<stop  offset="0.6278" style="stop-color:#F2A89C"/>
					<stop  offset="0.8209" style="stop-color:#F2A095"/>
				</linearGradient>
				<path id="head_1_" class="st30" d="M906.8,378c-8.3-16.3-30.3-25.7-43.5-18c-9.8,5.8-11.4,19.2-11.5,20.3
					c-1,10.2,3.7,17.7,5.1,19.8c0.2,1.7,0.4,4.2,0.5,7.2c0.1,4.7-0.3,6.8,1,7.7c0.5,0.4,1.8,0.8,4.8-1c0.5,1.5,1.3,3.6,2.9,5.8
					c0.3,0.4,4.2,5.7,10.5,7.7c9,2.8,17.3-2.6,19-3.7C908.2,415.7,915.2,394.5,906.8,378z"/>
				<ellipse id="eye" transform="matrix(0.9163 -0.4004 0.4004 0.9163 -87.4425 378.3257)" cx="861.6" cy="398.4" rx="1.8" ry="2"/>
				<linearGradient id="hair_front_1_" gradientUnits="userSpaceOnUse" x1="915.4371" y1="470.69" x2="910.1752" y2="333.6338">
					<stop  offset="0" style="stop-color:#002544"/>
					<stop  offset="0.1924" style="stop-color:#00172A"/>
					<stop  offset="0.4174" style="stop-color:#000A13"/>
					<stop  offset="0.6287" style="stop-color:#000305"/>
					<stop  offset="0.8106" style="stop-color:#000000"/>
				</linearGradient>
				<path id="hair_front" class="st31" d="M851.8,374.1c4.6,11.5,20.9,5.8,30.6,18.4c11.1,14.3,0.9,38.3,13.3,46
					c1.4,0.9,3.5,1.6,4.6,3.8c2.6,5.3-3.3,10.3-2.3,19.2c0.8,6.8,5.1,11,5.7,11.5c5.7,5.3,12.8,4,13.7,3.8c8-1.6,7.7-8.1,14.9-10.3
					c8.7-2.6,12.5,6.4,24,5.1c1.9-0.2,9.9-1.1,14.9-7.7c8.8-11.8,0.9-32-0.1-34.4c-1.2-2.9-2.4-5.1-3.3-6.6c-11.4-11.5,8-9,3.4-24.4
					c-4.6-15.4-21.7-5.1-27.4-33.3c-2.7-13.6-8.6-18.6-12.7-22.4c-5.9-5.4-12.6-6.3-19.3-7h0c-5.5-0.7-34.6-4.2-50.5,11.7
					C855.9,353,848,364.7,851.8,374.1z"/>
				<path id="smile" class="st32" d="M873,421.1c0,0,5.2-3.7,3.7-10.5"/>
				<path id="brow" d="M856.4,389.6l8.7,2.6C865.2,392.2,862.5,387,856.4,389.6z"/>
			</g>
		</g>
		<path id="pen_down" class="st12" d="M479.8,647.4c2.6-0.9,3.9-1.2,5.5-1.2l-20.8,21.4c-0.5,0.3-1.2,0.7-2.1,1.1
			c-1.1,0.5-1.5,0.7-1.6,0.6c-0.1-0.1,0-0.5,0.5-1.6c0.4-0.9,0.8-1.7,1-2.2l3.9-4c0.6-0.3,1.4-0.8,2-1.2c0.6-0.4,1.1-0.8,1.2-0.9
			c0.8-0.6,2.1-2,4.9-6.2L479.8,647.4z"/>
		<g id="man">
			<g id="legs_3_">
				<g id="socks_1_">
					<path class="st18" d="M330.7,986.4c-1.6,4.2-4.1,11.1-6.8,19.6c-4.5,14.3-4.2,15.8-6.5,18.1c-4.2,4.2-11.1,4.7-18.6,3.6
						c-11.2-1.7-23.5-7.1-29.4-9.8c-2.7-1.2-30-13.5-28.1-21.2c0.8-3.5,7.3-4.7,9-5c19.4-3.7,31.6,17.5,44.5,15.1
						c0.2,0,0.5-0.1,0.7-0.2c5.2-1.3,11.6-6.9,16.1-26.1C318,982.5,324.4,984.5,330.7,986.4z"/>
					<path class="st18" d="M510.7,997.8c-0.2,5.9-5,11-11.2,15.2c-9.4,6.3-22.1,10.7-28.3,12.7c-2.8,1-31.2,10.4-35.1,3.4
						c-1.7-3.2,2.2-8.4,3.2-9.8c11.8-15.8,35.1-8.5,43-19.1c0.1-0.2,0.3-0.4,0.4-0.6c2.1-3.2,3.2-8.5,0-17.5
						c-0.1-0.4-0.3-0.8-0.4-1.2c0-0.1-0.1-0.2-0.1-0.2c-1.4-4-2.8-7.9-4.2-11.7c5.6-2.7,11.2-5.3,16.8-8c1.2,3,3,7.3,5.3,12.5
						c0.9,2.1,1.9,4.2,3,6.5C509.4,993.6,510.8,994.5,510.7,997.8z"/>
					<path class="st33" d="M313.1,988.3c-0.3,1.4-1.8,2.4-3.2,2c-0.3-0.1-0.6-0.2-0.9-0.4c0.5-1.5,1-3.1,1.5-4.9
						c0.2,0,0.3,0,0.5,0.1C312.5,985.4,313.4,986.9,313.1,988.3z"/>
					<circle class="st33" cx="318.7" cy="999.8" r="2.7"/>
					<circle class="st33" cx="307.7" cy="1006.7" r="2.7"/>
					<circle class="st33" cx="313.7" cy="1022.1" r="2.7"/>
					<circle class="st33" cx="290.2" cy="1018.4" r="2.7"/>
					<path class="st33" d="M286.2,1005.4c-0.6,0.7-1.6,1.1-2.6,0.9c-1.4-0.3-2.3-1.8-2-3.2c0,0,0-0.1,0-0.1
						C283.1,1003.9,284.7,1004.7,286.2,1005.4z"/>
					<circle class="st33" cx="264.3" cy="1004.7" r="2.7"/>
					<path class="st33" d="M248.9,1005.1c-0.1,0.4-0.3,0.8-0.6,1.2c-1.5-1.1-3-2.3-4.1-3.5c0.6-0.8,1.6-1.1,2.7-0.9
						C248.3,1002.3,249.3,1003.7,248.9,1005.1z"/>
					<path class="st33" d="M255.2,991.3c0,0.1,0,0.2,0,0.3c-0.3,1.4-1.8,2.3-3.2,2c-1-0.2-1.7-0.9-2-1.8c0.2,0,0.3-0.1,0.4-0.1
						C252,991.4,253.6,991.3,255.2,991.3z"/>
					<path class="st33" d="M330.7,986.4c-0.5,1.4-1.1,3-1.8,4.8c-0.8-0.6-1.3-1.7-1-2.8C328.2,987.2,329.4,986.3,330.7,986.4z"/>
					<path class="st3" d="M330.7,986.4C330.7,986.4,330.7,986.4,330.7,986.4c-0.5,1.4-1.1,3-1.8,4.9c-1.4,3.9-3.2,9-5,14.8
						c-4.5,14.3-4.2,15.8-6.5,18.1c-10.4,10.5-38.1-1.8-48-6.1c-1.8-0.8-13.4-6-21.2-11.7c-1.5-1.1-3-2.3-4.1-3.5
						c-2.1-2.1-3.3-4.2-2.8-6.1c0.8-3.2,6.4-4.5,8.5-4.9c0.2,0,0.3-0.1,0.4-0.1c1.6-0.3,3.2-0.4,4.8-0.4c10.5,0.1,18.8,7,26.4,11.6
						c1.6,0.9,3.1,1.8,4.6,2.5c3.2,1.4,6.3,2.1,9.4,1.3c4.2-1.1,9.2-5,13.4-16.7c0.5-1.5,1-3.1,1.5-4.9c0.4-1.4,0.8-2.9,1.2-4.5
						C318,982.5,324.4,984.5,330.7,986.4z"/>
					<path class="st33" d="M482.7,977.6c-0.5-1.4-1.1-3-1.8-4.6c0.9,0,1.7,0.5,2.2,1.3C483.7,975.5,483.5,976.8,482.7,977.6z"/>
					<circle class="st33" cx="495" cy="979" r="2.7"/>
					<circle class="st33" cx="491.6" cy="991.5" r="2.7"/>
					<circle class="st33" cx="506.4" cy="998.9" r="2.7"/>
					<circle class="st33" cx="486.7" cy="1012" r="2.7"/>
					<path class="st33" d="M474.9,1005.2c0,1-0.4,1.9-1.3,2.5c-1.3,0.7-2.9,0.3-3.7-1c0,0,0-0.1,0-0.1
						C471.6,1006.2,473.3,1005.7,474.9,1005.2z"/>
					<circle class="st33" cx="458.3" cy="1019.5" r="2.7"/>
					<path class="st33" d="M447.7,1031.5c-1.9,0.2-3.7,0.3-5.3,0.2c-0.1-1,0.4-1.9,1.3-2.5c1.3-0.7,2.9-0.3,3.6,1
						C447.5,1030.6,447.6,1031,447.7,1031.5z"/>
					<path class="st33" d="M441.7,1019.7c-0.9,0.5-1.9,0.5-2.7,0c0.1-0.1,0.2-0.3,0.3-0.4c1-1.3,2.1-2.5,3.2-3.5
						c0.1,0.1,0.1,0.2,0.2,0.2C443.5,1017.4,443,1019,441.7,1019.7z"/>
					<path class="st33" d="M496.8,965.8c-1,0.1-2.1-0.4-2.6-1.3c-0.7-1.2-0.4-2.6,0.7-3.4C495.4,962.4,496.1,964,496.8,965.8z"/>
					<path class="st3" d="M510.7,997.8c-0.6,14.8-29.3,24.5-39.5,28c-1.8,0.6-13.9,4.7-23.5,5.7c-1.9,0.2-3.7,0.3-5.3,0.2
						c-3-0.1-5.3-0.9-6.2-2.5c-1.6-2.9,1.6-7.6,2.9-9.4c0.1-0.1,0.2-0.3,0.3-0.4c1-1.3,2.1-2.5,3.2-3.5c7.8-7,18.5-7.4,27.3-9.3
						c1.8-0.4,3.5-0.8,5-1.4c3.2-1.1,5.9-2.8,7.8-5.4c2.6-3.7,4.2-10.2,0-22.1v0c-0.5-1.4-1.1-3-1.8-4.6c-0.6-1.3-1.2-2.8-1.9-4.2
						c5.3-2.6,10.6-5.2,15.9-7.8c0,0,0,0,0,0v0c0.6,1.3,1.2,2.9,2,4.8c1.6,3.9,3.7,8.7,6.3,14.2
						C509.5,993.6,510.8,994.5,510.7,997.8z"/>
				</g>
				<linearGradient id="SVGID_8_" gradientUnits="userSpaceOnUse" x1="504.5562" y1="678.8747" x2="423.3424" y2="965.4078">
					<stop  offset="0.6191" style="stop-color:#B56819"/>
					<stop  offset="1" style="stop-color:#3C0055"/>
				</linearGradient>
				<path class="st34" d="M558.2,723.9c-26.1,14.9-38.3,23.6-53.2,31.3c-12.4,6.5-30,16.5-50.5,31c4.6,7.3,10.9,18.2,16.6,32.3
					c10.4,25.9,12,46,14.9,69.9c2.5,20.3,6.6,49.2,14,84.7c-2,1.2-4,2.3-6.1,3.5c-3.8,2.1-7.5,3.9-11.1,5.5h0
					c-0.1-0.4-0.3-0.8-0.4-1.2c0-0.1-0.1-0.2-0.1-0.2c-1.4-4-2.8-7.9-4.2-11.7c-19.3-53.1-42-99.6-54.2-123.9
					c-25.1-50-33.2-58.9-27.8-72.9c5.4-14,21.2-24.5,41.9-38.4c7.6-5.1,15-9.2,29.7-17.5c14.9-8.3,27.3-14.8,35.8-19.2
					c2.2,0.1,5.7,0.3,10,0.3c14.4,0,21.1-3.1,38.4-2.4c8.4,0.3,15.6,1.4,20.5,3.2c3.8,1.4,6.2,3.2,6.8,5.6
					C580.1,707.9,575.2,714.1,558.2,723.9z"/>
				<path class="st22" d="M626.5,722.5c-0.8,10.6-2.5,15.5-4.8,19.6c0,0.1-0.1,0.2-0.3,0.5c-5,8.4-15.3,10.8-18.1,11.5
					c-3.7,1-15.1,4.5-32.4,9.9c-29.3,9.1-75.7,23.8-132,41.5c-1.6,4.7-4.2,11.7-7.9,20.1c-13.5,31.1-28.8,51.8-34.9,60.3
					c-14.4,20-35.1,51.6-66.4,105.7c-3.3,0-6.7,0.1-10,0.1c-3.7,0-7.5,0.1-11.3,0.1c31.2-109.6,58.7-168.6,77-199.5
					c14.8-25,23.7-31.5,23.7-31.5c20.7-15.3,46.9-26.8,66.7-34.6v0c5.5-2.2,10.5-4,14.7-5.6c33.8-12.7,63.6-19.3,85.3-23
					c4.5,0.7,9,1.4,13.5,2c0.8,0.1,1.6,0.2,2.4,0.4c1.5,0.2,2.9,0.4,4.3,0.7c10,1.5,19.9,3,29.8,4.5c0.2,0,0.5,0.1,0.7,0.1
					c0,0.2,0,0.4,0,0.5C627,712.5,626.8,718.1,626.5,722.5z"/>
				<linearGradient id="SVGID_9_" gradientUnits="userSpaceOnUse" x1="580.4112" y1="674.0577" x2="350.872" y2="1012.8956">
					<stop  offset="0" style="stop-color:#F07125"/>
					<stop  offset="1" style="stop-color:#9E5625"/>
				</linearGradient>
				<path class="st35" d="M626.5,722.5c-0.8,10.6-2.5,15.5-4.8,19.6c0,0.1-0.1,0.2-0.3,0.5c-5,8.4-15.3,10.8-18.1,11.5
					c-3.7,1-15.1,4.5-32.4,9.9c-29.3,9.1-75.7,23.8-132,41.5c-1.6,4.7-4.2,11.7-7.9,20.1c-13.5,31.1-28.8,51.8-34.9,60.3
					c-14.4,20-35.1,51.6-66.4,105.7c-3.3,0-6.7,0.1-10,0.1c10.1-21.9,24.2-52.5,40.6-89.2c42.8-95.6,42.6-100.6,55-109.2
					c40.3-28,134.1-40.1,155.4-50.4c4.6-2.2,7.8-5.3,8.1-5.6c6.6-6.3,9.3-14.8,10.2-22c1.1-8.6-0.1-15.5-0.1-15.5
					c0.1,0,0.2-0.1,0.4-0.1c0.8,0.1,1.6,0.2,2.4,0.4c1.5,0.2,2.9,0.4,4.3,0.7c10,1.5,19.9,3,29.8,4.5c0.2,0,0.5,0.1,0.7,0.1
					c0,0.2,0,0.4,0,0.5C627,712.5,626.8,718.1,626.5,722.5z"/>
				<path class="st36" d="M626.5,722.5c-0.8,10.6-2.5,15.5-4.8,19.6c0,0.1-0.1,0.2-0.3,0.5c-5,8.4-15.3,10.8-18.1,11.5
					c-3.7,1-15.1,4.5-32.4,9.9c19.3-21,22.3-31.9,19.3-37.7c-2.7-5-10-6.8-10.5-12.5c-0.5-5.6,6.6-10.7,12.1-13.9
					c1.5,0.2,2.9,0.4,4.3,0.7c10,1.5,19.9,3,29.8,4.5c0.2,0,0.5,0.1,0.7,0.1c0,0.2,0,0.4,0,0.5C627,712.5,626.8,718.1,626.5,722.5z"
					/>
				<linearGradient id="SVGID_10_" gradientUnits="userSpaceOnUse" x1="461.2756" y1="716.5042" x2="402.1458" y2="803.7896">
					<stop  offset="0" style="stop-color:#FFFFFF;stop-opacity:0.5"/>
					<stop  offset="0.8362" style="stop-color:#F07125"/>
				</linearGradient>
				<path class="st37" d="M385.3,792.4c14.8-25,23.7-31.5,23.7-31.5c20.7-15.3,46.9-26.8,66.7-34.6
					C481.3,741.8,416.5,787.4,385.3,792.4z"/>
			</g>
			<g id="hand_back_1_">
				<path class="st11" d="M553.3,515.6c-1.2,3.4-1.1,6.1-1.4,8.2c-2.1,14-4.2,28-6.3,42c-2.6,7.2-16.4,44.1-40.4,58.9
					c-5.2,3.2-10.8,5.3-17,5.9c-6.6,0.6-12-0.8-15.9-2c-25.2-8-47.1-27-52.6-31.9c-4.6-4.1-11.1-10.3-18.3-18.3
					c0.6-1.6,1.3-3.2,1.9-4.8l1.3-2.9l1.9-4.4l1.3-3l0.3-0.6c1.2,0.9,2.4,1.8,3.7,2.7c9.9,7,23.8,15.7,41.6,23.2
					c16.1,6.8,24.4,10.2,31.5,8.1c11-3.2,13.4-13.5,37.9-62.2c3.1-6.1,5.9-11.7,9-16.6c5.6-9.1,11.9-16.1,21.4-20.4
					c8.3-3.7,16.4-4.1,17.2-2.4C571.3,497.3,557.8,502.2,553.3,515.6z"/>
				<path class="st38" d="M407.7,563.3l-3.2,7.4l-1.3,2.9l-0.4,1l-1.5,3.4c0,0,0,0-0.1,0.1c-0.5,0.4-1,0.8-1.7,1.1
					c-1.1,0.6-2.5,1.1-4.2,2.2c-0.8,0.5-1.4,0.9-2,1.3c0,0,0,0-0.1,0c-2.1,1.3-3.1,2-3.2,2c-2.7-0.8-6-2.1-9.6-4.2
					c-1.5-0.9-2.9-1.9-4.1-2.8c-1.3-1-2.5-2-3.5-3c-0.9-0.9-1.8-1.7-2.5-2.5c-4.2-0.4-7.3,0.1-9.3,0.7c-5.9,1.7-9.3,5.3-13.2,3.9
					c-0.6-0.2-1.1-0.5-1.5-0.8c-0.4-0.3-0.8-0.6-1-0.9c1.9-0.8,3.9-1.5,5.9-2.2c7.2-2.6,37.4-10.2,49.3-11.7c0.1,0,0.3,0,0.4-0.1
					c0.1,0,0.3,0,0.4,0L407.7,563.3z"/>
				<linearGradient id="SVGID_11_" gradientUnits="userSpaceOnUse" x1="392.054" y1="572.1016" x2="384.625" y2="583.0681">
					<stop  offset="0" style="stop-color:#FFFFFF;stop-opacity:0.5"/>
					<stop  offset="0.8362" style="stop-color:#F07125"/>
				</linearGradient>
				<path class="st39" d="M399.5,579c-1.1,0.6-2.5,1.1-4.2,2.2c-0.8,0.5-1.4,0.9-2,1.3c0,0,0,0-0.1,0c-2.1,1.3-3.1,2-3.2,2
					c-2.7-0.8-6-2.1-9.6-4.2c-1.5-0.9-2.9-1.9-4.1-2.8c6,2.1,10.5,1.8,13.5,0.9c3.5-1,7.2-3.2,8.7-1.7
					C399.1,577,399.6,577.9,399.5,579z"/>
				<linearGradient id="SVGID_12_" gradientUnits="userSpaceOnUse" x1="411.6948" y1="563.7887" x2="531.6714" y2="563.7887">
					<stop  offset="0" style="stop-color:#FFFFFF;stop-opacity:0.5"/>
					<stop  offset="0.8362" style="stop-color:#F07125"/>
				</linearGradient>
				<path class="st40" d="M531.7,517.8c-3.3,24.9-8.6,44.7-13.2,58.8c-6.4,19.6-10.4,25.4-16.4,29c-14.2,8.5-34.5,1.8-40.9-0.2
					c-1.9-0.6-7.6-2.5-15-6.8c-8.1-4.7-22-14.4-34.5-33.2c9.9,7,23.8,15.7,41.6,23.2c16.1,6.8,24.4,10.2,31.5,8.1
					c11-3.2,13.4-13.5,37.9-62.2C525.7,528.4,528.6,522.8,531.7,517.8z"/>
				<path class="st41" d="M407.7,563.3l-3.2,7.4l-1.3,2.9l-0.4,1l-1.5,3.4c0,0,0,0-0.1,0.1l-0.7-17c0.1,0,0.3,0,0.4-0.1
					c0.1,0,0.3,0,0.4,0L407.7,563.3z"/>
			</g>
			<g id="body_2_">
				<g id="body_1_">
					<path class="st42" d="M675.8,634.2c-0.7,2.4-1.6,4.8-2.5,7.1c0,0,0,0,0,0c-4,9.8-10,18.4-18.6,25c-2.2,1.7-5.3,5.4-8.1,9.3
						c-1.1,1.5-2.1,3-3.1,4.4c-2.7,4-4.9,7.4-5.4,8.4c-1.3,2.1-2.7,4.2-4,6.3c-2.3,3.5-4.5,7.1-6.8,10.6c-0.2,0-0.5,0-0.7,0
						c-4.6-0.2-9.3-0.4-13.9-0.6c-1.8-0.1-3.6-0.2-5.5-0.2c-5.9-0.3-11.9-0.5-17.8-0.8c-1,0-1.9-0.1-2.9-0.1h0
						c-2.5-0.1-4.9-0.2-7.4-0.3c-8.6-0.4-17.2-0.8-25.8-1.2h0c-18.1-0.8-36.1-1.6-54.2-2.5c0,0,0.1-0.1,0.1-0.1
						c0.8-1.3,1.7-2.9,2.6-4.7c1.1-2.2,2.2-4.8,3-7.7c0.3-0.8,0.8-4.4,1.5-9.6c0.1-0.6,0.2-1.3,0.3-1.9c0.2-1.5,0.4-3.1,0.6-4.8
						c0.1-0.5,0.1-1,0.2-1.5c0,0,0,0,0-0.1c0.2-1.3,0.3-2.6,0.5-4c0.1-0.9,0.2-1.8,0.3-2.7v0c0.1-0.7,0.2-1.5,0.3-2.2
						c0-0.1,0-0.2,0-0.3v0c0.3-2.3,0.6-4.7,0.9-7.1c0.7-5.4,1.3-10.8,1.9-15.5c0.8-6.8,1.5-12.2,1.7-14.3c0-0.2,0.1-0.4,0.1-0.6
						c0-0.1,0-0.2,0-0.3c0.1-0.7,0.2-1.4,0.3-2c0,0,0,0,0,0c0.1-0.7,0.2-1.4,0.3-2c0.2-1.2,0.4-2.4,0.6-3.5c0-0.1,0-0.3,0.1-0.4
						c0.1-0.7,0.2-1.4,0.3-2.1c0.3-1.7,0.5-3.3,0.8-4.9c0.1-0.6,0.2-1.3,0.3-1.9c0.5-2.7,0.9-5.4,1.4-7.9c0.1-0.6,0.2-1.2,0.3-1.8
						c0.6-3.5,1.3-6.9,1.9-10.2c0.1-0.3,0.1-0.6,0.2-0.9c0.2-0.9,0.4-1.9,0.6-2.8c0.2-0.9,0.4-1.8,0.6-2.7c0.2-1,0.4-2.1,0.7-3.1
						c0.2-0.8,0.4-1.6,0.5-2.4c0.2-0.9,0.4-1.8,0.6-2.7c0.1-0.5,0.2-1,0.4-1.5c0.1-0.6,0.3-1.1,0.4-1.7c0.9-3.9,1.8-7.6,2.8-11
						c0.2-0.7,0.4-1.3,0.5-1.9c0.2-0.9,0.5-1.8,0.7-2.7c0.1-0.3,0.2-0.6,0.3-0.9c0.1-0.4,0.2-0.8,0.3-1.2c0.1-0.3,0.2-0.6,0.2-0.8
						c0.1-0.5,0.3-0.9,0.4-1.3c0.2-0.6,0.3-1.1,0.5-1.7c0.3-0.9,0.6-1.8,0.8-2.7c0.2-0.5,0.3-1,0.5-1.6c0.2-0.5,0.3-1,0.5-1.5
						c0.3-1,0.7-2,1-3c0.2-0.5,0.3-1,0.5-1.4c0.1-0.3,0.2-0.6,0.3-0.9c0.5-1.2,0.9-2.4,1.3-3.6c0.3-0.9,0.7-1.7,1-2.5c0,0,0,0,0,0
						c0.3-0.8,0.7-1.6,1-2.4c0.4-1.1,0.9-2.1,1.3-3.1c0.1-0.3,0.2-0.5,0.4-0.8c0.2-0.4,0.4-0.9,0.6-1.3c0.1-0.3,0.3-0.6,0.4-0.8
						c0.2-0.3,0.3-0.7,0.5-1c0.2-0.3,0.3-0.7,0.5-1c0.3-0.6,0.7-1.3,1-1.9c0.2-0.3,0.3-0.6,0.5-0.9c0.2-0.4,0.4-0.8,0.6-1.1
						c0.2-0.4,0.5-0.8,0.7-1.2c0.4-0.6,0.7-1.2,1.1-1.8c0.3-0.5,0.6-1,0.9-1.4c0.2-0.2,0.3-0.5,0.5-0.7c0.1-0.2,0.3-0.4,0.4-0.7
						c0.1-0.2,0.3-0.4,0.4-0.6c0.3-0.4,0.6-0.8,0.9-1.2c0.7-1,1.4-1.8,2.1-2.6v0c0.5-0.6,1.1-1.2,1.6-1.7l0,0c0,0,0,0,0,0
						c2.7-2.8,5.2-4.5,7.1-5.5c0.5-0.3,0.9-0.5,1.4-0.7c0.5-0.2,0.9-0.4,1.4-0.6c1.7-0.7,3.6-1.3,5.9-1.9c0.4-0.1,0.8-0.2,1.2-0.3
						c0.1,0,0.2-0.1,0.3-0.1c0,0,0,0,0,0c0.1,0,0.3-0.1,0.4-0.1c0,0,0,0,0.1,0c1.4-0.3,2.8-0.6,4.4-0.8c0.2,0,0.4-0.1,0.6-0.1
						c0.2,0,0.3,0,0.5-0.1c0.2,0,0.4-0.1,0.5-0.1c0.2,0,0.4,0,0.6-0.1c0.5-0.1,1.1-0.1,1.6-0.2c0.4-0.1,0.9-0.1,1.3-0.2
						c0.2,0,0.6-0.1,0.9-0.1c0.1,0,0.1,0,0.2,0c0.1,0,0.1,0,0.2,0c0,0,0,0,0,0l0.2,0c1-0.1,1.9-0.2,3-0.3c0.1,0,0.1,0,0.2,0
						c0.1,0,0.1,0,0.2,0v0c0.4,0,0.8-0.1,1.1-0.1c1.1-0.1,2.2-0.2,3.3-0.3c0.8-0.1,1.7-0.2,2.6-0.2c0.2,0,0.3,0,0.5,0
						c0.4-0.1,0.9-0.1,1.4-0.1c0.3,0,0.6-0.1,0.9-0.1c0.6-0.1,1.3-0.1,1.9-0.2c1-0.1,2-0.2,3-0.3c1-0.1,2.1-0.2,3.2-0.3
						c4.3-0.4,8.3-0.6,11.9-0.8c1.7-0.1,3.4-0.1,5-0.1h0.2c0.1,0,0.2,0,0.3,0c0.1,0,0.2,0,0.3,0c0.6,0,1.2,0,1.8,0
						c0.9,0,1.7,0,2.5,0h0c0.2,0,0.3,0,0.5,0c0.7,0,1.3,0,1.9,0c0.8,0,1.6,0.1,2.4,0.1c0.9,0,1.7,0.1,2.5,0.2c0.4,0,0.7,0,1,0.1
						c0.2,0,0.3,0,0.5,0c0.2,0,0.3,0,0.5,0h0c0.3,0,0.6,0.1,0.9,0.1c0,0,0,0,0.1,0c1.1,0.1,2.2,0.2,3.2,0.4c0.1,0,0.1,0,0.2,0
						c13.8,2,18.3,6.4,20.5,8.9c2.4,2.9,3.5,5.7,4.2,7.6C665.5,518.6,690,587,675.8,634.2z"/>
					<linearGradient id="SVGID_13_" gradientUnits="userSpaceOnUse" x1="578.3812" y1="524.288" x2="504.7129" y2="633.0347">
						<stop  offset="0" style="stop-color:#FFFFFF;stop-opacity:0.5"/>
						<stop  offset="0.8362" style="stop-color:#F07125"/>
					</linearGradient>
					<path class="st43" d="M565.1,607.5c-17.6,30.8-43.1,31.3-54.1,29.8c0.7-4.9,1.4-10,2.1-15.1c6.5-44.1,13.9-72.5,21-91
						c5.3-13.7,10.3-21.9,14.7-26.9C562.8,533.5,580.4,580.8,565.1,607.5z"/>
					<path class="st44" d="M639.7,538.1c-2.3,8-5.3,20.8-5.2,36.7c0.1,22.2,5.9,30.8,1.7,41.9c-3.2,8.7-12.9,19.7-43.7,26.2
						c23,15.9,51.2,15,67.3,0c13.3-12.4,14-30.3,14-34.9C662.5,584.7,651.1,561.4,639.7,538.1z"/>
					<path class="st11" d="M636.2,489.7c-1.7,19.4-14.6,34.5-30.2,37c-8.9,1.4-19.9-1-28-8.8c-10.1-9.7-10.2-22.3-10.2-24.5
						c0,0,0,0,0,0c0.1,0,0.3-0.1,0.4-0.1c0,0,0,0,0.1,0c1.4-0.3,2.8-0.6,4.4-0.8c0.2,0,0.4-0.1,0.6-0.1c0.2,0,0.3,0,0.5-0.1
						c0.2,0,0.4-0.1,0.5-0.1c0.2,0,0.4,0,0.6-0.1c0.5-0.1,1.1-0.1,1.6-0.2c0.4-0.1,0.9-0.1,1.3-0.2c0.2,0,0.6-0.1,0.9-0.1
						c0.1,0,0.1,0,0.2,0c0.1,0,0.1,0,0.2,0c0,0,0,0,0,0l0.2,0c1-0.1,1.9-0.2,3-0.3c0.1,0,0.1,0,0.2,0c0.1,0,0.1,0,0.2,0v0
						c0.4,0,0.8-0.1,1.1-0.1c1.1-0.1,2.2-0.2,3.3-0.3c0.8-0.1,1.7-0.2,2.6-0.2c0.2,0,0.3,0,0.5,0c0.4-0.1,0.9-0.1,1.4-0.1
						c0.3,0,0.6-0.1,0.9-0.1c0.6-0.1,1.3-0.1,1.9-0.2c1-0.1,2-0.2,3-0.3c1-0.1,2.1-0.2,3.2-0.3c4.3-0.4,8.3-0.6,11.9-0.8
						c1.7-0.1,3.4-0.1,5-0.1h0.2c0.1,0,0.2,0,0.3,0c0.1,0,0.2,0,0.3,0c0.6,0,1.2,0,1.8,0c0.9,0,1.7,0,2.5,0h0c0.2,0,0.3,0,0.5,0
						c0.7,0,1.3,0,1.9,0c0.8,0,1.6,0.1,2.4,0.1c0.9,0,1.7,0.1,2.5,0.2c0.4,0,0.7,0,1,0.1c0.2,0,0.3,0,0.5,0c0.2,0,0.3,0,0.5,0
						c0.3,0,0.6,0.1,0.9,0.1c0,0,0.1,0,0.1,0C634.1,489.4,635.2,489.5,636.2,489.7z"/>
				</g>
			</g>
			<g id="head_3_">
				<g id="head_2_">
					<linearGradient id="SVGID_14_" gradientUnits="userSpaceOnUse" x1="592.5349" y1="428.9464" x2="592.771" y2="428.9464">
						<stop  offset="0" style="stop-color:#FFFFFF;stop-opacity:0.5"/>
						<stop  offset="0.8362" style="stop-color:#F07125"/>
					</linearGradient>
					<path class="st45" d="M592.8,428.9c-0.2,0.1-0.3,0.1-0.2,0C592.6,428.9,592.7,428.9,592.8,428.9z"/>
					<linearGradient id="SVGID_15_" gradientUnits="userSpaceOnUse" x1="593.7321" y1="434.5842" x2="609.3035" y2="434.5842">
						<stop  offset="0" style="stop-color:#FFFFFF;stop-opacity:0.5"/>
						<stop  offset="0.8362" style="stop-color:#F07125"/>
					</linearGradient>
					<path class="st46" d="M608.7,441.8c-3.9-3.4-11.9-10.2-14.9-12.3c0.3-0.3,0.7-0.6,1.1-0.8c1.1-0.7,2.4-1.2,3.8-1.3
						c5.3-0.6,10,3.7,10.6,9.5C609.4,438.6,609.2,440.3,608.7,441.8z"/>
					<path class="st38" d="M646.7,444.6c-1,1.6-1.9,2.7-2.6,3.5c0.5,5.4,0.3,9.8,0,13.1c-0.2,2.8-0.5,5.2-0.8,7.3
						c-0.6,3.9-1.6,6.5-4,8.4c-2.5,2-5.4,2.4-8.1,2.6c-3.2,0.2-6.8-0.2-10.5-1.2l-2,6.6l-1.1,3.8c1.1-0.1,2.3-0.1,3.5-0.1
						c1.4,0,2.7,0.1,4,0.2c0.3,1.6,2.3,11.7-4.3,20c-5.5,6.8-13.2,8-17.3,8.6c-3.2,0.5-16.7,2.3-25-6.5c-0.3-0.3-0.6-0.7-0.9-1
						c-3-3.7-3.7-7.8-4-9.9c-0.3-1.7-0.5-4.4,0.1-7.7c1.4-0.3,2.9-0.6,4.6-0.8c1.6-0.2,3-0.3,4.3-0.3v0l2.8-6.5l7.1-16.6l2.6-6
						c-0.5-0.6-1-1.2-1.5-1.8c-2.6-3.3-4.8-6.9-6.3-10.8c-1.7-4.5-2.7-9.4-2.9-14.5c-0.6-14.5,5-29.6,16.9-35.5
						c2.8-1.4,6-2.3,9.3-2.6c6-0.6,12.3,0.7,17.4,4.1c0.4,0.2,0.9,0.6,1.6,1.2c2.2,2,5.6,6.4,8.6,16.5c0.8,2.7,1.6,5.8,2.3,9.3
						c0.1,0.2,0.1,0.5,0.2,0.7c1.2,3.5,2.8,5.7,4.2,7c1.7,1.7,3.3,2.5,3.5,4.4C648.6,441.6,647.9,442.7,646.7,444.6z"/>
					<g id="glasses_1_">
						<path id="glasses" class="st18" d="M638.3,418.9c-1.7-2.5-4.2-4-7-4c-3.3,0-6.2,2.2-7.9,5.4v0c-0.4,0.8-0.8,1.6-1,2.5
							c-0.4,1.4-0.7,3-0.7,4.6c0,6.9,4.3,12.5,9.6,12.5c4.9,0,8.9-4.8,9.5-10.9c0-0.5,0.1-1,0.1-1.5
							C640.9,424.1,639.9,421.1,638.3,418.9z M631.3,437.9c-4.2,0-7.7-4.7-7.7-10.5c0-5.8,3.4-10.5,7.7-10.5c4.2,0,7.7,4.7,7.7,10.5
							C638.9,433.1,635.5,437.9,631.3,437.9z"/>
						
							<rect x="591.5" y="426.4" transform="matrix(0.9288 -0.3706 0.3706 0.9288 -115.0746 255.8822)" class="st18" width="33.5" height="1.9"/>
					</g>
					<path id="shadow" class="st41" d="M620.7,478.1c-1,3.2-1.9,6.4-2.9,9.6c-3-1.1-7.8-3.3-12.5-7.7c-3.3-3.1-5.4-6.2-6.7-8.6
						C606,473.7,613.4,475.9,620.7,478.1z"/>
					<path id="hair" class="st11" d="M629.8,402.1c0,0.1,0,0.1-0.1,0.2c-0.9,1.2-7.4-1.7-13.2,2.2c-5.7,3.9-3.4,9.6-8.9,25
						c-4.6,12.7-8,13.9-7.4,21c0.4,5.2,2.7,9,0.5,12.9c-1.6,2.9-4.5,4.3-6.2,4.8c-0.1,0-0.2,0.1-0.3,0.1c-0.7,0.2-1.2,0.3-1.2,0.3
						c-0.1-0.1-0.2-0.3-0.4-0.5c-4.4-5.4-21.7-28-15.5-53.7c1.3-5.4,4.3-17.8,14.7-23.3c0.4-0.2,0.7-0.4,1.1-0.5
						C609.5,383.1,630.7,398.6,629.8,402.1z"/>
					<path id="ear" class="st38" d="M608.7,441.8c-0.1,0.5-0.3,0.9-0.6,1.3c-1.5,2.8-4.1,4.9-7.3,5.2c-5.3,0.6-10-3.7-10.6-9.5
						c-0.4-3.8,1-7.2,3.5-9.4c0.3-0.3,0.7-0.6,1.1-0.8c1.1-0.7,2.4-1.2,3.8-1.3c5.3-0.6,10,3.7,10.6,9.5
						C609.4,438.6,609.2,440.3,608.7,441.8z"/>
					<linearGradient id="shadow_2_" gradientUnits="userSpaceOnUse" x1="612.0485" y1="404.8954" x2="566.5959" y2="471.9911">
						<stop  offset="0" style="stop-color:#FFFFFF;stop-opacity:0.5"/>
						<stop  offset="0.8362" style="stop-color:#F07125"/>
					</linearGradient>
					<path id="shadow_1_" class="st47" d="M595.8,460.2c-0.5,2.7-0.9,5.4-1.4,8.1c-0.8,4.9-1.6,9.8-2.5,14.7
						c-2.2,0.6-4.3,1.2-6.5,1.9l7.1-16.6c-4.4-5.4-21.7-28-15.5-53.7c1.3-5.4,4.3-17.8,14.7-23.3c-4.8,8.1-11.8,23.9-7.3,43.9
						C586.2,442.9,589.7,451.3,595.8,460.2z"/>
					<circle id="eye_1_" cx="634.9" cy="426.7" r="2.2"/>
					
						<rect id="brow_1_" x="617.7" y="411.5" transform="matrix(0.8877 -0.4605 0.4605 0.8877 -119.9866 333.8577)" width="13.1" height="2.7"/>
					<path id="smile_1_" class="st32" d="M627,455.5c0.5,1.3,1.5,3.3,3.5,5.2c2.8,2.8,6,3.6,7.4,3.9"/>
				</g>
			</g>
			<g id="hand_front_2_">
				<g id="hand_front_1_">
					<path class="st38" d="M520.4,667.6c-0.4,0.1-1,0.2-1.7,0.3c-8.2,1.5-26.1,3.1-30.5-4.2c-2.4-3.9,0.4-8.8,1.2-12.5
						c0.4-1.6,0.3-3-0.6-4c-0.8-0.8-2.1-1.1-3.5-1c-1.5,0.1-2.8,0.4-5.3,1.2c-0.1,0-0.1,0-0.2,0.1c-0.9,0.3-1.6,0.6-2.1,0.7
						c-0.9,1.2-2.1,2.8-3.5,5c0,0,0,0,0,0.1c-2.8,4.2-4.2,5.6-4.9,6.2c-0.1,0.1-0.5,0.5-1.2,0.9c-0.6,0.4-1.4,0.9-2,1.2
						c-0.5,0.2-0.9,0.3-1.1,0.1c-0.5-0.4,0.2-2.1,2-5.5c1.3-2.4,3-5.5,5.4-9.2c0.4-0.6,0.8-1.2,1.2-1.9c2.3-1.9,5.4-4.1,9.4-6.1
						c2.9-1.4,5.6-2.4,8-3.1c0.2-0.1,0.4-0.1,0.6-0.2c0,0,0.1,0,0.1,0c0.7,0.6,1.4,1.1,2.1,1.7c3.6,3,7.4,6.6,11.2,10.6
						c3.6,3.8,6.8,7.7,9.6,11.3c0.6,0.8,1.2,1.6,1.7,2.3C517.8,663.6,519.2,665.7,520.4,667.6z"/>
					<path class="st38" d="M503.7,659.3c-8.8,3-15.2,2.4-19.4,1.2c-3.3-0.9-8.6-3.2-13.1-0.9c-0.5,0.3-1.8,0.9-1.7,1.7
						c0,1.5,4.3,2.5,8.7,3.5c12.8,2.8,19.2,4.2,24.5,4.4c3.6,0.1,8.4,0,14-0.9C512.3,665.3,508,662.3,503.7,659.3z"/>
					<linearGradient id="SVGID_16_" gradientUnits="userSpaceOnUse" x1="487.2991" y1="660.244" x2="520.4492" y2="660.244">
						<stop  offset="0" style="stop-color:#FFFFFF;stop-opacity:0.5"/>
						<stop  offset="0.8362" style="stop-color:#F07125"/>
					</linearGradient>
					<path class="st48" d="M520.4,667.6c-0.4,0.1-1,0.2-1.7,0.3c-8.2,1.5-26.1,3.1-30.5-4.2c-2.4-3.9,0.4-8.8,1.2-12.5
						c4,3,5.5,6.6,11.4,8.3c4.7,1.3,9.6,0.7,13.7-0.3C516.8,662.1,518.7,665,520.4,667.6z"/>
					<path class="st38" d="M482.2,639.6c0,0-4.9,4.3-4.9,6c0,1.7-2,12-0.6,12.6s5.8-13.4,5.8-13.4L482.2,639.6z"/>
					<path class="st38" d="M483.4,640.3c0,0-4.4,7.9-2.6,9.6c1.7,1.7,6.1,5.2,6.1,3.5c0-1.7-2.6-5.2-2.6-5.2l0,0
						c0,0,0.9-1.5,2.6-4.4c-0.4-1.8-1.4-3.2-2.6-3.5C484,640.3,483.7,640.3,483.4,640.3z"/>
					<path class="st41" d="M516.3,661.6c-11.8,1.8-20.8-16.3-24.7-25.9c0,0,0.1,0,0.1,0c0.7,0.6,1.4,1.1,2.1,1.7
						c3.6,3,7.4,6.6,11.2,10.6c3.6,3.8,6.8,7.7,9.6,11.3C515.1,660,515.7,660.8,516.3,661.6z"/>
					<path class="st11" d="M662.5,677c-11.8,6.2-20.5,2.2-54.2-1.7c-41.4-4.9-75.6-6-98.7-6.1c0.6-3.7,1.2-7.4,1.9-11.1
						c0.3-1.5,0.5-3.1,0.8-4.6c25.7-4.6,46.8-7.2,62-8.8c20.1-2.1,30.1-3.1,39.3-3.5c26.1-1,30,1.4,34.9-2.6
						c10.9-8.9,4.6-31.2-4.4-76c-5.2-25.7-9.2-48.9-12.4-69.1c-0.2-1.5-0.5-2.9-0.7-4.3c0.3,0,0.6,0,0.9,0c0,0,0,0,0,0
						c6.9,0.3,17.8,1.8,27.9,8.7c13.2,9.1,19.4,23.5,23.6,42.8C685.3,549.5,706.8,653.7,662.5,677z"/>
					<linearGradient id="SVGID_17_" gradientUnits="userSpaceOnUse" x1="511.4242" y1="575.2962" x2="675.9499" y2="575.2962">
						<stop  offset="0" style="stop-color:#FFFFFF;stop-opacity:0.5"/>
						<stop  offset="1" style="stop-color:#002544;stop-opacity:0.4"/>
					</linearGradient>
					<path class="st49" d="M675.8,634.2c-3,37.1-138.6,26.3-164.4,24c0.3-1.5,0.5-3.1,0.8-4.6c25.7-4.6,46.8-7.2,62-8.8
						c20.1-2.1,30.1-3.1,39.3-3.5c26.1-1,30,1.4,34.9-2.6c10.9-8.9,4.6-31.2-4.4-76c-5.2-25.7-9.2-48.9-12.4-69.1l0.2-4.3v0
						c0,0,0,0,0,0C632.7,491,679,593.5,675.8,634.2z"/>
					<path class="st38" d="M481.8,639.6c-2.4,2.3-4.8,4.6-7.2,6.9c-0.3,2.3-0.6,4.7-0.9,7c-0.1,3.1-0.1,6.8,0.9,7
						c1,0.2,2.4-3.1,2.6-3.5c1.6-3.6,1.1-6,1.7-9.6C479.3,645.4,480,642.7,481.8,639.6z"/>
				</g>
			</g>
			<path id="pen_up" class="st12" d="M506.9,623.8l-13.1,13.5c-0.7-0.6-1.4-1.2-2.1-1.7c-0.2,0.1-0.4,0.1-0.7,0.2l13.7-14.1
				c0.8-0.5,1.7-0.3,2.2,0.3C507.3,622.5,507.3,623.2,506.9,623.8z"/>
		</g>
		<g id="lamp">
			<circle class="st12" cx="308.8" cy="454.6" r="16.8"/>
			<path class="st18" d="M191.2,674.5c0,4.9-7.5,7.7-16.2,8.5c-11.8,1-25.8-1.8-25.8-8.5c0-9.3,6-17.2,14.4-19.9
				c2.1-0.7,4.3-1.1,6.7-1.1C181.8,653.5,191.2,662.9,191.2,674.5z"/>
			<linearGradient id="SVGID_18_" gradientUnits="userSpaceOnUse" x1="168.6644" y1="656.1812" x2="160.4505" y2="682.5483">
				<stop  offset="6.494391e-02" style="stop-color:#FFFFFF"/>
				<stop  offset="1" style="stop-color:#271C41"/>
			</linearGradient>
			<path class="st50" d="M175,683c-11.8,1-25.8-1.8-25.8-8.5c0-9.3,6-17.2,14.4-19.9c0,3.4,0.4,8.9,2.9,15.2
				C169,676.2,172.7,680.6,175,683z"/>
			<path class="st18" d="M288.6,421.1c-0.7-0.7-1.8-0.7-2.5,0L139.2,558.9c-0.7,0.7-0.7,1.7,0,2.4c0.3,0.3,0.8,0.5,1.3,0.5
				c0.4,0,0.9-0.2,1.2-0.5l11.3-10.6l15.7,106.2c0.1,0.8,0.9,1.4,1.7,1.4c0.1,0,0.2,0,0.2,0c1-0.1,1.6-1,1.5-1.9l-16-108.3
				c0-0.1,0-0.2-0.1-0.3l132.5-124.2C289.3,422.9,289.3,421.8,288.6,421.1z"/>
			<polygon class="st18" points="342.2,439.8 313.6,456.4 304.9,461.5 285.5,472.7 276.2,478.1 275.4,458.9 274.5,435 279.6,432 
				271.4,407.7 275.8,405.2 279.1,403.2 281,402.1 283.4,400.7 300.5,419.9 305.7,416.9 334.4,434.9 			"/>
			<linearGradient id="SVGID_19_" gradientUnits="userSpaceOnUse" x1="315.2187" y1="408.325" x2="296.4823" y2="474.4295">
				<stop  offset="0.2941" style="stop-color:#412D41"/>
				<stop  offset="1" style="stop-color:#000000"/>
			</linearGradient>
			<path class="st51" d="M342.2,439.8l-28.7,16.6l-8.7,5.1l-19.4,11.2c14.8-13.1,17-21.8,16.2-27.4c0-0.2-0.1-0.5-0.1-0.7
				c-1.6-7.9-9.2-10.5-15.3-23c-3.8-7.7-4.9-14.9-5.2-19.5l2.4-1.4l17.1,19.2l5.2-3l28.8,18L342.2,439.8z"/>
			<linearGradient id="SVGID_20_" gradientUnits="userSpaceOnUse" x1="275.4484" y1="456.4891" x2="342.2476" y2="456.4891">
				<stop  offset="0" style="stop-color:#FFFFFF;stop-opacity:0.5"/>
				<stop  offset="0.8362" style="stop-color:#F07125"/>
			</linearGradient>
			<path class="st52" d="M342.2,439.8l-28.7,16.6l-8.7,5.1l-19.4,11.2l-9.3,5.4l-0.7-19.1c4.2-4.3,9.6-8.1,16.6-10.5
				c3.3-1.1,6.5-2.2,9.7-3.1c12.5-3.8,24.1-6.6,32.7-10.4L342.2,439.8z"/>
		</g>
		<g id="laptop_x2C__tablet">
			<g id="tablet_1_">
				<path class="st12" d="M169.4,766.8l-46.9,267c3.9,1.6,6.6,5.3,6.6,9.8c0,5.8-4.7,10.5-10.5,10.5c-5.8,0-10.5-4.7-10.5-10.5
					c0-5.2,3.8-9.5,8.7-10.4l47-267.3l12.9-73.2l5.7,1L169.4,766.8z"/>
				<path class="st12" d="M673.4,1037.8c0,5.8-4.4,10.5-9.8,10.5s-9.8-4.7-9.8-10.5c0-4.4,2.6-8.2,6.2-9.8l-31.1-190.2L604.4,688
					l5.3-1l24.8,151.6l30.9,188.8C669.9,1028.3,673.4,1032.6,673.4,1037.8z"/>
				<linearGradient id="SVGID_21_" gradientUnits="userSpaceOnUse" x1="192.601" y1="700.8123" x2="153.2715" y2="758.8691">
					<stop  offset="0.3525" style="stop-color:#002544"/>
					<stop  offset="1" style="stop-color:#E6E3F4"/>
				</linearGradient>
				<path class="st53" d="M176.6,692.8l5.7,1l-12.8,73c-1.9-0.3-3.8-0.5-5.7-0.8L176.6,692.8z"/>
				<linearGradient id="SVGID_22_" gradientUnits="userSpaceOnUse" x1="651.7914" y1="715.5751" x2="587.8389" y2="809.9797">
					<stop  offset="0.3525" style="stop-color:#002544"/>
					<stop  offset="1" style="stop-color:#E6E3F4"/>
				</linearGradient>
				<path class="st54" d="M634.5,838.6c-1.9-0.3-3.7-0.6-5.6-0.9L604.4,688l5.3-1L634.5,838.6z"/>
				<linearGradient id="SVGID_23_" gradientUnits="userSpaceOnUse" x1="417.7387" y1="609.2108" x2="374.6967" y2="761.0688">
					<stop  offset="0.3511" style="stop-color:#271C41"/>
					<stop  offset="1" style="stop-color:#000000"/>
				</linearGradient>
				<path class="st55" d="M654.7,679.2v12c0,2-1.5,3.6-3.4,3.6H141.1c-1.9,0-3.4-1.6-3.4-3.6v-12c0-2,1.5-3.6,3.4-3.6h510.3
					C653.2,675.6,654.7,677.2,654.7,679.2z"/>
			</g>
			<g id="tablet">
				<path class="st12" d="M512,677.5H410.8c-1.9,0-3.4-1.5-3.4-3.4s1.5-3.4,3.4-3.4H512c1.9,0,3.4,1.5,3.4,3.4
					S513.8,677.5,512,677.5z"/>
				<path class="st12" d="M320.5,769.4c-10.5,0-21.1-2.7-29.8-7.9c-26.2-15.6-36.2-53.5-23.3-88.1c0.1-0.4,0.6-0.6,0.9-0.4
					c0.4,0.1,0.6,0.6,0.4,0.9c-12.6,33.9-2.9,71,22.7,86.3c15.3,9.1,36.2,10.3,52,2.8c13.1-6.1,18.6-16,25-27.5
					c4.1-7.4,8.7-15.7,16-24.1c17.1-19.7,43-32.6,76.9-38.3c0.4-0.1,0.8,0.2,0.8,0.6c0.1,0.4-0.2,0.8-0.6,0.8
					c-33.5,5.7-59.1,18.4-76,37.9c-7.2,8.3-11.8,16.6-15.8,23.9c-6.5,11.7-12.1,21.7-25.6,28.1C336.9,767.7,328.7,769.4,320.5,769.4
					z"/>
			</g>
			<g id="laptop">
				<path class="st12" d="M355.7,677.5h-115c-2.4,0-4.5-1.5-5.2-3.8L203.9,575c-0.6-1.8,0.4-3.7,2.2-4.2c1.8-0.6,3.7,0.4,4.2,2.2
					l31.4,97.8h114.1c1.9,0,3.4,1.5,3.4,3.4S357.6,677.5,355.7,677.5z"/>
			</g>
			<rect id="socket" x="251.3" y="673.2" width="8.6" height="1.4"/>
		</g>
	</g>
</g>
</svg>
