<?xml version="1.0" encoding="utf-8"?>
<!-- Generator: Adobe Illustrator 22.1.0, SVG Export Plug-In . SVG Version: 6.00 Build 0)  -->
<svg version="1.1" xmlns="http://www.w3.org/2000/svg" xmlns:xlink="http://www.w3.org/1999/xlink" x="0px" y="0px"
	 viewBox="0 0 1205.6 1223.6" style="enable-background:new 0 0 1205.6 1223.6;" xml:space="preserve">
<style type="text/css">
	.st0{fill:#F4F9F9;}
	.st1{fill:#F9E8E2;}
	.st2{fill:#DEDED9;}
	.st3{opacity:0.96;}
	.st4{fill:url(#SVGID_1_);}
	.st5{fill:#2B303E;}
	.st6{fill:#31455A;}
	.st7{fill:#E6E3F2;}
	.st8{fill:#EBBB5C;}
	.st9{opacity:0.5;fill:#E6E3F2;}
	.st10{opacity:0.8;fill:#E6E3F2;}
	.st11{fill:#6F3E43;}
	.st12{opacity:6.000000e-02;fill:url(#SVGID_2_);}
	.st13{opacity:6.000000e-02;fill:url(#SVGID_3_);}
	.st14{opacity:6.000000e-02;fill:url(#SVGID_4_);}
	.st15{fill:#C88F80;}
	.st16{opacity:0.25;fill:#2B303E;}
	.st17{fill:#0E0F0F;}
	.st18{fill:#AF7266;}
	.st19{opacity:8.000000e-02;fill:#522D37;}
	.st20{fill:#BBD0DB;}
	.st21{opacity:9.000000e-02;fill:#2B303E;}
	.st22{opacity:0.12;fill:#2B303E;}
	.st23{opacity:0.15;fill:url(#SVGID_5_);}
	.st24{opacity:0.1;fill:url(#SVGID_6_);}
	.st25{opacity:0.1;fill:#E6E3F2;}
	.st26{opacity:6.000000e-02;fill:url(#SVGID_7_);}
	.st27{opacity:0.32;fill:#212734;}
	.st28{fill:#212734;}
	.st29{opacity:0.26;fill:#522D37;}
	.st30{fill:url(#SVGID_8_);}
	.st31{opacity:4.000000e-02;fill:url(#SVGID_9_);}
	.st32{opacity:0.12;fill:url(#SVGID_10_);}
	.st33{fill:#3D6658;}
	.st34{fill:#182828;}
	.st35{fill:#FFFFFF;}
	.st36{fill:#4E8B76;}
	.st37{opacity:0.18;fill:#2F2B33;}
	.st38{opacity:8.000000e-02;fill:#2B303E;}
	.st39{fill:url(#chair_1_);}
	.st40{opacity:0.5;fill:url(#SVGID_11_);}
</style>
<g id="background">
	<g id="general_1_">
		<g id="figures">
			<path class="st0" d="M1119.5,974.9c-7.2,8.6-14.8,14.6-19.1,17.6c-6.5,4.7-14.2,9.2-22.7,13c-1.1,0.5-2.2,1-3.3,1.4
				c-8,3.4-16.4,6.1-25,7.8c-16.9,3.5-34,3-47.9-4.1c-3.2-1.6-6.2-3.6-9-6c-3.5-2.9-6.5-6.3-9-10.1c-0.6-0.9-1.2-1.9-1.8-2.8
				c-10-16.8-11.9-39.3-7.7-57.6c3.2-14.1,9.5-23.9,18.5-32.9c11.1-11.2,26.2-21.3,44.5-37.1c9.1-7.9,18.9-17.2,29.4-28.7
				c48.8-53.6,49.7-87.6,64-85.3C1161,754.9,1172.8,911.2,1119.5,974.9z"/>
			<path class="st0" d="M713.2,613.7c-0.2,0.6-0.4,1.1-0.6,1.7c-0.1,0.3-0.2,0.5-0.2,0.7c0,0.1,0,0.1-0.1,0.2c0,0.1-0.1,0.2-0.1,0.3
				c0,0.1-0.1,0.2-0.1,0.3c-9.7,26-21.2,51.5-34.8,76.2c-0.4,0.7-0.8,1.5-1.2,2.2c-2.3,4.2-4.8,8.4-7.2,12.6
				c-5.1,8.7-10.5,17.1-16,25.3l-1.7,2.5c-59.1,87.1-133.4,145.3-140,150.2c-8.6,6.3-17.6,12.5-17.6,12.5
				c-6.3,4.2-15.5,10.5-27.1,17.7c-31,19.2-78.9,45.4-132.1,58.4c-14.6,3.6-29.6,6.2-44.7,7.3c-13.7,1.1-27.5,1-41.2-0.5l-3-0.4
				c-18.9-2.4-37.6-7.5-55.8-16.2c-5.1-2.5-9.9-5-14.5-7.8c0,0-23.5-14-44.7-37.5c-81-89.7-83.7-198.7-83.7-198.7
				s-0.3-12.4,2.5-32.9v0c0.3-2.6,0.8-5.3,1.2-8.1v0c6.5-39.9,24.1-103.4,72-165.6c1.5-1.9,3-3.9,4.6-5.8l0,0
				c1.6-2.1,3.4-4.1,3.4-4.1c15.6-18.6,30.5-30.8,44.7-40C215,438,250,435.2,281.5,380.7c3.1-5.3,5.8-10.5,8.1-15.7
				c37.1-80.8-11.3-136.9,35.8-228.8c2.7-5.3,5.7-10.6,9-16c6.5-10.6,14-21.3,22.6-31.6c0.6-0.8,1.3-1.6,2-2.4
				c19.4-23,43.5-44.1,71.2-59.2c1-0.5,1.9-1,2.9-1.5c10.7-5.6,21.8-10.3,33.4-13.8c13-4,26.6-6.6,40.7-7.4c1.3-0.1,2.7-0.2,4-0.2
				c45-1.6,84.7,15.6,117.1,38.4c14.3,10,25.4,19.7,33.8,27.6c0.8,0.8,5.7,5.4,11,11c5.6,5.9,26.2,27.7,43,57.9
				c4.7,8.5,12.2,23.2,19.3,45c0.3,1,0.6,2,0.9,2.9c1.6,5.3,3.2,10.9,4.8,17C777.5,348.1,732.2,561.8,713.2,613.7z"/>
			<path class="st0" d="M1169.1,536.3C1169.1,536.3,1169.1,536.3,1169.1,536.3c-0.1,0.3-0.1,0.7-0.2,1
				c-5.5,32.8-14.2,63.4-24.4,91.4c-28.8,79.3-69.8,136.6-86.7,158.7c-13.8,18.2-29,35.8-45.4,52.5c-14.1,14.4-29,28.2-44.7,41.3
				c-35,29.1-73.7,54.2-114.6,73.7c-14.6,7-29.6,13.2-44.7,18.6c-9.1,3.2-18.3,6.2-27.5,8.8c-1.7,0.5-3.4,1-5.1,1.4h0
				c-33.7,9.2-68.2,14.1-102.9,14c-6.7,0-13.4-0.2-20-0.7c-1-0.1-2.2-0.1-3.4-0.2c-1-0.1-2-0.1-3.1-0.2c-5-0.4-11.2-0.9-18.2-1.6
				c-33.2-3.7-82.8-13.8-93-43.7c-11.6-33.9,35.9-68,93-129.2c3.7-4,7.4-8,11.2-12.2c1-1.1,1.9-2.2,2.9-3.2
				c10.1-11.4,20.4-23.7,30.7-37.1c8.1-10.5,16-21.6,23.9-33.5c53.5-81,76.6-161.6,87.4-214.4c0.4-1.8,0.7-3.6,1.1-5.3v0
				c3.1-15.8,5.1-28.9,6.5-38.3C822,270.8,729.5,144,801.5,79.3c2.2-2,4.6-3.9,6.9-5.6c14.2-10.4,30.1-15.7,44.7-18.4
				c17-3.1,32.4-2.5,41.6-2.2c25.5,0.9,49.9,7.9,73,19.5c15.6,7.8,30.5,17.8,44.7,29.4c58.1,47.4,104.4,122.6,132.1,195.2
				c7.5,19.7,13.6,39.3,18.3,58C1178.8,419.8,1178.3,481.1,1169.1,536.3z"/>
			<path class="st0" d="M298.7,103.3c-0.7,1.3-1.5,2.6-2.2,3.9c-8.3,14.8-18.1,32.9-29.1,55.1c-1.8,5.5-7.7,23.7-11.1,46.2
				c-8.3,55.5,8.1,73.9,2.4,109.1c-1.4,8.6-3.8,16.4-7.2,23.7c-0.5,1.1-1,2.1-1.5,3.1c-9.2,18-24.2,33.7-43.6,54
				c-3.6,3.8-11.2,11.7-21.4,21.4c-0.9,0.9-1.8,1.8-2.8,2.7c-22.4,21.1-55.7,49.3-87.3,63c-1.3,0.6-2.7,1.1-4,1.7
				c-18.2,7.2-35.6,9.2-49.8,1.9c-6.2-3.2-11.9-8.2-16.8-14.6c-0.6-0.8-1.3-1.7-1.9-2.6v0C5.2,447.2-2.7,404.9,1.7,364.7v0
				c0.2-1.6,0.4-3.1,0.5-4.6c3.6-27.6,13.1-53.8,29.2-72c0.1-0.1,0.1-0.1,0.2-0.2c1.4-1.2,2.8-2.5,4.2-3.7
				c62.4-55.2,80.2-93.7,84-119.4c0.8-5.6,2.5-20.2,10.5-37.6c2.4-5.2,12.2-27.7,44.7-52.6c35.7-27.3,82-44.6,114.6-47.6
				c11.1-1,20.6-0.4,27.6,2.1c1.2,0.4,2.3,0.9,3.4,1.5c2.4,1.2,4.3,2.8,5.7,4.6C334.3,45.3,323.3,59.8,298.7,103.3z"/>
			<path class="st0" d="M96,167.8c-10.7,21.7-35.5,46.1-55.9,40.9c-12.7-3.2-22.7-17.7-27.5-35.9c-0.3-1.2-0.6-2.4-0.8-3.6
				C8,151.6,9.1,131,17.6,114.1c8.8-17.7,26.7-33.6,43.8-38.7c1-0.3,2.1-0.6,3.1-0.8c6.2-1.4,12.2-1.2,17.5,0.9
				c9.2,3.6,15.7,12.7,19.5,24.5c0.4,1.1,0.7,2.2,1,3.4v0C107.6,122.7,105.7,148.1,96,167.8z"/>
			<path class="st0" d="M1189.3,228.9L1189.3,228.9c-0.6,1.2-1.3,2.3-1.9,3.4c-5,8.5-10.4,13.8-15.7,14.9
				c-15.6,3-23.8-32.5-69.2-90.4c-0.6-0.8-1.2-1.6-1.9-2.4c-6.2-7.8-13-16-20.6-24.5c-20-22.4-37.6-38.7-51.9-51
				c-1.6-1.4-3.2-2.8-4.8-4.1c-24.2-20.6-37.5-29.6-34.2-40.1c1.7-5.5,7.5-10.5,16.2-14.6c1.3-0.6,2.6-1.2,4-1.8
				C1037.7,6.7,1090,4,1133,23.7c1.3,0.6,2.6,1.2,4,1.9h0c11.4,5.7,22,13,31.2,22.2c19.4,19.4,30.1,44.7,34.7,70.6v0
				c0.2,1.4,0.5,2.7,0.7,4.1C1209.7,163.5,1201.4,205.6,1189.3,228.9z"/>
		</g>
		<g id="pattern">
			<path class="st1" d="M102.9,286.7c-0.4,0-0.8-0.1-1-0.4c-0.6-0.6-0.6-1.5,0-2.1l12.4-12.8c0.6-0.6,1.5-0.6,2.1,0
				c0.6,0.6,0.6,1.5,0,2.1L104,286.3C103.7,286.6,103.3,286.7,102.9,286.7z"/>
			<path class="st1" d="M74.9,357.9c-0.2,0-0.4,0-0.6-0.1c-0.8-0.3-1.1-1.2-0.8-2l7.2-16.3c0.3-0.8,1.2-1.1,2-0.8
				c0.8,0.3,1.1,1.2,0.8,2L76.3,357C76,357.6,75.5,357.9,74.9,357.9z"/>
			<path class="st1" d="M90.8,487.1l6.5-14.7c0.3-0.8,1.2-1.1,2-0.8c0.8,0.3,1.1,1.2,0.8,2l-5.2,11.9L90.8,487.1z"/>
			<path class="st1" d="M48.5,418.2c-0.7,0-1.3-0.5-1.5-1.2c-0.2-0.8,0.3-1.6,1.1-1.8l17.4-3.8c0.8-0.2,1.6,0.3,1.8,1.1
				c0.2,0.8-0.3,1.6-1.1,1.8l-17.4,3.8C48.8,418.2,48.6,418.2,48.5,418.2z"/>
			<path class="st1" d="M41,286.5l-9.3,1.4c1.4-1.2,2.8-2.5,4.2-3.7l4.7-0.7c0.8-0.1,1.6,0.4,1.7,1.2
				C42.3,285.6,41.8,286.3,41,286.5z"/>
			<path class="st1" d="M173.4,255.1c-0.8,0-1.5-0.6-1.5-1.4l-0.8-17.8c0-0.8,0.6-1.5,1.4-1.6c0.8,0,1.5,0.6,1.6,1.4l0.8,17.8
				C174.9,254.4,174.3,255.1,173.4,255.1C173.4,255.1,173.4,255.1,173.4,255.1z"/>
			<path class="st1" d="M168.3,349.1c-0.5,0-1-0.2-1.3-0.7l-9.8-14.9c-0.5-0.7-0.3-1.6,0.4-2.1c0.7-0.5,1.6-0.3,2.1,0.4l9.8,14.9
				c0.5,0.7,0.3,1.6-0.4,2.1C168.8,349,168.5,349.1,168.3,349.1z"/>
			<path class="st1" d="M251.5,341.3c-0.5,1.1-1,2.1-1.5,3.1l-4.5-6.9c-0.5-0.7-0.3-1.6,0.4-2.1c0.7-0.4,1.6-0.3,2.1,0.4
				L251.5,341.3z"/>
			<path class="st1" d="M28.5,468l-4.2,6.4c-0.6-0.8-1.3-1.7-1.9-2.6v0l3.6-5.5c0.5-0.7,1.4-0.9,2.1-0.4
				C28.8,466.3,29,467.3,28.5,468z"/>
			<path class="st1" d="M8,371.6c-0.3,0.2-0.5,0.2-0.8,0.2c-0.5,0-1-0.2-1.3-0.7l-4.2-6.5v0c0.2-1.6,0.4-3.1,0.5-4.6l6.2,9.5
				C8.9,370.3,8.7,371.2,8,371.6z"/>
			<path class="st1" d="M151.7,166.8c-0.4,0-0.7-0.1-1-0.4c-0.6-0.6-0.7-1.5-0.1-2.1l11.9-13.3c0.6-0.6,1.5-0.7,2.1-0.1
				c0.6,0.6,0.7,1.5,0.1,2.1l-11.9,13.3C152.6,166.6,152.1,166.8,151.7,166.8z"/>
			<path class="st1" d="M102.5,103.3L102.5,103.3l-8,9c-0.3,0.3-0.7,0.5-1.1,0.5c-0.3,0-0.7-0.1-1-0.4c-0.6-0.5-0.7-1.5-0.1-2.1
				l9.2-10.3C101.8,101,102.2,102.1,102.5,103.3z"/>
			<path class="st1" d="M16.8,168.1l-4.1,4.6c-0.3-1.2-0.6-2.4-0.8-3.6l2.7-3c0.5-0.6,1.5-0.7,2.1-0.1S17.3,167.5,16.8,168.1z"/>
			<path class="st1" d="M54.5,182c-0.8,0-1.4-0.6-1.5-1.4c-0.1-0.8,0.6-1.5,1.4-1.6l17.8-1.1c0.8-0.1,1.5,0.6,1.6,1.4
				c0.1,0.8-0.6,1.5-1.4,1.6L54.5,182C54.6,182,54.5,182,54.5,182z"/>
			<path class="st1" d="M235.9,143c-0.8,0-1.4-0.6-1.5-1.3l-2-17.7c-0.1-0.8,0.5-1.6,1.3-1.7c0.8-0.1,1.6,0.5,1.7,1.3l2,17.7
				c0.1,0.8-0.5,1.6-1.3,1.7C236,143,235.9,143,235.9,143z"/>
			<path class="st1" d="M221.5,214.7c-0.4,0-0.8-0.2-1.1-0.5c-0.5-0.6-0.5-1.6,0.2-2.1l13.6-11.6c0.6-0.5,1.6-0.5,2.1,0.2
				c0.5,0.6,0.5,1.6-0.2,2.1l-13.6,11.6C222.2,214.6,221.8,214.7,221.5,214.7z"/>
			<path class="st1" d="M36.7,131.1c-0.4,0-0.8-0.2-1.1-0.5c-0.5-0.6-0.5-1.6,0.2-2.1l13.6-11.6c0.6-0.5,1.6-0.5,2.1,0.2
				c0.5,0.6,0.5,1.6-0.2,2.1l-13.6,11.6C37.4,130.9,37.1,131.1,36.7,131.1z"/>
			<path class="st1" d="M207.4,298.5c-0.4,0-0.8-0.2-1.1-0.5c-0.6-0.6-0.6-1.5,0-2.1l12.9-12.3c0.6-0.6,1.5-0.6,2.1,0
				c0.6,0.6,0.6,1.5,0,2.1L208.5,298C208.2,298.3,207.8,298.5,207.4,298.5z"/>
			<path class="st1" d="M185,419.8c-0.9,0.9-1.8,1.8-2.8,2.7l-1.1-13.8c-0.1-0.8,0.6-1.6,1.4-1.6c0.8-0.1,1.5,0.6,1.6,1.4L185,419.8
				z"/>
			<path class="st1" d="M182.1,86.6c-0.5,0-0.9-0.2-1.2-0.6c-0.5-0.7-0.3-1.6,0.3-2.1l14.4-10.5c0.7-0.5,1.6-0.3,2.1,0.3
				c0.5,0.7,0.3,1.6-0.3,2.1l-14.4,10.5C182.7,86.5,182.4,86.6,182.1,86.6z"/>
			<path class="st1" d="M256.9,67.4c-0.1,0-0.1,0-0.2,0c-0.8-0.1-1.4-0.9-1.3-1.7l2.2-17.7c0.1-0.8,0.9-1.4,1.7-1.3
				c0.8,0.1,1.4,0.9,1.3,1.7l-2.2,17.7C258.3,66.9,257.7,67.4,256.9,67.4z"/>
			<path class="st1" d="M64.5,74.5L63.8,80c-0.1,0.8-0.7,1.3-1.5,1.3c-0.1,0-0.1,0-0.2,0c-0.8-0.1-1.4-0.9-1.3-1.7l0.5-4.3
				C62.4,75.1,63.4,74.8,64.5,74.5z"/>
			<path class="st1" d="M320.6,30.6l-8.7,5.1c-0.2,0.1-0.5,0.2-0.8,0.2c-0.5,0-1-0.3-1.3-0.7c-0.4-0.7-0.2-1.6,0.5-2.1l6.8-4
				C318.5,29.5,319.6,30,320.6,30.6z"/>
			<path class="st1" d="M298.7,103.3c-0.7,1.3-1.5,2.6-2.2,3.9l-12.6,8.5c-0.3,0.2-0.5,0.2-0.8,0.2c-0.5,0-1-0.2-1.2-0.7
				c-0.5-0.7-0.3-1.6,0.4-2.1l14.8-10C297.6,102.9,298.2,103,298.7,103.3z"/>
			<path class="st1" d="M498.9,168.3c-0.4,0-0.8-0.1-1-0.4c-0.6-0.6-0.6-1.5,0-2.1l12.5-12.8c0.6-0.6,1.5-0.6,2.1,0
				c0.6,0.6,0.6,1.5,0,2.1L500,167.9C499.7,168.2,499.3,168.3,498.9,168.3z"/>
			<path class="st1" d="M532.3,100.7c-0.2,0-0.4,0-0.6-0.1c-0.8-0.3-1.1-1.2-0.8-2l7.2-16.3c0.3-0.8,1.2-1.1,2-0.8
				c0.8,0.3,1.1,1.2,0.8,2l-7.2,16.3C533.5,100.4,532.9,100.7,532.3,100.7z"/>
			<path class="st1" d="M548.6,27.9c-0.7,0-1.3-0.5-1.5-1.2c-0.2-0.8,0.3-1.6,1.1-1.8l17.4-3.8c0.8-0.2,1.6,0.3,1.8,1.1
				c0.2,0.8-0.3,1.6-1.1,1.8l-17.4,3.8C548.8,27.9,548.7,27.9,548.6,27.9z"/>
			<path class="st1" d="M573.6,155.9c-0.7,0-1.4-0.5-1.5-1.3c-0.1-0.8,0.4-1.6,1.3-1.7l17.6-2.7c0.8-0.1,1.6,0.4,1.7,1.3
				s-0.4,1.6-1.3,1.7l-17.6,2.7C573.7,155.9,573.6,155.9,573.6,155.9z"/>
			<path class="st1" d="M441.6,204.9c-0.8,0-1.5-0.6-1.5-1.4l-0.8-17.8c0-0.8,0.6-1.5,1.4-1.6c0.8,0,1.5,0.6,1.6,1.4l0.8,17.8
				C443.2,204.1,442.5,204.8,441.6,204.9C441.7,204.9,441.7,204.9,441.6,204.9z"/>
			<path class="st1" d="M335.7,196c-0.8,0-1.5-0.6-1.5-1.4l-0.8-17.8c0-0.8,0.6-1.5,1.4-1.6c0.8,0,1.5,0.6,1.6,1.4l0.8,17.8
				C337.2,195.2,336.6,195.9,335.7,196C335.8,196,335.7,196,335.7,196z"/>
			<path class="st1" d="M455.9,108c-0.5,0-1-0.2-1.3-0.7l-9.7-14.9c-0.5-0.7-0.3-1.6,0.4-2.1c0.7-0.5,1.6-0.3,2.1,0.4l9.7,14.9
				c0.5,0.7,0.3,1.6-0.4,2.1C456.5,108,456.2,108,455.9,108z"/>
			<path class="st1" d="M368.5,103.6c-0.3,0.2-0.5,0.2-0.8,0.2c-0.5,0-1-0.2-1.3-0.7L357,88.6c0.7-0.8,1.3-1.6,2-2.4
				c0.1,0.1,0.2,0.2,0.2,0.3l9.7,15C369.4,102.2,369.2,103.1,368.5,103.6z"/>
			<path class="st1" d="M617.1,85.5c-0.5,0-1-0.2-1.3-0.7l-9.7-14.9c-0.5-0.7-0.3-1.6,0.4-2.1c0.7-0.5,1.6-0.3,2.1,0.4l9.7,14.9
				c0.5,0.7,0.3,1.6-0.4,2.1C617.6,85.5,617.3,85.5,617.1,85.5z"/>
			<path class="st1" d="M450.4,288.7c-0.4,0-0.7-0.1-1-0.4c-0.6-0.6-0.7-1.5-0.1-2.1l11.9-13.3c0.6-0.6,1.5-0.7,2.1-0.1
				c0.6,0.6,0.7,1.5,0.1,2.1l-11.9,13.3C451.2,288.5,450.8,288.7,450.4,288.7z"/>
			<path class="st1" d="M508.7,342.9c-0.4,0-0.7-0.1-1-0.4c-0.6-0.6-0.7-1.5-0.1-2.1l11.9-13.3c0.6-0.6,1.5-0.7,2.1-0.1
				c0.6,0.6,0.7,1.5,0.1,2.1l-11.9,13.3C509.5,342.7,509.1,342.9,508.7,342.9z"/>
			<path class="st1" d="M598.4,273.8c-0.4,0-0.7-0.1-1-0.4c-0.6-0.6-0.7-1.5-0.1-2.1l11.9-13.3c0.6-0.6,1.5-0.7,2.1-0.1
				c0.6,0.6,0.7,1.5,0.1,2.1l-11.9,13.3C599.2,273.7,598.8,273.8,598.4,273.8z"/>
			<path class="st1" d="M541.8,261.5c-0.8,0-1.4-0.6-1.5-1.4c-0.1-0.8,0.6-1.5,1.4-1.6l17.8-1.1c0.8,0,1.5,0.6,1.6,1.4
				c0.1,0.8-0.6,1.5-1.4,1.6L541.8,261.5C541.8,261.5,541.8,261.5,541.8,261.5z"/>
			<path class="st1" d="M565.1,215.1c-0.3,0-0.6-0.1-0.9-0.3c-0.7-0.5-0.8-1.4-0.3-2.1l10.7-14.2c0.5-0.7,1.4-0.8,2.1-0.3
				c0.7,0.5,0.8,1.4,0.3,2.1l-10.7,14.2C566,214.9,565.5,215.1,565.1,215.1z"/>
			<path class="st1" d="M380.1,316.7c-0.8,0-1.4-0.6-1.5-1.3l-1.9-17.7c-0.1-0.8,0.5-1.6,1.3-1.7c0.8-0.1,1.6,0.5,1.7,1.3l1.9,17.7
				c0.1,0.8-0.5,1.6-1.3,1.7C380.2,316.7,380.1,316.7,380.1,316.7z"/>
			<path class="st1" d="M327.5,270.4c-0.8,0-1.4-0.6-1.5-1.3l-1.9-17.7c-0.1-0.8,0.5-1.6,1.3-1.7c0.8-0.1,1.6,0.5,1.7,1.3l1.9,17.7
				c0.1,0.8-0.5,1.6-1.3,1.7C327.7,270.4,327.6,270.4,327.5,270.4z"/>
			<path class="st1" d="M379.1,238.8c-0.4,0-0.8-0.2-1.1-0.5c-0.5-0.6-0.5-1.6,0.2-2.1l13.6-11.5c0.6-0.5,1.6-0.5,2.1,0.2
				c0.5,0.6,0.5,1.6-0.2,2.1L380,238.5C379.7,238.7,379.4,238.8,379.1,238.8z"/>
			<path class="st1" d="M563.7,322.9c-0.4,0-0.8-0.2-1.1-0.5c-0.5-0.6-0.5-1.6,0.2-2.1l13.6-11.5c0.6-0.5,1.6-0.5,2.1,0.2
				c0.5,0.6,0.5,1.6-0.2,2.1l-13.6,11.5C564.3,322.8,564,322.9,563.7,322.9z"/>
			<path class="st1" d="M394,155.9c-0.4,0-0.8-0.2-1.1-0.5c-0.6-0.6-0.5-1.5,0-2.1l12.9-12.3c0.6-0.6,1.5-0.6,2.1,0
				c0.6,0.6,0.5,1.5,0,2.1L395,155.5C394.7,155.8,394.4,155.9,394,155.9z"/>
			<path class="st1" d="M433.4,30.5c0.1,0.8-0.6,1.5-1.4,1.6h-0.1c-0.8,0-1.4-0.6-1.5-1.4l-0.3-3.6c1-0.5,1.9-1,2.9-1.5L433.4,30.5z
				"/>
			<path class="st1" d="M417.4,366c-0.5,0-0.9-0.2-1.2-0.6c-0.5-0.7-0.3-1.6,0.3-2.1l14.5-10.4c0.7-0.5,1.6-0.3,2.1,0.3
				c0.5,0.7,0.3,1.6-0.3,2.1l-14.5,10.4C418,365.9,417.7,366,417.4,366z"/>
			<path class="st1" d="M354.7,392.2c-0.1,0-0.1,0-0.2,0c-0.8-0.1-1.4-0.9-1.3-1.7l2.3-17.7c0.1-0.8,0.9-1.4,1.7-1.3
				c0.8,0.1,1.4,0.9,1.3,1.7l-2.3,17.7C356.1,391.7,355.4,392.2,354.7,392.2z"/>
			<path class="st1" d="M549.3,378.7c-0.1,0-0.1,0-0.2,0c-0.8-0.1-1.4-0.9-1.3-1.7l2.3-17.7c0.1-0.8,0.9-1.4,1.7-1.3
				c0.8,0.1,1.4,0.9,1.3,1.7l-2.3,17.7C550.7,378.2,550.1,378.7,549.3,378.7z"/>
			<path class="st1" d="M626.9,387.3c-0.2,0-0.4,0-0.6-0.1l-16.4-7.1c-0.8-0.3-1.1-1.2-0.8-2c0.3-0.8,1.2-1.1,2-0.8l16.4,7.1
				c0.8,0.3,1.1,1.2,0.8,2C628,386.9,627.5,387.3,626.9,387.3z"/>
			<path class="st1" d="M705.5,255.5c-0.4,0-0.7-0.1-1-0.4c-0.6-0.6-0.7-1.5-0.1-2.1l11.9-13.3c0.6-0.6,1.5-0.7,2.1-0.1
				c0.6,0.6,0.7,1.5,0.1,2.1L706.6,255C706.3,255.4,705.9,255.5,705.5,255.5z"/>
			<path class="st1" d="M647.6,226.6c-0.8,0-1.4-0.6-1.5-1.4c-0.1-0.8,0.6-1.5,1.4-1.6l17.8-1.1c0.8-0.1,1.5,0.6,1.6,1.4
				s-0.6,1.5-1.4,1.6L647.6,226.6C647.7,226.6,647.6,226.6,647.6,226.6z"/>
			<path class="st1" d="M736.2,187l-9.9,0.6h-0.1c-0.8,0-1.4-0.6-1.5-1.4c0-0.8,0.6-1.5,1.4-1.6l9.1-0.5
				C735.6,185,735.9,186,736.2,187z"/>
			<path class="st1" d="M675.1,163.4c-0.3,0-0.6-0.1-0.9-0.3c-0.7-0.5-0.8-1.4-0.3-2.1l10.7-14.2c0.5-0.7,1.4-0.8,2.1-0.3
				c0.7,0.5,0.8,1.4,0.3,2.1l-10.7,14.2C676,163.2,675.6,163.4,675.1,163.4z"/>
			<path class="st1" d="M662.8,316.8c-0.4,0-0.8-0.2-1.1-0.5c-0.5-0.6-0.5-1.6,0.2-2.1l13.6-11.5c0.6-0.5,1.6-0.5,2.1,0.2
				c0.5,0.6,0.5,1.6-0.2,2.1l-13.6,11.5C663.5,316.7,663.1,316.8,662.8,316.8z"/>
			<path class="st1" d="M636.4,480c-0.1,0-0.1,0-0.2,0c-0.8-0.1-1.4-0.9-1.3-1.7l2.3-17.7c0.1-0.8,0.8-1.4,1.7-1.3
				c0.8,0.1,1.4,0.9,1.3,1.7l-2.3,17.7C637.7,479.4,637.1,480,636.4,480z"/>
			<path class="st1" d="M287.2,415c-0.5,0-1-0.3-1.3-0.7c-0.4-0.7-0.2-1.6,0.5-2.1l15.4-9c0.7-0.4,1.6-0.2,2.1,0.5
				c0.4,0.7,0.2,1.6-0.5,2.1l-15.4,9C287.7,414.9,287.4,415,287.2,415z"/>
			<path class="st1" d="M316.1,335.8c-0.5,0-1-0.2-1.2-0.7c-0.5-0.7-0.3-1.6,0.4-2.1l14.8-9.9c0.7-0.5,1.6-0.3,2.1,0.4
				c0.5,0.7,0.3,1.6-0.4,2.1l-14.8,9.9C316.7,335.8,316.4,335.8,316.1,335.8z"/>
			<path class="st1" d="M171.8,650.1c-0.6,0-1.1-0.3-1.4-0.9c-0.4-0.7,0-1.6,0.7-2l16.1-7.7c0.8-0.4,1.6,0,2,0.7
				c0.4,0.7,0,1.6-0.7,2l-16.1,7.7C172.2,650.1,172,650.1,171.8,650.1z"/>
			<path class="st1" d="M120.7,707.1c-0.4,0-0.8-0.1-1-0.4c-0.6-0.6-0.6-1.5,0-2.1l12.4-12.8c0.6-0.6,1.5-0.6,2.1,0
				c0.6,0.6,0.6,1.5,0,2.1l-12.4,12.8C121.5,706.9,121.1,707.1,120.7,707.1z"/>
			<path class="st1" d="M92.7,757c-0.1,0-0.1,0-0.2,0l-17.7-2.5c-0.8-0.1-1.4-0.9-1.3-1.7s0.9-1.4,1.7-1.3l17.7,2.5
				c0.8,0.1,1.4,0.9,1.3,1.7C94.1,756.4,93.4,757,92.7,757z"/>
			<path class="st1" d="M113.6,628.2c-0.1,0-0.2,0-0.3,0l-17.5-3.6c-0.8-0.2-1.3-1-1.2-1.8s1-1.3,1.8-1.2l17.5,3.6
				c0.8,0.2,1.3,1,1.2,1.8C114.9,627.7,114.3,628.2,113.6,628.2z"/>
			<path class="st1" d="M248.9,645c-0.2,0-0.3,0-0.5-0.1c-0.8-0.3-1.2-1.1-1-1.9l5.4-17c0.3-0.8,1.1-1.2,1.9-1
				c0.8,0.3,1.2,1.1,1,1.9l-5.4,17C250.1,644.6,249.5,645,248.9,645z"/>
			<path class="st1" d="M211.3,731.3c-0.7,0-1.3-0.5-1.5-1.2l-4-17.4c-0.2-0.8,0.3-1.6,1.1-1.8c0.8-0.2,1.6,0.3,1.8,1.1l4,17.4
				c0.2,0.8-0.3,1.6-1.1,1.8C211.6,731.3,211.4,731.3,211.3,731.3z"/>
			<path class="st1" d="M292.6,765.8c-0.7,0-1.3-0.5-1.5-1.2l-4-17.4c-0.2-0.8,0.3-1.6,1.1-1.8c0.8-0.2,1.6,0.3,1.8,1.1l4,17.4
				c0.2,0.8-0.3,1.6-1.1,1.8C292.9,765.8,292.8,765.8,292.6,765.8z"/>
			<path class="st1" d="M100.7,844.5c-0.7,0-1.3-0.5-1.5-1.2l-4-17.4c-0.2-0.8,0.3-1.6,1.1-1.8c0.8-0.2,1.6,0.3,1.8,1.1l4,17.4
				c0.2,0.8-0.3,1.6-1.1,1.8C100.9,844.5,100.8,844.5,100.7,844.5z"/>
			<path class="st1" d="M52.7,696.6c-0.1,0-0.2,0-0.3,0c-0.7,0-1.3-0.5-1.5-1.2l-1.8-7.8v0c0.3-2.6,0.8-5.3,1.2-8.1l3.5,15.3
				C54,695.6,53.5,696.4,52.7,696.6z"/>
			<path class="st1" d="M259.3,554.7c-0.5,0-1.1-0.3-1.3-0.8c-0.4-0.7-0.1-1.6,0.6-2l15.8-8.4c0.7-0.4,1.6-0.1,2,0.6
				c0.4,0.7,0.1,1.6-0.6,2l-15.8,8.4C259.8,554.7,259.6,554.7,259.3,554.7z"/>
			<path class="st1" d="M223.5,483.7c-0.5,0-1.1-0.3-1.3-0.8c-0.4-0.7-0.1-1.6,0.6-2l15.8-8.4c0.7-0.4,1.6-0.1,2,0.6
				c0.4,0.7,0.1,1.6-0.6,2l-15.8,8.4C224,483.6,223.7,483.7,223.5,483.7z"/>
			<path class="st1" d="M131.8,508.9l-9.5,5c1.5-1.9,3-3.9,4.6-5.8l3.5-1.8c0.7-0.4,1.6-0.1,2,0.6
				C132.9,507.6,132.6,508.5,131.8,508.9z"/>
			<path class="st1" d="M180,540.2c-0.1,0-0.3,0-0.4-0.1l-17.1-5.2c-0.8-0.2-1.2-1.1-1-1.9c0.2-0.8,1.1-1.2,1.9-1l17.1,5.2
				c0.8,0.2,1.2,1.1,1,1.9C181.2,539.8,180.7,540.2,180,540.2z"/>
			<path class="st1" d="M346.5,561.7c-0.1,0-0.2,0-0.4,0c-0.8-0.2-1.3-1-1.1-1.8l4.3-17.3c0.2-0.8,1-1.3,1.8-1.1
				c0.8,0.2,1.3,1,1.1,1.8l-4.3,17.3C347.8,561.3,347.2,561.7,346.5,561.7z"/>
			<path class="st1" d="M308,623.9c-0.6,0-1.2-0.4-1.4-1c-0.3-0.8,0.1-1.6,0.9-1.9l16.8-6.1c0.8-0.3,1.6,0.1,1.9,0.9
				c0.3,0.8-0.1,1.6-0.9,1.9l-16.8,6.1C308.4,623.9,308.2,623.9,308,623.9z"/>
			<path class="st1" d="M164,481.1c-0.6,0-1.2-0.4-1.4-1c-0.3-0.8,0.1-1.6,0.9-1.9l16.8-6.1c0.8-0.3,1.6,0.1,1.9,0.9
				c0.3,0.8-0.1,1.6-0.9,1.9l-16.8,6.1C164.3,481.1,164.1,481.1,164,481.1z"/>
			<path class="st1" d="M265.7,697.5c-0.6,0-1.1-0.3-1.4-0.9c-0.3-0.8,0-1.6,0.8-2l16.4-7.1c0.8-0.3,1.6,0,2,0.8
				c0.3,0.8,0,1.6-0.8,2l-16.4,7.1C266.1,697.5,265.9,697.5,265.7,697.5z"/>
			<path class="st1" d="M198.6,810.6c-0.1,0-0.3,0-0.4-0.1c-0.8-0.2-1.3-1.1-1-1.9l4.9-17.1c0.2-0.8,1.1-1.3,1.9-1
				c0.8,0.2,1.3,1.1,1,1.9l-4.9,17.1C199.9,810.2,199.3,810.6,198.6,810.6z"/>
			<path class="st1" d="M315.7,490.1c-0.7,0-1.3-0.4-1.4-1.1c-0.2-0.8,0.2-1.6,1-1.8l17.2-4.8c0.8-0.2,1.6,0.2,1.8,1
				c0.2,0.8-0.2,1.6-1,1.8l-17.2,4.8C316,490.1,315.9,490.1,315.7,490.1z"/>
			<path class="st1" d="M392.5,498.2c-0.2,0-0.5-0.1-0.7-0.2c-0.7-0.4-1-1.3-0.6-2l8.3-15.8c0.4-0.7,1.3-1,2-0.6
				c0.7,0.4,1,1.3,0.6,2l-8.3,15.8C393.6,497.9,393.1,498.2,392.5,498.2z"/>
			<path class="st1" d="M463.2,453.8c-0.7,0-1.3-0.5-1.5-1.2c-0.1-0.8,0.4-1.6,1.2-1.7l17.6-3.1c0.8-0.1,1.6,0.4,1.7,1.2
				c0.1,0.8-0.4,1.6-1.2,1.7l-17.6,3.1C463.4,453.8,463.3,453.8,463.2,453.8z"/>
			<path class="st1" d="M400.1,552.9c-0.7,0-1.3-0.5-1.5-1.1c-0.2-0.8,0.3-1.6,1.1-1.8l17.3-4.2c0.8-0.2,1.6,0.3,1.8,1.1
				c0.2,0.8-0.3,1.6-1.1,1.8l-17.3,4.2C400.4,552.8,400.2,552.9,400.1,552.9z"/>
			<path class="st1" d="M584.3,677.1c-0.6,0-1.1-0.3-1.4-0.9c-0.4-0.7,0-1.6,0.7-2l16.1-7.6c0.7-0.4,1.6,0,2,0.7
				c0.4,0.7,0,1.6-0.7,2l-16.1,7.6C584.7,677.1,584.5,677.1,584.3,677.1z"/>
			<path class="st1" d="M639.1,625.4c-0.4,0-0.8-0.1-1-0.4c-0.6-0.6-0.6-1.5,0-2.1l12.5-12.8c0.6-0.6,1.5-0.6,2.1,0s0.6,1.5,0,2.1
				l-12.5,12.8C639.9,625.2,639.5,625.4,639.1,625.4z"/>
			<path class="st1" d="M697.4,565.4c-0.1,0-0.1,0-0.2,0l-17.7-2.5c-0.8-0.1-1.4-0.9-1.3-1.7s0.9-1.4,1.7-1.3l17.7,2.5
				c0.8,0.1,1.4,0.9,1.3,1.7C698.7,564.8,698.1,565.4,697.4,565.4z"/>
			<path class="st1" d="M677.3,693c-0.4,0.7-0.8,1.5-1.2,2.2c0,0-0.1,0-0.1,0c-0.1,0-0.2,0-0.3,0l-17.5-3.7c-0.8-0.2-1.3-1-1.2-1.8
				c0.2-0.8,1-1.3,1.8-1.2l17.5,3.7C676.7,692.3,677.1,692.6,677.3,693z"/>
			<path class="st1" d="M517.8,691.4c-0.2,0-0.3,0-0.5-0.1c-0.8-0.3-1.2-1.1-1-1.9l5.5-17c0.3-0.8,1.1-1.2,1.9-1
				c0.8,0.3,1.2,1.1,1,1.9l-5.5,17C519,691,518.5,691.4,517.8,691.4z"/>
			<path class="st1" d="M421.6,646.2c-0.2,0-0.3,0-0.5-0.1c-0.8-0.3-1.2-1.1-1-1.9l5.5-17c0.3-0.8,1.1-1.2,1.9-1
				c0.8,0.3,1.2,1.1,1,1.9l-5.5,17C422.9,645.7,422.3,646.2,421.6,646.2z"/>
			<path class="st1" d="M564.9,605.6c-0.7,0-1.3-0.5-1.5-1.2l-3.9-17.4c-0.2-0.8,0.3-1.6,1.1-1.8c0.8-0.2,1.6,0.3,1.8,1.1l3.9,17.4
				c0.2,0.8-0.3,1.6-1.1,1.8C565.1,605.6,565,605.6,564.9,605.6z"/>
			<path class="st1" d="M485.6,539.8c-0.7,0-1.3-0.5-1.5-1.2l-3.9-17.4c-0.2-0.8,0.3-1.6,1.1-1.8c0.8-0.2,1.6,0.3,1.8,1.1l3.9,17.4
				c0.2,0.8-0.3,1.6-1.1,1.8C485.9,539.8,485.8,539.8,485.6,539.8z"/>
			<path class="st1" d="M496.9,773c-0.5,0-1.1-0.3-1.3-0.8c-0.4-0.7-0.1-1.6,0.6-2l15.8-8.3c0.7-0.4,1.6-0.1,2,0.6
				c0.4,0.7,0.1,1.6-0.6,2l-15.8,8.3C497.3,773,497.1,773,496.9,773z"/>
			<path class="st1" d="M532.6,844.1c-0.5,0-1.1-0.3-1.3-0.8c-0.4-0.7-0.1-1.6,0.6-2l15.8-8.3c0.7-0.4,1.6-0.1,2,0.6
				c0.4,0.7,0.1,1.6-0.6,2l-15.8,8.3C533,844.1,532.8,844.1,532.6,844.1z"/>
			<path class="st1" d="M657.2,802.2l-15.8,8.3c-0.2,0.1-0.5,0.2-0.7,0.2c-0.5,0-1-0.3-1.3-0.8c1-1.1,1.9-2.2,2.9-3.2l13.5-7.1
				c0.7-0.4,1.6-0.1,2,0.6C658.2,800.9,658,801.8,657.2,802.2z"/>
			<path class="st1" d="M421.1,774.8c-0.1,0-0.2,0-0.4,0c-0.8-0.2-1.3-1-1.1-1.8l4.4-17.3c0.2-0.8,1-1.3,1.8-1.1
				c0.8,0.2,1.3,1,1.1,1.8l-4.4,17.3C422.4,774.4,421.8,774.8,421.1,774.8z"/>
			<path class="st1" d="M388,713.1c-0.1,0-0.2,0-0.4,0c-0.8-0.2-1.3-1-1.1-1.8l4.4-17.3c0.2-0.8,1-1.3,1.8-1.1
				c0.8,0.2,1.3,1,1.1,1.8l-4.4,17.3C389.3,712.6,388.7,713.1,388,713.1z"/>
			<path class="st1" d="M447.3,701.5c-0.6,0-1.2-0.4-1.4-1c-0.3-0.8,0.1-1.6,0.9-1.9l16.8-6.1c0.8-0.3,1.6,0.1,1.9,0.9
				c0.3,0.8-0.1,1.6-0.9,1.9l-16.8,6.1C447.7,701.4,447.5,701.5,447.3,701.5z"/>
			<path class="st1" d="M490.2,628.9c-0.6,0-1.1-0.3-1.4-0.9c-0.3-0.8,0-1.6,0.8-2L506,619c0.8-0.3,1.6,0,2,0.8c0.3,0.8,0,1.6-0.8,2
				l-16.4,7.1C490.6,628.9,490.4,628.9,490.2,628.9z"/>
			<path class="st1" d="M568.9,526.1c-0.1,0-0.3,0-0.4-0.1c-0.8-0.2-1.3-1.1-1-1.9l5-17.1c0.2-0.8,1.1-1.3,1.9-1
				c0.8,0.2,1.3,1.1,1,1.9l-5,17.1C570.2,525.6,569.6,526.1,568.9,526.1z"/>
			<path class="st1" d="M438.9,834c-0.7,0-1.3-0.4-1.4-1.1c-0.2-0.8,0.2-1.6,1-1.8l17.2-4.7c0.8-0.2,1.6,0.2,1.8,1
				c0.2,0.8-0.2,1.6-1,1.8l-17.2,4.7C439.2,834,439.1,834,438.9,834z"/>
			<path class="st1" d="M371,836.7c-0.2,0-0.5-0.1-0.7-0.2c-0.7-0.4-1-1.3-0.6-2l8.3-15.8c0.4-0.7,1.3-1,2-0.6c0.7,0.4,1,1.3,0.6,2
				l-8.3,15.8C372.1,836.4,371.6,836.7,371,836.7z"/>
			<path class="st1" d="M299.8,834.6c-0.7,0-1.3-0.5-1.5-1.2c-0.1-0.8,0.4-1.6,1.2-1.7l17.6-3.1c0.8-0.1,1.6,0.4,1.7,1.2
				c0.1,0.8-0.4,1.6-1.2,1.7l-17.6,3.1C300,834.5,299.9,834.6,299.8,834.6z"/>
			<path class="st1" d="M354.5,770.4c-0.7,0-1.3-0.5-1.5-1.2c-0.2-0.8,0.3-1.6,1.1-1.8l17.4-4.1c0.8-0.2,1.6,0.3,1.8,1.1
				s-0.3,1.6-1.1,1.8l-17.4,4.1C354.7,770.4,354.6,770.4,354.5,770.4z"/>
			<path class="st1" d="M245.4,980.7l2.3-7c0.3-0.8,1.1-1.2,1.9-1c0.8,0.2,1.2,1.1,1,1.9l-2.1,6.5L245.4,980.7z"/>
			<path class="st1" d="M254.1,902.3c-0.5,0-1.1-0.3-1.3-0.8c-0.4-0.7-0.1-1.6,0.6-2l15.8-8.4c0.7-0.4,1.6-0.1,2,0.6
				c0.4,0.7,0.1,1.6-0.6,2l-15.8,8.4C254.6,902.3,254.4,902.3,254.1,902.3z"/>
			<path class="st1" d="M174.8,887.8c-0.1,0-0.3,0-0.4-0.1l-17.1-5.2c-0.8-0.2-1.2-1.1-1-1.9c0.2-0.8,1.1-1.2,1.9-1l17.1,5.2
				c0.8,0.2,1.2,1.1,1,1.9C176,887.4,175.4,887.8,174.8,887.8z"/>
			<path class="st1" d="M341.3,909.3c-0.1,0-0.2,0-0.4,0c-0.8-0.2-1.3-1-1.1-1.8l4.3-17.3c0.2-0.8,1-1.3,1.8-1.1
				c0.8,0.2,1.3,1,1.1,1.8l-4.3,17.3C342.6,908.9,341.9,909.3,341.3,909.3z"/>
			<path class="st1" d="M302.8,971.5c-0.6,0-1.2-0.4-1.4-1c-0.3-0.8,0.1-1.6,0.9-1.9l16.8-6.1c0.8-0.3,1.6,0.1,1.9,0.9
				c0.3,0.8-0.1,1.6-0.9,1.9l-16.8,6.1C303.1,971.5,303,971.5,302.8,971.5z"/>
			<path class="st1" d="M394.9,900.5c-0.7,0-1.3-0.5-1.5-1.1c-0.2-0.8,0.3-1.6,1.1-1.8l17.3-4.2c0.8-0.2,1.6,0.3,1.8,1.1
				s-0.3,1.6-1.1,1.8l-17.3,4.2C395.1,900.4,395,900.5,394.9,900.5z"/>
			<path class="st1" d="M652.9,986.8l-3.3,10c-1-0.1-2-0.1-3.1-0.2l3.6-10.8c0.3-0.8,1.1-1.2,1.9-0.9
				C652.7,985.1,653.1,986,652.9,986.8z"/>
			<path class="st1" d="M1005.7,143.3c-0.2,0-0.4,0-0.6-0.1l-16.2-7.4c-0.8-0.3-1.1-1.2-0.7-2c0.3-0.8,1.2-1.1,2-0.7l16.2,7.4
				c0.8,0.3,1.1,1.2,0.7,2C1006.8,142.9,1006.3,143.3,1005.7,143.3z"/>
			<path class="st1" d="M908.2,88.5c-0.8,0-1.4-0.6-1.5-1.3c-0.1-0.8,0.5-1.6,1.3-1.7l17.7-1.9c0.8-0.1,1.6,0.5,1.7,1.3
				c0.1,0.8-0.5,1.6-1.3,1.7l-17.7,1.9C908.3,88.4,908.2,88.5,908.2,88.5z"/>
			<path class="st1" d="M864.3,165.1c-0.8,0-1.4-0.6-1.5-1.3c-0.1-0.8,0.5-1.6,1.3-1.7l17.7-1.9c0.8-0.1,1.6,0.5,1.7,1.3
				s-0.5,1.6-1.3,1.7l-17.7,1.9C864.4,165.1,864.4,165.1,864.3,165.1z"/>
			<path class="st1" d="M575,947.5c-0.8,0-1.4-0.6-1.5-1.3c-0.1-0.8,0.5-1.6,1.3-1.7l17.7-1.9c0.8-0.1,1.6,0.5,1.7,1.3
				c0.1,0.8-0.5,1.6-1.3,1.7l-17.7,1.9C575.1,947.5,575.1,947.5,575,947.5z"/>
			<path class="st1" d="M1108.6,149.6l-6.2,7.2c-0.6-0.8-1.2-1.6-1.9-2.4l5.8-6.8c0.5-0.6,1.5-0.7,2.1-0.2
				C1109.1,148,1109.2,149,1108.6,149.6z"/>
			<path class="st1" d="M1159.1,146.2c-0.6,0-1.2-0.4-1.4-1l-6.4-16.6c-0.3-0.8,0.1-1.6,0.9-1.9c0.8-0.3,1.6,0.1,1.9,0.9l6.4,16.6
				c0.3,0.8-0.1,1.6-0.9,1.9C1159.5,146.2,1159.3,146.2,1159.1,146.2z"/>
			<path class="st1" d="M1028,78.9c-1.6-1.4-3.2-2.8-4.8-4.1l-4.1-10.6c-0.3-0.8,0.1-1.6,0.9-1.9c0.8-0.3,1.6,0.1,1.9,0.9L1028,78.9
				z"/>
			<path class="st1" d="M1189.3,228.9L1189.3,228.9c-0.6,1.2-1.3,2.3-1.9,3.4l-6-15.6c-0.3-0.8,0.1-1.6,0.8-1.9
				c0.8-0.3,1.7,0.1,1.9,0.9L1189.3,228.9z"/>
			<path class="st1" d="M1138.9,34.8c-0.2,0.1-0.4,0.1-0.5,0.1c-0.6,0-1.2-0.4-1.4-1l-4-10.3c1.3,0.6,2.6,1.2,4,1.9h0l2.8,7.3
				C1140,33.7,1139.7,34.5,1138.9,34.8z"/>
			<path class="st1" d="M1101.6,79.8c-0.2,0-0.4,0-0.6-0.1c-0.8-0.3-1.1-1.2-0.8-2l7.1-16.4c0.3-0.8,1.2-1.1,2-0.8
				c0.8,0.3,1.1,1.2,0.8,2l-7.1,16.4C1102.8,79.5,1102.2,79.8,1101.6,79.8z"/>
			<path class="st1" d="M1009.3,18.2l-5.8,13.3c-0.2,0.6-0.8,0.9-1.4,0.9c-0.2,0-0.4,0-0.6-0.1c-0.8-0.3-1.1-1.2-0.8-2l4.5-10.3
				C1006.5,19.3,1007.9,18.7,1009.3,18.2z"/>
			<path class="st1" d="M1077.4,248.9c-0.2,0-0.4,0-0.5-0.1l-16.7-6.3c-0.8-0.3-1.2-1.2-0.9-1.9c0.3-0.8,1.2-1.2,1.9-0.9l16.7,6.3
				c0.8,0.3,1.2,1.2,0.9,1.9C1078.6,248.5,1078,248.9,1077.4,248.9z"/>
			<path class="st1" d="M1007.5,214.4c-0.7,0-1.3-0.5-1.5-1.2l-4.1-17.4c-0.2-0.8,0.3-1.6,1.1-1.8c0.8-0.2,1.6,0.3,1.8,1.1l4.1,17.4
				c0.2,0.8-0.3,1.6-1.1,1.8C1007.8,214.4,1007.7,214.4,1007.5,214.4z"/>
			<path class="st1" d="M1166.3,88.2c-0.7,0-1.3-0.5-1.5-1.2l-4.1-17.4c-0.2-0.8,0.3-1.6,1.1-1.8c0.8-0.2,1.6,0.3,1.8,1.1l4.1,17.4
				c0.2,0.8-0.3,1.6-1.1,1.8C1166.5,88.2,1166.4,88.2,1166.3,88.2z"/>
			<path class="st1" d="M1054.2,43.6c-0.7,0-1.3-0.5-1.5-1.2l-4.1-17.4c-0.2-0.8,0.3-1.6,1.1-1.8c0.8-0.2,1.6,0.3,1.8,1.1l4.1,17.4
				c0.2,0.8-0.3,1.6-1.1,1.8C1054.4,43.6,1054.3,43.6,1054.2,43.6z"/>
			<path class="st1" d="M940.4,163.5c-0.6,0-1.2-0.4-1.4-1.1l-5.1-17.1c-0.2-0.8,0.2-1.6,1-1.9c0.8-0.2,1.6,0.2,1.9,1l5.1,17.1
				c0.2,0.8-0.2,1.6-1,1.9C940.7,163.5,940.6,163.5,940.4,163.5z"/>
			<path class="st1" d="M847.4,73.4c-0.2,0-0.4,0-0.6-0.1l-16.5-6.9c-0.8-0.3-1.1-1.2-0.8-2c0.3-0.8,1.2-1.1,2-0.8l16.5,6.9
				c0.8,0.3,1.1,1.2,0.8,2C848.5,73.1,847.9,73.4,847.4,73.4z"/>
			<path class="st1" d="M1133.1,305.8c-0.3,0-0.6-0.1-0.8-0.3l-14.7-10.1c-0.7-0.5-0.9-1.4-0.4-2.1c0.5-0.7,1.4-0.9,2.1-0.4
				l14.7,10.1c0.7,0.5,0.9,1.4,0.4,2.1C1134,305.6,1133.6,305.8,1133.1,305.8z"/>
			<path class="st1" d="M1203.5,122.5l-9.5-6.5c-0.7-0.5-0.9-1.4-0.4-2.1c0.5-0.7,1.4-0.9,2.1-0.4l7.2,4.9v0
				C1203,119.8,1203.3,121.2,1203.5,122.5z"/>
			<path class="st1" d="M1122.7,376.3c-0.8,0-1.4-0.6-1.5-1.4l-1.1-17.8c0-0.8,0.6-1.5,1.4-1.6c0.8,0,1.5,0.6,1.6,1.4l1.1,17.8
				C1124.3,375.5,1123.6,376.3,1122.7,376.3C1122.8,376.3,1122.8,376.3,1122.7,376.3z"/>
			<path class="st1" d="M1065.3,314.6c-0.7,0-1.4-0.6-1.5-1.3l-2.1-17.7c-0.1-0.8,0.5-1.6,1.3-1.7c0.8-0.1,1.6,0.5,1.7,1.3l2.1,17.7
				c0.1,0.8-0.5,1.6-1.3,1.7C1065.5,314.6,1065.4,314.6,1065.3,314.6z"/>
			<path class="st1" d="M923.9,482.1c-0.6,0-1.2-0.4-1.4-1l-5.7-16.9c-0.3-0.8,0.2-1.6,0.9-1.9c0.8-0.3,1.6,0.2,1.9,0.9l5.7,16.9
				c0.3,0.8-0.2,1.6-0.9,1.9C924.2,482.1,924,482.1,923.9,482.1z"/>
			<path class="st1" d="M974.3,539.6c-0.4,0-0.9-0.2-1.2-0.6L962,525.2c-0.5-0.6-0.4-1.6,0.2-2.1c0.6-0.5,1.6-0.4,2.1,0.2l11.2,13.9
				c0.5,0.6,0.4,1.6-0.2,2.1C975,539.5,974.7,539.6,974.3,539.6z"/>
			<path class="st1" d="M1015.9,590.6c-0.1,0-0.3,0-0.4-0.1c-0.8-0.2-1.3-1-1.1-1.8l4.6-17.2c0.2-0.8,1-1.3,1.8-1.1
				c0.8,0.2,1.3,1,1.1,1.8l-4.6,17.2C1017.2,590.2,1016.6,590.6,1015.9,590.6z"/>
			<path class="st1" d="M889.5,554.1c-0.2,0-0.3,0-0.5-0.1c-0.8-0.3-1.2-1.1-0.9-1.9l5.7-16.9c0.3-0.8,1.1-1.2,1.9-0.9
				c0.8,0.3,1.2,1.1,0.9,1.9l-5.7,16.9C890.7,553.7,890.1,554.1,889.5,554.1z"/>
			<path class="st1" d="M928,404.9c-0.2,0-0.4,0-0.6-0.1l-16.2-7.4c-0.8-0.3-1.1-1.2-0.7-2c0.3-0.8,1.2-1.1,2-0.7l16.2,7.4
				c0.8,0.3,1.1,1.2,0.7,2C929.1,404.6,928.6,404.9,928,404.9z"/>
			<path class="st1" d="M984.3,314.7c-0.2,0-0.4,0-0.6-0.1l-16.2-7.4c-0.8-0.3-1.1-1.2-0.7-2c0.3-0.8,1.2-1.1,2-0.7l16.2,7.4
				c0.8,0.3,1.1,1.2,0.7,2C985.4,314.4,984.8,314.7,984.3,314.7z"/>
			<path class="st1" d="M991.5,454.4c-0.8,0-1.4-0.6-1.5-1.3c-0.1-0.8,0.5-1.6,1.3-1.6l17.7-1.9c0.8-0.1,1.6,0.5,1.6,1.3
				c0.1,0.8-0.5,1.6-1.3,1.6l-17.7,1.9C991.6,454.4,991.5,454.4,991.5,454.4z"/>
			<path class="st1" d="M1035.5,377.8c-0.8,0-1.4-0.6-1.5-1.3c-0.1-0.8,0.5-1.6,1.3-1.6l17.7-1.9c0.8-0.1,1.6,0.5,1.6,1.3
				c0.1,0.8-0.5,1.6-1.3,1.6l-17.7,1.9C1035.6,377.8,1035.5,377.8,1035.5,377.8z"/>
			<path class="st1" d="M938,608c-0.8,0-1.4-0.6-1.5-1.3c-0.1-0.8,0.5-1.6,1.3-1.6l17.7-1.9c0.8-0.1,1.6,0.5,1.6,1.3
				c0.1,0.8-0.5,1.6-1.3,1.6l-17.7,1.9C938.1,608,938,608,938,608z"/>
			<path class="st1" d="M839.6,383.7c-0.6,0-1.2-0.4-1.4-1l-6.4-16.6c-0.3-0.8,0.1-1.6,0.9-1.9s1.6,0.1,1.9,0.9l6.4,16.6
				c0.3,0.8-0.1,1.6-0.9,1.9C840,383.7,839.8,383.7,839.6,383.7z"/>
			<path class="st1" d="M785.9,522.1c-0.2,0.1-0.4,0.1-0.5,0.1c-0.4,0-0.9-0.2-1.1-0.5c0.4-1.8,0.7-3.6,1.1-5.3l1.5,3.8
				C787,521,786.7,521.8,785.9,522.1z"/>
			<path class="st1" d="M808.6,477.1c-0.2,0-0.4,0-0.6-0.1c-0.8-0.3-1.1-1.2-0.8-2l7.2-16.3c0.3-0.8,1.2-1.1,2-0.8
				c0.8,0.3,1.1,1.2,0.8,2l-7.2,16.3C809.7,476.8,809.2,477.1,808.6,477.1z"/>
			<path class="st1" d="M854.2,518.8c-0.6,0-1.1-0.3-1.4-0.8l-7.8-16.1c-0.4-0.7,0-1.6,0.7-2c0.7-0.4,1.6-0.1,2,0.7l7.8,16.1
				c0.4,0.7,0,1.6-0.7,2C854.6,518.7,854.4,518.8,854.2,518.8z"/>
			<path class="st1" d="M857,298.1c-0.2,0-0.4,0-0.5-0.1l-16.7-6.4c-0.8-0.3-1.2-1.2-0.9-1.9c0.3-0.8,1.2-1.2,1.9-0.9l16.7,6.4
				c0.8,0.3,1.2,1.2,0.9,1.9C858.2,297.7,857.6,298.1,857,298.1z"/>
			<path class="st1" d="M922.2,272.4c-0.2,0-0.4,0-0.5-0.1L905,266c-0.8-0.3-1.2-1.2-0.9-1.9c0.3-0.8,1.2-1.2,1.9-0.9l16.7,6.4
				c0.8,0.3,1.2,1.2,0.9,1.9C923.4,272.1,922.8,272.4,922.2,272.4z"/>
			<path class="st1" d="M914.2,343.7c-0.7,0-1.3-0.5-1.5-1.2l-4.1-17.4c-0.2-0.8,0.3-1.6,1.1-1.8c0.8-0.2,1.6,0.3,1.8,1.1l4.1,17.4
				c0.2,0.8-0.3,1.6-1.1,1.8C914.4,343.7,914.3,343.7,914.2,343.7z"/>
			<path class="st1" d="M982.2,394.5c-0.6,0-1.2-0.4-1.4-1.1l-5.1-17.1c-0.2-0.8,0.2-1.6,1-1.9c0.8-0.2,1.6,0.2,1.9,1l5.1,17.1
				c0.2,0.8-0.2,1.6-1,1.9C982.5,394.5,982.3,394.5,982.2,394.5z"/>
			<path class="st1" d="M1086.4,474.6c-0.2,0-0.4,0-0.6-0.1l-16.4-6.9c-0.8-0.3-1.1-1.2-0.8-2c0.3-0.8,1.2-1.1,2-0.8l16.4,6.9
				c0.8,0.3,1.1,1.2,0.8,2C1087.6,474.2,1087,474.6,1086.4,474.6z"/>
			<path class="st1" d="M799.5,244.8c-0.3,0-0.6-0.1-0.8-0.3l-14.7-10.1c-0.7-0.5-0.9-1.4-0.4-2.1c0.5-0.7,1.4-0.9,2.1-0.4
				l14.7,10.1c0.7,0.5,0.9,1.4,0.4,2.1C800.4,244.5,799.9,244.8,799.5,244.8z"/>
			<path class="st1" d="M722.7,424.1c-0.3,0-0.6-0.1-0.8-0.3l-14.7-10.1c-0.7-0.5-0.9-1.4-0.4-2.1c0.5-0.7,1.4-0.9,2.1-0.4
				l14.7,10.1c0.7,0.5,0.9,1.4,0.4,2.1C723.6,423.9,723.2,424.1,722.7,424.1z"/>
			<path class="st1" d="M796.3,182c-0.8,0-1.5-0.6-1.5-1.4l-1-17.8c0-0.8,0.6-1.5,1.4-1.6c0.8,0,1.5,0.6,1.6,1.4l1,17.8
				C797.8,181.3,797.2,182,796.3,182C796.3,182,796.3,182,796.3,182z"/>
			<path class="st1" d="M854.6,243.7c-0.8,0-1.4-0.6-1.5-1.3l-2.1-17.7c-0.1-0.8,0.5-1.6,1.3-1.7c0.8-0.1,1.6,0.5,1.7,1.3l2.1,17.7
				c0.1,0.8-0.5,1.6-1.3,1.7C854.7,243.7,854.7,243.7,854.6,243.7z"/>
			<path class="st1" d="M1084.5,939.3c-0.8,0-1.4-0.6-1.5-1.4c-0.1-0.8,0.6-1.5,1.4-1.6l17.8-1.1c0.8-0.1,1.5,0.6,1.6,1.4
				c0.1,0.8-0.6,1.5-1.4,1.6L1084.5,939.3C1084.6,939.3,1084.6,939.3,1084.5,939.3z"/>
			<path class="st1" d="M1077.8,1005.4c-1.1,0.5-2.2,1-3.3,1.4l-11.1-7.3c-0.7-0.5-0.9-1.4-0.4-2.1c0.4-0.7,1.4-0.9,2.1-0.4
				L1077.8,1005.4z"/>
			<path class="st1" d="M1017.5,928.1c-0.3,0-0.7-0.1-1-0.3c-0.6-0.5-0.7-1.5-0.2-2.1l11.3-13.8c0.5-0.6,1.5-0.7,2.1-0.2
				c0.6,0.5,0.7,1.5,0.2,2.1l-11.3,13.8C1018.4,927.9,1017.9,928.1,1017.5,928.1z"/>
			<path class="st1" d="M1092.9,865.7c-0.1,0-0.2,0-0.2,0c-0.8-0.1-1.4-0.9-1.2-1.7l2.8-17.6c0.1-0.8,0.9-1.4,1.7-1.2
				c0.8,0.1,1.4,0.9,1.2,1.7l-2.8,17.6C1094.3,865.2,1093.7,865.7,1092.9,865.7z"/>
			<path class="st1" d="M1030.2,803.5c-0.1,0-0.2,0-0.2,0c-0.8-0.1-1.4-0.9-1.2-1.7l2.8-17.6c0.1-0.8,0.9-1.4,1.7-1.2
				c0.8,0.1,1.4,0.9,1.2,1.7l-2.8,17.6C1031.6,803,1030.9,803.5,1030.2,803.5z"/>
			<path class="st1" d="M985.8,994.3l-2.3,0.2c-0.6-0.9-1.2-1.9-1.8-2.8l3.7-0.4c0.8-0.1,1.6,0.5,1.7,1.3
				C987.3,993.5,986.7,994.2,985.8,994.3z"/>
			<path class="st1" d="M1125.9,793.2c-0.3,0-0.6-0.1-0.9-0.3c-0.7-0.5-0.8-1.4-0.3-2.1l10.9-14.1c0.5-0.7,1.5-0.8,2.1-0.3
				c0.7,0.5,0.8,1.4,0.3,2.1l-10.9,14.1C1126.8,793,1126.4,793.2,1125.9,793.2z"/>
			<path class="st1" d="M780.9,982.3c-1.7,0.5-3.4,1-5.1,1.4h0l-14-2.9c-0.8-0.2-1.3-1-1.2-1.8c0.2-0.8,1-1.3,1.8-1.2l17.5,3.6
				C780.4,981.5,780.8,981.9,780.9,982.3z"/>
			<path class="st1" d="M854.2,943.9c-0.1,0-0.1,0-0.2,0l-17.7-2.5c-0.8-0.1-1.4-0.9-1.3-1.7c0.1-0.8,0.9-1.4,1.7-1.3l17.7,2.5
				c0.8,0.1,1.4,0.9,1.3,1.7C855.6,943.4,855,943.9,854.2,943.9z"/>
			<path class="st1" d="M711.4,761.4c-0.8,0-1.4-0.6-1.5-1.4c-0.1-0.8,0.6-1.5,1.4-1.6l17.8-1.1c0.9,0,1.5,0.6,1.6,1.4
				c0.1,0.8-0.6,1.5-1.4,1.6L711.4,761.4C711.5,761.4,711.4,761.4,711.4,761.4z"/>
			<path class="st1" d="M652.9,733c-0.6,0.8-1.1,1.7-1.7,2.5l-14.1-9.4c-0.7-0.5-0.9-1.4-0.4-2.1c0.5-0.7,1.4-0.9,2.1-0.4L652.9,733
				z"/>
			<path class="st1" d="M784.8,785.3c-0.3,0-0.7-0.1-1-0.3c-0.6-0.5-0.7-1.5-0.2-2.1l11.4-13.7c0.5-0.6,1.5-0.7,2.1-0.2
				c0.6,0.5,0.7,1.5,0.2,2.1L786,784.8C785.7,785.2,785.3,785.3,784.8,785.3z"/>
			<path class="st1" d="M857.4,863c-0.3,0-0.7-0.1-1-0.3c-0.6-0.5-0.7-1.5-0.2-2.1l11.4-13.7c0.5-0.6,1.5-0.7,2.1-0.2
				c0.6,0.5,0.7,1.5,0.2,2.1l-11.4,13.7C858.3,862.8,857.9,863,857.4,863z"/>
			<path class="st1" d="M717.9,851.5c-0.1,0-0.2,0-0.2,0c-0.8-0.1-1.4-0.9-1.2-1.7l2.8-17.6c0.1-0.8,0.9-1.4,1.7-1.2
				c0.8,0.1,1.4,0.9,1.2,1.7l-2.8,17.6C719.2,850.9,718.6,851.5,717.9,851.5z"/>
			<path class="st1" d="M780.5,913.8c-0.1,0-0.2,0-0.2,0c-0.8-0.1-1.4-0.9-1.2-1.7l2.8-17.6c0.1-0.8,0.9-1.4,1.7-1.2
				c0.8,0.1,1.4,0.9,1.2,1.7l-2.8,17.6C781.9,913.3,781.2,913.8,780.5,913.8z"/>
			<path class="st1" d="M583.3,760c-0.1,0-0.2,0-0.2,0c-0.8-0.1-1.4-0.9-1.2-1.7l2.8-17.6c0.1-0.8,0.9-1.4,1.7-1.2
				c0.8,0.1,1.4,0.9,1.2,1.7l-2.8,17.6C584.7,759.5,584,760,583.3,760z"/>
			<path class="st1" d="M828.2,705.4c-0.8,0-1.4-0.6-1.5-1.3c-0.1-0.8,0.5-1.6,1.3-1.6l17.7-1.9c0.8-0.1,1.6,0.5,1.6,1.3
				c0.1,0.8-0.5,1.6-1.3,1.6l-17.7,1.9C828.3,705.4,828.2,705.4,828.2,705.4z"/>
			<path class="st1" d="M821.4,626.2c-0.8,0-1.4-0.6-1.5-1.3c-0.1-0.8,0.5-1.6,1.3-1.6l17.7-1.9c0.8-0.1,1.6,0.5,1.6,1.3
				c0.1,0.8-0.5,1.6-1.3,1.6l-17.7,1.9C821.5,626.2,821.4,626.2,821.4,626.2z"/>
			<path class="st1" d="M713.2,613.7c-0.4,1.1-0.8,2.1-1.2,3.1l-3.4,0.4c-0.1,0-0.1,0-0.2,0c-0.8,0-1.4-0.6-1.5-1.3
				c-0.1-0.8,0.5-1.6,1.3-1.7L713.2,613.7z"/>
			<path class="st1" d="M760,662.4c-0.3,0-0.7-0.1-0.9-0.3L745.1,651c-0.6-0.5-0.8-1.5-0.2-2.1c0.5-0.6,1.5-0.8,2.1-0.2l13.9,11.1
				c0.6,0.5,0.8,1.5,0.2,2.1C760.9,662.2,760.4,662.4,760,662.4z"/>
			<path class="st1" d="M906.5,744.4c-0.3,0-0.6-0.1-0.9-0.3c-0.7-0.5-0.8-1.4-0.3-2.1l10.5-14.5c0.5-0.7,1.4-0.8,2.1-0.3
				c0.7,0.5,0.8,1.4,0.3,2.1l-10.5,14.5C907.4,744.2,906.9,744.4,906.5,744.4z"/>
			<path class="st1" d="M914.4,814c-0.3,0-0.6-0.1-0.9-0.3c-0.7-0.5-0.8-1.4-0.3-2.1l10.5-14.5c0.5-0.7,1.4-0.8,2.1-0.3
				c0.7,0.5,0.8,1.4,0.3,2.1l-10.5,14.5C915.3,813.8,914.8,814,914.4,814z"/>
			<path class="st1" d="M865.4,788.4C865.4,788.4,865.4,788.4,865.4,788.4l-17.9-0.6c-0.8,0-1.5-0.7-1.5-1.5c0-0.8,0.7-1.5,1.5-1.5
				l17.8,0.6c0.8,0,1.5,0.7,1.5,1.5C866.9,787.7,866.2,788.4,865.4,788.4z"/>
			<path class="st1" d="M784.9,602.2C784.9,602.2,784.9,602.2,784.9,602.2l-17.9-0.6c-0.8,0-1.5-0.7-1.5-1.5c0-0.8,0.7-1.5,1.5-1.5
				l17.8,0.6c0.8,0,1.5,0.7,1.5,1.5C786.4,601.6,785.7,602.2,784.9,602.2z"/>
			<path class="st1" d="M780.9,840.4c-0.8,0-1.5-0.6-1.5-1.5c0-0.8,0.6-1.5,1.5-1.5l17.8-0.5c0,0,0,0,0,0c0.8,0,1.5,0.6,1.5,1.5
				c0,0.8-0.6,1.5-1.5,1.5L780.9,840.4C780.9,840.4,780.9,840.4,780.9,840.4z"/>
			<path class="st1" d="M676.6,920.3c-0.3,0-0.6-0.1-0.9-0.3c-0.7-0.5-0.8-1.5-0.3-2.1l11-14.1c0.5-0.7,1.5-0.8,2.1-0.3
				c0.7,0.5,0.8,1.5,0.3,2.1l-11,14.1C677.5,920.1,677,920.3,676.6,920.3z"/>
			<path class="st1" d="M922.3,668.4c-0.1,0-0.1,0-0.2,0l-17.7-2c-0.8-0.1-1.4-0.8-1.3-1.7c0.1-0.8,0.8-1.4,1.7-1.3l17.7,2
				c0.8,0.1,1.4,0.8,1.3,1.7C923.7,667.8,923.1,668.4,922.3,668.4z"/>
			<path class="st1" d="M972.9,702.6c-0.4,0-0.8-0.2-1.1-0.5c-0.5-0.6-0.5-1.6,0.2-2.1l13.6-11.6c0.6-0.5,1.6-0.5,2.1,0.2
				c0.5,0.6,0.5,1.6-0.2,2.1l-13.6,11.6C973.5,702.5,973.2,702.6,972.9,702.6z"/>
			<path class="st1" d="M1167.6,538.1c-0.4,0-0.9-0.2-1.2-0.6l-11.2-13.9c-0.5-0.6-0.4-1.6,0.2-2.1c0.6-0.5,1.6-0.4,2.1,0.2
				l11.2,13.9c0.5,0.6,0.4,1.6-0.2,2.1C1168.3,537.9,1167.9,538.1,1167.6,538.1z"/>
			<path class="st1" d="M1154.6,453.4c-0.4,0-0.9-0.2-1.2-0.6l-11.2-13.9c-0.5-0.6-0.4-1.6,0.2-2.1c0.6-0.5,1.6-0.4,2.1,0.2
				l11.2,13.9c0.5,0.6,0.4,1.6-0.2,2.1C1155.3,453.3,1155,453.4,1154.6,453.4z"/>
			<path class="st1" d="M1082.8,552.6c-0.2,0-0.3,0-0.5-0.1c-0.8-0.3-1.2-1.1-0.9-1.9l5.7-16.9c0.3-0.8,1.1-1.2,1.9-0.9
				c0.8,0.3,1.2,1.1,0.9,1.9l-5.7,16.9C1084,552.2,1083.4,552.6,1082.8,552.6z"/>
			<path class="st1" d="M1131.3,606.5c-0.8,0-1.4-0.6-1.5-1.3c-0.1-0.8,0.5-1.6,1.3-1.6l17.7-1.9c0.8-0.1,1.6,0.5,1.6,1.3
				c0.1,0.8-0.5,1.6-1.3,1.6l-17.7,1.9C1131.4,606.5,1131.3,606.5,1131.3,606.5z"/>
			<path class="st1" d="M1115.6,666.9c-0.1,0-0.1,0-0.2,0l-17.7-2c-0.8-0.1-1.4-0.8-1.3-1.7s0.8-1.4,1.7-1.3l17.7,2
				c0.8,0.1,1.4,0.8,1.3,1.7C1117,666.3,1116.4,666.9,1115.6,666.9z"/>
			<path class="st1" d="M819.5,582c-0.4,0-0.8-0.2-1.1-0.5c-0.5-0.6-0.5-1.6,0.2-2.1l13.6-11.6c0.6-0.5,1.6-0.5,2.1,0.2
				c0.5,0.6,0.5,1.6-0.2,2.1l-13.6,11.6C820.2,581.9,819.8,582,819.5,582z"/>
			<path class="st1" d="M1051.7,719.4c-0.1,0-0.2,0-0.3,0l-17.5-3.6c-0.8-0.2-1.3-1-1.2-1.8c0.2-0.8,1-1.3,1.8-1.2l17.5,3.6
				c0.8,0.2,1.3,1,1.2,1.8C1053,718.9,1052.4,719.4,1051.7,719.4z"/>
			<path class="st1" d="M977.2,758.7c-0.1,0-0.1,0-0.2,0l-17.7-2.6c-0.8-0.1-1.4-0.9-1.3-1.7c0.1-0.8,0.9-1.4,1.7-1.3l17.7,2.6
				c0.8,0.1,1.4,0.9,1.3,1.7C978.6,758.2,977.9,758.7,977.2,758.7z"/>
		</g>
		<g id="lines">
			<path class="st1" d="M267,4.3c-0.7-0.9-2.3-3-5.1-3.8c-0.4-0.1-4.1-1.2-5.1,0.4c-0.7,1.1,0.1,3.2,1.9,4.8
				c8.6,7.6,50.2,45.8,48.4,100.7c-1.5,44.7-31.1,78.5-40.9,81.8c-9.5,3.2-15.6,0.5-23.3-2.8c-6.9-3-14.8-6.4-26.2-6
				c-36.2,1.3-63.3,39-87.3,72.3c-17.8,24.8-34.6,48.1-48.7,44.6c-3.6-0.9-5.9-2.5-12.3-6.7c-4.7-3.1-11.8-7.8-23.1-14.6
				c-6.5-3.9-13.6-7.3-21.9-10.3c-7.1-2.6-13.6-4.5-19.5-5.8c-1.9,0-3.5,1-3.9,2.4c-0.6,1.8,1,4.4,3.9,4.8
				c6.9,1.6,12.7,3.5,17.1,5.2c7.9,2.9,14.7,6.1,20.8,9.8c11.1,6.7,17.9,11.2,22.8,14.5c6.7,4.4,9.7,6.4,14.4,7.6
				c1.6,0.4,3.2,0.6,4.7,0.6c16.9,0,33-22.4,51.4-47.9c23-32,49.1-68.2,81.9-69.4c9.8-0.4,16.6,2.6,23.1,5.4
				c8,3.5,16.3,7.1,28.3,3.1c29.2-9.8,45.3-52.8,45.7-88.3C314.5,63.9,290.9,29,267,4.3z"/>
			<path class="st1" d="M984,523.7c2.5-0.4,4.8-0.6,7.1-0.6c9.9,0,17.9,3.7,26.3,7.7c11.4,5.3,24.4,11.3,43.5,8.4
				c26.8-4.2,41.1-21.8,53.6-37.3c10.3-12.8,19.2-23.8,33.1-25.6c25.1-3.2,50,25.4,53.5,21.5c1-1-0.2-3.7-1.7-6.2
				c-2.7-2.6-6.5-5.9-11.3-9c-7.8-5.1-14.5-7.5-16.6-8.3c-8.8-3.5-17.2-4.8-24.7-3.9c-16.3,2.1-26.3,14.6-37,27.8
				c-12.4,15.4-25.3,31.4-49.9,35.2c-17.3,2.7-28.9-2.7-40.1-7.9c-10.7-5-21.8-10.1-37-7.5c-29.4,5.1-59.6,37.6-76.9,82.8
				c-7.4,19.3-11.4,38.6-11.7,55.9c-0.3,18.9,4,34.6,12.5,45.3c10.9,13.8,25.2,15.3,40.3,16.9c15.5,1.6,33.1,3.5,50.5,19.5
				c17.7,16.2,23.4,36,28.5,53.5c5.4,18.6,10.5,36.2,28.6,45.3c7.1,3.6,14.5,5,22,5c15.6,0,31.6-6.2,46.3-11.9
				c13.5-5.2,44.8-17.4,75.8-40.1c0.6-0.3,1.7-0.9,2.5-2.2c0.9-1.3,1.9-3.9,0.7-5c-0.9-0.8-3-0.6-4.8,0.8
				c-29.6,21.7-56.9,33.8-76.4,40.8c-26.8,9.7-46.5,15.7-63.5,7.1c-15.8-8-20.3-23.5-25.5-41.6c-5.3-18.3-11.3-39-30.2-56.3
				c-18.9-17.3-37.5-19.3-54-21c-14.4-1.5-26.9-2.8-36.2-14.7c-14.9-18.8-14.9-56.2,0.1-95.4C928.2,559.5,956.6,528.5,984,523.7z"/>
			<path class="st1" d="M767.8,287.1c-34.1,0-68.8-16.8-80-41.3c-4.6-10.2-3.4-18.2-2.1-26.6c1.3-8.5,2.7-17.4-1.3-30.3
				c-6.4-21.2-21-32.8-32.7-42.1c-10.6-8.4-19-15.1-17.3-25.4c1.5-9.3,9.6-13.1,27.4-21.4c11.6-5.4,27.5-12.8,48.6-25
				c8.9-5.2,14.3-9.1,19.1-12.6c6-4.3,10.7-7.8,19.5-11.6c16.7-7.3,44.6-19.6,65-9.2c12.3,6.3,14.8,17,17.7,29.4
				c2.5,10.5,5.2,22.4,14.6,34.5c17.2,22,42.8,27.2,63.4,31.4c16.6,3.3,29.7,6,31.9,16.6l0,0c2.1,10-7.4,17.1-28.1,32.7
				c-11.2,8.4-25.1,18.9-42.6,33.7c-20.4,17.3-33.2,29.9-42.5,39.1c-15,14.8-21.9,21.6-38.1,25.6C783,286.3,775.4,287.1,767.8,287.1
				z M795.7,41.5c-15.9,0-33.4,7.7-45.2,12.9c-8.4,3.7-13,7-18.8,11.2c-4.9,3.5-10.4,7.5-19.4,12.8c-21.2,12.3-37.2,19.8-48.9,25.2
				c-16.5,7.7-24,11.2-25.1,18.4c-1.3,8,5.9,13.7,15.9,21.7c12.1,9.7,27.3,21.8,34.1,44.1c4.2,13.8,2.7,23.5,1.4,32.1
				c-1.2,8.2-2.3,15.2,1.8,24.3c13,28.4,59.7,45.8,97.9,36.5c15.1-3.7,21.3-9.8,36.2-24.5c9.4-9.3,22.2-21.9,42.8-39.3
				c17.6-14.9,31.5-25.4,42.7-33.8c19.3-14.5,28.1-21.2,26.5-28.7c-1.7-8.1-13.6-10.5-28.8-13.5c-21.2-4.3-47.7-9.6-65.8-32.8
				c-9.9-12.7-12.8-25.1-15.4-36c-2.8-11.9-5-21.3-15.6-26.7C807,42.5,801.5,41.5,795.7,41.5z"/>
		</g>
		<g id="floor_lines">
			<g>
				<path class="st2" d="M1185.1,932l-616.4-0.1c-0.1-0.5-0.5-0.9-1-0.9c-0.5,0-0.9,0.4-1,0.9l-72.8,0c-0.1-0.4-0.5-0.8-1-0.8
					c-0.5,0-0.9,0.3-1,0.8l-222.6,0c-0.1-0.5-0.5-0.8-1-0.8c-0.5,0-0.9,0.3-1,0.8l-72.9,0c-0.1-0.4-0.5-0.7-1-0.7
					c-0.5,0-0.8,0.3-1,0.7l-174.4,0c0,0,0,0,0,0c-0.9,0-1.5,0.7-1.5,1.5c0,0.9,0.7,1.5,1.5,1.5l27.9,0V1202c0,0.6,0.5,1,1,1
					s1-0.5,1-1V934.9l72.8,0V1202c0,0.6,0.5,1,1,1c0.6,0,1-0.5,1-1V934.9l69.5,0V1202c0,0.6,0.5,1,1,1c0.6,0,1-0.5,1-1V934.9l72.8,0
					V1202c0,0.6,0.5,1,1,1c0.6,0,1-0.5,1-1V934.9l76.2,0V1202c0,0.6,0.5,1,1,1s1-0.5,1-1V934.9l72.8,0v267c0,0.6,0.5,1,1,1
					c0.6,0,1-0.5,1-1v-267l69.5,0v267c0,0.6,0.5,1,1,1c0.6,0,1-0.5,1-1v-267l72.8,0v267c0,0.6,0.5,1,1,1c0.6,0,1-0.5,1-1V935l71.6,0
					v267c0,0.6,0.5,1,1,1s1-0.5,1-1V935l72.8,0v267c0,0.6,0.5,1,1,1c0.6,0,1-0.5,1-1V935l69.5,0v267c0,0.6,0.5,1,1,1s1-0.5,1-1V935
					l72.8,0v267c0,0.6,0.5,1,1,1c0.6,0,1-0.5,1-1V935l76.2,0v267c0,0.6,0.5,1,1,1c0.6,0,1-0.5,1-1V935l72.8,0V1202c0,0.6,0.5,1,1,1
					c0.6,0,1-0.5,1-1V935l69.5,0V1202c0,0.6,0.5,1,1,1c0.6,0,1-0.5,1-1V935l72.8,0V1202c0,0.6,0.5,1,1,1c0.6,0,1-0.5,1-1V935.1l22,0
					c0.9,0,1.5-0.7,1.5-1.5S1185.9,932,1185.1,932z"/>
				<path class="st2" d="M368.1,1053.4C368.1,1053.4,368.1,1053.4,368.1,1053.4C368.1,1053.4,368.1,1053.4,368.1,1053.4
					C368.1,1053.4,368.1,1053.4,368.1,1053.4C368.1,1053.4,368.1,1053.4,368.1,1053.4z"/>
			</g>
		</g>
	</g>
</g>
<g id="main">
	<g id="general">
		<g id="board_general">
			<g class="st3">
				<linearGradient id="SVGID_1_" gradientUnits="userSpaceOnUse" x1="508.01" y1="279.845" x2="1147.01" y2="279.845">
					<stop  offset="0" style="stop-color:#F0EEE1"/>
					<stop  offset="0.6079" style="stop-color:#EFEFE1"/>
					<stop  offset="1" style="stop-color:#D2DEDE"/>
				</linearGradient>
				<rect x="508" y="74" class="st4" width="639" height="411.7"/>
				<path class="st5" d="M1147,490.7H508c-2.8,0-5-2.2-5-5V74c0-2.8,2.2-5,5-5h639c2.8,0,5,2.2,5,5v411.7
					C1152,488.5,1149.8,490.7,1147,490.7z M513,480.7h629V79H513V480.7z"/>
			</g>
			<g>
				<path class="st5" d="M683.9,414.1h-52.3c-0.8,0-1.5-0.7-1.5-1.5s0.7-1.5,1.5-1.5h52.3c0.8,0,1.5,0.7,1.5,1.5
					S684.8,414.1,683.9,414.1z"/>
				<path class="st5" d="M731.6,414.2h-28.8c-0.8,0-1.5-0.7-1.5-1.5s0.7-1.5,1.5-1.5h28.8c0.8,0,1.5,0.7,1.5,1.5
					S732.4,414.2,731.6,414.2z"/>
				<path class="st5" d="M618.2,414.1h-78.5c-0.8,0-1.5-0.7-1.5-1.5s0.7-1.5,1.5-1.5h78.5c0.8,0,1.5,0.7,1.5,1.5
					S619,414.1,618.2,414.1z"/>
				<path class="st6" d="M733.6,246.9c-4.5,8.6-20.6,36.8-55.7,52.3c-11.4,5.1-39.4,15.3-73.4,6.8c-0.2,0-0.3-0.1-0.4-0.1
					c-0.1,0-0.6-0.1-1.3-0.3c-6-1.6-11.5-3.6-16.7-5.9c-29.5-13.2-45.1-35.9-49.1-42.1V123.4h195.9L733.6,246.9z"/>
				<path class="st5" d="M733.6,246.9c-4.5,8.6-20.6,36.8-55.7,52.3c-11.4,5.1-39.4,15.3-73.4,6.8c-0.2,0-0.3-0.1-0.4-0.1
					c-0.1,0-0.6-0.1-1.3-0.3c-6-1.6-11.5-3.6-16.7-5.9c15.4-28.6,30.8-58.2,46.1-89c14.7-29.6,28.5-58.7,41.5-87.2h59.1L733.6,246.9
					z"/>
				<g id="lines_1_">
					<path class="st7" d="M692.3,167.2c-0.1,0-0.3,0-0.4,0c-9.7-0.2-16.5-6.3-23.1-12.2c-6.1-5.5-11.9-10.6-19.4-10.6
						c-0.1,0-0.3,0-0.4,0c-8.9,0.2-18,7.6-26.9,22.1c-0.4,0.7-1.4,0.9-2.1,0.5c-0.7-0.4-0.9-1.4-0.5-2.1
						c9.6-15.4,19.5-23.3,29.4-23.5c9-0.2,15.5,5.7,21.9,11.4c6.2,5.5,12.5,11.3,21.1,11.4c8.8,0.2,17.9-5.5,27-16.9
						c0.5-0.6,1.5-0.8,2.1-0.2c0.6,0.5,0.8,1.5,0.2,2.1C711.8,161.1,702,167.2,692.3,167.2z"/>
					<path class="st7" d="M619,232.9c-0.1,0-0.1,0-0.2,0c-5.1-0.1-8.8-3.4-12-6.3c-3-2.7-5.8-5.2-9.4-5.1
						c-4.2,0.1-8.5,3.7-12.8,10.7c-0.4,0.7-1.4,0.9-2.1,0.5c-0.7-0.4-0.9-1.4-0.5-2.1c4.9-7.9,10.1-12,15.3-12.1
						c4.8-0.1,8.2,2.9,11.5,5.9c3.1,2.8,6.1,5.4,10.1,5.5c0.1,0,0.1,0,0.2,0c4.1,0,8.4-2.7,12.7-8.2c0.5-0.6,1.5-0.8,2.1-0.2
						s0.8,1.5,0.2,2.1C629.2,229.8,624.1,232.9,619,232.9z"/>
				</g>
				<g id="stars_1_">
					<circle class="st7" cx="709.4" cy="199.2" r="3.4"/>
					<circle class="st7" cx="561.8" cy="142.9" r="3.4"/>
					<circle class="st7" cx="692" cy="146.9" r="3.4"/>
					<circle class="st7" cx="600.7" cy="271.7" r="3.4"/>
					<circle class="st7" cx="662.5" cy="251.6" r="3.4"/>
					<circle class="st7" cx="651.7" cy="172.4" r="3.4"/>
				</g>
				<g id="telescope">
					
						<rect x="588.8" y="363.2" transform="matrix(0.8198 -0.5726 0.5726 0.8198 -102.9409 411.1395)" class="st5" width="26.1" height="11.9"/>
					<path class="st6" d="M638.5,354.8l-10.6-15.2l-29,20.3l10.6,15.2l7.7-5.4c-31,55.6-31,56.3-31,56.8c0,0.8,0.6,1.4,1.4,1.4
						c0.7,0,1.2-0.4,1.4-1c1-2.4,19.7-36.1,33.1-60.2l17.4,62.3c0.2,0.7,1,1.2,1.7,1c0,0,0,0,0,0c0.7-0.2,1.2-1,1-1.7l-17.8-63.6
						L638.5,354.8z"/>
					<polygon class="st5" points="657.4,347.3 634.3,363.4 618.4,340.6 641.5,324.5 641.5,324.6 657.3,347.2 					"/>
					<path class="st8" d="M661.3,333.2c2.1,7.5-2.3,15.2-9.8,17.3c-0.2,0-0.3,0.1-0.5,0.1c-3,0.7-6.1,0.4-8.8-0.7
						c-3.8-1.6-6.8-4.9-8-9.1c-2.1-7.5,2.3-15.2,9.8-17.3c0.1,0,0.2,0,0.3-0.1c2.9-0.8,5.9-0.5,8.6,0.5
						C656.8,325.5,660,328.8,661.3,333.2z"/>
					<path class="st9" d="M652.8,323.9l-1.8,26.7c-3,0.7-6.1,0.4-8.8-0.7l2-26.5C647.2,322.6,650.2,322.9,652.8,323.9z"/>
				</g>
				<path id="frame_1_" class="st5" d="M733.6,439.6H537.7c-0.8,0-1.5-0.7-1.5-1.5v-314c0-0.8,0.7-1.5,1.5-1.5h195.9
					c0.8,0,1.5,0.7,1.5,1.5v314C735.1,438.9,734.4,439.6,733.6,439.6z M539.2,436.6h192.9v-311H539.2V436.6z"/>
			</g>
			<g id="screen2">
				<rect x="800" y="120.7" class="st5" width="318" height="214.7"/>
				<path class="st6" d="M1118,235.9v99.5H800V181.5c37.5,16.2,88.9,43,146.3,23.8c42.6-14.3,59.8-44.3,89.9-34.9
					c30,9.4,31.4,45,75.1,63.1C1113.7,234.4,1115.9,235.2,1118,235.9z"/>
				<g id="stars">
					<polygon class="st10" points="1033.8,194.2 1042.9,190.8 1033.8,187.1 1031.7,173 1029.4,187 1020.1,190.8 1029.3,194.3 
						1031.4,208.5 					"/>
					<polygon class="st10" points="1088.6,305.9 1096.6,302.9 1088.6,299.6 1086.7,287.1 1084.7,299.5 1076.4,302.9 1084.6,305.9 
						1086.5,318.6 					"/>
					<polygon class="st10" points="847.2,170.4 863.2,164.3 847.2,157.8 843.4,132.8 839.3,157.6 822.8,164.3 839.2,170.5 
						843,195.8 					"/>
				</g>
				<path class="st7" d="M1118,208.4c-6.9,0.9-13.7,2-20.4,3.4c-26.2,5.4-39.3,12.3-51.9,19c-12.1,6.4-23.6,12.4-45.9,16.3
					c-24.7,4.4-42.8,2.6-58.8,1.1c-20.3-1.9-37.9-3.6-61.8,7.6c-8.3,3.9-13.6,7.6-18.2,10.9c-6,4.2-11.2,7.9-21.4,10.8
					c-12.3,3.5-25.5,4.2-39.5,2.2v4.1c9.8,1.4,19.3,1.5,28.4,0.2c4.2-0.6,8.3-1.4,12.3-2.6c10.9-3.1,16.3-7,22.6-11.4
					c4.5-3.2,9.6-6.7,17.6-10.5c22.9-10.8,39.9-9.2,59.7-7.3c16.2,1.6,34.6,3.3,59.9-1.1c22.9-4,34.7-10.2,47.1-16.7
					c12.4-6.5,25.3-13.3,50.9-18.6c6.5-1.3,13-2.4,19.6-3.3V208.4z"/>
				<g id="planets">
					<circle class="st11" cx="1046.4" cy="168" r="23.3"/>
					<circle class="st7" cx="1013.3" cy="279.1" r="14.8"/>
					<path class="st8" d="M927.5,335.4H800V230c6.5-1.2,13.2-1.9,20.1-1.9C879.4,228.1,927.5,276.1,927.5,335.4z"/>
				</g>
			</g>
			<g id="screen3">
				<path id="frame" class="st5" d="M1114.7,439.6h-318c-0.8,0-1.5-0.7-1.5-1.5v-73.8c0-0.8,0.7-1.5,1.5-1.5h318
					c0.8,0,1.5,0.7,1.5,1.5v73.8C1116.2,438.9,1115.5,439.6,1114.7,439.6z M798.1,436.6h315v-70.8h-315V436.6z"/>
				<g id="moon2">
					<path class="st5" d="M945.1,401.2c0,12.6-10.2,22.8-22.8,22.8c-0.3,0-0.5,0-0.8,0c-12.2-0.4-22-10.5-22-22.8
						c0-12.6,10.2-22.8,22.8-22.8c0.2,0,0.3,0,0.5,0C935.2,378.6,945.1,388.8,945.1,401.2z"/>
					<path class="st8" d="M945.1,401.2c0,12.6-10.2,22.8-22.8,22.8c-0.3,0-0.5,0-0.8,0c2.4-4.5,5.7-12.4,6-22.8
						c0.3-9.8-2.3-17.7-4.7-22.8C935.2,378.6,945.1,388.8,945.1,401.2z"/>
				</g>
				<circle id="moon4" class="st8" cx="1065.7" cy="401.2" r="22.8"/>
				<g id="moon3">
					<circle class="st5" cx="993.2" cy="401.2" r="22.8"/>
					<path class="st8" d="M1016,401.2c0,12.6-10.2,22.8-22.8,22.8v-45.6C1005.8,378.4,1016,388.6,1016,401.2z"/>
				</g>
				<g id="moon1">
					<path class="st5" d="M873.1,401.2c0,12.5-10,22.6-22.4,22.8c-0.1,0-0.2,0-0.4,0c-12.6,0-22.8-10.2-22.8-22.8
						s10.2-22.8,22.8-22.8c0.5,0,1,0,1.4,0C863.7,379.1,873.1,389,873.1,401.2z"/>
					<path class="st8" d="M873.1,401.2c0,12.5-10,22.6-22.4,22.8c-0.1,0-0.2,0-0.3,0c1.4-1.1,10.5-8.5,11.3-21.5
						c0.9-14-8.6-22.9-10-24.1C863.7,379.1,873.1,389,873.1,401.2z"/>
				</g>
			</g>
			<linearGradient id="SVGID_2_" gradientUnits="userSpaceOnUse" x1="814.93" y1="279.845" x2="1079.64" y2="279.845">
				<stop  offset="0" style="stop-color:#FFFFFF"/>
				<stop  offset="0.7781" style="stop-color:#85AAB0"/>
			</linearGradient>
			<path class="st12" d="M1079.6,74l-21.9,46.7l-10,21.4l-1.2,2.6l-18,38.3l-1.7,3.6L1013,216l-11.8,25.2l-5.9,12.5l-22.7,48.3
				l-2.2,4.7l-8,17l-5.5,11.7l-3.5,7.5l-22.5,48L918,418.4L901.8,453l-8.2,17.6l-7.1,15.1h-71.5c0.9-1.8,1.7-3.7,2.6-5.6
				c2.7-5.8,5.5-11.7,8.2-17.7c5.5-11.8,11.1-23.9,16.9-36.2c0.4-0.8,0.7-1.5,1.1-2.3c2.2-4.6,4.3-9.3,6.5-14
				c4.2-9.1,8.5-18.2,12.8-27.5c7.2-15.5,14.5-31.2,21.9-46.9c2.2-4.7,4.4-9.4,6.5-14.1c3-6.5,6.1-13,9.1-19.5
				c0.6-1.3,1.2-2.6,1.8-3.9c5.7-12.2,11.4-24.5,17-36.6c13.3-28.6,26.4-56.6,38.9-83.4c7.1-15.3,14.1-30.2,20.7-44.5
				c2-4.3,4-8.5,5.9-12.7c7.7-16.6,15-32.3,21.8-46.7H1079.6z"/>
			<linearGradient id="SVGID_3_" gradientUnits="userSpaceOnUse" x1="675.31" y1="279.845" x2="932.3" y2="279.845">
				<stop  offset="0" style="stop-color:#FFFFFF"/>
				<stop  offset="0.7781" style="stop-color:#85AAB0"/>
			</linearGradient>
			<path class="st13" d="M932.3,74l-22.1,46.7l-41.1,86.8l-12.7,26.8l-20.9,44.2l-2.2,4.6l-24.8,52.3l-71.1,150.3h-62.1
				c7.4-15.9,14.8-31.7,22.2-47.6c12-25.7,24-51.5,36-77.2c22.1-47.4,44.3-94.9,66.4-142.3c4.8-10.2,9.6-20.5,14.3-30.7
				c3.5-7.6,7.1-15.1,10.6-22.7c0.3-0.7,0.6-1.4,1-2v0c6.6-14.1,13.2-28.2,19.8-42.3c7.3-15.6,14.5-31.1,21.8-46.7H932.3z"/>
			<linearGradient id="SVGID_4_" gradientUnits="userSpaceOnUse" x1="508.01" y1="279.845" x2="737.93" y2="279.845">
				<stop  offset="0" style="stop-color:#FFFFFF"/>
				<stop  offset="0.7781" style="stop-color:#85AAB0"/>
			</linearGradient>
			<path class="st14" d="M737.9,74L730,90.7l-15.5,32.8l-0.3,0.7l-6.3,13.3l-13.3,28.2l-27.8,58.6L654.1,251l-20.9,44.2l-2.2,4.6
				l-4.5,9.4l-20.3,42.9l-40.7,86l-22.5,47.6h-35v-58.2c7.8-16.7,15.5-33.3,23.3-49.9c2.1-4.5,4.2-9,6.3-13.6
				c11.2-24.1,22.5-48.2,33.7-72.3c8.8-18.8,17.6-37.6,26.4-56.5c4.8-10.2,9.6-20.5,14.3-30.7c3.5-7.6,7.1-15.1,10.6-22.7
				c0.3-0.7,0.6-1.4,1-2.1c5.3-11.4,10.6-22.8,15.9-34.2c1.3-2.7,2.5-5.5,3.8-8.2c2.1-4.4,4.1-8.9,6.2-13.3c0.1-0.2,0.2-0.5,0.3-0.7
				c5.1-10.9,10.2-21.8,15.3-32.8c2.6-5.6,5.2-11.1,7.8-16.7H737.9z"/>
		</g>
		<g id="teacher">
			<g id="neck">
				<path class="st15" d="M543,340.1v25c-3,21.7-6,43.3-9,65c-4.4-7.3-8.7-15-13-23c-8.5-15.9-15.8-31.4-22-46
					c-1.3-14.3-2.7-28.7-4-43c5.3,3,11,5.9,16.9,8.8c0.7,0.4,1.5,0.7,2.2,1.1C524.2,332.8,533.9,336.8,543,340.1z"/>
				<path class="st16" d="M543,340.1v21c-4.7-0.3-10.4-1.5-16.2-4.5c-17.9-9.5-21.3-28.9-21.7-31.2c2.3,0.5,4.5,1.1,6.8,1.6
					c0.7,0.4,1.5,0.7,2.2,1.1C524.2,332.8,533.9,336.8,543,340.1z"/>
			</g>
			<g id="head_general">
				<path id="head" class="st15" d="M550,347.1c-12.1,8-54.6-14.8-59.6-48.7c-2.5-17.3,4-41.3,20.9-48c11.3-4.5,26.7-1.8,34.6,6.7
					c0.8,0.9,1.3,1.7,2,2.7c5.1,7.3,6.9,14.7,8,22.3c3.1,20.3,0.9,38-1,49C553.3,340.7,552.4,345.6,550,347.1z"/>
				<path id="smile" class="st17" d="M540.9,333.2c-1.6,0-3.5-0.3-5.6-1.2c-4.3-2-6.3-5.6-6.9-7.1c-0.1-0.3,0-0.7,0.3-0.8
					c0.3-0.1,0.7,0,0.8,0.3c0.6,1.4,2.4,4.7,6.3,6.5c2.7,1.2,5.3,1.2,7,0.9c0.3-0.1,0.6,0.2,0.7,0.5c0.1,0.3-0.2,0.6-0.5,0.7
					C542.4,333.1,541.7,333.2,540.9,333.2z"/>
				<g id="eyes">
					<circle class="st17" cx="524.3" cy="298.6" r="2.5"/>
					<circle class="st17" cx="549.7" cy="298.3" r="2.5"/>
				</g>
				<g id="brows">
					
						<rect x="508.8" y="284.4" transform="matrix(0.9178 -0.397 0.397 0.9178 -70.885 229.0141)" class="st17" width="17.8" height="2.6"/>
					
						<rect x="539.8" y="281.3" transform="matrix(-0.9991 -4.295144e-02 4.295144e-02 -0.9991 1081.1241 588.4926)" class="st17" width="14.2" height="2.6"/>
				</g>
				<path id="nose" class="st18" d="M537,292.1c0.5,2.1,1.4,5.3,3,9c3.4,8.2,7.1,12.4,5.8,13.8c-0.7,0.7-2.8,0.2-7-0.9
					c-2.7-0.7-4.9-1.5-6.6-2.1c0.4-3.6,1-7.6,1.8-11.8c0.6-2.8,1.3-5.5,2-8C536.3,292.1,536.7,292.1,537,292.1z"/>
				<path id="glasses" class="st5" d="M558,292.4l-18.6-0.2c-0.8-0.5-2.4-1.2-4.5-1.1c-1.2,0.1-2.4,0.5-3.5,1.2
					c-0.1,0-0.1,0.1-0.2,0.2l-21.3-0.3c0,0,0,0,0,0c-0.1,0-0.3,0-0.4,0.1l-18,8c-0.5,0.2-0.7,0.8-0.5,1.3c0.2,0.4,0.5,0.6,0.9,0.6
					c0.1,0,0.3,0,0.4-0.1l16.9-7.5c0.7,2.4,2.5,6.9,7.2,9.5c1.2,0.6,4.1,2,7.4,2c1.9,0,4-0.5,5.9-1.9c4.7-3.6,4-10,3.9-10.7
					c0.4-0.1,0.9-0.3,1.4-0.3c0.8-0.1,1.6,0.1,2.2,0.3c-0.2,1.4-0.4,6.1,3.4,9.3c2,1.7,4.5,2.4,6.8,2.4c2.3,0,4.4-0.6,6.1-1.6
					c3.6-2.1,5.7-6,5.5-10.2C559,292.8,558.5,292.4,558,292.4z M528.6,302.5c-4.1,3.1-9.5,0.6-11.1-0.3c-4-2.2-5.6-6-6.2-8.1
					l20.5,0.3C531.8,296.2,531.6,300.2,528.6,302.5z M552.5,301.8c-2.8,1.6-7.4,2.2-10.6-0.6c-2.7-2.3-2.8-5.5-2.7-7l17.8,0.2
					C556.9,297.5,555.2,300.3,552.5,301.8z"/>
				<path id="hair" class="st17" d="M503.2,272.9c6.9-6.3,23,6.2,32-1.7c2.9-2.6,4.4-6.9,8.6-7.2c3.4-0.3,4.7,2.3,7.5,1.5
					c3.7-1,6.7-6.8,5.5-11.2c-0.9-3.4-3.6-3.3-4.6-6.6c-1.4-4.7,3.3-7.4,2.1-11.2c-1.3-4.2-8.7-6.8-14.5-5.8
					c-6.5,1.2-10.7,6.8-11.5,6c-0.8-0.7,3.5-4.6,2.4-7.2c-1.4-3.2-10.7-4.5-17.1-0.5c-7.3,4.5-8.1,14.4-10.9,14
					c-2.1-0.3-1.5-6.4-4.7-7.6c-3.3-1.3-9.4,3.3-12.3,9.1c-3.9,7.9-1.5,17.1-2.5,17.3c-0.8,0.1-1.2-5.4-4.6-6.6
					c-1.6-0.6-3.4,0-4,0.3c-5.2,2.8-1.6,21.7,3.1,36.9c3.7,11.8,13.4,37.7,19.2,36.5c5.3-1.1,5.5-24.3,5.5-29.6
					C502.6,282.2,499.2,276.6,503.2,272.9z"/>
				<g id="ear">
					<path class="st15" d="M506,305c-1,4-4.4,7.1-8.8,7.5c-5.5,0.5-10.3-3.6-10.8-9.1c-0.2-2.7,0.6-5.3,2.3-7.2c1.6-2,4-3.3,6.8-3.6
						c5.5-0.5,10.3,3.6,10.8,9.1C506.4,302.9,506.3,304,506,305z"/>
					<path class="st19" d="M506,305c-4.1-2.1-13.1-6.5-17.3-8.8c1.6-2,4-3.3,6.8-3.6c5.5-0.5,10.3,3.6,10.8,9.1
						C506.4,302.9,506.3,304,506,305z"/>
				</g>
			</g>
			<g>
				<path class="st7" d="M567,453.1c-0.2,11-0.3,21.9-0.6,32.7c-1,39.8-2.6,78.6-4.9,116.3c-0.5,7.7-0.9,15.4-1.5,23h-92
					c3.8-54.1,5.5-112.3,4-174c-0.7-29.4-2-57.8-4-85.4c2.6-0.9,5.1-1.6,7.5-2.1c0.4-0.1,0.7-0.2,1.1-0.2c1-0.2,3.6-0.8,8.4-1.3
					c3.5-0.4,8.3-0.9,14-1c10.7,20,21.3,40,32,60l12-60c3.2,0.9,5.7,1.4,7.5,1.7c1.3,0.2,3.9,0.6,7.5,1.3c0.2,0,0.5,0.1,0.8,0.2
					c0,0,0,0,0,0c0.8,0.2,1.6,0.5,2.4,0.7c1.8,0.6,3.7,1.3,5.8,2.2C567.4,395.4,567.4,424,567,453.1z"/>
				<path class="st20" d="M561.2,365.1l-8.8,22.7L533,438.1l-57.5-74.5c0.4-0.1,0.7-0.2,1.1-0.2c1-0.2,3.6-0.8,8.4-1.3
					c3.5-0.4,8.3-0.9,14-1c10.7,20,21.3,40,32,60l9.1-45.3l2.9-14.7c3.2,0.9,5.7,1.4,7.5,1.7c1.3,0.2,3.9,0.6,7.5,1.3
					c0.2,0,0.5,0.1,0.8,0.2c0,0,0,0,0,0C559.5,364.6,560.4,364.8,561.2,365.1z"/>
				<circle class="st5" cx="538" cy="541.1" r="3"/>
				<circle class="st5" cx="538" cy="568.1" r="3"/>
				<circle class="st5" cx="538" cy="596.1" r="3"/>
				<path class="st21" d="M566.4,485.8c4,32.1,5.1,68.3,0.7,107.6c-0.8,6.9-1.7,13.6-2.7,20.1c-29,2.1-58,4.2-87,6.3l-8.4-13.5
					L566.4,485.8z"/>
				<path class="st22" d="M561.2,365.1l-8.8,22.7l-12.4-12l2.9-14.7c3.2,0.9,5.7,1.4,7.5,1.7c1.3,0.2,3.9,0.6,7.5,1.3
					c0.2,0,0.5,0.1,0.8,0.2c0,0,0,0,0,0C559.5,364.6,560.4,364.8,561.2,365.1z"/>
			</g>
			<g id="legs">
				<path class="st15" d="M443,1087.1c-2.8,3.1-5.5,6.3-8.3,9.4c-2.2,2.5-4.5,5-6.7,7.6c-21.3-13.2-33.3-20.6-34-21
					c0.1-0.1,0.3-0.5,0.8-1.2c0.1-0.1,0.2-0.3,0.3-0.4c0.1-0.2,0.2-0.3,0.3-0.5c0.8-1.1,1.8-2.6,3.2-4.6c0.5-0.6,0.9-1.3,1.5-2.1
					c0.4-0.6,0.9-1.3,1.4-2c0.2-0.3,0.5-0.7,0.7-1.1c2.4-3.4,5.3-7.5,8.8-12.6c2.6-3.7,5.6-7.9,8.9-12.6c7.3,5.7,14.7,11.3,22,17
					c-0.2,0.2-0.3,0.5-0.5,0.8c-1.6,2.5-3.1,5.1-4.7,7.6c-0.9,1.5-1.9,3.1-2.8,4.6c0.9,1.1,1.7,2.1,2.6,3.2c1,1.2,2,2.5,3,3.7
					C440.7,1084.4,441.9,1085.8,443,1087.1z"/>
				<polygon class="st15" points="644.1,1078.9 633,1098.1 599,1095.1 599,1060.1 628,1058.1 628.5,1066.2 628.7,1069.5 629,1074.1 
									"/>
				<polygon class="st16" points="628.5,1066.2 599,1074.5 599,1060.1 628,1058.1 				"/>
				<path class="st16" d="M441.5,1063.9c-1.6,2.5-3.1,5.1-4.7,7.6l-21.3,1.6l-15.3,1.2c0.4-0.6,0.9-1.3,1.4-2
					c0.2-0.3,0.5-0.7,0.7-1.1c2.4-3.4,5.3-7.5,8.8-12.6L441.5,1063.9z"/>
			</g>
			<g id="socks">
				<path class="st7" d="M443,1087.1c-2.8,3.1-5.5,6.3-8.3,9.4l-9.7,2.6l-30.1-17.2c0.1-0.1,0.2-0.3,0.3-0.4
					c0.1-0.2,0.2-0.3,0.3-0.5c0.8-1.1,1.8-2.6,3.2-4.6c0.5-0.6,0.9-1.3,1.5-2.1c0.4-0.6,0.9-1.3,1.4-2c0.2-0.3,0.5-0.7,0.7-1.1
					c1.9,0.2,4.4,0.6,7.1,0.9c1.4,0.2,2.9,0.4,4.5,0.7c0.5,0.1,1.1,0.2,1.6,0.2c3.5,0.5,7.2,1.1,10.6,1.7c1.7,0.3,3.3,0.5,4.9,0.8
					c1.1,0.2,2.1,0.3,3,0.5c0.9,1.1,1.7,2.1,2.6,3.2c1,1.2,2,2.5,3,3.7C440.7,1084.4,441.9,1085.8,443,1087.1z"/>
				<path class="st7" d="M644.1,1078.9l-11.1,19.3l-34-3v-12.4c2.3-1,5-2.1,7.7-3.3c1.4-0.6,2.8-1.2,4.3-1.9c4.3-1.9,8.6-3.8,12-5.4
					c1.7-0.8,3.2-1.5,4.4-2.1c0.5-0.2,0.9-0.4,1.2-0.6l0.3,4.7L644.1,1078.9z"/>
				<g id="pattern_1_">
					<path class="st20" d="M403,1074.6c0,1.4-1.1,2.5-2.5,2.5c-0.7,0-1.3-0.3-1.8-0.7c0.8-1.2,1.8-2.5,2.8-4
						C402.4,1072.8,403,1073.7,403,1074.6z"/>
					<circle class="st20" cx="406.5" cy="1083.6" r="2.5"/>
					<path class="st20" d="M414,1073.6c0,1.4-1.1,2.5-2.5,2.5s-2.5-1.1-2.5-2.5c0-0.5,0.2-1,0.4-1.4c1.4,0.2,2.9,0.4,4.5,0.7
						C414,1073.2,414,1073.4,414,1073.6z"/>
					<circle class="st20" cx="418.5" cy="1080.6" r="2.5"/>
					<path class="st20" d="M431,1075.6c0,1.4-1.1,2.5-2.5,2.5s-2.5-1.1-2.5-2.5c0-0.3,0-0.5,0.1-0.8
						C427.8,1075.1,429.5,1075.4,431,1075.6z"/>
					<circle class="st20" cx="427.5" cy="1088.6" r="2.5"/>
					<circle class="st20" cx="601.5" cy="1085.6" r="2.5"/>
					<circle class="st20" cx="612.5" cy="1091.6" r="2.5"/>
					<circle class="st20" cx="618.5" cy="1081.6" r="2.5"/>
					<path class="st20" d="M611,1077.5v0.1c0,1.4-1.1,2.5-2.5,2.5c-0.7,0-1.3-0.3-1.8-0.8C608.1,1078.8,609.6,1078.2,611,1077.5z"/>
					<path class="st20" d="M628,1071.6c0,1.4-1.1,2.5-2.5,2.5c-1.2,0-2.2-0.9-2.5-2c1.7-0.8,3.2-1.5,4.4-2.1
						C627.8,1070.5,628,1071.1,628,1071.6z"/>
					<circle class="st20" cx="633.5" cy="1082.6" r="2.5"/>
					<circle class="st20" cx="629.5" cy="1092.6" r="2.5"/>
					<path class="st20" d="M439.6,1083c-0.4,0.7-1.2,1.2-2.1,1.2c-1.4,0-2.5-1.1-2.5-2.5c0-1.1,0.7-2,1.6-2.3
						C437.6,1080.5,438.6,1081.8,439.6,1083z"/>
				</g>
			</g>
			<g id="shoes">
				<path class="st17" d="M484,1131.1c-12.7,4.2-22.6,3.4-29,2c-5.7-1.2-10.4-3.4-29-15c-1-0.6-2-1.3-3-1.9
					c-6.7-4.2-14.2-9.1-22.4-14.6l2.4-4.8l-5.8,3.1l-15.1-7.7c-0.6-0.8-0.8-1.5-0.9-2.2c-0.3-3.5,4.7-7.5,12.6-10.5
					c1.1-0.4,2.4-0.9,3.6-1.2l28,14.2c5.9-1.8,11.8-3.5,17.7-5.3c3.5,3.2,6.6,6.2,9.2,8.8c0.7,0.7,1.3,1.3,1.9,1.9
					c1.9,2,3.6,3.8,5.1,5.3c0.2,0.3,0.5,0.5,0.7,0.8c0.4,0.4,0.7,0.8,1,1.1c3.1,3.4,4.3,4.8,7,6.9c6.2,4.7,9.9,4.8,13,9
					C482.4,1123,483.9,1126.1,484,1131.1z"/>
				<path class="st20" d="M454.2,1098l-7.8,4.5c-0.4,0.2-0.8,0.2-1.2,0c-0.2-0.1-0.4-0.3-0.5-0.5c-0.3-0.6-0.1-1.4,0.5-1.8l7.2-4.1
					C452.9,1096.8,453.6,1097.4,454.2,1098z"/>
				<path class="st20" d="M461,1105.3l-4.5,6c-0.3,0.4-0.7,0.5-1.1,0.5c-0.2,0-0.5-0.1-0.7-0.3c-0.5-0.5-0.6-1.3-0.2-1.8l4.8-6.3
					c0.2,0.3,0.5,0.5,0.7,0.8C460.4,1104.5,460.7,1104.9,461,1105.3z"/>
				<path class="st17" d="M698.4,1108.7c-0.3,3.8-36.2,3.5-49.4,3.4c-6.3,0-14.8-0.2-24.9-0.6c-2.9-0.1-6-0.3-9.1-0.4
					c-0.7-1.7-1.5-3.3-2.2-5l-3.6,5.5l-16.9,0.6c-0.9-0.4-1.5-1-1.8-1.5c-2.2-3.4,1.3-10.6,8.5-18.1l4-0.1l27.4-0.9
					c4.3-4.4,8.6-8.8,12.9-13.1c5.3,1.6,9.9,3.1,13.7,4.5c1,0.3,1.9,0.7,2.7,1c1.2,0.5,2.4,0.9,3.4,1.3c2.2,0.8,3.9,1.6,5.3,2.2
					c1,0.4,1.8,0.8,2.6,1.1c3.5,1.6,4.7,2.3,9.1,3.6c7.5,2.2,10.7,2.1,14,5.3C696.5,1099.9,698.7,1104.8,698.4,1108.7z"/>
				<path class="st20" d="M659.7,1083.9l-4.7,7.1c-0.3,0.4-0.7,0.6-1.2,0.6c-0.3,0-0.5-0.1-0.8-0.2c-0.7-0.4-0.9-1.2-0.5-1.8
					l4.4-6.7C657.9,1083.3,658.8,1083.6,659.7,1083.9z"/>
				<path class="st20" d="M670.9,1088.5l-4.1,6.7c-0.3,0.4-0.7,0.6-1.2,0.7c-0.3,0-0.5,0-0.8-0.2c-0.7-0.4-0.9-1.2-0.5-1.8l4-6.5
					C669.3,1087.8,670.2,1088.2,670.9,1088.5z"/>
				<linearGradient id="SVGID_5_" gradientUnits="userSpaceOnUse" x1="381.1788" y1="1097.8701" x2="422.95" y2="1097.8701">
					<stop  offset="0" style="stop-color:#FFFFFF"/>
					<stop  offset="0.7781" style="stop-color:#85AAB0"/>
				</linearGradient>
				<path class="st23" d="M400.5,1101.6l2.4-4.8l-5.8,3.1l-15.1-7.7c-0.6-0.8-0.8-1.5-0.9-2.2c-0.3-3.5,4.7-7.5,12.6-10.5l29.2,36.7
					C416.3,1112,408.8,1107.1,400.5,1101.6z"/>
				<linearGradient id="SVGID_6_" gradientUnits="userSpaceOnUse" x1="589.7657" y1="1102.3151" x2="624.14" y2="1102.3151">
					<stop  offset="0" style="stop-color:#FFFFFF"/>
					<stop  offset="0.7781" style="stop-color:#85AAB0"/>
				</linearGradient>
				<path class="st24" d="M624.1,1111.6c-2.9-0.1-6-0.3-9.1-0.4c-0.7-1.7-1.5-3.3-2.2-5l-3.6,5.5l-16.9,0.6c-0.9-0.4-1.5-1-1.8-1.5
					c-2.2-3.4,1.3-10.6,8.5-18.1l4-0.1L624.1,1111.6z"/>
			</g>
			<g id="pants">
				<path class="st5" d="M640,1062.5c-16.7,1.3-33.3,2.5-50,3.8c-25.3-114.4-50.7-228.8-76.1-343.3c-1-4.4-2-8.8-2.9-13.2
					c0.1,45.4-2.6,96.3-10,151.4c-10.9,81-29.4,151.6-49,209.9c-18.1-1.4-36.2-2.9-54.2-4.3c-1.9-0.1-3.9-0.3-5.8-0.5
					c34.7-107.9,38-183.1,34-232.9c-1.7-21.1-8.3-82.3-3-165.8c1.2-19.5,2.8-35.5,4-46c9.5-0.6,19-1.2,28.6-1.9
					c44.5-2.9,89-5.8,133.4-8.7c2,17.7,4,35.5,6,53.2C610,797.1,625,929.8,640,1062.5z"/>
				<g>
					<path class="st25" d="M592.2,639.1H425.2c0.1-0.7,0.1-1.3,0.2-2h166.5C592,637.8,592.1,638.5,592.2,639.1z"/>
					<path class="st25" d="M590.4,623.1H426.8c0-0.5,0.1-1,0.2-1.5c2.8-0.2,5.5-0.4,8.3-0.5h154.8
						C590.2,621.8,590.3,622.5,590.4,623.1z"/>
					<path class="st25" d="M440,620.8v449.3c-0.7,0-1.3-0.1-2-0.2V621C438.7,620.9,439.3,620.9,440,620.8z"/>
					<path class="st25" d="M422.2,781.1c0,0.7,0.1,1.3,0.1,2c0.3,5,0.5,9.6,0.8,14c0.1,0.7,0.1,1.3,0.1,2c0.2,3.7,0.5,7.2,0.8,10.4
						v-10.4v-2v-14v-2v-14v-2v-14v-2v-14v-2v-14v-2v-14v-2v-14v-2v-14v-2v-14v-1.6c0,0.5-0.1,1.1-0.1,1.6c-0.3,4-0.6,8.2-0.9,12.5
						c0,0.5-0.1,1-0.1,1.5c0,0.7-0.1,1.3-0.1,2c-0.3,4.7-0.5,9.4-0.7,14h0v0.9v1.1v14v2v14v2v14v2v14v2v14v2v10L422.2,781.1z"/>
					<path class="st25" d="M424,924v145.2h-2V939.7c0.6-4.3,1.2-8.4,1.6-12.5c0.1-0.7,0.2-1.3,0.2-2C423.9,924.8,424,924.4,424,924z
						"/>
					<path class="st25" d="M408,1010.5v57.1c-0.7-0.1-1.3-0.1-2-0.2v-49.1C406.7,1015.7,407.3,1013.1,408,1010.5z"/>
					<path class="st25" d="M455,619.9v449.3h-2V620C453.7,620,454.3,619.9,455,619.9z"/>
					<path class="st25" d="M469,619V1016c-0.3,1-0.6,2.1-0.9,3.1c-0.2,0.7-0.4,1.3-0.6,2c-0.2,0.6-0.4,1.3-0.5,1.9v-404
						C467.7,619,468.3,619,469,619z"/>
					<path class="st25" d="M484,618v341.2h-0.6c-0.5,2-0.9,4.1-1.4,6.1V618.1C482.7,618.1,483.3,618,484,618z"/>
					<path class="st25" d="M499,617v258.4c-0.1,0.6-0.2,1.1-0.2,1.7c-0.1,0.7-0.2,1.3-0.3,2c-0.5,3.1-0.9,6.2-1.4,9.3V617.1
						C497.7,617.1,498.3,617,499,617z"/>
					<path class="st25" d="M514,616v107.4c-0.3-1.4-0.6-2.8-0.9-4.2c-0.2-0.7-0.3-1.3-0.4-2c-0.2-0.9-0.4-1.9-0.6-2.8v-98.2
						C512.7,616.1,513.3,616.1,514,616z"/>
					<path class="st25" d="M528,615.1v171.5c-0.2-1.1-0.5-2.3-0.8-3.4c-0.1-0.7-0.3-1.3-0.4-2c-0.3-1.2-0.5-2.4-0.8-3.6V615.2
						C526.7,615.2,527.3,615.1,528,615.1z"/>
					<path class="st25" d="M543,614.1v240.1c-0.5-2.4-1-4.8-1.6-7.1c-0.1-0.6-0.3-1.3-0.4-1.9v-231
						C541.7,614.2,542.3,614.2,543,614.1z"/>
					<path class="st25" d="M559,613.1v313.4c-0.1-0.4-0.2-0.9-0.3-1.3l-1.7-7.7V613.2C557.7,613.2,558.3,613.1,559,613.1z"/>
					<path class="st25" d="M574,612.1v382c-0.2-1-0.4-2-0.7-3c-0.1-0.7-0.3-1.3-0.4-2c-0.3-1.3-0.6-2.7-0.9-4V612.2
						C572.7,612.2,573.3,612.2,574,612.1z"/>
					<path class="st25" d="M589,611.1v450.7c-0.6-2.9-1.3-5.8-1.9-8.7H587V611.3C587.7,611.2,588.3,611.2,589,611.1z"/>
					<path class="st25" d="M603,735v330.3c-0.7,0-1.3,0.1-2,0.2V717.3c0.1,0.6,0.1,1.2,0.2,1.8c0.5,4.7,1.1,9.3,1.6,14
						C602.9,733.8,602.9,734.4,603,735z"/>
					<path class="st25" d="M618,867.8v196.4c-0.7,0-1.3,0.1-2,0.2V850.1c0.4,3.7,0.8,7.3,1.2,11c0.1,0.7,0.2,1.3,0.2,2
						C617.7,864.7,617.8,866.2,618,867.8z"/>
					<path class="st25" d="M632,991.1v72c-0.7,0-1.3,0.1-2,0.2V974c0,0.4,0.1,0.8,0.1,1.1c0.5,4.7,1,9.3,1.6,14
						C631.8,989.8,631.9,990.5,632,991.1L632,991.1z"/>
					<path class="st25" d="M594,655.1H423.9c0-0.6,0.1-1.1,0.1-1.6v-0.4h169.8C593.8,653.8,593.9,654.5,594,655.1z"/>
					<path class="st25" d="M595.8,671.1h-173c0-0.7,0.1-1.3,0.1-2h172.6C595.6,669.8,595.7,670.5,595.8,671.1z"/>
					<path class="st25" d="M597.6,687.1H422c0-0.4,0-0.8,0-1.1v-0.9h175.4C597.4,685.8,597.5,686.5,597.6,687.1z"/>
					<path class="st25" d="M599.4,703.1h-178c0-0.7,0-1.3,0.1-2h177.8C599.2,701.8,599.3,702.5,599.4,703.1z"/>
					<path class="st25" d="M511,717.1v2H421c0-0.7,0-1.3,0-2H511z"/>
					<path class="st25" d="M601.2,719.1h-88.1c-0.2-0.7-0.3-1.3-0.4-2H601v0.2C601.1,718,601.1,718.5,601.2,719.1z"/>
					<path class="st25" d="M510.8,733.1c0,0.7,0,1.3,0,2H421c0-0.7,0-1.3,0-2H510.8z"/>
					<path class="st25" d="M603,735.1h-86.4c-0.1-0.7-0.3-1.3-0.4-2h86.6C602.9,733.8,602.9,734.4,603,735.1
						C603,735.1,603,735.1,603,735.1z"/>
					<path class="st25" d="M510.4,749.1c0,0.7,0,1.3-0.1,2h-89.2c0-0.7,0-1.3,0-2H510.4z"/>
					<path class="st25" d="M604.8,751.1h-84.7c-0.2-0.7-0.3-1.3-0.4-2h84.9C604.7,749.8,604.7,750.5,604.8,751.1z"/>
					<path class="st25" d="M509.7,765.1c0,0.7-0.1,1.3-0.1,2h-88c0-0.7,0-1.3-0.1-2H509.7z"/>
					<path class="st25" d="M606.6,767.1h-82.9c-0.2-0.7-0.3-1.3-0.5-2h83.2C606.5,765.8,606.5,766.5,606.6,767.1z"/>
					<path class="st25" d="M508.8,781.1c0,0.7-0.1,1.3-0.1,2h-86.4c0-0.7-0.1-1.3-0.1-2H508.8z"/>
					<path class="st25" d="M608.4,783.1h-81.2c-0.1-0.7-0.3-1.3-0.4-2h81.4C608.3,781.8,608.4,782.5,608.4,783.1z"/>
					<path class="st25" d="M507.8,797.1c0,0.7-0.1,1.3-0.2,2h-84.3c0-0.7-0.1-1.3-0.1-2H507.8z"/>
					<path class="st25" d="M610.2,799.1h-79.5c-0.1-0.7-0.3-1.3-0.4-2H610C610.1,797.8,610.2,798.5,610.2,799.1z"/>
					<path class="st25" d="M506.4,813.1c-0.1,0.7-0.1,1.3-0.2,2h-81.8c0-0.7-0.1-1.3-0.2-2H506.4z"/>
					<path class="st25" d="M612,815.1h-77.7c-0.2-0.7-0.3-1.3-0.4-2h77.9C611.9,813.8,612,814.5,612,815.1z"/>
					<path class="st25" d="M504.8,829.1c-0.1,0.7-0.1,1.3-0.2,2h-78.8c-0.1-0.6-0.1-1.3-0.2-2H504.8z"/>
					<path class="st25" d="M613.9,831.1h-76c-0.2-0.7-0.3-1.3-0.5-2h76.2C613.7,829.8,613.8,830.5,613.9,831.1z"/>
					<path class="st25" d="M503,845.1c-0.1,0.7-0.1,1.3-0.2,2h-75.9c0-0.7-0.1-1.3-0.1-2H503z"/>
					<path class="st25" d="M615.7,847.1h-74.2c-0.1-0.6-0.3-1.3-0.4-1.9c0,0,0-0.1,0-0.1h74.5C615.5,845.8,615.6,846.5,615.7,847.1z
						"/>
					<path class="st25" d="M501,861.1c0,0,0,0.1,0,0.1c-0.1,0.6-0.2,1.2-0.3,1.9h-73.4c0-0.7,0-1.3,0-2H501z"/>
					<path class="st25" d="M617.5,863.1H545c-0.1-0.7-0.3-1.3-0.4-2h72.7C617.3,861.8,617.4,862.5,617.5,863.1z"/>
					<path class="st25" d="M498.8,877.1c-0.1,0.7-0.2,1.3-0.3,2h-71.3c0-0.7,0-1.3,0-2H498.8z"/>
					<path class="st25" d="M619.3,879.1h-70.8c-0.1-0.7-0.3-1.3-0.4-2h71C619.1,877.8,619.2,878.5,619.3,879.1z"/>
					<path class="st25" d="M496.2,893.1c-0.1,0.7-0.2,1.3-0.3,2h-69.4c0-0.7,0.1-1.3,0.1-2H496.2z"/>
					<path class="st25" d="M621.1,895.1h-69c-0.2-0.7-0.3-1.3-0.4-2h69.2C620.9,893.8,621,894.5,621.1,895.1z"/>
					<path class="st25" d="M493.5,909.1c-0.1,0.7-0.2,1.3-0.4,2h-67.8c0.1-0.7,0.1-1.3,0.2-2H493.5z"/>
					<path class="st25" d="M622.9,911.1h-67.3c-0.1-0.7-0.3-1.3-0.5-2h67.5C622.8,909.8,622.8,910.5,622.9,911.1z"/>
					<path class="st25" d="M490.5,925.1c-0.1,0.7-0.2,1.3-0.4,2h-66.5c0.1-0.7,0.2-1.3,0.2-2H490.5z"/>
					<path class="st25" d="M624.7,927.1h-65.5c-0.1-0.2-0.1-0.5-0.2-0.7c-0.1-0.4-0.2-0.9-0.3-1.3h65.8
						C624.5,925.8,624.6,926.5,624.7,927.1z"/>
					<path class="st25" d="M487.3,941.1c-0.1,0.7-0.3,1.3-0.4,2h-65.4c0.1-0.7,0.2-1.3,0.3-2H487.3z"/>
					<path class="st25" d="M626.5,943.1h-63.8c-0.2-0.7-0.3-1.3-0.5-2h64C626.4,941.8,626.4,942.5,626.5,943.1z"/>
					<path class="st25" d="M484,957.1v2h-65.1c0.1-0.7,0.2-1.3,0.3-2H484z"/>
					<path class="st25" d="M628.3,959.1h-62.1c-0.1-0.7-0.3-1.3-0.4-2h62.3C628.2,957.8,628.2,958.5,628.3,959.1z"/>
					<path class="st25" d="M480.2,973.1c-0.2,0.7-0.3,1.3-0.5,2H416c0.1-0.7,0.3-1.3,0.4-2H480.2z"/>
					<path class="st25" d="M630.1,975.1h-60.3c-0.1-0.7-0.3-1.3-0.4-2h60.6c0,0.3,0.1,0.6,0.1,0.9
						C630,974.4,630.1,974.8,630.1,975.1z"/>
					<path class="st25" d="M476.2,989.1c-0.2,0.7-0.3,1.3-0.5,2h-63.1c0.1-0.7,0.3-1.3,0.4-2H476.2z"/>
					<path class="st25" d="M631.9,991.1h-58.6c-0.1-0.7-0.3-1.3-0.4-2h58.8C631.8,989.8,631.9,990.5,631.9,991.1z"/>
					<path class="st25" d="M472,1005.1c-0.2,0.7-0.3,1.3-0.5,2h-62.6c0.2-0.7,0.3-1.3,0.5-2H472z"/>
					<path class="st25" d="M633.7,1007.1h-56.9c-0.2-0.7-0.3-1.3-0.4-2h57.1C633.6,1005.8,633.7,1006.5,633.7,1007.1z"/>
					<path class="st25" d="M468.1,1019.1c-0.2,0.7-0.4,1.3-0.6,2h-62.3c0.2-0.7,0.3-1.3,0.5-2H468.1z"/>
					<path class="st25" d="M635.3,1021.1H580c-0.1-0.7-0.3-1.3-0.4-2h55.6C635.2,1019.8,635.2,1020.5,635.3,1021.1z"/>
					<path class="st25" d="M463.5,1035.1c-0.2,0.7-0.4,1.3-0.6,2h-62c0.2-0.7,0.4-1.3,0.6-2H463.5z"/>
					<path class="st25" d="M637.1,1037.1h-53.6c-0.2-0.7-0.3-1.3-0.5-2h53.8C637,1035.8,637.1,1036.5,637.1,1037.1z"/>
					<path class="st25" d="M458.5,1051.1c-0.2,0.7-0.4,1.3-0.6,2h-61.8c0.2-0.7,0.4-1.3,0.6-2H458.5z"/>
					<path class="st25" d="M638.9,1053.1H587v-0.3c-0.1-0.6-0.2-1.1-0.4-1.7h52.1C638.8,1051.8,638.9,1052.5,638.9,1053.1z"/>
					<path class="st25" d="M455,1067.1v2h-33v-0.4c-4.7-0.4-9.3-0.8-14-1.1c-0.7-0.1-1.3-0.1-2-0.2c-1.4-0.1-2.7-0.2-4.1-0.3H455z"
						/>
				</g>
				<linearGradient id="SVGID_7_" gradientUnits="userSpaceOnUse" x1="392" y1="843.315" x2="461.8047" y2="843.315">
					<stop  offset="0" style="stop-color:#FFFFFF"/>
					<stop  offset="0.7781" style="stop-color:#85AAB0"/>
				</linearGradient>
				<path class="st26" d="M397.8,1066.8c-1.9-0.1-3.9-0.3-5.8-0.5c34.7-107.9,38-183.1,34-232.9c-1.7-21.1-8.3-82.3-3-165.8
					c1.2-19.5,2.8-35.5,4-46c9.5-0.6,19-1.2,28.6-1.9C463.6,691.3,477.2,881.1,397.8,1066.8z"/>
				<path class="st27" d="M640,1062.5c-16.7,1.3-33.3,2.5-50,3.8c-25.3-114.4-50.7-228.8-76.1-343.3l81.1-58.7
					C610,797.1,625,929.8,640,1062.5z"/>
				<polygon class="st28" points="583.5,1058.1 588,1066.8 644.1,1062.5 646,1051.9 				"/>
				<path class="st28" d="M391.8,1056.8c0.1,3.2,0.1,6.4,0.2,9.5c20.7,2.7,41.3,5.4,62,8.1l3.9-8.5
					C435.8,1062.9,413.8,1059.8,391.8,1056.8z"/>
			</g>
			<g id="pullover">
				<path class="st11" d="M490,655.1c-27.3-6.7-54.7-13.3-82-20c0.4-3,0.7-6,1.1-9c0.4-3.3,0.8-6.6,1.1-9.8
					c1.8-16,3.4-31.2,4.8-45.4c4.3-44.9,6.5-81.5,7.1-112.8c0,0,1.6-61.5,27-82c6.2-5,12.8-8.2,19-10.4c3-1,5.8-1.8,8.6-2.3
					c3-0.6,5.9-1.1,8.4-1.3v0c1.6,53.9,2.8,107.8,3.7,161.7v0c0.1-0.1,0.1-0.1,0,0c0.1,3.1,0.1,6.3,0.1,9.4
					c0.6,37.4,1,74.8,1.1,112.2C490,648.7,490,651.9,490,655.1z"/>
				<path class="st11" d="M611,642.1c-3.6,1-7.4,2-11.3,2.9c-4.8,1.1-9.8,2.1-15.1,3c-3.7,0.6-7.4,1.2-10.9,1.6
					c-5.1,0.7-10,1.1-14.7,1.5c0-2.1,0.1-4.3,0.1-6.4c0.8-38.8,1.2-78.2,1.2-118.3c0-55.3-0.8-109.4-2.4-162.2v0
					c0.2,0.1,0.5,0.1,0.8,0.2c0,0,0,0,0,0c2.3,0.6,5.1,1.6,8.2,3c2.2,1,4.6,2.3,7,3.8c24.5,15.9,30.9,72.8,32.5,96
					c0.4,6.2,0.5,10,0.5,10c0.1,6.3,0.3,12.7,0.4,19c1,45.4,2.2,90,3.4,139.8C610.9,638,611,640,611,642.1z"/>
				<path class="st8" d="M490,655.1c-27.3-6.7-54.7-13.3-82-20c0.4-3,0.7-6,1.1-9l80.9,19.3C490,648.7,490,651.9,490,655.1z"/>
				<path class="st8" d="M611,642.1c-7.9,2.2-16.8,4.2-26.4,5.9c-9.2,1.6-17.7,2.5-25.6,3.1c0-2.1,0.1-4.3,0.1-6.4l51.7-8.8
					C610.9,638,611,640,611,642.1z"/>
				<path class="st29" d="M477.9,533.5c0,0-4,62.8-67.8,82.9c1.8-16,3.4-31.2,4.8-45.4C437.3,560.9,461.9,547.9,477.9,533.5z"/>
				<path class="st29" d="M447,493.6c-5.4,9.4-10.5,18.2-18.5,18.5c-8.6,0.3-17.5-9.4-18.5-18.5c-2.2-21.1,38.7-43.4,47-36.5
					C463.4,462.4,451.6,485.6,447,493.6z"/>
			</g>
			<g id="finger_left_1_">
				<path class="st15" d="M513.9,458.9c-0.1,1.2-0.9,3.1-1.9,5c-1.5,3-3.4,6.1-4,7.2c-0.9,1.7-1.8,4-2,7.2c-0.1,1.4-0.1,3.1,0.1,4.9
					c-3.5,3.4-7.6,6.9-9.1,5.9c-0.7-0.5-0.4-1.8,0-5c1.2-9.8-0.2-11.7,1.9-14.7c1.1-1.6,1.1-0.5,6.1-4.3c4.9-3.7,8.1-7.3,8.8-6.7
					C514,458.5,513.9,458.8,513.9,458.9z"/>
				<path class="st22" d="M512,464c-1.5,3-3.4,6.1-4,7.2c-0.9,1.7-1.8,4-2,7.2c-2,1.7-3.6,2.1-3.5-1.2
					C502.6,472,507.8,467.1,512,464z"/>
			</g>
			<g id="tablet">
				<linearGradient id="SVGID_8_" gradientUnits="userSpaceOnUse" x1="505.3052" y1="501.0358" x2="583.6821" y2="437.0132">
					<stop  offset="0" style="stop-color:#263041"/>
					<stop  offset="1" style="stop-color:#302E41"/>
				</linearGradient>
				<path class="st30" d="M579.3,436.8l-6,27L561,519.1l-2,9.1c-0.7,3.3-3.7,5.6-6.5,5.2l-49-6.8c-0.6-0.1-1.1-0.3-1.6-0.5
					c-0.2-0.1-0.5-0.3-0.7-0.4c-4.1-2.7-4.4-7.8-4-9.3l18.1-81.3l3.6-16c0.8-3.5,4-5.7,7.1-4.8l15,3.9l32.7,8.5
					c0.8,0.2,1.5,0.6,2.1,1.2c0,0,3.1,2.6,3.5,5.9C579.5,434.6,579.5,435.7,579.3,436.8z"/>
				<linearGradient id="SVGID_9_" gradientUnits="userSpaceOnUse" x1="533.5172" y1="473.2799" x2="565.0183" y2="447.548">
					<stop  offset="0" style="stop-color:#FFFFFF"/>
					<stop  offset="0.7781" style="stop-color:#85AAB0"/>
				</linearGradient>
				<path class="st31" d="M573.3,463.8L561,519.1c-12.3-22.5-34.1-62.6-45.8-84.1l3.6-16c0.8-3.5,4-5.7,7.1-4.8l15,3.9L573.3,463.8z
					"/>
			</g>
			<g id="hand_right">
				<path class="st15" d="M782.2,400.5c1,1.5-7.5,12.3-18.9,14.3c-0.8,0.1-2.4,0.4-4.2,0.5l0,0l-12.2,2.1l-8.3,1.4l-10.5,1.8
					l-7.9,1.3c-1.2-0.4-2.6-0.9-4-1.6c-1.1-0.5-2.2-1.1-3.1-1.6c0-0.3,0-0.6,0-0.9c0.8-2,1.4-3.9,2-5.4c0.6-1.6,1-3,1.4-3.9
					c0.6-0.9,1.6-1.9,3.4-3.4c0.3-0.2,0.6-0.5,0.9-0.7c7.1-5.3,20.2-13.3,24.2-14.8c0.6-0.2,3.6-1.4,4.2-0.4
					c1.6,2.2-11.5,12.2-9.6,15.5c1.5,2.6,10.7-0.1,11.8-0.4c1.3-0.4,4.9-1.5,9-4.3c4.2-2.8,9.2-6.3,11-11.3c0.3-0.9,1-3.1,3-4.6
					c0.3-0.2,1.6-1.2,2.4-0.8c0.3,0.2,0.5,0.7,0.5,1.2c0.8-0.5,1.8-1,2.3-0.7c1.4,1.1-2.6,11.9-11.1,18.9c2.8-1.8,5.6-4.1,7.3-7.1
					c0.5-0.8,1.8-3.4,4.7-4.8c0.9-0.4,2.2-1.1,2.6-0.7c0.9,0.8-1.2,6.3-5.7,11.6c0.7-0.5,1.5-0.9,2.5-1.1
					C780.6,400.3,781.8,400,782.2,400.5z"/>
				<path class="st22" d="M746.9,417.3l-8.3,1.4l-10.5,1.8l-13-8.2c0.6-1.6,1-3,1.4-3.9c0.6-0.9,1.6-1.9,3.4-3.4
					c0.3-0.2,0.6-0.5,0.9-0.7C728.2,408,740.1,414,746.9,417.3z"/>
				<path class="st11" d="M743,418.1C743,418.2,743,418.2,743,418.1c-0.2,1.6-0.4,3.2-0.7,4.9c-2.1,14.2-7.2,35.2-20.3,57.1
					c-7.5,12.5-17,28.3-30,38.4c-6.2,4.8-13.1,8.3-21,9.6c-10.5,1.7-21.6-0.4-32.3-5.6c-11.2-5.5-22.1-14.5-31.2-26.4
					c-5.5-7-10.4-15.1-14.4-24c-1.6-4.8-3.1-9.7-4.7-14.5c-10.1-31.2-20.2-62.3-30.3-93.5c18.1,1.6,29.2,7.7,36,13
					c25.9,20.1,21.3,52.9,55,90c9.1,10,13.3,11.7,17,12c22.3,1.5,43.7-53.4,47.1-62c0.3-0.8,0.6-1.6,0.9-2.3c0.9-2.4,1.6-4.3,2-5.7
					c4.3,1,9,2.3,14,4c2.3,0.8,4.5,1.6,6.6,2.4C738.8,416.4,741,417.3,743,418.1z"/>
				<path class="st8" d="M688.5,516.9l1-1.8c0.1-0.2,0.1-0.5-0.2-0.7c-0.2-0.1-0.5-0.1-0.7,0.2l-1.1,1.9c-2.2-0.9-4.4-1.7-6.4-2.3
					l0.7-2.5c0.1-0.3-0.1-0.5-0.4-0.6c-0.3-0.1-0.5,0.1-0.6,0.4l-0.6,2.4c-2.1-0.6-4.1-1.1-6.1-1.4l0.2-1.9c0-0.3-0.2-0.5-0.5-0.5
					c-0.3,0-0.5,0.2-0.5,0.5l-0.2,1.9c-2.5-0.4-5-0.6-7.2-0.6l-0.3-2.3c0-0.3-0.3-0.5-0.6-0.4c-0.3,0-0.5,0.3-0.4,0.6l0.3,2.1
					c-2.2,0-4.2,0.2-6.2,0.6l-0.4-1.8c-0.1-0.3-0.3-0.4-0.6-0.4c-0.3,0.1-0.4,0.3-0.4,0.6l0.4,1.8c-2.1,0.4-4,1-5.7,1.6l-1-1.3
					c-0.2-0.2-0.5-0.3-0.7-0.1c-0.2,0.2-0.3,0.5-0.1,0.7l0.8,1.1c-1.9,0.7-3.6,1.6-5.1,2.5l-0.9-1.2c-0.2-0.2-0.5-0.3-0.7-0.1
					c-0.2,0.2-0.3,0.5-0.1,0.7l0.8,1.1c-2.6,1.6-4.7,3.4-6.4,5c10.7,5.3,21.8,7.3,32.3,5.6c7.9-1.3,14.9-4.8,21-9.6
					C690.8,517.9,689.7,517.4,688.5,516.9z"/>
				<path class="st8" d="M743,418.1C743,418.2,743,418.2,743,418.1c-0.2,1.6-0.4,3.2-0.7,4.9l-28.4-8.3c0.9-2.4,1.6-4.3,2-5.7
					c4.3,1,9,2.3,14,4C734.7,414.7,739.1,416.4,743,418.1z"/>
				<path class="st29" d="M743,418.1C743,418.2,743,418.2,743,418.1c-0.2,1.6-0.4,3.2-0.7,4.9c-2.1,14.2-7.2,35.2-20.3,57.1
					c-7.5,12.5-17,28.3-30,38.4c-6.2,4.8-13.1,8.3-21,9.6c-10.5,1.7-21.6-0.4-32.3-5.6c-11.2-5.5-22.1-14.5-31.2-26.4
					c1,45.4,2.2,90,3.4,139.8c0.1,2.1,0.1,4.1,0.2,6.2c-3.6,1-7.4,2-11.3,2.9c-4.8,1.1-9.8,2.1-15.1,3c-3.7,0.6-7.4,1.2-10.9,1.6
					c2.6-42.3,11.3-183.1,12.3-187.5c0.6-2.8,2.3-4.5,2.3-4.5c4.1-5.2,9.8,0.7,18.2,9.5c13.6,14.4,34.3,36.6,66.5,32
					c49-7,61.3-68.5,63.6-83.6C738.7,416.4,740.8,417.3,743,418.1z"/>
			</g>
			<g id="hand_left">
				<path class="st15" d="M547,474.1c0.2,0.5,0.7,2.3-7,9c-3,2.6-5.9,4.8-9,7c-1.3,0.9-11.2,7.7-21.6,14.7c-2.8,1.9-5.7,3.9-8.4,5.7
					c-4.3,2.9-8.2,5.6-11.2,7.6c0-7.3,0.1-14.7,0.1-22c1.9-2.5,3.7-4.8,5.5-6.8c3.2-3.7,6.2-6.7,8.6-9c2.7-2.5,3.3-2.9,5.7-4.9
					c1.9-1.5,2.9-2.4,5.2-4.3c13.7-11.8,22.2-17.8,24-17c0.1,0,0.8,0.3,1,1c1,2.7-6.8,7.1-17,17c-1.3,1.3-2.3,2.3-3,3
					c6.5-3.6,11-7.3,14-10c2.9-2.7,7.7-7.5,10.3-6.2c0,0,0,0,0,0c0,0,0.5,0.2,0.7,0.9c0.6,1.3-2.3,4.5-4.2,6.5
					c1.9-1.4,4-2.7,5.1-2.2c0.1,0,0.7,0.3,1,1c0.7,1.7-1.6,4-7,9c-5.2,4.8-7.7,7.2-10,9c-1.3,1-2.8,2.1-4.3,3.2
					c4.2-2.3,7.3-4.6,9.3-6.2c0,0,9.7-7.7,11-7C546.8,473.5,547,474.1,547,474.1z"/>
				<path class="st22" d="M509.4,504.9c-2.8,1.9-5.7,3.9-8.4,5.7l-5.5-21.2L509.4,504.9z"/>
				<path class="st11" d="M503,509.1c-1.6,1.8-3.3,3.6-5.2,5.6c-13.2,14-34.2,32.7-63.8,47.4c-16.7,8.3-35.8,17.8-51.3,19.8
					c-2.8,0.4-5.4,0.5-7.9,0.3c-4.5-0.3-8.5-1.6-11.8-4.1c-7.2-5.6-9.2-16-7.7-30.2c0.2-1.6,0.4-3.3,0.6-5
					c2.1-14.3,7.1-31.9,13.5-51.9c3.2-10,6.8-20.7,10.5-31.8c1.9-5.8,14.7-42.8,40.7-68.9c1.1-1.1,2.4-2.4,4.3-4.1
					c8.8-7.6,18.3-12.8,27.2-16.3c12.8-5.1,24.7-6.9,32.8-7.7c0.3,24,0.7,48,1,72c-4.9,4-10.8,9-17.4,15.2
					c-7,6.6-14.8,14.5-22.6,23.8c-12.6,14.8-27.8,32.7-24,38c2,2.7,9.5,2.8,32-6.9l0,0c9.8-4.2,22.4-10.3,38.6-18.7
					c1.4-0.8,2.9-1.5,4.4-2.3C499,491.8,501,500.5,503,509.1z"/>
				<path class="st8" d="M384,578.5c-0.1-0.3-0.4-0.4-0.6-0.3l-1.5,0.5c-0.6-1.9-1.3-3.9-2.2-5.9l2-0.7c0.3-0.1,0.4-0.4,0.3-0.6
					c-0.1-0.3-0.4-0.4-0.6-0.3l-2.1,0.7c-1.1-2.4-2.4-4.8-4-7.1l2.1-1.5c0.2-0.2,0.3-0.5,0.1-0.7s-0.5-0.3-0.7-0.1l-2.1,1.5
					c-1.3-1.8-2.7-3.6-4.4-5.3l1.9-1.6c0.2-0.2,0.2-0.5,0.1-0.7c-0.2-0.2-0.5-0.2-0.7-0.1l-1.9,1.7c-0.4-0.4-0.9-0.9-1.3-1.3
					c-1.1-1-2.2-1.9-3.3-2.8l1.5-2.6c0.1-0.2,0.1-0.5-0.2-0.7c-0.2-0.1-0.5-0.1-0.7,0.2l-1.5,2.5c-1.7-1.2-3.3-2.3-4.9-3.2l0.7-2.1
					c0.1-0.3-0.1-0.5-0.3-0.6c-0.3-0.1-0.5,0.1-0.6,0.3l-0.7,2c-1-0.6-2.1-1.1-3.1-1.5c-1.5,14.2,0.5,24.7,7.7,30.2
					c3.3,2.5,7.3,3.8,11.8,4.1c2.5,0.2,5.2,0,7.9-0.3c-0.2-0.8-0.4-1.5-0.6-2.3l1.5-0.5C383.9,579,384.1,578.7,384,578.5z"/>
				<path class="st8" d="M503,509.1c-1.6,1.8-3.3,3.6-5.2,5.6l-5.3-29.3c1.4-0.8,2.9-1.5,4.4-2.3C499,491.8,501,500.5,503,509.1z"/>
				<linearGradient id="SVGID_10_" gradientUnits="userSpaceOnUse" x1="369.46" y1="430.39" x2="452.24" y2="430.39">
					<stop  offset="0" style="stop-color:#FFFFFF;stop-opacity:0.5"/>
					<stop  offset="0.8362" style="stop-color:#DB7643"/>
				</linearGradient>
				<path class="st32" d="M452.2,369.8c-6.6,7.6-15.3,18.8-27.2,34.3c-15.8,20.5-26.3,37.9-55.5,86.8c3.2-10,6.8-20.7,10.5-31.8
					c1.9-5.8,14.7-42.8,40.7-68.9c1.1-1.1,2.4-2.4,4.3-4.1C433.8,378.6,443.3,373.4,452.2,369.8z"/>
			</g>
		</g>
		<g id="vase_with_plants">
			<g id="plants">
				<g>
					<path class="st33" d="M167.7,521.2c-0.3-16.8-0.5-33.6-0.8-49.5c3.4,2.4,12.8-7.5,12.8-7.5s-0.1,0-0.2,0h0
						c-1.5,0.1-9.7,0.6-12.6,3.2c-0.2-13.6-0.4-26.5-0.6-38.2c9.4-1.4-1.3-26.8-1.9-28.2v0c0,0,0,0,0,0s-8.8,24.4-1,27.9
						c0.1,5.4,0.2,13,0.3,22.3c-4.2-4.7-11.9-9.2-11.9-9.2s5.5,19.8,12,17.5c0.1,5.5,0.2,11.5,0.3,17.8c-2.6-3-13.5-2.1-13.9-2h0
						c0,0,11.1,9.3,14,5.2c0,0,0,0,0,0c0.4,24.2,0.8,52.9,1.3,80.4c-5.3-0.1-10.5,0.7-11.7,3.9c-1.3-8-2.7-16.2-4.1-24.5
						c4.2,2,9.9-11.5,10.1-12.1c0,0,0,0,0,0l0,0c-0.5,0.2-8.3,3.7-10.9,7.3c-1.6-9.8-3.3-19.8-5-29.7c6.1,1.7,15.3-15.6,16.4-17.7
						c0.1-0.1,0.1-0.2,0.1-0.2s-13.1,4.4-17.8,9.9c-1.4-8.6-2.9-17.2-4.3-25.6c-0.8-4.7-1.6-9.3-2.3-13.8
						c-1.3-7.8-2.6-15.4-3.8-22.7c6.8,2.2,16.5-18.9,16.8-19.5c-0.4,0.2-13.4,5.3-18.1,11.2c-0.5-3-1-5.9-1.5-8.7
						c8.7-2.1,5.7-31.5,5.7-31.5s-0.1,0.1-0.2,0.2c-2,2.6-19.9,27-8.5,31c1.3,7.8,3.5,21.2,6.3,38c-2.5-1.7-10.6,1.6-10.6,1.6
						s9.3,4,11,1c0.1,0.3,0.1,0.6,0.2,0.9c0.8,5,1.7,10.3,2.6,15.8c2.3,13.9,4.9,29.1,7.5,44.6c-5-3.3-15.2-5-16.9-5.2c0,0,0,0,0,0
						c-0.2,0-0.2,0-0.2,0s12.8,16.8,18.3,12.2c1.3,7.8,2.6,15.7,3.9,23.5c-3.7-4.5-20.5,3.4-20.5,3.4s19.3,7,21.1,0
						c8.8,52.8,16.9,100.3,17.3,101.6c0.1,0.4,0.5,0.7,0.8,0.9c0.2,7.1,0.3,11.3,0.4,11.7c0.1,0.7,0.8,1.2,1.4,1.2
						c0.1,0,0.2,0,0.3,0c0.8-0.2,1.3-0.9,1.2-1.7c-0.2-1.8-0.9-38.4-1.7-85.1c0-1.3,0-2.5-0.1-3.8c0-2.3-0.1-4.7-0.1-7.1
						c0-0.6,0-1.3,0-2c0-0.7,0-1.4,0-2.1c4.9-2.3,9.2-5.1,9.5-5.3l0,0c0,0-4.5-0.9-9.6-1.3c-0.2-11.3-0.4-23-0.6-34.8
						c3.6,4.1,13-5.8,16.2-9.4c0,0,0,0,0,0c0.7-0.8,1.1-1.3,1.1-1.3S171.4,516.7,167.7,521.2z M165.6,568.8c0,0.9,0,1.7,0,2.6
						c0,0.4,0,0.8,0,1.2c0.1,3.5,0.1,7,0.2,10.4c0,0.2,0,0.5,0,0.8c0.4,22.6,0.8,43.2,1,58.5c-2.6-14.9-7.1-41.6-12.3-72.9
						C156.5,571.5,161,570.6,165.6,568.8z"/>
					<path class="st33" d="M201.9,488.4c-0.5,3-1,6.1-1.5,9.1c4-0.9,12.3,6.9,12.3,6.9s-0.1,0-0.3,0c-1.6,0-9.7,0-12.8-2.3
						c-2,11.5-3.9,22.9-5.8,33.9c5.8-2.4,18.8,1.3,18.8,1.3s-15,8.5-20,5.5c-1.1,6.6-2.2,13-3.3,19.2c-0.7,4.3-1.5,8.6-2.1,12.7
						c-5.9,34.8-10.1,59.9-10.2,61.4c0,0.8-0.7,1.5-1.5,1.5s-1.5-0.7-1.5-1.5c0-1,4.2-26.2,9.9-60c0.8-4.6,1.6-9.3,2.4-14.2
						c0-0.1,0-0.3,0.1-0.4c-6.4,1.9-11.1-17.5-11.1-17.5s8.7,5.6,12.3,10.6c3.3-19.4,6.9-40.4,10.3-60.6c1.4-8.5,2.9-16.8,4.2-24.8
						c0,0,0-0.1,0-0.1c-0.1,0-0.2,0-0.2,0.1l0,0c-5.5,1.4-16.9-9-17.6-9.6c0,0,0,0,0,0s14.3-0.5,18.9,3.2c1.5-9,3-17.6,4.3-25.5
						c-6.4,0.9-17.8-13-17.8-13s0,0,0.1,0c1.5,0.2,13.8,1.6,18.9,5.4c0,0,0,0,0,0c0.1-0.8,0.3-1.5,0.4-2.3l0-0.2
						c2-11.5,3.6-20.8,4.6-27c-10.5-1.3-8.6-33.6-8.6-33.6s0.1,0.1,0.3,0.3c2.6,3.1,22.9,28.5,11.4,32.9c0,0,0,0-0.1,0
						c-0.8,5-1.7,10.1-2.7,15.5c6.4-3.2,18.8-3.2,20.4-3.2h0c0.1,0,0.2,0,0.2,0s-15.7,15-22,12.1h0c-0.1,0-0.1,0-0.2-0.1
						c-1.4,8.4-2.9,17.2-4.5,26.2c5.5-3,18.6-0.6,20.8-0.2h0c0.2,0,0.3,0.1,0.3,0.1s-17.5,11.5-22.3,7.1c0,0.2-0.1,0.4-0.1,0.6v0
						c-0.5,3.1-1.1,6.3-1.6,9.5C204.3,474.4,203.1,481.4,201.9,488.4z"/>
				</g>
				<path class="st34" d="M217.1,399.7c-2.6-7.7-7.5-22-11.4-32.9C208.3,370,228.6,395.3,217.1,399.7z"/>
				<path class="st34" d="M235,412.1c0,0-15.7,15-22,12.1h0l0-0.1l21.8-12h0C234.9,412.1,235,412.1,235,412.1z"/>
				<path class="st34" d="M229.5,450.3c0,0-17.5,11.5-22.3,7.1c0,0.2-0.1,0.4-0.1,0.6l-0.1-0.8l22.2-6.9h0
					C229.4,450.2,229.5,450.3,229.5,450.3z"/>
				<path class="st34" d="M202,469.1L202,469.1c-5.5,1.5-16.9-9-17.6-9.6L202,469.1z"/>
				<path class="st34" d="M212.6,504.4c0,0-0.1,0-0.3,0c-3.9-1.3-10-3.8-12-6.9C204.4,496.5,212.6,504.4,212.6,504.4z"/>
				<path class="st34" d="M212.6,537.3l-18.8-1.3C199.6,533.7,212.6,537.3,212.6,537.3z"/>
				<path class="st34" d="M186.5,561.5c-6.4,1.9-11.1-17.5-11.1-17.5L186.5,561.5z"/>
				<path class="st34" d="M208.9,429.7l-0.7,3.8c-9.4-3.1-15-6.6-18.2-9.2C191.6,424.5,203.8,425.9,208.9,429.7z"/>
				<path class="st34" d="M166.3,429.2l-1.9-28.2C165,402.4,175.6,427.8,166.3,429.2z"/>
				<path class="st34" d="M163.8,459.4c-6.5,2.3-12-17.5-12-17.5C154,446,157.7,452.1,163.8,459.4z"/>
				<path class="st34" d="M179.7,464.2c0,0-9.3,9.9-12.8,7.5c1.6-3,8.8-6,12.5-7.5h0C179.6,464.2,179.7,464.2,179.7,464.2z"/>
				<path class="st34" d="M164.1,480.3C164.1,480.3,164.1,480.3,164.1,480.3c-2.9,4.2-14-5.1-14-5.1h0L164.1,480.3z"/>
				<path class="st34" d="M185.2,515.4c0,0-0.4,0.5-1.1,1.3c0,0,0,0,0,0c-4.2,2.2-11.5,5.4-16.3,4.5
					C171.4,516.7,185.2,515.4,185.2,515.4z"/>
				<path class="st34" d="M134.8,387.3l-8.5,31C114.9,414.3,132.9,389.9,134.8,387.3z"/>
				<path class="st34" d="M148.9,416.1c-11.6,12.9-18.1,11.2-18.1,11.2C135.5,421.4,148.5,416.2,148.9,416.1z"/>
				<path class="st34" d="M133.1,458.9c-1.7,3-11-1-11-1S132.8,457.1,133.1,458.9z"/>
				<path class="st34" d="M160.3,488c-1.1,2.1-10.3,19.3-16.4,17.7C146.9,497.6,156,490.8,160.3,488z"/>
				<path class="st34" d="M144.5,527.1c-5.5,4.5-18.3-12.2-18.3-12.2s0.1,0,0.2,0c0,0,0,0,0,0C133.9,519.3,144.9,526,144.5,527.1z"
					/>
				<path class="st34" d="M159.8,528.1C159.8,528.1,159.8,528.1,159.8,528.1c-0.3,0.5-5.6,8.3-11,7.3
					C151.5,531.7,159.3,528.3,159.8,528.1L159.8,528.1z"/>
				<path class="st34" d="M127.9,554c0,0,16.8-8,20.5-3.4C149.4,553.3,127.9,554,127.9,554z"/>
				<path class="st34" d="M178,562.2c-3.1,3.1-6.1,5.2-8.3,6.7c-4.4,2.8-7.3,4.6-10.5,3.8c-2.2-0.6-3.8-2.2-4.6-3.3
					C162.4,567,170.2,564.6,178,562.2z"/>
				<path class="st16" d="M205.5,467.4c-1.2,6.9-2.4,14-3.6,21L198,494c1.4-8.5,2.9-16.8,4.2-24.8
					C203.3,468.6,204.4,468,205.5,467.4z"/>
				<path class="st16" d="M138.3,472.1l-2.4,3.4c-0.9-5.5-1.8-10.8-2.6-15.8c0.9-0.5,1.8-1,2.7-1.5
					C136.7,462.8,137.5,467.4,138.3,472.1z"/>
				<path class="st16" d="M189.4,562.1c-0.7,4.3-1.5,8.6-2.1,12.7l-3.2,1.3c0.8-4.6,1.6-9.3,2.4-14.2
					C187.4,562,188.4,562.1,189.4,562.1z"/>
			</g>
			<g id="vase">
				<path class="st20" d="M199.3,627.8v81.4c0,1,0,2-0.2,2.9h-59c-0.1-1-0.1-1.9-0.1-2.9v-81.4c0-11,6-20.5,14.8-25.7
					c0.1,0,0.1-0.1,0.2-0.1v-11.9h30v12.3C193.6,607.6,199.3,617,199.3,627.8z"/>
				<polygon class="st5" points="185,590.1 185,602.3 155,602 155,590.1 				"/>
				<path class="st5" d="M199.3,701.1v8.1c0,1,0,2-0.2,2.9h-59c-0.1-1-0.1-1.9-0.1-2.9v-8.1H199.3z"/>
				<path class="st21" d="M199.4,627.8v81.4c0,1,0,2-0.2,2.9H184l-9.2-122h10.3v12.3C193.7,607.6,199.4,617,199.4,627.8z"/>
			</g>
		</g>
		<g id="books">
			<g id="book3">
				<path class="st35" d="M311.6,709.1c0.2,0.7,0.4,1.4,0.5,2h-121c-1.2-1.9-4.1-6.9-4-14c0.1-6.5,2.8-11.1,4-13h121
					c-0.1,0.3-0.2,0.6-0.3,1c-0.9,3.2-1.8,7.7-1.7,13C310.2,702.5,310.8,706.2,311.6,709.1z"/>
				<path class="st36" d="M316.1,710.6c0,0.8-0.7,1.5-1.5,1.5H190.7c-0.5,0-1-0.2-1.2-0.7c-1.7-2.5-4.5-7.8-4.3-14.9
					c0.1-6.2,2.4-10.9,4.3-13.8c0.3-0.4,0.8-0.7,1.2-0.7h123.4c0.8,0,1.5,0.7,1.5,1.5c0,0.8-0.7,1.5-1.5,1.5H191.5
					c-1.6,2.6-3.3,6.5-3.4,11.5c-0.1,5.7,1.9,10,3.4,12.5h123.1C315.5,709.1,316.1,709.8,316.1,710.6z"/>
				<path class="st37" d="M305.6,690.1h-111c-0.3,0-0.5-0.2-0.5-0.5s0.2-0.5,0.5-0.5h111c0.3,0,0.5,0.2,0.5,0.5
					S305.9,690.1,305.6,690.1z"/>
				<path class="st37" d="M305.6,692.1h-111c-0.3,0-0.5-0.2-0.5-0.5s0.2-0.5,0.5-0.5h111c0.3,0,0.5,0.2,0.5,0.5
					S305.9,692.1,305.6,692.1z"/>
				<path class="st37" d="M305.6,694.1h-111c-0.3,0-0.5-0.2-0.5-0.5s0.2-0.5,0.5-0.5h111c0.3,0,0.5,0.2,0.5,0.5
					S305.9,694.1,305.6,694.1z"/>
				<path class="st37" d="M305.6,696.1h-111c-0.3,0-0.5-0.2-0.5-0.5s0.2-0.5,0.5-0.5h111c0.3,0,0.5,0.2,0.5,0.5
					S305.9,696.1,305.6,696.1z"/>
				<path class="st37" d="M305.6,698.1h-111c-0.3,0-0.5-0.2-0.5-0.5s0.2-0.5,0.5-0.5h111c0.3,0,0.5,0.2,0.5,0.5
					S305.9,698.1,305.6,698.1z"/>
				<path class="st37" d="M305.6,700.1h-111c-0.3,0-0.5-0.2-0.5-0.5s0.2-0.5,0.5-0.5h111c0.3,0,0.5,0.2,0.5,0.5
					S305.9,700.1,305.6,700.1z"/>
				<path class="st37" d="M305.6,702.1h-111c-0.3,0-0.5-0.2-0.5-0.5s0.2-0.5,0.5-0.5h111c0.3,0,0.5,0.2,0.5,0.5
					S305.9,702.1,305.6,702.1z"/>
				<path class="st37" d="M305.6,704.1h-111c-0.3,0-0.5-0.2-0.5-0.5s0.2-0.5,0.5-0.5h111c0.3,0,0.5,0.2,0.5,0.5
					S305.9,704.1,305.6,704.1z"/>
				<path class="st37" d="M305.6,706.1h-111c-0.3,0-0.5-0.2-0.5-0.5s0.2-0.5,0.5-0.5h111c0.3,0,0.5,0.2,0.5,0.5
					S305.9,706.1,305.6,706.1z"/>
			</g>
			<path class="st38" d="M316.1,710.6c0,0.8-0.7,1.5-1.5,1.5h-66.4c0.1-0.3,0.1-0.7,0.2-1c0-0.1,0.1-0.2,0.1-0.4
				c0.1-0.5,0.2-1.1,0.2-1.6c0-0.4,0.1-0.8,0.1-1.1c0.1-0.8,0.1-1.6,0.2-2.4c0-0.7,0-1.3,0-2c0-0.1,0-0.3,0-0.4c0-0.5,0-1-0.1-1.6
				c0-0.4,0-0.8-0.1-1.2c0-0.3-0.1-0.6-0.1-0.8c-0.1-0.6-0.2-1.3-0.3-1.9c0,0,0-0.1,0-0.1c-0.1-0.7-0.2-1.3-0.3-2
				c0-0.2-0.1-0.4-0.1-0.7c-0.1-0.4-0.2-0.9-0.3-1.3c-0.1-0.5-0.2-0.9-0.4-1.4c0-0.2-0.1-0.4-0.2-0.6c-0.2-0.7-0.4-1.3-0.6-2
				c0,0,0-0.1,0-0.2c-0.3-0.9-0.6-1.8-1-2.8c-0.2-0.5-0.4-1.1-0.6-1.6c-0.1-0.3-0.3-0.7-0.4-1c0,0,0-0.1-0.1-0.1
				c-0.3-0.6-0.5-1.2-0.8-1.9h70.5c0.8,0,1.5,0.7,1.5,1.5c0,0.8-0.7,1.5-1.5,1.5h-2.3c-0.9,3.2-1.8,7.7-1.7,13c0,4.3,0.7,8.1,1.5,11
				h3C315.5,709.1,316.1,709.8,316.1,710.6z"/>
		</g>
		<linearGradient id="chair_1_" gradientUnits="userSpaceOnUse" x1="23" y1="984.0682" x2="168" y2="984.0682">
			<stop  offset="0" style="stop-color:#263041"/>
			<stop  offset="1" style="stop-color:#302E41"/>
		</linearGradient>
		<path id="chair" class="st39" d="M167.1,822.1H23.9c-0.5,0-0.9,1.6-0.9,3.6v12c0,2,0.4,3.6,0.9,3.6h8.7l60.9,148.5l-62.9,153.4
			c-0.4,1,0.1,2.2,1.1,2.6c0.2,0.1,0.5,0.2,0.8,0.2c0.8,0,1.5-0.5,1.9-1.2l61.4-149.6l61.4,149.6c0.3,0.8,1.1,1.2,1.9,1.2
			c0.3,0,0.5,0,0.8-0.2c1-0.4,1.5-1.6,1.1-2.6L97.9,989.9l60.9-148.5h8.2c0.5,0,0.9-1.6,0.9-3.6v-12
			C168,823.8,167.6,822.1,167.1,822.1z M95.7,984.6L36.9,841.4h117.6L95.7,984.6z"/>
		<g id="table">
			<path class="st8" d="M635,716.3v15.4c0,2.6-1.8,4.6-4,4.6h-27.8c0,1.6,0,3.4,0,5.4c0.1,12.3,0.1,30.4,0.1,53.7
				c0,39.2,0,93.9,0,162.4c-0.1,88.3-0.2,177.3-0.3,216c5.8,1.7,10,7.1,10,13.4c0,7.7-6.3,14-14,14s-14-6.3-14-14
				c0-6.7,4.7-12.3,11-13.7c0.3-140.7,0.1-375.5,0-437.1H58.3c0,1.6,0,3.4,0,5.4c0.1,12.3,0.1,30.4,0.1,53.7c0,39.2,0,93.9,0,162.4
				c-0.1,88.3-0.2,177.3-0.3,216c5.8,1.7,10,7.1,10,13.4c0,7.7-6.3,14-14,14s-14-6.3-14-14c0-6.7,4.7-12.3,11-13.7
				c0.3-140.7,0.1-375.5,0-437.1H30c-2.2,0-4-2.1-4-4.6v-15.4c0-2.6,1.8-4.6,4-4.6H631C633.2,711.7,635,713.7,635,716.3z"/>
			<linearGradient id="SVGID_11_" gradientUnits="userSpaceOnUse" x1="278.47" y1="956.405" x2="635" y2="956.405">
				<stop  offset="0" style="stop-color:#E08944"/>
				<stop  offset="1" style="stop-color:#EBBB5C"/>
			</linearGradient>
			<path class="st40" d="M635,716.3v15.4c0,2.6-1.8,4.6-4,4.6h-27.8c0,1.6,0,3.4,0,5.4c0.1,12.3,0.1,30.4,0.1,53.7
				c0,39.2,0,93.9,0,162.4c-0.1,88.3-0.2,177.3-0.3,216c5.8,1.7,10,7.1,10,13.4c0,7.7-6.3,14-14,14s-14-6.3-14-14
				c0-6.7,4.7-12.3,11-13.7c0.3-140.7,0.1-375.5,0-437.1H284.8l-6.3-24.7H631C633.2,711.7,635,713.7,635,716.3z"/>
		</g>
	</g>
</g>
</svg>
