<?xml version="1.0" encoding="utf-8"?>
<!-- Generator: Adobe Illustrator 22.1.0, SVG Export Plug-In . SVG Version: 6.00 Build 0)  -->
<svg version="1.1" xmlns="http://www.w3.org/2000/svg" xmlns:xlink="http://www.w3.org/1999/xlink" x="0px" y="0px"
	 viewBox="0 0 1077.6 1045.8" style="enable-background:new 0 0 1077.6 1045.8;" xml:space="preserve">
<style type="text/css">
	.st0{fill:#EEEDEE;}
	.st1{opacity:0.5;fill:#FFFFFF;}
	.st2{fill:none;}
	.st3{opacity:0.42;fill:#BDD3DE;}
	.st4{fill:#FC860A;}
	.st5{opacity:0.25;fill:#19233D;}
	.st6{opacity:0.27;fill:url(#SVGID_1_);}
	.st7{fill:#19233D;}
	.st8{fill:#FFFFFF;}
	.st9{opacity:3.000000e-02;fill:url(#SVGID_2_);}
	.st10{opacity:0.13;fill:url(#SVGID_3_);}
	.st11{opacity:8.000000e-02;fill:#19233D;}
	.st12{opacity:0.27;fill:url(#SVGID_4_);}
	.st13{opacity:0.27;fill:url(#SVGID_5_);}
	.st14{opacity:0.2;fill:url(#SVGID_6_);}
	.st15{opacity:0.1;fill:url(#SVGID_7_);}
	.st16{opacity:0.1;fill:url(#SVGID_8_);}
	.st17{fill:#0D2A28;}
	.st18{opacity:9.000000e-02;fill:#0B224C;}
	.st19{opacity:8.000000e-02;fill:url(#SVGID_9_);}
	.st20{opacity:0.35;fill:#0B224C;}
	.st21{fill:#336859;}
	.st22{opacity:0.4;}
	.st23{fill:#271C41;}
	.st24{opacity:8.000000e-02;fill:url(#SVGID_10_);}
	.st25{opacity:4.000000e-02;fill:url(#SVGID_11_);}
	.st26{fill:#BDD3DE;}
	.st27{opacity:0.16;fill:#0B224C;}
	.st28{opacity:0.32;fill:url(#SVGID_12_);}
	.st29{opacity:0.32;fill:url(#SVGID_13_);}
	.st30{fill:#CD907F;}
	.st31{opacity:0.15;fill:#19233D;}
	.st32{opacity:0.16;fill:url(#SVGID_14_);}
	.st33{opacity:0.16;fill:url(#SVGID_15_);}
	.st34{opacity:7.000000e-02;fill:url(#SVGID_16_);}
	.st35{opacity:0.32;fill:url(#SVGID_17_);}
	.st36{opacity:0.14;fill:url(#SVGID_18_);}
	.st37{opacity:0.18;fill:url(#SVGID_19_);}
	.st38{opacity:0.3;fill:url(#SVGID_20_);}
	.st39{opacity:0.1;fill:url(#SVGID_21_);}
	.st40{fill:#302C34;}
	.st41{fill:#A2625E;}
	.st42{opacity:0.12;fill:url(#SVGID_22_);}
	.st43{fill:#9DB5C4;}
	.st44{opacity:0.63;fill:url(#SVGID_23_);}
	.st45{opacity:9.000000e-02;fill:url(#SVGID_24_);}
	.st46{opacity:0.16;fill:url(#SVGID_25_);}
	.st47{opacity:0.1;fill:#19233D;}
</style>
<g id="background">
	<g id="general">
		<path class="st0" d="M1062.2,219.5c0,2,0,4,0,6c-0.3,35.5-3.7,68.2-6.5,92.4c-0.3,2.8-0.6,5.4-0.9,8c0,0.3-0.1,0.6-0.1,0.9
			c-1.5,13.4-3,26.2-4.6,38.3c-4.6,34.5-10.2,63.7-21.7,88.5c-1.2,2.7-2.5,5.3-3.9,7.9c-6.9,12.9-15.7,24.5-27.1,35.1
			c-8,7.3-17.1,14.4-31.8,22.3c-4.1,2.2-8.3,4.3-12.6,6.2c-2.5,1.2-5.1,2.3-7.7,3.4c-44.5,18.5-97.6,25.2-152.1,24.9
			c-2.7,0-5.3,0-8-0.1c-42.6-0.8-85.8-5.7-126.5-12.5c-2.7-0.5-5.3-0.9-8-1.4c-26.8-4.7-52.4-10.2-75.8-15.8
			c-14.7-3.5-28.6-7.1-41.3-10.6c-2.7-0.7-5.3-1.4-7.8-2.2c-45.7-12.7-75-23.4-75-23.4c-28.7-10.3-58.8-21.1-89.2-32.7
			c-15.2-5.8-30.5-11.8-45.8-18.1c-3.8-1.6-7.7-3.2-11.5-4.8c-5.2-2.2-10.4-4.4-15.6-6.7c-38.3-16.6-75.7-35-109.8-55.7
			c-1.4-0.9-2.9-1.8-4.3-2.6c-1.3-0.8-2.7-1.6-4-2.5c-11.2-7-22-14.3-32.4-21.9c-20.2-14.8-38.6-30.6-54.7-47.8
			c-4.8-5.1-9.3-10.2-13.7-15.5c-2.2-2.7-4.4-5.5-6.6-8.3c-0.4-0.5-0.8-1.1-1.2-1.6c-19.5-26.2-33.8-55.2-40.8-87.4
			c-5.7-25.8-10.3-47.2,0-69.9c2.1-4.5,4.5-8.7,7.4-12.5c2-2.7,4.2-5.2,6.5-7.5c23.4-23.2,64.8-31.8,119-34.3c2.6-0.1,5.3-0.2,8-0.3
			c41.1-1.5,89.1,0.1,141.9,1.3c2.7,0.1,5.3,0.1,8,0.2c60.2,1.3,126.5,1.8,195.7-3.6c22-1.7,44.3-4,66.8-7c2.7-0.4,5.4-0.7,8.2-1.1
			c8.5-1.2,17-2.5,25.6-4c0,0,21.3-3.6,55.7-8.7c2.6-0.4,5.2-0.8,8-1.2c21.7-3.2,47.9-6.9,76.7-10.7c2.6-0.3,5.3-0.7,8-1
			c43.9-5.6,93.5-11.3,142.8-15.5c2.7-0.2,5.3-0.4,8-0.7c6.8-0.6,13.5-1.1,20.2-1.6c0,0,0,0,0,0c14.5-0.5,26,0.3,36,2.7
			c12.9,3.2,23.2,9,34,18.2c18,15.4,31.2,34.9,40.9,56.7c8.9,20.1,14.7,42.1,18.4,64.7c1.4,8.4,2.4,16.9,3.2,25.3
			c0.3,2.7,0.5,5.4,0.7,8.1C1061.8,193,1062.3,206.4,1062.2,219.5z"/>
		<path class="st1" d="M921.7,168.7l139.1,10.8c-0.2-2.7-0.4-5.4-0.7-8.1l-139.1-10.8L907.3,5.3c-2.7,0.2-5.3,0.4-8,0.7L912.9,160
			l-147.6-11.4l-8.7-127.2c-2.7,0.3-5.3,0.7-8,1l8.6,125.5l-87.7-6.8c1.4-53.1,2.3-93.9,2.4-108.1c-2.7,0.4-5.4,0.8-8,1.2
			c-0.1,14.6-1,54.5-2.4,106.2l-88.1-6.8l9.1-86.7c-2.7,0.4-5.5,0.8-8.2,1.1l-8.9,84.9l-253-19.6l-0.5-54.7c-2.7,0-5.3-0.1-8-0.2
			l0.6,54.2l-140-10.9L162,57.3c-2.7,0.1-5.3,0.2-8,0.3l2.3,43.7L35,92c-2.4,2.3-4.6,4.8-6.5,7.5l128.4,9.9l8.9,166.4L63.1,271
			c2.1,2.8,4.3,5.6,6.6,8.3l96.5,4.6l4.3,80.6c1.3,0.8,2.7,1.6,4,2.5c1.4,0.9,2.9,1.8,4.3,2.6l-4.6-85.4l132.1,6.3l1.4,135.5
			l-19-0.7c5.2,2.3,10.4,4.5,15.6,6.7c3.8,1.6,7.7,3.2,11.5,4.8l0-2.4l217.2,8.3l-7.2,68.2c2.5,0.7,5.2,1.4,7.8,2.2l7.4-70.1
			l112.3,4.3c-1.1,39.1-2,71.7-2.6,92.1c2.7,0.5,5.3,0.9,8,1.4c0.6-20.5,1.5-53.5,2.7-93.2l116.9,4.5l6.9,101.2
			c2.7,0.1,5.4,0.1,8,0.1l-6.9-101l152.9,5.9l6.2,70.3c2.6-1.1,5.2-2.2,7.7-3.4l-5.8-66.6l77.4,3c1.4-2.6,2.7-5.2,3.9-7.9l-82-3.1
			l-11.4-130.2l119.9,5.7c0.3-2.5,0.6-5.2,0.9-8l-121.5-5.8L921.7,168.7z M173.8,276.2l-8.9-166.1l139.7,10.8l1.6,161.6L173.8,276.2
			z M913.6,168.1l12.6,143.7L776,304.7l-10.2-148L913.6,168.1z M669.3,149.2l88.4,6.9l10.2,148.3l-102.6-4.9
			C666.8,246.9,668.2,194.1,669.3,149.2z M312.6,121.5l252.1,19.5l-16.1,152.9l-234.4-11.1L312.6,121.5z M533.7,434.7l-218.1-8.4
			l-1.4-135.5l233.4,11L533.7,434.7z M653.4,439.3L541.7,435l14-132.7l101.4,4.8C655.8,353.5,654.5,399.4,653.4,439.3z M657.3,299.1
			l-100.8-4.8l16.1-152.6l88.7,6.9C660.2,193.4,658.8,246.4,657.3,299.1z M661.4,439.6c1.1-39.8,2.4-85.7,3.7-132.1l103.4,4.9
			l9,131.7L661.4,439.6z M938.3,450.2l-152.7-5.9l-9-131.6l150.3,7.1L938.3,450.2z"/>
		<g id="figure2">
			<path class="st0" d="M1042.9,901.4c-3.4,5.9-9.6,15.8-24.7,27.8c-3.3,2.6-7,5.3-11.2,8.1c-11.6,7.7-26.9,16-47.2,24.6
				c-3.2,1.3-6.4,2.7-9.8,4c-21.8,8.5-48.9,17.2-82.4,25.7c-10.1,2.5-20.9,5.1-32.2,7.5c-9.3,2-19.1,4.1-29.3,6.1
				c-3.6,0.7-7.1,1.4-10.7,2.1c-3.3,0.7-6.6,1.3-9.9,1.9c-53,10.2-98.4,18.3-139.1,21.3c-3.4,0.3-6.7,0.5-10,0.6
				c-55.9,3-102.9-4.4-148.7-30.4c-12.8-7.3-21-13.5-27.7-19.7c-3.2-3-6.1-5.9-8.9-9.1c-0.8-0.9-1.6-1.7-2.3-2.6
				c-3-3.3-6.1-6.9-9.7-10.8c-7.4-8-16.9-17.3-31.9-29.4c-36.9-29.7-75.5-50.2-113.5-64.9c-3.3-1.3-6.6-2.5-9.8-3.7
				c-35.8-12.9-70.8-21-103.2-27c-3.4-0.6-6.7-1.2-10.1-1.8c-80.8-14.2-143-17.2-155.1-56c-1.9-6.1-2.3-12.4-1.7-18.7
				c0.3-3.3,1-6.5,1.9-9.8c8.6-32,41-63.6,55.3-76.8c1.8-1.7,3.4-3,4.5-4.1c1.7-1.6,3.5-3.1,5.3-4.6c24.2-20.4,51.7-34.9,81.1-44.9
				c3.2-1.1,6.4-2.1,9.7-3.1c39.6-12,82.2-16.2,124.1-15.6c3.3,0,6.7,0.1,10,0.2c72.1,2.3,141.5,18.1,189.9,31.8
				c3.3,1,6.6,1.9,9.7,2.8c22,6.5,38.8,12.2,48.3,15.5c38,13,64.9,25.3,86.4,36.8c3.5,1.8,6.8,3.6,9.9,5.4
				c42.8,24.1,65.1,44.4,124.6,60.1c3.3,0.9,6.6,1.7,10.1,2.5c6.2,1.5,12.8,2.9,19.8,4.3c51.8,10.3,98.6,12.5,137.8,14.9
				c3.4,0.2,6.7,0.4,10,0.6c52.8,3.5,90.4,8.7,105.2,38.1c1,1.9,1.8,3.9,2.5,5.9h0c1.2,3.5,2.1,7,2.7,10.5
				C1067.3,859,1048.2,892.3,1042.9,901.4z"/>
			<path class="st1" d="M953.6,810.5c38.6,6.2,75.2,12.1,108.9,17.5c-0.5-3.6-1.4-7.1-2.7-10.5h0c-14.7-2.4-53.1-8.5-106.6-17.1
				l-1.1-26.9c-3.3-0.2-6.6-0.4-10-0.6l1,25.9c-44.6-7.2-98.7-15.8-157.8-25.3l-0.8-19.9c-3.5-0.8-6.9-1.7-10.1-2.5l0.9,20.8
				c-40.3-6.5-82.8-13.2-126.1-20.2l0.6-60.8c-3.2-1.8-6.5-3.6-9.9-5.4l-0.7,64.6c-25.3-4-50.8-8.1-76.3-12.2
				c-24.1-3.8-47.4-7.6-69.9-11.1l12.2-93.5c-3.1-0.9-6.4-1.9-9.7-2.8l-12.3,94.8c-68.6-10.9-129.4-20.6-182-28.9l4.4-97.7
				c-3.3-0.1-6.7-0.2-10-0.2l-4.4,96.3c-27.6-4.4-52.8-8.3-75.6-11.9c-15.2-2.4-29-4.5-41.5-6.5l-2.5-61c0-0.5-0.1-0.9-0.2-1.3
				c-3.2,1-6.5,2-9.7,3.1l2.3,57.7c-41.5-6.5-67.3-10.4-83.4-12.8c-1.8,1.5-3.6,3-5.3,4.6c-1.1,1-2.7,2.4-4.5,4.1
				c18.2,2.6,50.7,7.6,93.6,14.3l3.6,90.1L15.5,747.4c-0.9,3.3-1.5,6.5-1.9,9.8l154.9,28.1l1.9,46.6c3.3,0.6,6.7,1.2,10.1,1.8
				l-1.9-46.6l107.5,19.5l-2.4,54c3.3,1.2,6.5,2.4,9.8,3.7l2.5-55.9l172.2,31.2l-15.6,120l-13.7-1.1c3.6,3.9,6.7,7.4,9.7,10.8
				l2.7,0.2L451,972c2.8,3.1,5.7,6.1,8.9,9.1l1.4-10.7l175.5,13.5l-0.5,47.3c3.3-0.2,6.6-0.4,10-0.6l0.5-45.9l138,10.6l0.6,13.9
				c3.3-0.6,6.6-1.3,9.9-1.9l-0.5-11.2l40.5,3.1c11.3-2.5,22.1-5,32.2-7.5l-73.1-5.6l-3.7-87.8l157.7,28.6l1.6,39.2
				c3.4-1.3,6.7-2.7,9.8-4l-1.4-33.4l48.6,8.8c4.2-2.8,7.9-5.5,11.2-8.1L958,918.3L953.6,810.5z M286.6,796.6l-108.4-19.6l-3.7-90.4
				c33.5,5.2,72.8,11.4,116.2,18.2L286.6,796.6z M296.5,798.4l4.2-92c55.2,8.7,116.7,18.5,181.2,28.7l-12.3,94.7L296.5,798.4z
				 M636.9,973.8l-174.3-13.4l15.5-119l159.9,29L636.9,973.8z M638.1,860.3l-158.7-28.8l12.4-94.9c48,7.6,97.6,15.5,147.4,23.5
				L638.1,860.3z M649.1,761.7c42.4,6.8,84.9,13.6,126.6,20.2l4.4,104.1l-132.1-24L649.1,761.7z M646.9,974.6l1.1-102.4l132.7,24
				l3.8,88.9L646.9,974.6z M790.2,887.9l-4.4-104.3c54.6,8.8,107.8,17.3,157.8,25.3l4.3,107.6L790.2,887.9z"/>
			<path class="st2" d="M1042.9,901.4c-3.4,5.9-9.6,15.8-24.7,27.8c-3.3,2.6-7,5.3-11.2,8.1c-11.6,7.7-26.9,16-47.2,24.6
				c-3.2,1.3-6.4,2.7-9.8,4c-21.8,8.5-48.9,17.2-82.4,25.7c-10.1,2.5-20.9,5.1-32.2,7.5c-9.3,2-19.1,4.1-29.3,6.1
				c-3.6,0.7-7.1,1.4-10.7,2.1c-3.3,0.7-6.6,1.3-9.9,1.9c-53,10.2-98.4,18.3-139.1,21.3c-3.4,0.3-6.7,0.5-10,0.6
				c-55.9,3-102.9-4.4-148.7-30.4c-12.8-7.3-21-13.5-27.7-19.7c-3.2-3-6.1-5.9-8.9-9.1c-0.8-0.9-1.6-1.7-2.3-2.6
				c-3-3.3-6.1-6.9-9.7-10.8c-7.4-8-16.9-17.3-31.9-29.4c-36.9-29.7-75.5-50.2-113.5-64.9c-3.3-1.3-6.6-2.5-9.8-3.7
				c-35.8-12.9-70.8-21-103.2-27c-3.4-0.6-6.7-1.2-10.1-1.8c-80.8-14.2-143-17.2-155.1-56c-1.9-6.1-2.3-12.4-1.7-18.7
				c0.3-3.3,1-6.5,1.9-9.8c8.6-32,41-63.6,55.3-76.8c1.8-1.7,3.4-3,4.5-4.1c1.7-1.6,3.5-3.1,5.3-4.6c24.2-20.4,51.7-34.9,81.1-44.9
				c3.2-1.1,6.4-2.1,9.7-3.1c39.6-12,82.2-16.2,124.1-15.6c3.3,0,6.7,0.1,10,0.2c72.1,2.3,141.5,18.1,189.9,31.8
				c3.3,1,6.6,1.9,9.7,2.8c22,6.5,38.8,12.2,48.3,15.5c38,13,64.9,25.3,86.4,36.8c3.5,1.8,6.8,3.6,9.9,5.4
				c42.8,24.1,65.1,44.4,124.6,60.1c3.3,0.9,6.6,1.7,10.1,2.5c6.2,1.5,12.8,2.9,19.8,4.3c51.8,10.3,98.6,12.5,137.8,14.9
				c3.4,0.2,6.7,0.4,10,0.6c52.8,3.5,90.4,8.7,105.2,38.1c1,1.9,1.8,3.9,2.5,5.9h0c1.2,3.5,2.1,7,2.7,10.5
				C1067.3,859,1048.2,892.3,1042.9,901.4z"/>
		</g>
		<g id="ball">
			<path class="st3" d="M1056.8,144.8l5.9,79.9c-0.2-0.2-0.3-0.4-0.5-0.5c-0.4,40.1-4.6,76.6-7.5,101.3c-1.6,13.4-3,26.2-4.6,38.3
				c-7.5,56.7-17.9,99.2-52.8,131.5c-9.7,9-20.4,16.3-31.8,22.3c-17.1-0.6-33.9-3-50.1-6.8c-54.7-13-103.1-43.4-138.6-85.4
				c-34.1-40.4-56.3-91.6-60.4-148.4c-1.6-21.1-0.5-41.7,2.8-61.7c7.9-47.9,29-91.7,59.7-127.2C816.2,44.5,868,13.4,927.4,2.3
				c0,0,0,0,0,0c14.5-0.5,26.1,0.3,36,2.7c12.9,3.1,23.2,9,34,18.2c18,15.4,31.2,34.9,40.9,56.7
				C1047.2,100.1,1053.1,122.1,1056.8,144.8z"/>
			<path class="st3" d="M1062.1,224.1c-0.4,40.1-4.6,76.6-7.5,101.3c-1.6,13.4-3,26.2-4.6,38.3c-30.7-7.6-61.3-15.2-92-22.9
				c-7-34.1-14-68.3-21-102.4c31.5-15.2,63-30.4,94.4-45.6C1041.6,203.3,1051.9,213.7,1062.1,224.1z"/>
			<path class="st3" d="M915.3,510.7c-54.7-13-103.1-43.4-138.6-85.4c0.5-1.6,1-3.2,1.6-4.8c38.5-0.4,77.1-0.8,115.7-1.2
				C901,449.8,908.1,480.2,915.3,510.7z"/>
			<path class="st3" d="M845.8,194.6c-28.8,16.3-57.6,32.5-86.5,48.8c-13.5-9.4-26.9-18.8-40.3-28.2c7.9-47.9,29-91.7,59.7-127.2
				c15.9,0.6,31.9,1.2,47.8,1.8C833,124.7,839.4,159.6,845.8,194.6z"/>
			<path class="st3" d="M1038.3,80c-1.8,0.9-3.6,1.9-5.4,2.9c-24.2-22.5-48.5-45.1-72.7-67.6l3.2-10.2c12.9,3.1,23.2,9,34,18.2
				C1015.4,38.7,1028.7,58.2,1038.3,80z"/>
		</g>
		<path id="cups" class="st3" d="M410.1,322.5l-1.6-21.9l-19.9,1.5l-2.8-37.9c8.4-3.9,15.8-11.4,21.7-21.6
			c27.8-9.3,45.7-26.6,43.8-42.5c-1-8.9-9.2-21.9-21.3-22.3c-3.3-0.1-6.2,0.7-8.7,2c-1-4.6-5.2-8-10.1-7.6l-85.9,6.3
			c-4.9,0.4-8.6,4.3-8.9,9c-2.7-0.9-5.7-1.3-8.9-0.7c-11.9,2.2-18,16.3-17.8,25.2c0.5,16,20.7,30.5,49.6,35.7
			c7.3,9.2,15.7,15.6,24.6,18.2l2.8,37.9l-19.9,1.5l1.6,21.9l-94.8,7c-1.7-16.4-14.5-29.3-30.4-31.5l-2-27.1
			c9.5-7.2,18.7-25.2,25.6-51.2c36.6-28.5,55.2-65.3,42.7-86c-2.5-4.1-10.2-13.1-30.9-15.7c0-2.4,0-4.9,0-7.4l-114.7,8.4
			c0.3,2.2,0.6,4.4,1,6.6c-23.1,5.4-30.1,16.3-32,21c-9.7,23.3,16.5,58.9,60,81.6c10.6,23.9,22.2,39.5,32.5,44.4l2,26.7
			c-14.8,4.9-25.2,19.2-24.4,35.3l-44.7,3.3c11.6,8.5,23.8,16.6,36.4,24.4l331.4-24.4l-2-26.9L410.1,322.5z M421.3,189.2
			c2.1-1.8,5.1-3.6,8.4-3.5c7.1,0.2,12.9,9.3,13.6,15.2c1.4,11.6-13.6,23.6-30.8,31.1C417.5,219.8,420.7,205.1,421.3,189.2z
			 M297.7,211.7c-0.2-5.9,4.2-15.8,11.2-17.1c3.3-0.6,6.5,0.8,8.8,2.2c3,15.6,8.2,29.7,14.9,41.1C314.5,233.1,298,223.3,297.7,211.7
			z M258.4,130.6c17.1,2.4,22.8,9.4,24.2,11.8c8.3,13.8-2.3,42.5-32.8,69.1C254.6,188.8,257.8,161.3,258.4,130.6z M120.1,154.3
			c1.1-2.7,6.3-11.5,25.9-16.2c5.3,32.3,13.1,60.4,21.8,82.8C130.1,198.6,113.6,169.9,120.1,154.3z"/>
	</g>
</g>
<g id="main">
	<g id="general_1_">
		<g id="pillow">
			<path class="st4" d="M954.4,727.4c-14.2,35.5-35.6,59.1-49.5,72.1c-0.3,0-0.6,0-0.9,0.1c-37.3,2.2-81.9,1.7-131.5-5.4
				c-93.3-13.4-166.8-44.7-216.3-71c-0.7-5-12.2-103.1,52.7-148.5c9.9-6.9,26.1-15.7,49.5-19.4c100.1,13.9,200.3,27.8,300.4,41.7
				c0.5,0.1,1.1,0.2,1.6,0.2c0.1,0,0.2,0,0.3,0C966,616,977.8,668.7,954.4,727.4z"/>
			<path class="st5" d="M954.4,727.4c-14.2,35.5-35.6,59.1-49.5,72.1c-37.5,2.3-82.4,1.8-132.4-5.4c-93.3-13.4-166.8-44.7-216.3-71
				v-42c0,0,7.9,2.8,21.2,7.2c74.1,24.4,317.5,98.2,322.1,19.7c3.5-60.3,36.7-94.6,59.4-111.1c0.6,0.1,1.3,0.2,1.9,0.3
				C966,616,977.8,668.7,954.4,727.4z"/>
			<linearGradient id="SVGID_1_" gradientUnits="userSpaceOnUse" x1="902.7291" y1="698.3487" x2="968.4377" y2="698.3487">
				<stop  offset="0.1621" style="stop-color:#5A142A"/>
				<stop  offset="0.8767" style="stop-color:#9F6C00"/>
			</linearGradient>
			<path class="st6" d="M954.4,727.4c-14.2,35.5-35.6,59.1-49.5,72.1c-0.3,0-0.6,0-0.9,0.1c-1.1-4.9-1.2-10-1.3-13
				c-0.7-27.3,17.6-35.9,32.3-65.6c13.3-26.9,12-47.3,25.5-123.8c0.1,0,0.2,0,0.3,0C966,616,977.8,668.7,954.4,727.4z"/>
		</g>
		<g id="man">
			<g id="body">
				<path class="st7" d="M886.6,423.9c-4,21.6-8,43.2-12.1,64.9c-0.3,1.4-0.5,2.8-0.8,4.3c-0.2,1.3-0.5,2.6-0.7,3.8
					c-12.3,66.4-24.7,132.9-37,199.3l-57-8.5l-72.2-10.8c-0.2-9.5-0.5-19.4-1.1-29.7c-1-18.4-2.6-37.8-5.1-58.3
					c-1.3-10.6-2.8-21.5-4.6-32.6c-0.5-3-1-5.9-1.5-8.8c-2.2-12.7-4.5-24.9-7.1-36.7c-0.2-0.9-0.4-1.9-0.6-2.8
					c-0.3-1.4-0.6-2.8-0.9-4.2c-0.7-3.1-1.4-6.1-2.1-9.1c-3.6-15.6-7.6-30.3-11.6-44.2c7.7-10.8,14.6-18.9,18.3-23.3
					c5.7-6.7,13.5-14.4,23.7-21.5c4.2-2.6,8.4-5.3,12.7-7.8c2.5-1.5,5.1-2.9,7.7-4.2c9.3-4.7,19.6-8.6,32.2-10.6
					c6.9-1.1,13.3-1.5,19.3-1.3c9.3,0.2,17.5,1.5,24.3,3.1c3.8,0.9,7.2,1.8,10.1,2.6c6.1,1.6,11.8,3.6,17.1,5.8
					C860.2,402.1,876.4,414.6,886.6,423.9z"/>
				<path class="st8" d="M810.8,384.8c-0.2,2-0.4,3.9-0.6,5.8c-1.7,13.3-3.2,24.5-10.8,34.4c-11.4,15.1-35.9,26.2-50.6,17.2
					c-11.2-6.9-12.9-23.2-14-33.4c-0.6-5.6-0.5-10.7,0-15.2c9.3-4.7,19.6-8.6,32.2-10.6C784.7,380.2,799.5,382.3,810.8,384.8z"/>
				<path class="st8" d="M874.6,488.8c-0.3,1.4-0.5,2.8-0.8,4.3c-59.9-17.2-152,5.2-186.8,14.9c-0.3-1.4-0.6-2.8-0.9-4.2
					c13.7-3.9,36-9.6,61.6-14.1C784.7,483.1,835.8,477.9,874.6,488.8z"/>
				<linearGradient id="SVGID_2_" gradientUnits="userSpaceOnUse" x1="683.9935" y1="572.9572" x2="725.4827" y2="572.9572">
					<stop  offset="0" style="stop-color:#FFFFFF"/>
					<stop  offset="0.7781" style="stop-color:#87AEB4"/>
				</linearGradient>
				<path class="st9" d="M725.2,657.5l-19.4-10.3c-1-18.4-2.6-37.8-5.1-58.3c-1.3-10.6-2.8-21.5-4.6-32.6c-0.5-3-1-5.9-1.5-8.8
					c-2.2-12.7-4.5-24.9-7.1-36.7c-0.2-0.9-0.4-1.9-0.6-2.8c-0.3-1.4-0.6-2.8-0.9-4.2c-0.7-3.1-1.4-6.1-2.1-9.1
					c3.7-3.6,10-6.6,20.8-6.1C729.5,489.6,725.2,657.5,725.2,657.5z"/>
				<linearGradient id="SVGID_3_" gradientUnits="userSpaceOnUse" x1="746.9011" y1="596.5422" x2="873.0582" y2="596.5422">
					<stop  offset="0" style="stop-color:#271C41"/>
					<stop  offset="1" style="stop-color:#153E5C"/>
				</linearGradient>
				<path class="st10" d="M873.1,496.9c-12.3,66.4-24.7,132.9-37,199.3l-57-8.5c-14.9-30.8-39.3-83-30.2-103.4
					C759.1,561.1,840.4,514.8,873.1,496.9z"/>
				<path class="st11" d="M838.1,393.1c-14.7,3.5-41.7,8.7-49.4,1.8c-4.4-4-4.1-8.8-2.2-13.2c9.3,0.2,17.5,1.5,24.3,3.1
					c3.8,0.9,7.2,1.8,10.1,2.6C827,389,832.7,391,838.1,393.1z"/>
			</g>
			<g id="legs_2_">
				<g id="legs_1_">
					<path class="st4" d="M763.9,842.5c0.2,5-3,6.6-8.6,15.1c-0.6,0.9-1.1,1.7-1.6,2.6c-9.6,15.7-7.6,25.3-21,49.1
						c-4.5,8-7.8,12.3-10.8,11.8c-0.1,0-0.3-0.1-0.4-0.1c-2.8-0.9-4.5-5.8-5-9.6c0-0.3-0.1-0.5-0.1-0.8l-3.3,1.9
						c-0.1,0.1-0.2,0.1-0.3,0.1c-0.2,0-0.4-0.1-0.5-0.3c-0.2-0.3-0.1-0.6,0.2-0.7l3.7-2.2c0-0.4,0-0.8,0-1.2l-3.2-0.5l-2.7-0.4
						c-0.3,0-0.5-0.3-0.5-0.6c0-0.3,0.3-0.5,0.6-0.5l4.1,0.6l1.8,0.3c0.1-0.6,0.2-1.1,0.3-1.7c0.7-3.1,2.1-5.5,2.9-6.9
						c4.3-7.9,7-16.7,8.4-24.8l-2.5,0.4c0,0-0.1,0-0.1,0c-0.3,0-0.5-0.2-0.5-0.5c0-0.3,0.2-0.6,0.5-0.6l2.9-0.4
						c0.1-0.8,0.2-1.5,0.3-2.2l-3.6-2.1c-0.3-0.2-0.3-0.5-0.2-0.7c0.2-0.2,0.5-0.3,0.7-0.2l3.2,1.9c0.5-3.8,0.6-7.4,0.6-10.5
						c-0.1-2.5-0.2-6.2-1.2-10.3l-5-1.9c-0.3-0.1-0.4-0.4-0.3-0.7c0.1-0.3,0.4-0.4,0.7-0.3l4.3,1.6c-0.1-0.2-0.1-0.4-0.2-0.6
						c-1.1-3.5-2.8-7.1-5.8-10.4c-2.3-2.6-4.7-4.3-6.5-5.4c-0.1-0.1-0.2-0.2-0.4-0.3c-1.6-1.4-3.2-2.7-4.9-4.1
						c10.7-4.3,21.4-8.6,32.1-12.8c0.8,0.8,1.9,1.9,3.2,3.3c3.1,3.2,5.8,6.1,8.1,8.6c1.4,1.5,2.6,2.9,3.7,4.2
						C761.6,834.6,763.8,838.5,763.9,842.5z"/>
					<path class="st4" d="M841.2,900.8c0,0.3-0.3,0.5-0.6,0.5l-1.2-0.2c-0.1,1.3-0.4,2.6-0.7,3.9l1,1c0.2,0.2,0.2,0.5,0,0.8
						c-0.1,0.1-0.2,0.2-0.4,0.2s-0.3-0.1-0.4-0.2l-0.6-0.6c-0.5,1.3-1,2.5-1.7,3.4c-0.8,1-1.7,1.7-2.7,1.9
						c-6.1,1.1-15.4-17.2-26.9-39.8c-2.2-4.3-4.6-9.4-9.7-15.1c-0.5-0.6-1-1.1-1.5-1.6c-4.5-4.6-7.1-5.4-8.8-8.2
						c-0.2-0.3-0.4-0.6-0.5-1c-1.9-4.3-0.8-9.4,1.3-14.1c1.7-3.7,4-7.1,5.9-9.7c0,0,0,0,0,0l-2-1.7c-0.2-0.2-0.3-0.5-0.1-0.8
						c0.2-0.2,0.5-0.2,0.8-0.1l2,1.7c0.7-0.9,1.4-1.7,1.9-2.3l-0.6-2.9c-0.1-0.3,0.1-0.6,0.4-0.6c0.3-0.1,0.6,0.1,0.6,0.4l0.4,2.1
						c0,0,0,0,0.1-0.1c1.1-1.3,2.3-2.3,3.5-3.1c0,0,0,0,0,0c11.9-8.4,25.6,2.3,23.4,12.9c-1,4.5-2,9.5-2.2,16.1
						c0,2.1-0.1,5.8,0.3,10.4l3.2-1.7c0.3-0.2,0.6,0,0.7,0.2c0.1,0.3,0,0.6-0.2,0.7l-3.6,1.9c0.1,0.5,0.1,0.9,0.2,1.4l5.5,1
						c0.3,0.1,0.5,0.3,0.4,0.6c0,0.3-0.3,0.4-0.5,0.4c0,0-0.1,0-0.1,0l-5.1-0.9c0.9,7,3.1,15.4,7.8,23.3l5.9,0.9
						c0.3,0,0.5,0.3,0.5,0.6c0,0.3-0.3,0.5-0.6,0.5l-5-0.7c0.5,0.8,1,1.5,1.5,2.3c0.6,0.9,1.3,1.7,1.9,2.5l0.6,0.7
						c0.1,0.1,0.1,0.2,0.1,0.3c1.8,2.4,3.3,4.8,3.8,8.3c0.2,1.2,0.2,2.4,0.2,3.6l1.3,0.2C841,900.2,841.2,900.5,841.2,900.8z"/>
					<linearGradient id="SVGID_4_" gradientUnits="userSpaceOnUse" x1="721.5804" y1="875.3589" x2="763.9418" y2="875.3589">
						<stop  offset="0.1621" style="stop-color:#5A142A"/>
						<stop  offset="0.8767" style="stop-color:#9F6C00"/>
					</linearGradient>
					<path class="st12" d="M763.9,842.5c0.2,5-3,6.6-8.6,15.1c-0.6,0.9-1.1,1.7-1.6,2.6c-9.6,15.7-7.6,25.3-21,49.1
						c-4.5,8-7.8,12.3-10.8,11.8c-0.1,0-0.3-0.1-0.4-0.1c12.3-17.2,29.6-71.4,35.8-91.4C761.6,834.6,763.8,838.5,763.9,842.5z"/>
					<path class="st7" d="M763.9,842.5c0.2,5-3,6.6-8.6,15.1c-0.6,0.9-1.1,1.7-1.6,2.6c-1.5-1.7-2.8-3.9-3.8-6.9
						c-3.9-11.6,0-21.7,3.7-27.9C760.3,832.6,763.8,837.5,763.9,842.5z"/>
					<linearGradient id="SVGID_5_" gradientUnits="userSpaceOnUse" x1="785.5485" y1="871.5811" x2="836.5365" y2="871.5811">
						<stop  offset="0.1621" style="stop-color:#5A142A"/>
						<stop  offset="0.8767" style="stop-color:#9F6C00"/>
					</linearGradient>
					<path class="st13" d="M836.5,909.5c-0.8,1-1.7,1.7-2.7,1.9c-6.1,1.1-15.4-17.2-26.9-39.8c-2.2-4.3-4.6-9.4-9.7-15.1
						c-0.5-0.6-1-1.1-1.5-1.6c-5-5.2-7.7-5.5-9.3-9.2c-1.9-4.3-0.8-9.4,1.3-14.1c3.9,2.5,9.4,6.7,14.8,13c8.1,9.5,11.1,18.3,15.1,28
						C821.5,881.7,827.4,894.4,836.5,909.5z"/>
					<path class="st7" d="M796.2,854.4c-0.1,0.2-0.3,0.4-0.4,0.6c-5-5.2-7.7-5.5-9.3-9.2c-3.4-7.7,2.9-17.9,7.3-23.7
						C798.4,827.7,805.7,840.1,796.2,854.4z"/>
					<linearGradient id="SVGID_6_" gradientUnits="userSpaceOnUse" x1="710.0716" y1="906.9128" x2="714.8335" y2="906.9128">
						<stop  offset="0.1621" style="stop-color:#5A142A"/>
						<stop  offset="0.8736" style="stop-color:#FFFFFF"/>
					</linearGradient>
					<path class="st14" d="M710.7,906.2l4.1,0.6c-0.5,0.3-1.1,0.6-1.6,0.8l-2.7-0.4c-0.3,0-0.5-0.3-0.5-0.6
						C710.1,906.3,710.4,906.1,710.7,906.2z"/>
					<linearGradient id="SVGID_7_" gradientUnits="userSpaceOnUse" x1="716.9211" y1="875.4241" x2="739.8428" y2="875.4241">
						<stop  offset="0.1621" style="stop-color:#5A142A"/>
						<stop  offset="0.8736" style="stop-color:#FFFFFF"/>
					</linearGradient>
					<path class="st15" d="M729.5,891c-4.6,7-8.7,11.6-12.6,14.5c0.7-3.1,2.1-5.5,2.9-6.9c4.3-7.9,7-16.7,8.4-24.8l-2.5,0.4
						c0,0-0.1,0-0.1,0c-0.3,0-0.5-0.2-0.5-0.5c0-0.3,0.2-0.6,0.5-0.6l2.9-0.4c0.1-0.8,0.2-1.5,0.3-2.2l-3.6-2.1
						c-0.3-0.2-0.3-0.5-0.2-0.7c0.2-0.2,0.5-0.3,0.7-0.2l3.2,1.9c0.5-3.8,0.6-7.4,0.6-10.5c-0.1-2.5-0.2-6.2-1.2-10.3l-5-1.9
						c-0.3-0.1-0.4-0.4-0.3-0.7c0.1-0.3,0.4-0.4,0.7-0.3l4.3,1.6c-0.1-0.2-0.1-0.4-0.2-0.6C738.3,851.4,747.8,862.8,729.5,891z"/>
					<linearGradient id="SVGID_8_" gradientUnits="userSpaceOnUse" x1="785.5485" y1="830.7048" x2="800.8004" y2="830.7048">
						<stop  offset="0.1621" style="stop-color:#5A142A"/>
						<stop  offset="0.8736" style="stop-color:#FFFFFF"/>
					</linearGradient>
					<path class="st16" d="M800.8,814.6c-0.7,0.8-9.9,17.9-13.7,32.1c-0.2-0.3-0.4-0.6-0.5-1c-1.9-4.3-0.8-9.4,1.3-14.1
						c1.7-3.7,4-7.1,5.9-9.7c0,0,0,0,0,0l-2-1.7c-0.2-0.2-0.3-0.5-0.1-0.8c0.2-0.2,0.5-0.2,0.8-0.1l2,1.7c0.7-0.9,1.4-1.7,1.9-2.3
						l-0.6-2.9c-0.1-0.3,0.1-0.6,0.4-0.6c0.3-0.1,0.6,0.1,0.6,0.4l0.4,2.1c0,0,0,0,0.1-0.1C798.4,816.5,799.6,815.5,800.8,814.6z"/>
				</g>
				<g id="legs">
					<path class="st17" d="M864.1,514.1c-10.5,69.2-21,138.5-31.5,207.7c-2.1,13.7-4.2,27.4-6.3,41.1c-2.8,1.5-6.8,3.5-11.8,5.4
						c-26.1,9.7-49.9,5.1-59.2,3.2c-17.6-3.6-33.1-11.2-45.8-19.4c-3.4-2.2-6.7-4.4-9.7-6.7c-16.8-12.3-27-23.7-28.4-22.4
						c-0.3,0.2-0.2,0.9,0.4,2.1c3.2,6.8,21.5,30.5,73.9,91.5c0,0,0,0,0,0c-5.4,4.4-10.7,8.8-16.1,13.2c-2.5,2.1-5,4.1-7.5,6.2
						c-2.3-1.9-4.6-3.8-6.8-5.7c-1.6-1.4-3.2-2.7-4.9-4.1c-39.6-33.5-71.2-64-94.9-88.2c-35.1-35.9-55.4-60.9-62.4-96.8
						c-1.5-7.8-4.6-23.9-1.7-37.7c1.4-6.6,4.2-12.8,9.2-17.2c5.2-4.6,11.9-6.7,19.4-7c4.8-0.2,9.9,0.2,15.1,1.1
						c12.6,2.2,26.1,7.1,37.6,11.3c31.2,11.3,43.3,24,92.3,53c0.4,0.3,0.9,0.5,1.3,0.8c19.4,11.5,35.4,20.4,45.2,25.8
						c9.2-19.1,16.3-34.2,20.4-43c24.1-51.3,30.7-67,46.5-87C848.6,528.4,858.3,519.3,864.1,514.1z"/>
					<path class="st18" d="M864.1,514.1c-10.5,69.2-21,138.5-31.5,207.7c-2.1,13.7-4.2,27.4-6.3,41.1c-2.8,1.5-6.8,3.5-11.8,5.4
						c-26.1,9.7-49.9,5.1-59.2,3.2c-17.6-3.6-33.1-11.2-45.8-19.4c-3.4-2.2-6.7-4.4-9.7-6.7c-16.8-12.3-27-23.7-28.4-22.4
						c-0.3,0.2-0.2,0.9,0.4,2.1c-42.2-55.8-76.5-117-91.8-145.8c4.8-0.2,9.9,0.2,15.1,1.1c12.6,2.2,26.1,7.1,37.6,11.3
						c31.2,11.3,43.3,24,92.3,53c0.4,0.3,0.9,0.5,1.3,0.8c19.4,11.5,35.4,20.4,45.2,25.8c9.2-19.1,16.3-34.2,20.4-43
						c24.1-51.3,30.7-67,46.5-87C848.6,528.4,858.3,519.3,864.1,514.1z"/>
					<linearGradient id="SVGID_9_" gradientUnits="userSpaceOnUse" x1="595.0459" y1="613.3261" x2="724.9594" y2="613.3261">
						<stop  offset="0" style="stop-color:#FFFFFF"/>
						<stop  offset="0.7781" style="stop-color:#87AEB4"/>
					</linearGradient>
					<path class="st19" d="M725,644.8c-1.9,0.3-3.6,0.6-5.1,0.8c-42,5.8-99.3-41.7-124.8-65.1c12.6,2.2,26.1,7.1,37.6,11.3
						C663.8,603.1,676,615.8,725,644.8z"/>
					<path class="st20" d="M832.6,721.8c-2.1,13.7-4.2,27.4-6.3,41.1c-2.8,1.5-6.8,3.5-11.8,5.4c-26.1,9.7-49.9,5.1-59.2,3.2
						c-17.6-3.6-33.1-11.2-45.8-19.4C733.6,751.6,791.5,747.5,832.6,721.8z"/>
					<path class="st21" d="M904.9,605.3c-0.1,0.4-0.2,0.7-0.4,1.1c-0.3,0.8-0.5,1.7-0.8,2.5v0c-1.6,4.9-3.4,10.3-5.5,16.2
						c-0.8,2.2-1.5,4.5-2.3,6.8c-1.2,3.4-2.4,6.9-3.7,10.5c-0.9,2.5-1.8,5.1-2.8,7.8c-1.7,4.8-3.4,9.7-5.2,14.7v0
						c-0.5,1.4-1,2.8-1.5,4.2c-2.1,5.9-4.3,12-6.6,18.2c-0.1,0.2-0.2,0.5-0.3,0.7c-18.9,51.9-39.9,108.1-48.2,130c0,0,0,0.1,0,0.1
						c-2.2,5.9-3.5,9.3-3.5,9.3c-3.8-1.3-7.5-2.6-11.2-4c-2.8-1-5.5-2-8.3-2.9c-2.5-0.9-4.9-1.7-7.4-2.6c0.9-7.6,2.2-18,3.7-30.6
						c0.3-2.4,0.6-4.9,0.9-7.5c1.3-10.3,2.7-21.8,4.2-34.2c0.8-6.9,1.7-14,2.6-21.4c0.1-1,0.2-2,0.4-3v0c0.8-6,1.5-12.2,2.3-18.5v0
						c0.1-1.1,0.3-2.2,0.4-3.3c1.9-15.2,3.9-31.1,5.9-47.3c0.2-1.9,0.5-3.9,0.8-6c0.3-2.2,0.6-4.6,0.9-7
						c2.9-21.1,7.2-49.3,12.3-72.1c0.1-0.3,0.1-0.5,0.2-0.8c0.6-2.7,1.2-5.3,1.8-7.8c1.4-5.7,2.9-10.9,4.4-15.4
						c0.4-1.1,0.7-2.1,1.1-3.1c1.8-4.8,3.6-8.4,5.4-10.6c1-1.2,2.2-2.5,3.4-3.7c1.6-1.6,3.4-3.3,5.4-4.9c7-5.9,16-11.1,24.3-11.7
						c1.6-0.1,3.1-0.1,4.6,0.2c0.5,0.1,0.9,0.2,1.4,0.3c12.9,3.1,21.9,17.9,25.5,37.3c0.4,2.2,0.8,4.5,1,6.8
						C912.1,569.5,910.5,587.9,904.9,605.3z"/>
					<g class="st22">
						<g>
							<path class="st23" d="M963.9,486.3L963.9,486.3z"/>
							<path class="st23" d="M904.5,606.4c-0.3,0.8-0.5,1.7-0.8,2.5l-0.8-2L904.5,606.4z"/>
							<path class="st23" d="M898.2,625.1c-0.8,2.2-1.5,4.5-2.3,6.8l-2-5.2L898.2,625.1z"/>
							<path class="st23" d="M892.2,642.4c-0.9,2.5-1.8,5.1-2.8,7.8l-1.3,0.5l-2.4-6.3l6.4-2.2L892.2,642.4z"/>
							<path class="st23" d="M884.2,664.9L884.2,664.9c-0.5,1.4-1,2.8-1.5,4.2l-3.6,1.3l-2.4-6.3l6.4-2.2L884.2,664.9z"/>
							<path class="st23" d="M876.2,687.2c-0.1,0.2-0.2,0.5-0.3,0.7L870,690l-2.4-6.3l6.4-2.2L876.2,687.2z"/>
							<polygon class="st23" points="860.9,709.7 867.3,707.5 864.9,701.2 858.5,703.4 							"/>
							<polygon class="st23" points="851.5,730.2 857.9,728 855.4,721.7 849,723.9 							"/>
							<polygon class="st23" points="842.4,749.9 848.8,747.7 846.3,741.4 840,743.6 							"/>
							<polygon class="st23" points="833.3,769.6 839.7,767.4 837.3,761.1 830.9,763.3 							"/>
							<polygon class="st23" points="824.2,789.3 830.6,787.1 828.2,780.8 821.8,783 							"/>
							<polygon class="st23" points="816.1,807 822.5,804.8 820,798.5 813.6,800.7 							"/>
							<path class="st23" d="M812.9,823.3c-2.8-1-5.5-2-8.3-2.9l6.3-2.2L812.9,823.3z"/>
							<path class="st23" d="M910.2,553.4l-2.2,0.8l-2.4-6.3l3.6-1.3C909.6,548.8,909.9,551.1,910.2,553.4z"/>
							<polygon class="st23" points="898.9,573.9 905.3,571.7 902.8,565.4 896.4,567.6 							"/>
							<polygon class="st23" points="888.3,585.3 890.7,591.6 897.1,589.4 894.7,583 							"/>
							<polygon class="st23" points="879.2,605 881.7,611.3 888,609.1 885.6,602.7 							"/>
							<polygon class="st23" points="870.1,624.7 872.6,631 879,628.8 876.5,622.5 							"/>
							<polygon class="st23" points="863.5,650.7 869.9,648.5 867.4,642.2 861,644.4 							"/>
							<polygon class="st23" points="854,671.2 860.4,669 858,662.7 851.6,664.9 							"/>
							<polygon class="st23" points="845,690.9 851.3,688.7 848.9,682.4 842.5,684.6 							"/>
							<polygon class="st23" points="835.9,710.6 842.3,708.4 839.8,702.1 833.4,704.3 							"/>
							<polygon class="st23" points="826.8,730.3 833.2,728.1 830.7,721.8 824.4,724 							"/>
							<polygon class="st23" points="816.2,741.7 818.6,748 825,745.8 822.6,739.4 							"/>
							<polygon class="st23" points="807.1,761.4 809.6,767.7 816,765.5 813.5,759.2 							"/>
							<path class="st23" d="M806.9,785.2l-5.9,2.1c0.3-2.4,0.6-4.9,0.9-7.5l2.5-0.9L806.9,785.2z"/>
							<polygon class="st23" points="891.6,523.6 894,529.9 900.4,527.7 898,521.4 							"/>
							<polygon class="st23" points="882.4,543.5 884.9,549.8 891.3,547.5 888.8,541.2 							"/>
							<polygon class="st23" points="873.3,563.2 875.8,569.5 882.2,567.2 879.7,560.9 							"/>
							<polygon class="st23" points="864.3,582.9 866.7,589.2 873.1,587 870.7,580.6 							"/>
							<polygon class="st23" points="855.2,602.6 857.6,608.9 864,606.7 861.6,600.3 							"/>
							<polygon class="st23" points="847,620.3 849.5,626.6 855.9,624.3 853.4,618 							"/>
							<polygon class="st23" points="838,640 840.4,646.3 846.8,644 844.3,637.7 							"/>
							<polygon class="st23" points="828.9,659.7 831.3,666 837.7,663.7 835.3,657.4 							"/>
							<polygon class="st23" points="819.8,679.4 822.2,685.7 828.6,683.5 826.2,677.1 							"/>
							<path class="st23" d="M819.2,703.9l-6.4,2.2l-1.4-3.5v0c0.1-1.1,0.3-2.2,0.4-3.3l4.9-1.7L819.2,703.9z"/>
							<path class="st23" d="M810.1,723.6l-1.3,0.5c0.1-1,0.2-2,0.4-3L810.1,723.6z"/>
							<path class="st23" d="M882.3,509.1l-4,1.4l-0.6-1.6C879.3,508.8,880.8,508.8,882.3,509.1z"/>
							<polygon class="st23" points="866.8,523.9 869.3,530.2 875.7,527.9 873.2,521.6 							"/>
							<polygon class="st23" points="857.7,543.6 860.2,549.9 866.6,547.6 864.1,541.3 							"/>
							<polygon class="st23" points="856,559 849.6,561.2 852,567.6 858.4,565.3 							"/>
							<polygon class="st23" points="846.9,578.7 840.5,580.9 843,587.3 849.3,585 							"/>
							<polygon class="st23" points="837.8,598.4 831.4,600.7 833.9,607 840.3,604.7 							"/>
							<polygon class="st23" points="822.4,620.4 824.8,626.7 831.2,624.4 828.7,618.1 							"/>
							<path class="st23" d="M821.7,644.9l-3.2,1.1c0.3-2.2,0.6-4.6,0.9-7L821.7,644.9z"/>
							<path class="st23" d="M855.1,524.9l-6.4,2.2l-0.6-1.7c1.6-1.6,3.4-3.3,5.4-4.9L855.1,524.9z"/>
							<path class="st23" d="M846,544.6l-6.4,2.2l-1.5-3.9c0.4-1.1,0.7-2.1,1.1-3.1l4.4-1.5L846,544.6z"/>
							<path class="st23" d="M836.9,564.3l-5,1.8c0.6-2.7,1.2-5.3,1.8-7.8l0.8-0.3L836.9,564.3z"/>
						</g>
						<g>
							<path class="st23" d="M827.7,817.9c0,0,0,0.1,0,0.1L827.7,817.9L827.7,817.9z"/>
						</g>
					</g>
					<linearGradient id="SVGID_10_" gradientUnits="userSpaceOnUse" x1="806.127" y1="656.1885" x2="846.1779" y2="656.1885">
						<stop  offset="0" style="stop-color:#FFFFFF"/>
						<stop  offset="0.7781" style="stop-color:#87AEB4"/>
					</linearGradient>
					<path class="st24" d="M815.6,741.4c-3.4,1.7-6.5,3-9.5,4.1c3.4-27.7,7.4-59.9,11.6-93.4c2.7-21.2,7.8-57.2,14-85.2
						C841.3,603.7,865.8,716.3,815.6,741.4z"/>
					<linearGradient id="SVGID_11_" gradientUnits="userSpaceOnUse" x1="550.1104" y1="719.8646" x2="729.4895" y2="719.8646">
						<stop  offset="0" style="stop-color:#FFFFFF"/>
						<stop  offset="0.7781" style="stop-color:#87AEB4"/>
					</linearGradient>
					<path class="st25" d="M729.5,829.9c-2.5,2.1-5,4.1-7.5,6.2c-2.3-1.9-4.6-3.8-6.8-5.7c-1.6-1.4-3.2-2.7-4.9-4.1
						c-39.6-33.5-71.2-64-94.9-88.2c-35.1-35.9-55.4-60.9-62.4-96.8c-1.5-7.8-4.6-23.9-1.7-37.7
						C579.4,637.3,700.1,792.2,729.5,829.9z"/>
				</g>
			</g>
			<g id="joystick">
				<path class="st26" d="M812.8,547.2c0,0.1,0,0.2,0,0.3c-0.1,2.5-0.3,5.7-0.9,8.7c-0.3,1.2-0.6,2.3-1.1,3.3v0c-0.7,1.6-1.7,3-3,4
					c-4.5,3.3-8.6-1.5-21.7-1.3c-1.6,0-4.3,0.1-7.6,0.5c-0.2,0-0.5,0.1-0.7,0.1c-0.2,0-0.5,0.1-0.7,0.1c-0.4,0.1-0.8,0.1-1.2,0.2
					c-0.5,0.1-0.9,0.2-1.4,0.3c-0.4,0.1-0.8,0.2-1.2,0.3c-0.2,0.1-0.5,0.1-0.7,0.2c-0.1,0-0.2,0-0.2,0.1c-0.3,0.1-0.5,0.1-0.8,0.2
					c-0.3,0.1-0.7,0.2-1,0.3c-0.5,0.1-0.9,0.3-1.4,0.5c-0.7,0.2-1.4,0.5-2,0.8c-0.2,0.1-0.4,0.1-0.5,0.2c-1,0.4-2,0.9-2.8,1.3
					c-0.2,0.1-0.5,0.2-0.7,0.4c-0.5,0.3-1,0.6-1.5,0.9c-0.9,0.6-1.7,1.1-2.5,1.6c-0.4,0.3-0.8,0.6-1.2,0.8c-0.2,0.1-0.3,0.2-0.5,0.3
					c-0.2,0.1-0.3,0.2-0.5,0.3c-0.3,0.2-0.6,0.3-0.9,0.5c-0.1,0-0.1,0.1-0.2,0.1c0,0,0,0,0,0c-0.4,0.2-0.7,0.3-1.1,0.4
					c-0.9,0.2-1.9,0.3-3.1,0.2c-7.7-1-12.4-10.6-13-11.8c-0.6-1.2-2.6-5-2.5-10.3c0.3-11.2,7.5-24.7,14.7-25.7
					c4-0.6,8.8,2.7,9.9,3.5c3.1,2.4,5.8,6,7.6,10.3c0,0,0,0,0,0l8.8-1.4c0.2-3,0.9-5.7,1.9-8.2c0.6-1.5,1.3-2.8,2.1-4
					c0.7-1,4.2-5.6,8.3-6.4c2.6-0.5,5.8,0.5,8.9,2.5c3.2,2,6.3,5,8.9,8.4c1,1.4,2,2.9,2.8,4.3c0.9,1.6,1.6,3.3,2.2,4.9
					C813.2,542.2,812.9,545.2,812.8,547.2z"/>
				<path class="st20" d="M812.8,547.2c0,0.1,0,0.2,0,0.3c-0.1,2.5-0.3,5.7-0.9,8.7c-0.6,1.7-0.8,2.6-1.1,3.3v0c-0.7,1.6-1.7,3-3,4
					c-4.5,3.3-8.6-1.4-21.6-1.3H786c-1.4,0-4.1,0-7.6,0.5c-0.2,0-0.5,0.1-0.7,0.1c-0.2,0-0.5,0.1-0.7,0.1c-0.4,0.1-0.8,0.1-1.2,0.2
					c-0.5,0.1-0.9,0.2-1.4,0.3c-0.4,0.1-0.8,0.2-1.2,0.3c-0.2,0.1-0.5,0.1-0.7,0.2c-0.1,0-0.2,0-0.2,0.1c-0.3,0.1-0.5,0.1-0.8,0.2
					c-0.3,0.1-0.7,0.2-1,0.3c-0.5,0.1-0.9,0.3-1.4,0.5c-0.7,0.2-1.4,0.5-2,0.8c-0.2,0.1-0.4,0.1-0.5,0.2c-1,0.4-2,0.9-2.8,1.3
					c-0.2,0.1-0.5,0.2-0.7,0.4c-0.5,0.3-1,0.6-1.5,0.9c-0.9,0.6-1.7,1.1-2.5,1.6c-0.4,0.3-0.8,0.6-1.2,0.8c-0.2,0.1-0.3,0.2-0.5,0.3
					c-0.2,0.1-0.3,0.2-0.5,0.3c-0.3,0.2-0.6,0.3-0.9,0.5c-0.1,0-0.1,0.1-0.2,0.1c-0.4,0.2-0.7,0.3-1.1,0.4c-0.9,0.2-1.9,0.3-3.1,0.2
					c-7.7-1-12.4-10.6-13-11.8c-0.6-1.2-2.6-5-2.5-10.3c1.6,1.2,3.4,2.4,5.5,3.6c6.6,3.6,13.2,4.8,19.1,5c6.6,0.2,12.3-0.9,16.1-1.7
					c3.2-0.6,6.6-1.5,10-2.7c10.5-3.6,20.7-9.3,25.3-15.9C813.2,542.2,812.9,545.2,812.8,547.2z"/>
				
					<ellipse transform="matrix(0.9872 -0.1594 0.1594 0.9872 -77.5725 126.4261)" class="st20" cx="749.2" cy="546.7" rx="7.9" ry="6.2"/>
				
					<ellipse transform="matrix(0.9872 -0.1594 0.1594 0.9872 -75.017 126.7196)" class="st20" cx="752.3" cy="530.9" rx="5.3" ry="4.1"/>
				
					<ellipse transform="matrix(0.9872 -0.1594 0.1594 0.9872 -73.689 132.6034)" class="st20" cx="789.6" cy="525.6" rx="5.3" ry="4.1"/>
				
					<ellipse transform="matrix(0.9872 -0.1594 0.1594 0.9872 -75.7237 134.2064)" class="st4" cx="798.6" cy="539.1" rx="6.6" ry="5.1"/>
				
					<ellipse transform="matrix(0.9998 -2.170841e-02 2.170841e-02 0.9998 -11.7707 16.8431)" class="st4" cx="769.9" cy="550.6" rx="2.3" ry="1.8"/>
				
					<ellipse transform="matrix(0.9998 -2.170841e-02 2.170841e-02 0.9998 -11.6397 16.8649)" class="st4" cx="771" cy="544.6" rx="2.3" ry="1.8"/>
				
					<ellipse transform="matrix(0.9998 -2.170841e-02 2.170841e-02 0.9998 -11.6993 17.0363)" class="st4" cx="778.8" cy="547.4" rx="2.3" ry="1.8"/>
				<path class="st27" d="M812.8,547.2c0,0.1,0,0.2,0,0.3c-0.1,2.5-0.3,5.7-0.9,8.7c-0.3,1.2-0.6,2.3-1.1,3.3v0c-0.7,1.6-1.7,3-3,4
					c-4.5,3.3-8.6-1.5-21.7-1.3c-1.6,0-4.3,0.1-7.6,0.5c-0.2,0-0.5,0.1-0.7,0.1c-0.2,0-0.5,0.1-0.7,0.1c-0.4,0.1-0.8,0.1-1.2,0.2
					c-0.5,0.1-0.9,0.2-1.4,0.3c-0.4,0.1-0.8,0.2-1.2,0.3c-0.2,0.1-0.5,0.1-0.7,0.2c-0.1,0-0.2,0-0.2,0.1c-0.3,0.1-0.5,0.1-0.8,0.2
					c-0.3,0.1-0.7,0.2-1,0.3c-0.5,0.1-0.9,0.3-1.4,0.5c-0.7,0.2-1.4,0.5-2,0.8c-0.2,0.1-0.4,0.1-0.5,0.2c-1,0.4-2,0.9-2.8,1.3
					c-0.2,0.1-0.5,0.2-0.7,0.4c-0.5,0.3-1,0.6-1.5,0.9c-0.9,0.6-1.7,1.1-2.5,1.6c-0.4,0.3-0.8,0.6-1.2,0.8c-0.2,0.1-0.3,0.2-0.5,0.3
					c-0.2,0.1-0.3,0.2-0.5,0.3c-0.3,0.2-0.6,0.3-0.9,0.5c-0.1,0-0.1,0.1-0.2,0.1c-0.1-0.1-0.1-0.1-0.2-0.1c-0.1,0-0.2,0.1-0.2,0.1v0
					l5-13l7.9-20.4c0,0,0,0,0,0l8.8-1.4c0.4-4.7,1.8-8.9,4-12.2c0.7-1,4.2-5.6,8.3-6.4c2.6-0.5,5.8,0.5,8.9,2.5c3.2,2,6.3,5,8.9,8.4
					c2.2,2.9,3.9,6.1,5,9.3C813.2,542.2,812.9,545.2,812.8,547.2z"/>
				<linearGradient id="SVGID_12_" gradientUnits="userSpaceOnUse" x1="779.0208" y1="526.2166" x2="810.0007" y2="526.2166">
					<stop  offset="0" style="stop-color:#271C41"/>
					<stop  offset="1" style="stop-color:#153E5C"/>
				</linearGradient>
				<path class="st28" d="M810,533.9l-31-4.8c0.6-1.5,1.3-2.8,2.1-4c0.7-1,4.2-5.6,8.3-6.4c2.6-0.5,5.8,0.5,8.9,2.5
					c3.2,2,6.3,5,8.9,8.4C808.2,531,809.2,532.4,810,533.9z"/>
				<linearGradient id="SVGID_13_" gradientUnits="userSpaceOnUse" x1="786.1552" y1="551.8107" x2="812.9392" y2="551.8107">
					<stop  offset="0" style="stop-color:#271C41"/>
					<stop  offset="1" style="stop-color:#153E5C"/>
				</linearGradient>
				<path class="st29" d="M812.8,547.2c0,0.1,0,0.2,0,0.3c-0.1,2.5-0.3,5.7-0.9,8.7c-0.6,1.7-0.8,2.6-1.1,3.3v0c-0.7,1.6-1.7,3-3,4
					c-4.5,3.3-8.6-1.4-21.6-1.3l0.7-7.5c10.5-3.6,20.7-9.3,25.3-15.9C813.2,542.2,812.9,545.2,812.8,547.2z"/>
			</g>
			<g id="hands_1_">
				<path class="st30" d="M762.7,562.6c0,0-1.6,0.9-3.9,2.2c-2.3,1.3-5.2,2.9-7.7,4.3c-3.2,1.8-5.8,3.2-5.8,3.2
					c-0.4-0.1-0.7-0.2-1.1-0.3c-2.2,1.2-4,1.3-5,1.3c-5-0.1-9-4.3-12.3-8.8c-1-1.3-1.9-2.6-2.7-3.9c-1.5-2.3-2.6-4.2-3.2-5.4
					l-3.2-3.2c0-2.2-0.4-6.4-2.7-10.9c-1.9-3.7-4.3-6.1-5.9-7.4c0.4-0.3,2.8-2.3,6-4.5c0.5-0.3,1-0.7,1.5-1c6-4,14-8.5,18.4-7
					c0.2,0.1,1.7,0.6,3.8,1.5c0.7,0.3,1.4,0.6,2.2,1c3.7,1.8,3.8,2.2,6.1,3.2c5.1,2.2,8.5,1.5,8.8,2.7c0,0,0,0,0,0
					c0.2,1.1-2.3,2.7-4.3,3.5c-5.5,2-11-1-12.8-2.1c0,0,0,0,0,0c-0.6,0.6-11.2,12.4-10.7,19.8c0.5,7,14.6,14.6,16.1,14.3
					c0.1,0,0.1,0,0.1-0.1c0,0,0-0.1,0-0.2c-0.1-1.4,5.7-4.1,11.9-4c0.8,0,3.1,0.1,4.8,0.5C761.8,561.6,762.6,562,762.7,562.6z"/>
				<path class="st30" d="M827.5,542.1c-0.3,0.7-0.6,1.4-1,2.1c0,0-1.3,4.1-3.4,8.3c-2.1,4.2-4.9,8.4-8,8.7c-1.8,0.1-3.5,0.1-5.1,0
					c-0.3,0.2-0.7,0.4-1,0.5c0,0-2.9-0.8-6.4-1.8h0c-5.6-1.5-12.8-3.5-12.8-3.5c0-0.5,0.5-1,1.3-1.5c1.5-0.9,4-1.5,4.9-1.8
					c4-1.1,5.8,1.1,12.5,1.1c2.1,0,3.1,0,3.9-0.3c0.1-0.1,0.2-0.1,0.4-0.2c4.6-2.4,5.6-12,3.8-19.2c-0.1-0.3-0.2-0.6-0.2-0.9
					c-2.2-7.4-7.8-11.8-10.5-13.6c-1.2,1.6-3.1,3.8-6.2,5.4c-5.3,2.8-11.4,2.6-12.7,1.7c-0.1-0.1-0.2-0.2-0.2-0.3
					c-0.1-0.6,1.3-1,6.2-4.5c2.4-1.7,3.6-2.6,4.3-3.5c1.1-1.4,1.2-2.4,2.2-4.2c0.3-0.5,0.6-1.1,1-1.8c0,0,0.9-1.5,1.9-2.8
					c1.5-1.9,6.5-2.1,13.3-0.9c2.7,0.5,5.7,1.1,9,2c1.8,0.5,3.6,1,5.4,1.5C830.4,515.2,833.2,528.8,827.5,542.1z"/>
				<path class="st31" d="M827.5,542.1l-3.1-31.1c1.8,0.5,3.6,1,5.4,1.5C830.4,515.2,833.2,528.8,827.5,542.1z"/>
				<path class="st31" d="M726.9,564.5c-1-1.3-1.9-2.6-2.7-3.9c-1.5-2.3-2.6-4.2-3.2-5.4l-3.2-3.2c0-2.2-0.4-6.4-2.7-10.9
					c-1.9-3.7-4.3-6.1-5.9-7.4c0.4-0.3,2.8-2.3,6-4.5L726.9,564.5z"/>
				<path class="st11" d="M751.4,533.1c-5.5,2-11-1-12.8-2.1c0.7-1.6,2.3-3.1,6.3-2.2c4.8,1.1,8.7,1,10.9,0.8c0,0,0,0,0,0
					C756,530.8,753.4,532.4,751.4,533.1z"/>
				<path class="st11" d="M760.7,561.3c-3.1,1.1-8.8,3.1-11.8,4.6c-2.2,1.1-3.8,0.2-4.9-0.9c0.1,0,0.1,0,0.1-0.1c0,0,0-0.1,0-0.2
					c-0.1-1.4,5.7-4.1,11.9-4C756.7,560.9,759,560.9,760.7,561.3z"/>
				<path class="st11" d="M817.7,533.7c-0.2,0.2-0.8,0.5-1.3,0.7c-0.1-0.3-0.2-0.6-0.2-0.9c-2.2-7.4-7.8-11.8-10.5-13.6
					c-1.2,1.6-3.1,3.8-6.2,5.4c-5.3,2.8-11.4,2.6-12.7,1.7c2.6-0.4,5.9-1.2,9.4-3c6.4-3.3,7.3-6.5,10.8-6.5
					C814,517.7,819.6,532,817.7,533.7z"/>
				<path class="st11" d="M812.6,553.7c-2.9,4.2-13.2,2.5-19.6,1.5c-0.8-0.1-1.4-0.2-1.9-0.4c1.5-0.9,4-1.5,4.9-1.8
					c4-1.1,5.8,1.1,12.5,1.1c2.1,0,3.1,0,3.9-0.3C812.4,553.8,812.5,553.7,812.6,553.7z"/>
				<linearGradient id="SVGID_14_" gradientUnits="userSpaceOnUse" x1="716.566" y1="526.1108" x2="738.7222" y2="526.1108">
					<stop  offset="0.2219" style="stop-color:#87AEB4"/>
					<stop  offset="1" style="stop-color:#FFFFFF"/>
				</linearGradient>
				<path class="st32" d="M738.7,522.7c-0.2,0.4-0.4,0.9-0.6,1.3c-5.5,11-16.2,7.1-21.5,4.2c6-4,14-8.5,18.4-7
					C735.1,521.3,736.6,521.8,738.7,522.7z"/>
				<linearGradient id="SVGID_15_" gradientUnits="userSpaceOnUse" x1="799.2186" y1="511.4286" x2="815.4456" y2="511.4286">
					<stop  offset="0.2219" style="stop-color:#87AEB4"/>
					<stop  offset="1" style="stop-color:#FFFFFF"/>
				</linearGradient>
				<path class="st33" d="M815.4,509c-1.2,4.9-10.3,5.6-16.2,5.6c0.3-0.5,0.6-1.1,1-1.8c0,0,0.9-1.5,1.9-2.8
					C803.6,508,808.6,507.8,815.4,509z"/>
			</g>
			<g id="hands">
				<path class="st7" d="M968.4,522.9c0,0-0.5,0.9-1.1,1.8c-7.8,10.9-41.4,14.8-69.7,16.1c-22.7,1-42.1,0.4-42.1,0.4
					c-4.1-0.1-7.9-0.3-11.5-0.4c-5.9-0.2-11.1-0.5-15.4-0.7v-28c3.5-0.6,7.3-1.3,11.6-2c13.5-2.2,30.7-4.3,50.8-5.6
					c20.8-1.3,30.4-1.1,31.2-4.3c1.2-4.4-14.2-15.1-89.3-43c7.3-18.8,14.5-37.7,21.8-56.5c3.8,1.9,7.4,3.8,11,5.7
					c25.3,13.7,44.3,27.9,57.6,39c6.9,5.7,12.7,11,17.6,15.9c2.6,2.6,4.9,5,7.1,7.4c17.4,19.3,20.5,32.1,21.3,40.3
					C969.9,515.9,970.2,519.3,968.4,522.9z"/>
				<path class="st7" d="M713.4,530.5c2.9,9,5.7,17.9,8.6,26.9c-5.5,1.9-10.7,3.7-15.8,5.3c-2.9,1-5.8,1.9-8.6,2.8
					c-81.6,25.9-108.9,21-116.5,9.1c-8.3-12.9,1.9-39.5,23.4-69.3c3.9-5.5,8.3-11.1,13-16.7c23.4-28.2,55.3-57.5,89.9-79.2
					c0.2-0.2,0.5-0.3,0.7-0.4c1.9-1.2,3.7-2.3,5.5-3.4c5.9-3.5,11.3-6.5,15.9-8.9c0,0,0,0,0,0c1.2-0.6,2.3-1.2,3.4-1.7
					c-7.2,23.3-14.3,46.6-21.5,69.9c-2.5,6.1-5,12.2-7.5,18.3c-5.7,3-12.4,6.9-19.6,11.6c-7.3,4.8-15.2,10.6-23.4,17.4
					c-9.1,7.7-27.8,23.4-24.7,29.1c1.7,3.1,13.3,0.8,36.6-3.2c7.2-1.3,13.8-2.5,19.9-3.6c3.7-0.7,7.2-1.3,10.5-1.9
					C706.7,531.7,710.2,531.1,713.4,530.5z"/>
				<path class="st8" d="M843.9,540.8c-5.9-0.2-11.1-0.5-15.4-0.7v-28c3.5-0.6,7.3-1.3,11.6-2L843.9,540.8z"/>
				<path class="st8" d="M722,557.4c-5.5,1.9-10.7,3.7-15.8,5.3l-3.4-30.2c3.9-0.7,7.4-1.4,10.5-2
					C716.2,539.4,719.1,548.4,722,557.4z"/>
				<linearGradient id="SVGID_16_" gradientUnits="userSpaceOnUse" x1="617.342" y1="448.9436" x2="707.2903" y2="448.9436">
					<stop  offset="0" style="stop-color:#FFFFFF"/>
					<stop  offset="0.7781" style="stop-color:#87AEB4"/>
				</linearGradient>
				<path class="st34" d="M707.3,409.3c0,0.6,0,1.2,0,1.8c-0.2,3.5-0.6,7.1-1.4,10.7c-3.2,14.2-15.2,27-30.8,37.8
					c-1.4,0.9-2.7,1.9-4.2,2.8c-16.6,10.9-36.4,19.7-53.5,26.1C640.7,460.3,672.6,431.1,707.3,409.3z"/>
				<linearGradient id="SVGID_17_" gradientUnits="userSpaceOnUse" x1="897.5386" y1="504.8022" x2="969.737" y2="504.8022">
					<stop  offset="0" style="stop-color:#271C41"/>
					<stop  offset="1" style="stop-color:#153E5C"/>
				</linearGradient>
				<path class="st35" d="M968.4,522.9c0,0-0.5,0.9-1.1,1.8c-7.8,10.9-41.4,14.8-69.7,16.1c11.3-6.3,25-13.8,40.7-22.2
					c19.9-10.6,18.4-30.3,9.6-49.9c17.4,19.3,20.5,32.1,21.3,40.3C969.9,515.9,970.2,519.3,968.4,522.9z"/>
				<linearGradient id="SVGID_18_" gradientUnits="userSpaceOnUse" x1="865.5688" y1="435.9785" x2="940.8181" y2="435.9785">
					<stop  offset="0" style="stop-color:#271C41"/>
					<stop  offset="1" style="stop-color:#153E5C"/>
				</linearGradient>
				<path class="st36" d="M940.8,461.4c-2.1,0.9-4.4,1.7-6.9,2.4c-36.7,10.7-58.7-31.7-68.4-57.3c25.3,13.7,44.3,27.9,57.6,39
					C930,451.2,935.9,456.5,940.8,461.4z"/>
			</g>
			<g id="neck">
				<path class="st30" d="M779.3,428c-7,3.9-18,5.3-24.9,0c-1.3-1-2.3-2.1-3.1-3.4c-1.9-3.1-2.7-7.6-3.3-14.8
					c-0.3-4.3-0.6-9.5-0.9-16c-0.1-2.6-0.3-6-0.5-10c-0.2-3.3-0.3-7-0.5-11.1c-0.3-6-0.7-12.8-1.1-20.3c15.5-1,31.1-1.9,46.6-2.9
					c0.7,8.2,3.1,37.4,3.1,38.1C794.9,393,795.3,418.9,779.3,428z"/>
				<path class="st31" d="M746.2,372.6c0.4,9.1,0.8,16.3,1,21.1c0.3,6.5,0.5,11.7,0.9,16c20.6,6.7,26.1-39.8,26.1-39.8L746.2,372.6z
					"/>
				<linearGradient id="SVGID_19_" gradientUnits="userSpaceOnUse" x1="746.7281" y1="404.1685" x2="753.2435" y2="404.1685">
					<stop  offset="0" style="stop-color:#FFFFFF"/>
					<stop  offset="0.7781" style="stop-color:#87AEB4"/>
				</linearGradient>
				<path class="st37" d="M753.2,412.1c-0.2,5.8-0.9,9.8-1.8,12.5c-1.9-3.1-2.7-7.6-3.3-14.8c-0.3-4.3-0.6-9.5-0.9-16
					c-0.1-2.6-0.3-6-0.5-10C750,386.6,753.8,393.8,753.2,412.1z"/>
			</g>
			<g id="head">
				<g id="face">
					<path class="st30" d="M798.6,326.7c-1.1,6.9-1.7,7.4-4.3,21.3c-1,5.2-1.8,9.7-2.4,13.4c-0.1,0.7-0.2,1.4-0.4,2.1
						c-1.4,1.7-6.9,8.4-14.9,14.4c-6.8,5.1-16.9,11.9-29.2,10.5c-0.3,0-0.7-0.1-1-0.1c-2.5-0.4-12.7-2.3-18.1-10.6
						c-1.5-2.3-2-4.2-2.8-10.5c-0.1-1.3-0.3-2.9-0.5-4.6c0,0-1-9.9-1.5-21.7c-0.4-8.3-0.6-17.6-0.1-24.9c0.1-1.3,0.2-2.6,0.2-2.6
						c0-0.2,0-0.3,0-0.5c0.1-1.3,0.2-2.6,0.4-3.8c0.1-0.8,0.2-1.5,0.3-2.3c0.1-1,1.5-7.5,4.9-14.1c1.6-3.3,3.8-6.7,6.5-9.4
						c0.3-0.3,0.5-0.5,0.8-0.8c13.3-12.4,39.4-12.1,53.1,0.5c5.5,5,7.8,11,8.6,12.9C802,305.2,800.7,313.6,798.6,326.7z"/>
					<linearGradient id="SVGID_20_" gradientUnits="userSpaceOnUse" x1="710.571" y1="311.6915" x2="729.2202" y2="311.6915">
						<stop  offset="0.2219" style="stop-color:#87AEB4"/>
						<stop  offset="1" style="stop-color:#FFFFFF"/>
					</linearGradient>
					<path class="st38" d="M736.7,282.5c-4.2,13.2-10.1,34.8-13,58.4c-0.4-8.3-0.6-17.6-0.1-24.9c0.1-1.3,0.2-2.6,0.2-2.6
						c0-0.2,0-0.3,0-0.5c0.1-1.3,0.2-2.6,0.4-3.8c0.1-0.8,0.2-1.5,0.3-2.3c0.1-1,1.5-7.5,4.9-14.1c1.6-3.3,3.8-6.7,6.5-9.4
						C736.1,283,736.4,282.8,736.7,282.5z"/>
					<linearGradient id="SVGID_21_" gradientUnits="userSpaceOnUse" x1="725.6695" y1="377.8049" x2="747.4814" y2="377.8049">
						<stop  offset="0" style="stop-color:#87AEB4"/>
						<stop  offset="0.8116" style="stop-color:#FFFFFF"/>
					</linearGradient>
					<path class="st39" d="M747.5,388.4c-0.3,0-0.7-0.1-1-0.1c-2.5-0.4-12.7-2.3-18.1-10.6c-1.5-2.3-2-4.2-2.8-10.5L747.5,388.4z"/>
				</g>
				<path id="smile" class="st40" d="M738.6,364.3c-0.8,0-1.5-0.1-2.1-0.1c-0.4,0-0.6-0.4-0.6-0.7c0-0.4,0.4-0.6,0.7-0.6
					c1.9,0.3,4.8,0.3,7.8-1.1c5.4-2.4,7.3-7.6,7.8-9.1c0.1-0.3,0.5-0.5,0.8-0.4c0.3,0.1,0.5,0.5,0.4,0.8c-0.5,1.6-2.6,7.2-8.5,9.9
					C742.6,364,740.4,364.3,738.6,364.3z"/>
				<g id="eyes">
					<circle class="st40" cx="750.9" cy="328.1" r="2.8"/>
					<circle class="st40" cx="729.4" cy="327.9" r="2.8"/>
				</g>
				<g id="brows">
					
						<rect x="744.9" y="312.6" transform="matrix(-0.9487 0.3161 -0.3161 -0.9487 1574.7271 372.7236)" class="st40" width="24.4" height="3"/>
					<path class="st40" d="M734.7,316.5l-0.9,2.8l-10.2-3.4c0.1-0.9,0.1-1.7,0.2-2.6c0-0.2,0-0.3,0-0.5L734.7,316.5z"/>
				</g>
				<path id="hair" class="st40" d="M798.6,326.7c-0.7,4.7-1.3,6.4-2.3,11.4c-1.1,5.2-1.8,7.7-2,9.9c-0.4,3.9,0.2,4.8-0.3,9.2
					c-0.3,2.8-0.7,5-1.1,6.5c-0.5-2.3-0.8-4.8-1.1-7.5c-0.8-9.4,0.5-17.5,2.2-23.7c-4.7,1.1-9.3,2.2-14,3.2
					c-1.2-1.6-8-11.2-5.4-23.7c1.7-8.1,6.5-13.1,8.6-15.1c-6.8-2.7-17.2-5.9-30.1-6.5c-9.6-0.4-17.7,0.8-23.8,2.2
					c1.6-3.3,3.8-6.7,6.5-9.4c13-13.2,39.9-13.2,53.9-0.3c5.5,5,7.8,11,8.6,12.9C802,305.2,800.7,313.6,798.6,326.7z"/>
				<g id="ear">
					<path class="st30" d="M778.1,331C778.1,331,778.1,331,778.1,331c0.8,5.2,4.9,9.9,10.5,10.1c6.4,0.3,11.6-5.4,11.6-11.6
						c0-2.9-1.1-5.7-3-7.8c-2.1-2.5-5.3-4-8.6-3.9c-5.2,0.2-9.4,4.5-10.4,9.3c-0.1,0.4-0.2,0.8-0.2,1.3
						C777.9,329.3,777.9,330.1,778.1,331z"/>
					<path class="st11" d="M778.1,331C778.1,331,778.1,331,778.1,331c0.4,1.7,1,3.3,1.9,4.9c5.8-4.7,11.5-9.5,17.3-14.2
						c-2.1-2.5-5.3-4-8.6-3.9c-5.2,0.2-9.4,4.5-10.4,9.3c-0.1,0.4-0.2,0.8-0.2,1.3C777.9,329.3,777.9,330.1,778.1,331z"/>
				</g>
				<g id="nose">
					<path class="st41" d="M742.4,351.9c-3.8,0.8-8.9,1.4-11.5,0.2c-0.6-0.3-1.1-0.7-1.4-1.2c-1.1-2,1-4.7,4.3-10.8
						c3.2-5.9,5.4-11,6.8-14.4v0.1C741.2,334.4,741.8,343.1,742.4,351.9z"/>
					<linearGradient id="SVGID_22_" gradientUnits="userSpaceOnUse" x1="729.2153" y1="338.8083" x2="740.573" y2="338.8083">
						<stop  offset="0" style="stop-color:#87AEB4"/>
						<stop  offset="0" style="stop-color:#87AEB4"/>
						<stop  offset="0.3255" style="stop-color:#FFFFFF"/>
					</linearGradient>
					<path class="st42" d="M740.6,325.6L740.6,325.6l-9.7,26.4c-0.6-0.3-1.1-0.7-1.4-1.2c-1.1-2,1-4.7,4.3-10.8
						C737,334.1,739.2,329,740.6,325.6z"/>
				</g>
			</g>
		</g>
		<g id="tv">
			<path class="st43" d="M593.1,419.1l-379.3,22.7c-1.2,0.1-2.4,0.5-3.4,1.2l0,0c0,0,0,0,0,0c0,0,0,0,0,0
				c-0.5,0.3-10.4,6.6-10.9,15.2l7.1-0.4v276.7c0,4.5,3.2,8.5,7.2,8.9L590.1,782l4,7.8l7.1-10.3c1.5-1.6,2.5-3.7,2.5-6.1V428.3
				C603.6,422.9,598.8,418.7,593.1,419.1z"/>
			<path class="st26" d="M585.5,793l-379.3-38.9c-4-0.4-7.2-4.4-7.2-8.9V461.1c0-4.5,3.2-8.3,7.2-8.6l379.3-22.7
				c5.8-0.3,10.5,3.8,10.5,9.3v345.1C596.1,789.7,591.3,793.6,585.5,793z"/>
			<linearGradient id="SVGID_23_" gradientUnits="userSpaceOnUse" x1="199" y1="611.4543" x2="596.0682" y2="611.4543">
				<stop  offset="0" style="stop-color:#FFFFFF"/>
				<stop  offset="1" style="stop-color:#BDD3DE"/>
			</linearGradient>
			<path class="st44" d="M596.1,439.1v345.1c0,5.4-4.8,9.4-10.5,8.8l-163.5-16.8l-215.9-22.1c-2.4-0.2-4.5-1.8-5.8-3.9
				c-0.9-1.4-1.4-3.2-1.4-5V461.1c0-4.5,3.2-8.3,7.2-8.6l379.3-22.7c2.9-0.2,5.6,0.8,7.5,2.5C594.9,434,596.1,436.4,596.1,439.1z"/>
			<linearGradient id="SVGID_24_" gradientUnits="userSpaceOnUse" x1="200.442" y1="612.7231" x2="596.0682" y2="612.7231">
				<stop  offset="0.144" style="stop-color:#365588;stop-opacity:0.7"/>
				<stop  offset="1" style="stop-color:#002544;stop-opacity:0.4"/>
			</linearGradient>
			<path class="st45" d="M596.1,439.1v345.1c0,5.4-4.8,9.4-10.5,8.8l-379.3-38.9c-2.4-0.2-4.5-1.8-5.8-3.9L593,432.4
				C594.9,434,596.1,436.4,596.1,439.1z"/>
			<linearGradient id="SVGID_25_" gradientUnits="userSpaceOnUse" x1="541.2636" y1="727.0421" x2="677.3453" y2="535.6682">
				<stop  offset="1.133815e-02" style="stop-color:#0B224C"/>
				<stop  offset="1" style="stop-color:#BDD3DE;stop-opacity:0.2"/>
			</linearGradient>
			<path class="st46" d="M596.1,512.9v271.3c0,5.4-4.8,9.4-10.5,8.8l-163.5-16.8C482.7,683.8,559.3,567.5,596.1,512.9z"/>
			<path class="st7" d="M372.9,606.6L333.2,715l-81.1,221.4c5.1,2.5,8.4,7.9,8,13.9c-0.5,8-7.4,14-15.4,13.5
				c-8-0.5-14-7.4-13.5-15.4c0.5-8,7.4-14,15.4-13.5c0,0,0.1,0,0.2,0L329,710.8l38.8-106.1c0.5-1.4,2.1-2.1,3.5-1.6
				S373.5,605.2,372.9,606.6z"/>
			<path class="st7" d="M505.7,976.3c-8.2,0.8-15.5-5.2-16.3-13.4c-0.6-6.1,2.5-11.7,7.5-14.5L465,848.3l-77.3-243
				c-0.5-1.5,0.3-3.1,1.8-3.5c1.5-0.5,3.1,0.3,3.5,1.8l80.6,253.5l28.5,89.6c0.2,0,0.4-0.1,0.5-0.1c8.2-0.8,15.5,5.2,16.3,13.4
				C519.9,968.2,513.9,975.5,505.7,976.3z"/>
			<path class="st47" d="M372.9,606.6L333.2,715l-4.2-4.3l38.8-106.1c0.5-1.4,2.1-2.1,3.5-1.6S373.5,605.2,372.9,606.6z"/>
			<path class="st47" d="M473.7,857.1l-8.7-8.8l-77.3-243c-0.5-1.5,0.3-3.1,1.8-3.5c1.5-0.5,3.1,0.3,3.5,1.8L473.7,857.1z"/>
		</g>
	</g>
</g>
</svg>
